%TF.GenerationSoftware,KiCad,Pcbnew,(5.1.7)-1*%
%TF.CreationDate,2021-11-09T13:07:33-06:00*%
%TF.ProjectId,IFM Fourses Expander,49464d20-466f-4757-9273-657320457870,rev?*%
%TF.SameCoordinates,Original*%
%TF.FileFunction,Legend,Bot*%
%TF.FilePolarity,Positive*%
%FSLAX46Y46*%
G04 Gerber Fmt 4.6, Leading zero omitted, Abs format (unit mm)*
G04 Created by KiCad (PCBNEW (5.1.7)-1) date 2021-11-09 13:07:33*
%MOMM*%
%LPD*%
G01*
G04 APERTURE LIST*
%ADD10C,0.100000*%
%ADD11C,0.010000*%
%ADD12C,0.150000*%
G04 APERTURE END LIST*
D10*
X119751904Y-153990000D02*
X119847142Y-153942380D01*
X119990000Y-153942380D01*
X120132857Y-153990000D01*
X120228095Y-154085238D01*
X120275714Y-154180476D01*
X120323333Y-154370952D01*
X120323333Y-154513809D01*
X120275714Y-154704285D01*
X120228095Y-154799523D01*
X120132857Y-154894761D01*
X119990000Y-154942380D01*
X119894761Y-154942380D01*
X119751904Y-154894761D01*
X119704285Y-154847142D01*
X119704285Y-154513809D01*
X119894761Y-154513809D01*
X119275714Y-154942380D02*
X119275714Y-153942380D01*
X118704285Y-154942380D01*
X118704285Y-153942380D01*
X118228095Y-154942380D02*
X118228095Y-153942380D01*
X117990000Y-153942380D01*
X117847142Y-153990000D01*
X117751904Y-154085238D01*
X117704285Y-154180476D01*
X117656666Y-154370952D01*
X117656666Y-154513809D01*
X117704285Y-154704285D01*
X117751904Y-154799523D01*
X117847142Y-154894761D01*
X117990000Y-154942380D01*
X118228095Y-154942380D01*
D11*
%TO.C,G\u002A\u002A\u002A*%
G36*
X124709293Y-143303977D02*
G01*
X124684452Y-143344466D01*
X124668780Y-143403335D01*
X124668413Y-143464321D01*
X124670554Y-143474700D01*
X124694193Y-143528357D01*
X124722519Y-143535932D01*
X124747082Y-143499997D01*
X124760523Y-143436281D01*
X124760618Y-143366529D01*
X124748448Y-143312762D01*
X124737168Y-143298134D01*
X124709293Y-143303977D01*
G37*
X124709293Y-143303977D02*
X124684452Y-143344466D01*
X124668780Y-143403335D01*
X124668413Y-143464321D01*
X124670554Y-143474700D01*
X124694193Y-143528357D01*
X124722519Y-143535932D01*
X124747082Y-143499997D01*
X124760523Y-143436281D01*
X124760618Y-143366529D01*
X124748448Y-143312762D01*
X124737168Y-143298134D01*
X124709293Y-143303977D01*
G36*
X124086836Y-143143604D02*
G01*
X124053736Y-143165833D01*
X124002705Y-143222650D01*
X123986620Y-143276186D01*
X124007574Y-143335119D01*
X124067659Y-143408127D01*
X124125777Y-143464541D01*
X124196335Y-143532126D01*
X124249531Y-143587063D01*
X124276422Y-143619977D01*
X124278023Y-143624103D01*
X124255555Y-143636075D01*
X124200188Y-143642154D01*
X124187090Y-143642344D01*
X124108401Y-143650666D01*
X124043048Y-143670797D01*
X124041022Y-143671851D01*
X124002866Y-143695009D01*
X124008660Y-143709291D01*
X124036323Y-143721062D01*
X124114501Y-143736701D01*
X124215424Y-143738232D01*
X124312807Y-143725610D01*
X124328893Y-143721565D01*
X124385225Y-143694659D01*
X124401763Y-143653968D01*
X124377405Y-143596203D01*
X124311052Y-143518077D01*
X124237341Y-143447989D01*
X124155678Y-143372747D01*
X124107349Y-143322354D01*
X124086756Y-143288706D01*
X124088307Y-143263698D01*
X124099037Y-143247631D01*
X124152733Y-143218191D01*
X124240934Y-143220139D01*
X124348154Y-143247378D01*
X124393153Y-143252876D01*
X124405533Y-143227657D01*
X124383118Y-143177422D01*
X124325540Y-143141350D01*
X124247300Y-143121991D01*
X124162898Y-143121893D01*
X124086836Y-143143604D01*
G37*
X124086836Y-143143604D02*
X124053736Y-143165833D01*
X124002705Y-143222650D01*
X123986620Y-143276186D01*
X124007574Y-143335119D01*
X124067659Y-143408127D01*
X124125777Y-143464541D01*
X124196335Y-143532126D01*
X124249531Y-143587063D01*
X124276422Y-143619977D01*
X124278023Y-143624103D01*
X124255555Y-143636075D01*
X124200188Y-143642154D01*
X124187090Y-143642344D01*
X124108401Y-143650666D01*
X124043048Y-143670797D01*
X124041022Y-143671851D01*
X124002866Y-143695009D01*
X124008660Y-143709291D01*
X124036323Y-143721062D01*
X124114501Y-143736701D01*
X124215424Y-143738232D01*
X124312807Y-143725610D01*
X124328893Y-143721565D01*
X124385225Y-143694659D01*
X124401763Y-143653968D01*
X124377405Y-143596203D01*
X124311052Y-143518077D01*
X124237341Y-143447989D01*
X124155678Y-143372747D01*
X124107349Y-143322354D01*
X124086756Y-143288706D01*
X124088307Y-143263698D01*
X124099037Y-143247631D01*
X124152733Y-143218191D01*
X124240934Y-143220139D01*
X124348154Y-143247378D01*
X124393153Y-143252876D01*
X124405533Y-143227657D01*
X124383118Y-143177422D01*
X124325540Y-143141350D01*
X124247300Y-143121991D01*
X124162898Y-143121893D01*
X124086836Y-143143604D01*
G36*
X124597359Y-143142583D02*
G01*
X124584368Y-143152418D01*
X124550811Y-143190899D01*
X124529825Y-143248779D01*
X124516790Y-143340233D01*
X124514473Y-143366990D01*
X124508301Y-143495345D01*
X124516290Y-143584328D01*
X124541707Y-143644392D01*
X124587819Y-143685992D01*
X124619503Y-143703062D01*
X124686692Y-143732409D01*
X124732451Y-143740217D01*
X124780658Y-143728373D01*
X124807561Y-143717918D01*
X124864294Y-143669262D01*
X124901116Y-143583333D01*
X124915727Y-143474117D01*
X124812125Y-143474117D01*
X124804198Y-143554657D01*
X124786872Y-143606977D01*
X124782963Y-143611741D01*
X124722691Y-143640431D01*
X124655275Y-143625854D01*
X124624122Y-143602269D01*
X124598231Y-143548708D01*
X124585263Y-143464305D01*
X124586721Y-143367925D01*
X124599556Y-143293851D01*
X124634215Y-143243411D01*
X124691318Y-143219051D01*
X124750310Y-143225737D01*
X124780688Y-143250102D01*
X124800252Y-143303148D01*
X124810770Y-143384050D01*
X124812125Y-143474117D01*
X124915727Y-143474117D01*
X124916205Y-143470549D01*
X124907735Y-143341325D01*
X124888813Y-143253738D01*
X124842798Y-143165717D01*
X124771122Y-143115268D01*
X124685427Y-143106265D01*
X124597359Y-143142583D01*
G37*
X124597359Y-143142583D02*
X124584368Y-143152418D01*
X124550811Y-143190899D01*
X124529825Y-143248779D01*
X124516790Y-143340233D01*
X124514473Y-143366990D01*
X124508301Y-143495345D01*
X124516290Y-143584328D01*
X124541707Y-143644392D01*
X124587819Y-143685992D01*
X124619503Y-143703062D01*
X124686692Y-143732409D01*
X124732451Y-143740217D01*
X124780658Y-143728373D01*
X124807561Y-143717918D01*
X124864294Y-143669262D01*
X124901116Y-143583333D01*
X124915727Y-143474117D01*
X124812125Y-143474117D01*
X124804198Y-143554657D01*
X124786872Y-143606977D01*
X124782963Y-143611741D01*
X124722691Y-143640431D01*
X124655275Y-143625854D01*
X124624122Y-143602269D01*
X124598231Y-143548708D01*
X124585263Y-143464305D01*
X124586721Y-143367925D01*
X124599556Y-143293851D01*
X124634215Y-143243411D01*
X124691318Y-143219051D01*
X124750310Y-143225737D01*
X124780688Y-143250102D01*
X124800252Y-143303148D01*
X124810770Y-143384050D01*
X124812125Y-143474117D01*
X124915727Y-143474117D01*
X124916205Y-143470549D01*
X124907735Y-143341325D01*
X124888813Y-143253738D01*
X124842798Y-143165717D01*
X124771122Y-143115268D01*
X124685427Y-143106265D01*
X124597359Y-143142583D01*
G36*
X125087241Y-143144380D02*
G01*
X125073756Y-143227702D01*
X125068674Y-143359745D01*
X125068585Y-143384535D01*
X125062686Y-143518309D01*
X125045211Y-143605705D01*
X125032441Y-143631022D01*
X125010721Y-143682624D01*
X125022813Y-143712402D01*
X125067762Y-143738098D01*
X125126007Y-143742485D01*
X125173390Y-143725858D01*
X125185219Y-143710410D01*
X125187738Y-143666535D01*
X125179047Y-143594872D01*
X125171894Y-143558892D01*
X125156752Y-143464739D01*
X125164111Y-143389041D01*
X125197223Y-143303147D01*
X125202098Y-143292847D01*
X125214590Y-143236926D01*
X125190085Y-143177365D01*
X125186447Y-143171713D01*
X125142754Y-143117890D01*
X125109963Y-143108278D01*
X125087241Y-143144380D01*
G37*
X125087241Y-143144380D02*
X125073756Y-143227702D01*
X125068674Y-143359745D01*
X125068585Y-143384535D01*
X125062686Y-143518309D01*
X125045211Y-143605705D01*
X125032441Y-143631022D01*
X125010721Y-143682624D01*
X125022813Y-143712402D01*
X125067762Y-143738098D01*
X125126007Y-143742485D01*
X125173390Y-143725858D01*
X125185219Y-143710410D01*
X125187738Y-143666535D01*
X125179047Y-143594872D01*
X125171894Y-143558892D01*
X125156752Y-143464739D01*
X125164111Y-143389041D01*
X125197223Y-143303147D01*
X125202098Y-143292847D01*
X125214590Y-143236926D01*
X125190085Y-143177365D01*
X125186447Y-143171713D01*
X125142754Y-143117890D01*
X125109963Y-143108278D01*
X125087241Y-143144380D01*
G36*
X119077241Y-135564380D02*
G01*
X119063756Y-135647702D01*
X119058674Y-135779745D01*
X119058585Y-135804535D01*
X119052686Y-135938309D01*
X119035211Y-136025705D01*
X119022441Y-136051022D01*
X119000721Y-136102624D01*
X119012813Y-136132402D01*
X119057762Y-136158098D01*
X119116007Y-136162485D01*
X119163390Y-136145858D01*
X119175219Y-136130410D01*
X119177738Y-136086535D01*
X119169047Y-136014872D01*
X119161894Y-135978892D01*
X119146752Y-135884739D01*
X119154111Y-135809041D01*
X119187223Y-135723147D01*
X119192098Y-135712847D01*
X119204590Y-135656926D01*
X119180085Y-135597365D01*
X119176447Y-135591713D01*
X119132754Y-135537890D01*
X119099963Y-135528278D01*
X119077241Y-135564380D01*
G37*
X119077241Y-135564380D02*
X119063756Y-135647702D01*
X119058674Y-135779745D01*
X119058585Y-135804535D01*
X119052686Y-135938309D01*
X119035211Y-136025705D01*
X119022441Y-136051022D01*
X119000721Y-136102624D01*
X119012813Y-136132402D01*
X119057762Y-136158098D01*
X119116007Y-136162485D01*
X119163390Y-136145858D01*
X119175219Y-136130410D01*
X119177738Y-136086535D01*
X119169047Y-136014872D01*
X119161894Y-135978892D01*
X119146752Y-135884739D01*
X119154111Y-135809041D01*
X119187223Y-135723147D01*
X119192098Y-135712847D01*
X119204590Y-135656926D01*
X119180085Y-135597365D01*
X119176447Y-135591713D01*
X119132754Y-135537890D01*
X119099963Y-135528278D01*
X119077241Y-135564380D01*
G36*
X118587359Y-135562583D02*
G01*
X118574368Y-135572418D01*
X118540811Y-135610899D01*
X118519825Y-135668779D01*
X118506790Y-135760233D01*
X118504473Y-135786990D01*
X118498301Y-135915345D01*
X118506290Y-136004328D01*
X118531707Y-136064392D01*
X118577819Y-136105992D01*
X118609503Y-136123062D01*
X118676692Y-136152409D01*
X118722451Y-136160217D01*
X118770658Y-136148373D01*
X118797561Y-136137918D01*
X118854294Y-136089262D01*
X118891116Y-136003333D01*
X118905727Y-135894117D01*
X118802125Y-135894117D01*
X118794198Y-135974657D01*
X118776872Y-136026977D01*
X118772963Y-136031741D01*
X118712691Y-136060431D01*
X118645275Y-136045854D01*
X118614122Y-136022269D01*
X118588231Y-135968708D01*
X118575263Y-135884305D01*
X118576721Y-135787925D01*
X118589556Y-135713851D01*
X118624215Y-135663411D01*
X118681318Y-135639051D01*
X118740310Y-135645737D01*
X118770688Y-135670102D01*
X118790252Y-135723148D01*
X118800770Y-135804050D01*
X118802125Y-135894117D01*
X118905727Y-135894117D01*
X118906205Y-135890549D01*
X118897735Y-135761325D01*
X118878813Y-135673738D01*
X118832798Y-135585717D01*
X118761122Y-135535268D01*
X118675427Y-135526265D01*
X118587359Y-135562583D01*
G37*
X118587359Y-135562583D02*
X118574368Y-135572418D01*
X118540811Y-135610899D01*
X118519825Y-135668779D01*
X118506790Y-135760233D01*
X118504473Y-135786990D01*
X118498301Y-135915345D01*
X118506290Y-136004328D01*
X118531707Y-136064392D01*
X118577819Y-136105992D01*
X118609503Y-136123062D01*
X118676692Y-136152409D01*
X118722451Y-136160217D01*
X118770658Y-136148373D01*
X118797561Y-136137918D01*
X118854294Y-136089262D01*
X118891116Y-136003333D01*
X118905727Y-135894117D01*
X118802125Y-135894117D01*
X118794198Y-135974657D01*
X118776872Y-136026977D01*
X118772963Y-136031741D01*
X118712691Y-136060431D01*
X118645275Y-136045854D01*
X118614122Y-136022269D01*
X118588231Y-135968708D01*
X118575263Y-135884305D01*
X118576721Y-135787925D01*
X118589556Y-135713851D01*
X118624215Y-135663411D01*
X118681318Y-135639051D01*
X118740310Y-135645737D01*
X118770688Y-135670102D01*
X118790252Y-135723148D01*
X118800770Y-135804050D01*
X118802125Y-135894117D01*
X118905727Y-135894117D01*
X118906205Y-135890549D01*
X118897735Y-135761325D01*
X118878813Y-135673738D01*
X118832798Y-135585717D01*
X118761122Y-135535268D01*
X118675427Y-135526265D01*
X118587359Y-135562583D01*
G36*
X118076836Y-135563604D02*
G01*
X118043736Y-135585833D01*
X117992705Y-135642650D01*
X117976620Y-135696186D01*
X117997574Y-135755119D01*
X118057659Y-135828127D01*
X118115777Y-135884541D01*
X118186335Y-135952126D01*
X118239531Y-136007063D01*
X118266422Y-136039977D01*
X118268023Y-136044103D01*
X118245555Y-136056075D01*
X118190188Y-136062154D01*
X118177090Y-136062344D01*
X118098401Y-136070666D01*
X118033048Y-136090797D01*
X118031022Y-136091851D01*
X117992866Y-136115009D01*
X117998660Y-136129291D01*
X118026323Y-136141062D01*
X118104501Y-136156701D01*
X118205424Y-136158232D01*
X118302807Y-136145610D01*
X118318893Y-136141565D01*
X118375225Y-136114659D01*
X118391763Y-136073968D01*
X118367405Y-136016203D01*
X118301052Y-135938077D01*
X118227341Y-135867989D01*
X118145678Y-135792747D01*
X118097349Y-135742354D01*
X118076756Y-135708706D01*
X118078307Y-135683698D01*
X118089037Y-135667631D01*
X118142733Y-135638191D01*
X118230934Y-135640139D01*
X118338154Y-135667378D01*
X118383153Y-135672876D01*
X118395533Y-135647657D01*
X118373118Y-135597422D01*
X118315540Y-135561350D01*
X118237300Y-135541991D01*
X118152898Y-135541893D01*
X118076836Y-135563604D01*
G37*
X118076836Y-135563604D02*
X118043736Y-135585833D01*
X117992705Y-135642650D01*
X117976620Y-135696186D01*
X117997574Y-135755119D01*
X118057659Y-135828127D01*
X118115777Y-135884541D01*
X118186335Y-135952126D01*
X118239531Y-136007063D01*
X118266422Y-136039977D01*
X118268023Y-136044103D01*
X118245555Y-136056075D01*
X118190188Y-136062154D01*
X118177090Y-136062344D01*
X118098401Y-136070666D01*
X118033048Y-136090797D01*
X118031022Y-136091851D01*
X117992866Y-136115009D01*
X117998660Y-136129291D01*
X118026323Y-136141062D01*
X118104501Y-136156701D01*
X118205424Y-136158232D01*
X118302807Y-136145610D01*
X118318893Y-136141565D01*
X118375225Y-136114659D01*
X118391763Y-136073968D01*
X118367405Y-136016203D01*
X118301052Y-135938077D01*
X118227341Y-135867989D01*
X118145678Y-135792747D01*
X118097349Y-135742354D01*
X118076756Y-135708706D01*
X118078307Y-135683698D01*
X118089037Y-135667631D01*
X118142733Y-135638191D01*
X118230934Y-135640139D01*
X118338154Y-135667378D01*
X118383153Y-135672876D01*
X118395533Y-135647657D01*
X118373118Y-135597422D01*
X118315540Y-135561350D01*
X118237300Y-135541991D01*
X118152898Y-135541893D01*
X118076836Y-135563604D01*
G36*
X118699293Y-135723977D02*
G01*
X118674452Y-135764466D01*
X118658780Y-135823335D01*
X118658413Y-135884321D01*
X118660554Y-135894700D01*
X118684193Y-135948357D01*
X118712519Y-135955932D01*
X118737082Y-135919997D01*
X118750523Y-135856281D01*
X118750618Y-135786529D01*
X118738448Y-135732762D01*
X118727168Y-135718134D01*
X118699293Y-135723977D01*
G37*
X118699293Y-135723977D02*
X118674452Y-135764466D01*
X118658780Y-135823335D01*
X118658413Y-135884321D01*
X118660554Y-135894700D01*
X118684193Y-135948357D01*
X118712519Y-135955932D01*
X118737082Y-135919997D01*
X118750523Y-135856281D01*
X118750618Y-135786529D01*
X118738448Y-135732762D01*
X118727168Y-135718134D01*
X118699293Y-135723977D01*
G36*
X125087241Y-117224380D02*
G01*
X125073756Y-117307702D01*
X125068674Y-117439745D01*
X125068585Y-117464535D01*
X125062686Y-117598309D01*
X125045211Y-117685705D01*
X125032441Y-117711022D01*
X125010721Y-117762624D01*
X125022813Y-117792402D01*
X125067762Y-117818098D01*
X125126007Y-117822485D01*
X125173390Y-117805858D01*
X125185219Y-117790410D01*
X125187738Y-117746535D01*
X125179047Y-117674872D01*
X125171894Y-117638892D01*
X125156752Y-117544739D01*
X125164111Y-117469041D01*
X125197223Y-117383147D01*
X125202098Y-117372847D01*
X125214590Y-117316926D01*
X125190085Y-117257365D01*
X125186447Y-117251713D01*
X125142754Y-117197890D01*
X125109963Y-117188278D01*
X125087241Y-117224380D01*
G37*
X125087241Y-117224380D02*
X125073756Y-117307702D01*
X125068674Y-117439745D01*
X125068585Y-117464535D01*
X125062686Y-117598309D01*
X125045211Y-117685705D01*
X125032441Y-117711022D01*
X125010721Y-117762624D01*
X125022813Y-117792402D01*
X125067762Y-117818098D01*
X125126007Y-117822485D01*
X125173390Y-117805858D01*
X125185219Y-117790410D01*
X125187738Y-117746535D01*
X125179047Y-117674872D01*
X125171894Y-117638892D01*
X125156752Y-117544739D01*
X125164111Y-117469041D01*
X125197223Y-117383147D01*
X125202098Y-117372847D01*
X125214590Y-117316926D01*
X125190085Y-117257365D01*
X125186447Y-117251713D01*
X125142754Y-117197890D01*
X125109963Y-117188278D01*
X125087241Y-117224380D01*
G36*
X124597359Y-117222583D02*
G01*
X124584368Y-117232418D01*
X124550811Y-117270899D01*
X124529825Y-117328779D01*
X124516790Y-117420233D01*
X124514473Y-117446990D01*
X124508301Y-117575345D01*
X124516290Y-117664328D01*
X124541707Y-117724392D01*
X124587819Y-117765992D01*
X124619503Y-117783062D01*
X124686692Y-117812409D01*
X124732451Y-117820217D01*
X124780658Y-117808373D01*
X124807561Y-117797918D01*
X124864294Y-117749262D01*
X124901116Y-117663333D01*
X124915727Y-117554117D01*
X124812125Y-117554117D01*
X124804198Y-117634657D01*
X124786872Y-117686977D01*
X124782963Y-117691741D01*
X124722691Y-117720431D01*
X124655275Y-117705854D01*
X124624122Y-117682269D01*
X124598231Y-117628708D01*
X124585263Y-117544305D01*
X124586721Y-117447925D01*
X124599556Y-117373851D01*
X124634215Y-117323411D01*
X124691318Y-117299051D01*
X124750310Y-117305737D01*
X124780688Y-117330102D01*
X124800252Y-117383148D01*
X124810770Y-117464050D01*
X124812125Y-117554117D01*
X124915727Y-117554117D01*
X124916205Y-117550549D01*
X124907735Y-117421325D01*
X124888813Y-117333738D01*
X124842798Y-117245717D01*
X124771122Y-117195268D01*
X124685427Y-117186265D01*
X124597359Y-117222583D01*
G37*
X124597359Y-117222583D02*
X124584368Y-117232418D01*
X124550811Y-117270899D01*
X124529825Y-117328779D01*
X124516790Y-117420233D01*
X124514473Y-117446990D01*
X124508301Y-117575345D01*
X124516290Y-117664328D01*
X124541707Y-117724392D01*
X124587819Y-117765992D01*
X124619503Y-117783062D01*
X124686692Y-117812409D01*
X124732451Y-117820217D01*
X124780658Y-117808373D01*
X124807561Y-117797918D01*
X124864294Y-117749262D01*
X124901116Y-117663333D01*
X124915727Y-117554117D01*
X124812125Y-117554117D01*
X124804198Y-117634657D01*
X124786872Y-117686977D01*
X124782963Y-117691741D01*
X124722691Y-117720431D01*
X124655275Y-117705854D01*
X124624122Y-117682269D01*
X124598231Y-117628708D01*
X124585263Y-117544305D01*
X124586721Y-117447925D01*
X124599556Y-117373851D01*
X124634215Y-117323411D01*
X124691318Y-117299051D01*
X124750310Y-117305737D01*
X124780688Y-117330102D01*
X124800252Y-117383148D01*
X124810770Y-117464050D01*
X124812125Y-117554117D01*
X124915727Y-117554117D01*
X124916205Y-117550549D01*
X124907735Y-117421325D01*
X124888813Y-117333738D01*
X124842798Y-117245717D01*
X124771122Y-117195268D01*
X124685427Y-117186265D01*
X124597359Y-117222583D01*
G36*
X124086836Y-117223604D02*
G01*
X124053736Y-117245833D01*
X124002705Y-117302650D01*
X123986620Y-117356186D01*
X124007574Y-117415119D01*
X124067659Y-117488127D01*
X124125777Y-117544541D01*
X124196335Y-117612126D01*
X124249531Y-117667063D01*
X124276422Y-117699977D01*
X124278023Y-117704103D01*
X124255555Y-117716075D01*
X124200188Y-117722154D01*
X124187090Y-117722344D01*
X124108401Y-117730666D01*
X124043048Y-117750797D01*
X124041022Y-117751851D01*
X124002866Y-117775009D01*
X124008660Y-117789291D01*
X124036323Y-117801062D01*
X124114501Y-117816701D01*
X124215424Y-117818232D01*
X124312807Y-117805610D01*
X124328893Y-117801565D01*
X124385225Y-117774659D01*
X124401763Y-117733968D01*
X124377405Y-117676203D01*
X124311052Y-117598077D01*
X124237341Y-117527989D01*
X124155678Y-117452747D01*
X124107349Y-117402354D01*
X124086756Y-117368706D01*
X124088307Y-117343698D01*
X124099037Y-117327631D01*
X124152733Y-117298191D01*
X124240934Y-117300139D01*
X124348154Y-117327378D01*
X124393153Y-117332876D01*
X124405533Y-117307657D01*
X124383118Y-117257422D01*
X124325540Y-117221350D01*
X124247300Y-117201991D01*
X124162898Y-117201893D01*
X124086836Y-117223604D01*
G37*
X124086836Y-117223604D02*
X124053736Y-117245833D01*
X124002705Y-117302650D01*
X123986620Y-117356186D01*
X124007574Y-117415119D01*
X124067659Y-117488127D01*
X124125777Y-117544541D01*
X124196335Y-117612126D01*
X124249531Y-117667063D01*
X124276422Y-117699977D01*
X124278023Y-117704103D01*
X124255555Y-117716075D01*
X124200188Y-117722154D01*
X124187090Y-117722344D01*
X124108401Y-117730666D01*
X124043048Y-117750797D01*
X124041022Y-117751851D01*
X124002866Y-117775009D01*
X124008660Y-117789291D01*
X124036323Y-117801062D01*
X124114501Y-117816701D01*
X124215424Y-117818232D01*
X124312807Y-117805610D01*
X124328893Y-117801565D01*
X124385225Y-117774659D01*
X124401763Y-117733968D01*
X124377405Y-117676203D01*
X124311052Y-117598077D01*
X124237341Y-117527989D01*
X124155678Y-117452747D01*
X124107349Y-117402354D01*
X124086756Y-117368706D01*
X124088307Y-117343698D01*
X124099037Y-117327631D01*
X124152733Y-117298191D01*
X124240934Y-117300139D01*
X124348154Y-117327378D01*
X124393153Y-117332876D01*
X124405533Y-117307657D01*
X124383118Y-117257422D01*
X124325540Y-117221350D01*
X124247300Y-117201991D01*
X124162898Y-117201893D01*
X124086836Y-117223604D01*
G36*
X124709293Y-117383977D02*
G01*
X124684452Y-117424466D01*
X124668780Y-117483335D01*
X124668413Y-117544321D01*
X124670554Y-117554700D01*
X124694193Y-117608357D01*
X124722519Y-117615932D01*
X124747082Y-117579997D01*
X124760523Y-117516281D01*
X124760618Y-117446529D01*
X124748448Y-117392762D01*
X124737168Y-117378134D01*
X124709293Y-117383977D01*
G37*
X124709293Y-117383977D02*
X124684452Y-117424466D01*
X124668780Y-117483335D01*
X124668413Y-117544321D01*
X124670554Y-117554700D01*
X124694193Y-117608357D01*
X124722519Y-117615932D01*
X124747082Y-117579997D01*
X124760523Y-117516281D01*
X124760618Y-117446529D01*
X124748448Y-117392762D01*
X124737168Y-117378134D01*
X124709293Y-117383977D01*
G36*
X118699293Y-109803977D02*
G01*
X118674452Y-109844466D01*
X118658780Y-109903335D01*
X118658413Y-109964321D01*
X118660554Y-109974700D01*
X118684193Y-110028357D01*
X118712519Y-110035932D01*
X118737082Y-109999997D01*
X118750523Y-109936281D01*
X118750618Y-109866529D01*
X118738448Y-109812762D01*
X118727168Y-109798134D01*
X118699293Y-109803977D01*
G37*
X118699293Y-109803977D02*
X118674452Y-109844466D01*
X118658780Y-109903335D01*
X118658413Y-109964321D01*
X118660554Y-109974700D01*
X118684193Y-110028357D01*
X118712519Y-110035932D01*
X118737082Y-109999997D01*
X118750523Y-109936281D01*
X118750618Y-109866529D01*
X118738448Y-109812762D01*
X118727168Y-109798134D01*
X118699293Y-109803977D01*
G36*
X118076836Y-109643604D02*
G01*
X118043736Y-109665833D01*
X117992705Y-109722650D01*
X117976620Y-109776186D01*
X117997574Y-109835119D01*
X118057659Y-109908127D01*
X118115777Y-109964541D01*
X118186335Y-110032126D01*
X118239531Y-110087063D01*
X118266422Y-110119977D01*
X118268023Y-110124103D01*
X118245555Y-110136075D01*
X118190188Y-110142154D01*
X118177090Y-110142344D01*
X118098401Y-110150666D01*
X118033048Y-110170797D01*
X118031022Y-110171851D01*
X117992866Y-110195009D01*
X117998660Y-110209291D01*
X118026323Y-110221062D01*
X118104501Y-110236701D01*
X118205424Y-110238232D01*
X118302807Y-110225610D01*
X118318893Y-110221565D01*
X118375225Y-110194659D01*
X118391763Y-110153968D01*
X118367405Y-110096203D01*
X118301052Y-110018077D01*
X118227341Y-109947989D01*
X118145678Y-109872747D01*
X118097349Y-109822354D01*
X118076756Y-109788706D01*
X118078307Y-109763698D01*
X118089037Y-109747631D01*
X118142733Y-109718191D01*
X118230934Y-109720139D01*
X118338154Y-109747378D01*
X118383153Y-109752876D01*
X118395533Y-109727657D01*
X118373118Y-109677422D01*
X118315540Y-109641350D01*
X118237300Y-109621991D01*
X118152898Y-109621893D01*
X118076836Y-109643604D01*
G37*
X118076836Y-109643604D02*
X118043736Y-109665833D01*
X117992705Y-109722650D01*
X117976620Y-109776186D01*
X117997574Y-109835119D01*
X118057659Y-109908127D01*
X118115777Y-109964541D01*
X118186335Y-110032126D01*
X118239531Y-110087063D01*
X118266422Y-110119977D01*
X118268023Y-110124103D01*
X118245555Y-110136075D01*
X118190188Y-110142154D01*
X118177090Y-110142344D01*
X118098401Y-110150666D01*
X118033048Y-110170797D01*
X118031022Y-110171851D01*
X117992866Y-110195009D01*
X117998660Y-110209291D01*
X118026323Y-110221062D01*
X118104501Y-110236701D01*
X118205424Y-110238232D01*
X118302807Y-110225610D01*
X118318893Y-110221565D01*
X118375225Y-110194659D01*
X118391763Y-110153968D01*
X118367405Y-110096203D01*
X118301052Y-110018077D01*
X118227341Y-109947989D01*
X118145678Y-109872747D01*
X118097349Y-109822354D01*
X118076756Y-109788706D01*
X118078307Y-109763698D01*
X118089037Y-109747631D01*
X118142733Y-109718191D01*
X118230934Y-109720139D01*
X118338154Y-109747378D01*
X118383153Y-109752876D01*
X118395533Y-109727657D01*
X118373118Y-109677422D01*
X118315540Y-109641350D01*
X118237300Y-109621991D01*
X118152898Y-109621893D01*
X118076836Y-109643604D01*
G36*
X118587359Y-109642583D02*
G01*
X118574368Y-109652418D01*
X118540811Y-109690899D01*
X118519825Y-109748779D01*
X118506790Y-109840233D01*
X118504473Y-109866990D01*
X118498301Y-109995345D01*
X118506290Y-110084328D01*
X118531707Y-110144392D01*
X118577819Y-110185992D01*
X118609503Y-110203062D01*
X118676692Y-110232409D01*
X118722451Y-110240217D01*
X118770658Y-110228373D01*
X118797561Y-110217918D01*
X118854294Y-110169262D01*
X118891116Y-110083333D01*
X118905727Y-109974117D01*
X118802125Y-109974117D01*
X118794198Y-110054657D01*
X118776872Y-110106977D01*
X118772963Y-110111741D01*
X118712691Y-110140431D01*
X118645275Y-110125854D01*
X118614122Y-110102269D01*
X118588231Y-110048708D01*
X118575263Y-109964305D01*
X118576721Y-109867925D01*
X118589556Y-109793851D01*
X118624215Y-109743411D01*
X118681318Y-109719051D01*
X118740310Y-109725737D01*
X118770688Y-109750102D01*
X118790252Y-109803148D01*
X118800770Y-109884050D01*
X118802125Y-109974117D01*
X118905727Y-109974117D01*
X118906205Y-109970549D01*
X118897735Y-109841325D01*
X118878813Y-109753738D01*
X118832798Y-109665717D01*
X118761122Y-109615268D01*
X118675427Y-109606265D01*
X118587359Y-109642583D01*
G37*
X118587359Y-109642583D02*
X118574368Y-109652418D01*
X118540811Y-109690899D01*
X118519825Y-109748779D01*
X118506790Y-109840233D01*
X118504473Y-109866990D01*
X118498301Y-109995345D01*
X118506290Y-110084328D01*
X118531707Y-110144392D01*
X118577819Y-110185992D01*
X118609503Y-110203062D01*
X118676692Y-110232409D01*
X118722451Y-110240217D01*
X118770658Y-110228373D01*
X118797561Y-110217918D01*
X118854294Y-110169262D01*
X118891116Y-110083333D01*
X118905727Y-109974117D01*
X118802125Y-109974117D01*
X118794198Y-110054657D01*
X118776872Y-110106977D01*
X118772963Y-110111741D01*
X118712691Y-110140431D01*
X118645275Y-110125854D01*
X118614122Y-110102269D01*
X118588231Y-110048708D01*
X118575263Y-109964305D01*
X118576721Y-109867925D01*
X118589556Y-109793851D01*
X118624215Y-109743411D01*
X118681318Y-109719051D01*
X118740310Y-109725737D01*
X118770688Y-109750102D01*
X118790252Y-109803148D01*
X118800770Y-109884050D01*
X118802125Y-109974117D01*
X118905727Y-109974117D01*
X118906205Y-109970549D01*
X118897735Y-109841325D01*
X118878813Y-109753738D01*
X118832798Y-109665717D01*
X118761122Y-109615268D01*
X118675427Y-109606265D01*
X118587359Y-109642583D01*
G36*
X119077241Y-109644380D02*
G01*
X119063756Y-109727702D01*
X119058674Y-109859745D01*
X119058585Y-109884535D01*
X119052686Y-110018309D01*
X119035211Y-110105705D01*
X119022441Y-110131022D01*
X119000721Y-110182624D01*
X119012813Y-110212402D01*
X119057762Y-110238098D01*
X119116007Y-110242485D01*
X119163390Y-110225858D01*
X119175219Y-110210410D01*
X119177738Y-110166535D01*
X119169047Y-110094872D01*
X119161894Y-110058892D01*
X119146752Y-109964739D01*
X119154111Y-109889041D01*
X119187223Y-109803147D01*
X119192098Y-109792847D01*
X119204590Y-109736926D01*
X119180085Y-109677365D01*
X119176447Y-109671713D01*
X119132754Y-109617890D01*
X119099963Y-109608278D01*
X119077241Y-109644380D01*
G37*
X119077241Y-109644380D02*
X119063756Y-109727702D01*
X119058674Y-109859745D01*
X119058585Y-109884535D01*
X119052686Y-110018309D01*
X119035211Y-110105705D01*
X119022441Y-110131022D01*
X119000721Y-110182624D01*
X119012813Y-110212402D01*
X119057762Y-110238098D01*
X119116007Y-110242485D01*
X119163390Y-110225858D01*
X119175219Y-110210410D01*
X119177738Y-110166535D01*
X119169047Y-110094872D01*
X119161894Y-110058892D01*
X119146752Y-109964739D01*
X119154111Y-109889041D01*
X119187223Y-109803147D01*
X119192098Y-109792847D01*
X119204590Y-109736926D01*
X119180085Y-109677365D01*
X119176447Y-109671713D01*
X119132754Y-109617890D01*
X119099963Y-109608278D01*
X119077241Y-109644380D01*
G36*
X119077241Y-83724380D02*
G01*
X119063756Y-83807702D01*
X119058674Y-83939745D01*
X119058585Y-83964535D01*
X119052686Y-84098309D01*
X119035211Y-84185705D01*
X119022441Y-84211022D01*
X119000721Y-84262624D01*
X119012813Y-84292402D01*
X119057762Y-84318098D01*
X119116007Y-84322485D01*
X119163390Y-84305858D01*
X119175219Y-84290410D01*
X119177738Y-84246535D01*
X119169047Y-84174872D01*
X119161894Y-84138892D01*
X119146752Y-84044739D01*
X119154111Y-83969041D01*
X119187223Y-83883147D01*
X119192098Y-83872847D01*
X119204590Y-83816926D01*
X119180085Y-83757365D01*
X119176447Y-83751713D01*
X119132754Y-83697890D01*
X119099963Y-83688278D01*
X119077241Y-83724380D01*
G37*
X119077241Y-83724380D02*
X119063756Y-83807702D01*
X119058674Y-83939745D01*
X119058585Y-83964535D01*
X119052686Y-84098309D01*
X119035211Y-84185705D01*
X119022441Y-84211022D01*
X119000721Y-84262624D01*
X119012813Y-84292402D01*
X119057762Y-84318098D01*
X119116007Y-84322485D01*
X119163390Y-84305858D01*
X119175219Y-84290410D01*
X119177738Y-84246535D01*
X119169047Y-84174872D01*
X119161894Y-84138892D01*
X119146752Y-84044739D01*
X119154111Y-83969041D01*
X119187223Y-83883147D01*
X119192098Y-83872847D01*
X119204590Y-83816926D01*
X119180085Y-83757365D01*
X119176447Y-83751713D01*
X119132754Y-83697890D01*
X119099963Y-83688278D01*
X119077241Y-83724380D01*
G36*
X118587359Y-83722583D02*
G01*
X118574368Y-83732418D01*
X118540811Y-83770899D01*
X118519825Y-83828779D01*
X118506790Y-83920233D01*
X118504473Y-83946990D01*
X118498301Y-84075345D01*
X118506290Y-84164328D01*
X118531707Y-84224392D01*
X118577819Y-84265992D01*
X118609503Y-84283062D01*
X118676692Y-84312409D01*
X118722451Y-84320217D01*
X118770658Y-84308373D01*
X118797561Y-84297918D01*
X118854294Y-84249262D01*
X118891116Y-84163333D01*
X118905727Y-84054117D01*
X118802125Y-84054117D01*
X118794198Y-84134657D01*
X118776872Y-84186977D01*
X118772963Y-84191741D01*
X118712691Y-84220431D01*
X118645275Y-84205854D01*
X118614122Y-84182269D01*
X118588231Y-84128708D01*
X118575263Y-84044305D01*
X118576721Y-83947925D01*
X118589556Y-83873851D01*
X118624215Y-83823411D01*
X118681318Y-83799051D01*
X118740310Y-83805737D01*
X118770688Y-83830102D01*
X118790252Y-83883148D01*
X118800770Y-83964050D01*
X118802125Y-84054117D01*
X118905727Y-84054117D01*
X118906205Y-84050549D01*
X118897735Y-83921325D01*
X118878813Y-83833738D01*
X118832798Y-83745717D01*
X118761122Y-83695268D01*
X118675427Y-83686265D01*
X118587359Y-83722583D01*
G37*
X118587359Y-83722583D02*
X118574368Y-83732418D01*
X118540811Y-83770899D01*
X118519825Y-83828779D01*
X118506790Y-83920233D01*
X118504473Y-83946990D01*
X118498301Y-84075345D01*
X118506290Y-84164328D01*
X118531707Y-84224392D01*
X118577819Y-84265992D01*
X118609503Y-84283062D01*
X118676692Y-84312409D01*
X118722451Y-84320217D01*
X118770658Y-84308373D01*
X118797561Y-84297918D01*
X118854294Y-84249262D01*
X118891116Y-84163333D01*
X118905727Y-84054117D01*
X118802125Y-84054117D01*
X118794198Y-84134657D01*
X118776872Y-84186977D01*
X118772963Y-84191741D01*
X118712691Y-84220431D01*
X118645275Y-84205854D01*
X118614122Y-84182269D01*
X118588231Y-84128708D01*
X118575263Y-84044305D01*
X118576721Y-83947925D01*
X118589556Y-83873851D01*
X118624215Y-83823411D01*
X118681318Y-83799051D01*
X118740310Y-83805737D01*
X118770688Y-83830102D01*
X118790252Y-83883148D01*
X118800770Y-83964050D01*
X118802125Y-84054117D01*
X118905727Y-84054117D01*
X118906205Y-84050549D01*
X118897735Y-83921325D01*
X118878813Y-83833738D01*
X118832798Y-83745717D01*
X118761122Y-83695268D01*
X118675427Y-83686265D01*
X118587359Y-83722583D01*
G36*
X118076836Y-83723604D02*
G01*
X118043736Y-83745833D01*
X117992705Y-83802650D01*
X117976620Y-83856186D01*
X117997574Y-83915119D01*
X118057659Y-83988127D01*
X118115777Y-84044541D01*
X118186335Y-84112126D01*
X118239531Y-84167063D01*
X118266422Y-84199977D01*
X118268023Y-84204103D01*
X118245555Y-84216075D01*
X118190188Y-84222154D01*
X118177090Y-84222344D01*
X118098401Y-84230666D01*
X118033048Y-84250797D01*
X118031022Y-84251851D01*
X117992866Y-84275009D01*
X117998660Y-84289291D01*
X118026323Y-84301062D01*
X118104501Y-84316701D01*
X118205424Y-84318232D01*
X118302807Y-84305610D01*
X118318893Y-84301565D01*
X118375225Y-84274659D01*
X118391763Y-84233968D01*
X118367405Y-84176203D01*
X118301052Y-84098077D01*
X118227341Y-84027989D01*
X118145678Y-83952747D01*
X118097349Y-83902354D01*
X118076756Y-83868706D01*
X118078307Y-83843698D01*
X118089037Y-83827631D01*
X118142733Y-83798191D01*
X118230934Y-83800139D01*
X118338154Y-83827378D01*
X118383153Y-83832876D01*
X118395533Y-83807657D01*
X118373118Y-83757422D01*
X118315540Y-83721350D01*
X118237300Y-83701991D01*
X118152898Y-83701893D01*
X118076836Y-83723604D01*
G37*
X118076836Y-83723604D02*
X118043736Y-83745833D01*
X117992705Y-83802650D01*
X117976620Y-83856186D01*
X117997574Y-83915119D01*
X118057659Y-83988127D01*
X118115777Y-84044541D01*
X118186335Y-84112126D01*
X118239531Y-84167063D01*
X118266422Y-84199977D01*
X118268023Y-84204103D01*
X118245555Y-84216075D01*
X118190188Y-84222154D01*
X118177090Y-84222344D01*
X118098401Y-84230666D01*
X118033048Y-84250797D01*
X118031022Y-84251851D01*
X117992866Y-84275009D01*
X117998660Y-84289291D01*
X118026323Y-84301062D01*
X118104501Y-84316701D01*
X118205424Y-84318232D01*
X118302807Y-84305610D01*
X118318893Y-84301565D01*
X118375225Y-84274659D01*
X118391763Y-84233968D01*
X118367405Y-84176203D01*
X118301052Y-84098077D01*
X118227341Y-84027989D01*
X118145678Y-83952747D01*
X118097349Y-83902354D01*
X118076756Y-83868706D01*
X118078307Y-83843698D01*
X118089037Y-83827631D01*
X118142733Y-83798191D01*
X118230934Y-83800139D01*
X118338154Y-83827378D01*
X118383153Y-83832876D01*
X118395533Y-83807657D01*
X118373118Y-83757422D01*
X118315540Y-83721350D01*
X118237300Y-83701991D01*
X118152898Y-83701893D01*
X118076836Y-83723604D01*
G36*
X118699293Y-83883977D02*
G01*
X118674452Y-83924466D01*
X118658780Y-83983335D01*
X118658413Y-84044321D01*
X118660554Y-84054700D01*
X118684193Y-84108357D01*
X118712519Y-84115932D01*
X118737082Y-84079997D01*
X118750523Y-84016281D01*
X118750618Y-83946529D01*
X118738448Y-83892762D01*
X118727168Y-83878134D01*
X118699293Y-83883977D01*
G37*
X118699293Y-83883977D02*
X118674452Y-83924466D01*
X118658780Y-83983335D01*
X118658413Y-84044321D01*
X118660554Y-84054700D01*
X118684193Y-84108357D01*
X118712519Y-84115932D01*
X118737082Y-84079997D01*
X118750523Y-84016281D01*
X118750618Y-83946529D01*
X118738448Y-83892762D01*
X118727168Y-83878134D01*
X118699293Y-83883977D01*
G36*
X124709293Y-91463977D02*
G01*
X124684452Y-91504466D01*
X124668780Y-91563335D01*
X124668413Y-91624321D01*
X124670554Y-91634700D01*
X124694193Y-91688357D01*
X124722519Y-91695932D01*
X124747082Y-91659997D01*
X124760523Y-91596281D01*
X124760618Y-91526529D01*
X124748448Y-91472762D01*
X124737168Y-91458134D01*
X124709293Y-91463977D01*
G37*
X124709293Y-91463977D02*
X124684452Y-91504466D01*
X124668780Y-91563335D01*
X124668413Y-91624321D01*
X124670554Y-91634700D01*
X124694193Y-91688357D01*
X124722519Y-91695932D01*
X124747082Y-91659997D01*
X124760523Y-91596281D01*
X124760618Y-91526529D01*
X124748448Y-91472762D01*
X124737168Y-91458134D01*
X124709293Y-91463977D01*
G36*
X124086836Y-91303604D02*
G01*
X124053736Y-91325833D01*
X124002705Y-91382650D01*
X123986620Y-91436186D01*
X124007574Y-91495119D01*
X124067659Y-91568127D01*
X124125777Y-91624541D01*
X124196335Y-91692126D01*
X124249531Y-91747063D01*
X124276422Y-91779977D01*
X124278023Y-91784103D01*
X124255555Y-91796075D01*
X124200188Y-91802154D01*
X124187090Y-91802344D01*
X124108401Y-91810666D01*
X124043048Y-91830797D01*
X124041022Y-91831851D01*
X124002866Y-91855009D01*
X124008660Y-91869291D01*
X124036323Y-91881062D01*
X124114501Y-91896701D01*
X124215424Y-91898232D01*
X124312807Y-91885610D01*
X124328893Y-91881565D01*
X124385225Y-91854659D01*
X124401763Y-91813968D01*
X124377405Y-91756203D01*
X124311052Y-91678077D01*
X124237341Y-91607989D01*
X124155678Y-91532747D01*
X124107349Y-91482354D01*
X124086756Y-91448706D01*
X124088307Y-91423698D01*
X124099037Y-91407631D01*
X124152733Y-91378191D01*
X124240934Y-91380139D01*
X124348154Y-91407378D01*
X124393153Y-91412876D01*
X124405533Y-91387657D01*
X124383118Y-91337422D01*
X124325540Y-91301350D01*
X124247300Y-91281991D01*
X124162898Y-91281893D01*
X124086836Y-91303604D01*
G37*
X124086836Y-91303604D02*
X124053736Y-91325833D01*
X124002705Y-91382650D01*
X123986620Y-91436186D01*
X124007574Y-91495119D01*
X124067659Y-91568127D01*
X124125777Y-91624541D01*
X124196335Y-91692126D01*
X124249531Y-91747063D01*
X124276422Y-91779977D01*
X124278023Y-91784103D01*
X124255555Y-91796075D01*
X124200188Y-91802154D01*
X124187090Y-91802344D01*
X124108401Y-91810666D01*
X124043048Y-91830797D01*
X124041022Y-91831851D01*
X124002866Y-91855009D01*
X124008660Y-91869291D01*
X124036323Y-91881062D01*
X124114501Y-91896701D01*
X124215424Y-91898232D01*
X124312807Y-91885610D01*
X124328893Y-91881565D01*
X124385225Y-91854659D01*
X124401763Y-91813968D01*
X124377405Y-91756203D01*
X124311052Y-91678077D01*
X124237341Y-91607989D01*
X124155678Y-91532747D01*
X124107349Y-91482354D01*
X124086756Y-91448706D01*
X124088307Y-91423698D01*
X124099037Y-91407631D01*
X124152733Y-91378191D01*
X124240934Y-91380139D01*
X124348154Y-91407378D01*
X124393153Y-91412876D01*
X124405533Y-91387657D01*
X124383118Y-91337422D01*
X124325540Y-91301350D01*
X124247300Y-91281991D01*
X124162898Y-91281893D01*
X124086836Y-91303604D01*
G36*
X124597359Y-91302583D02*
G01*
X124584368Y-91312418D01*
X124550811Y-91350899D01*
X124529825Y-91408779D01*
X124516790Y-91500233D01*
X124514473Y-91526990D01*
X124508301Y-91655345D01*
X124516290Y-91744328D01*
X124541707Y-91804392D01*
X124587819Y-91845992D01*
X124619503Y-91863062D01*
X124686692Y-91892409D01*
X124732451Y-91900217D01*
X124780658Y-91888373D01*
X124807561Y-91877918D01*
X124864294Y-91829262D01*
X124901116Y-91743333D01*
X124915727Y-91634117D01*
X124812125Y-91634117D01*
X124804198Y-91714657D01*
X124786872Y-91766977D01*
X124782963Y-91771741D01*
X124722691Y-91800431D01*
X124655275Y-91785854D01*
X124624122Y-91762269D01*
X124598231Y-91708708D01*
X124585263Y-91624305D01*
X124586721Y-91527925D01*
X124599556Y-91453851D01*
X124634215Y-91403411D01*
X124691318Y-91379051D01*
X124750310Y-91385737D01*
X124780688Y-91410102D01*
X124800252Y-91463148D01*
X124810770Y-91544050D01*
X124812125Y-91634117D01*
X124915727Y-91634117D01*
X124916205Y-91630549D01*
X124907735Y-91501325D01*
X124888813Y-91413738D01*
X124842798Y-91325717D01*
X124771122Y-91275268D01*
X124685427Y-91266265D01*
X124597359Y-91302583D01*
G37*
X124597359Y-91302583D02*
X124584368Y-91312418D01*
X124550811Y-91350899D01*
X124529825Y-91408779D01*
X124516790Y-91500233D01*
X124514473Y-91526990D01*
X124508301Y-91655345D01*
X124516290Y-91744328D01*
X124541707Y-91804392D01*
X124587819Y-91845992D01*
X124619503Y-91863062D01*
X124686692Y-91892409D01*
X124732451Y-91900217D01*
X124780658Y-91888373D01*
X124807561Y-91877918D01*
X124864294Y-91829262D01*
X124901116Y-91743333D01*
X124915727Y-91634117D01*
X124812125Y-91634117D01*
X124804198Y-91714657D01*
X124786872Y-91766977D01*
X124782963Y-91771741D01*
X124722691Y-91800431D01*
X124655275Y-91785854D01*
X124624122Y-91762269D01*
X124598231Y-91708708D01*
X124585263Y-91624305D01*
X124586721Y-91527925D01*
X124599556Y-91453851D01*
X124634215Y-91403411D01*
X124691318Y-91379051D01*
X124750310Y-91385737D01*
X124780688Y-91410102D01*
X124800252Y-91463148D01*
X124810770Y-91544050D01*
X124812125Y-91634117D01*
X124915727Y-91634117D01*
X124916205Y-91630549D01*
X124907735Y-91501325D01*
X124888813Y-91413738D01*
X124842798Y-91325717D01*
X124771122Y-91275268D01*
X124685427Y-91266265D01*
X124597359Y-91302583D01*
G36*
X125087241Y-91304380D02*
G01*
X125073756Y-91387702D01*
X125068674Y-91519745D01*
X125068585Y-91544535D01*
X125062686Y-91678309D01*
X125045211Y-91765705D01*
X125032441Y-91791022D01*
X125010721Y-91842624D01*
X125022813Y-91872402D01*
X125067762Y-91898098D01*
X125126007Y-91902485D01*
X125173390Y-91885858D01*
X125185219Y-91870410D01*
X125187738Y-91826535D01*
X125179047Y-91754872D01*
X125171894Y-91718892D01*
X125156752Y-91624739D01*
X125164111Y-91549041D01*
X125197223Y-91463147D01*
X125202098Y-91452847D01*
X125214590Y-91396926D01*
X125190085Y-91337365D01*
X125186447Y-91331713D01*
X125142754Y-91277890D01*
X125109963Y-91268278D01*
X125087241Y-91304380D01*
G37*
X125087241Y-91304380D02*
X125073756Y-91387702D01*
X125068674Y-91519745D01*
X125068585Y-91544535D01*
X125062686Y-91678309D01*
X125045211Y-91765705D01*
X125032441Y-91791022D01*
X125010721Y-91842624D01*
X125022813Y-91872402D01*
X125067762Y-91898098D01*
X125126007Y-91902485D01*
X125173390Y-91885858D01*
X125185219Y-91870410D01*
X125187738Y-91826535D01*
X125179047Y-91754872D01*
X125171894Y-91718892D01*
X125156752Y-91624739D01*
X125164111Y-91549041D01*
X125197223Y-91463147D01*
X125202098Y-91452847D01*
X125214590Y-91396926D01*
X125190085Y-91337365D01*
X125186447Y-91331713D01*
X125142754Y-91277890D01*
X125109963Y-91268278D01*
X125087241Y-91304380D01*
G36*
X125087241Y-65384380D02*
G01*
X125073756Y-65467702D01*
X125068674Y-65599745D01*
X125068585Y-65624535D01*
X125062686Y-65758309D01*
X125045211Y-65845705D01*
X125032441Y-65871022D01*
X125010721Y-65922624D01*
X125022813Y-65952402D01*
X125067762Y-65978098D01*
X125126007Y-65982485D01*
X125173390Y-65965858D01*
X125185219Y-65950410D01*
X125187738Y-65906535D01*
X125179047Y-65834872D01*
X125171894Y-65798892D01*
X125156752Y-65704739D01*
X125164111Y-65629041D01*
X125197223Y-65543147D01*
X125202098Y-65532847D01*
X125214590Y-65476926D01*
X125190085Y-65417365D01*
X125186447Y-65411713D01*
X125142754Y-65357890D01*
X125109963Y-65348278D01*
X125087241Y-65384380D01*
G37*
X125087241Y-65384380D02*
X125073756Y-65467702D01*
X125068674Y-65599745D01*
X125068585Y-65624535D01*
X125062686Y-65758309D01*
X125045211Y-65845705D01*
X125032441Y-65871022D01*
X125010721Y-65922624D01*
X125022813Y-65952402D01*
X125067762Y-65978098D01*
X125126007Y-65982485D01*
X125173390Y-65965858D01*
X125185219Y-65950410D01*
X125187738Y-65906535D01*
X125179047Y-65834872D01*
X125171894Y-65798892D01*
X125156752Y-65704739D01*
X125164111Y-65629041D01*
X125197223Y-65543147D01*
X125202098Y-65532847D01*
X125214590Y-65476926D01*
X125190085Y-65417365D01*
X125186447Y-65411713D01*
X125142754Y-65357890D01*
X125109963Y-65348278D01*
X125087241Y-65384380D01*
G36*
X124597359Y-65382583D02*
G01*
X124584368Y-65392418D01*
X124550811Y-65430899D01*
X124529825Y-65488779D01*
X124516790Y-65580233D01*
X124514473Y-65606990D01*
X124508301Y-65735345D01*
X124516290Y-65824328D01*
X124541707Y-65884392D01*
X124587819Y-65925992D01*
X124619503Y-65943062D01*
X124686692Y-65972409D01*
X124732451Y-65980217D01*
X124780658Y-65968373D01*
X124807561Y-65957918D01*
X124864294Y-65909262D01*
X124901116Y-65823333D01*
X124915727Y-65714117D01*
X124812125Y-65714117D01*
X124804198Y-65794657D01*
X124786872Y-65846977D01*
X124782963Y-65851741D01*
X124722691Y-65880431D01*
X124655275Y-65865854D01*
X124624122Y-65842269D01*
X124598231Y-65788708D01*
X124585263Y-65704305D01*
X124586721Y-65607925D01*
X124599556Y-65533851D01*
X124634215Y-65483411D01*
X124691318Y-65459051D01*
X124750310Y-65465737D01*
X124780688Y-65490102D01*
X124800252Y-65543148D01*
X124810770Y-65624050D01*
X124812125Y-65714117D01*
X124915727Y-65714117D01*
X124916205Y-65710549D01*
X124907735Y-65581325D01*
X124888813Y-65493738D01*
X124842798Y-65405717D01*
X124771122Y-65355268D01*
X124685427Y-65346265D01*
X124597359Y-65382583D01*
G37*
X124597359Y-65382583D02*
X124584368Y-65392418D01*
X124550811Y-65430899D01*
X124529825Y-65488779D01*
X124516790Y-65580233D01*
X124514473Y-65606990D01*
X124508301Y-65735345D01*
X124516290Y-65824328D01*
X124541707Y-65884392D01*
X124587819Y-65925992D01*
X124619503Y-65943062D01*
X124686692Y-65972409D01*
X124732451Y-65980217D01*
X124780658Y-65968373D01*
X124807561Y-65957918D01*
X124864294Y-65909262D01*
X124901116Y-65823333D01*
X124915727Y-65714117D01*
X124812125Y-65714117D01*
X124804198Y-65794657D01*
X124786872Y-65846977D01*
X124782963Y-65851741D01*
X124722691Y-65880431D01*
X124655275Y-65865854D01*
X124624122Y-65842269D01*
X124598231Y-65788708D01*
X124585263Y-65704305D01*
X124586721Y-65607925D01*
X124599556Y-65533851D01*
X124634215Y-65483411D01*
X124691318Y-65459051D01*
X124750310Y-65465737D01*
X124780688Y-65490102D01*
X124800252Y-65543148D01*
X124810770Y-65624050D01*
X124812125Y-65714117D01*
X124915727Y-65714117D01*
X124916205Y-65710549D01*
X124907735Y-65581325D01*
X124888813Y-65493738D01*
X124842798Y-65405717D01*
X124771122Y-65355268D01*
X124685427Y-65346265D01*
X124597359Y-65382583D01*
G36*
X124086836Y-65383604D02*
G01*
X124053736Y-65405833D01*
X124002705Y-65462650D01*
X123986620Y-65516186D01*
X124007574Y-65575119D01*
X124067659Y-65648127D01*
X124125777Y-65704541D01*
X124196335Y-65772126D01*
X124249531Y-65827063D01*
X124276422Y-65859977D01*
X124278023Y-65864103D01*
X124255555Y-65876075D01*
X124200188Y-65882154D01*
X124187090Y-65882344D01*
X124108401Y-65890666D01*
X124043048Y-65910797D01*
X124041022Y-65911851D01*
X124002866Y-65935009D01*
X124008660Y-65949291D01*
X124036323Y-65961062D01*
X124114501Y-65976701D01*
X124215424Y-65978232D01*
X124312807Y-65965610D01*
X124328893Y-65961565D01*
X124385225Y-65934659D01*
X124401763Y-65893968D01*
X124377405Y-65836203D01*
X124311052Y-65758077D01*
X124237341Y-65687989D01*
X124155678Y-65612747D01*
X124107349Y-65562354D01*
X124086756Y-65528706D01*
X124088307Y-65503698D01*
X124099037Y-65487631D01*
X124152733Y-65458191D01*
X124240934Y-65460139D01*
X124348154Y-65487378D01*
X124393153Y-65492876D01*
X124405533Y-65467657D01*
X124383118Y-65417422D01*
X124325540Y-65381350D01*
X124247300Y-65361991D01*
X124162898Y-65361893D01*
X124086836Y-65383604D01*
G37*
X124086836Y-65383604D02*
X124053736Y-65405833D01*
X124002705Y-65462650D01*
X123986620Y-65516186D01*
X124007574Y-65575119D01*
X124067659Y-65648127D01*
X124125777Y-65704541D01*
X124196335Y-65772126D01*
X124249531Y-65827063D01*
X124276422Y-65859977D01*
X124278023Y-65864103D01*
X124255555Y-65876075D01*
X124200188Y-65882154D01*
X124187090Y-65882344D01*
X124108401Y-65890666D01*
X124043048Y-65910797D01*
X124041022Y-65911851D01*
X124002866Y-65935009D01*
X124008660Y-65949291D01*
X124036323Y-65961062D01*
X124114501Y-65976701D01*
X124215424Y-65978232D01*
X124312807Y-65965610D01*
X124328893Y-65961565D01*
X124385225Y-65934659D01*
X124401763Y-65893968D01*
X124377405Y-65836203D01*
X124311052Y-65758077D01*
X124237341Y-65687989D01*
X124155678Y-65612747D01*
X124107349Y-65562354D01*
X124086756Y-65528706D01*
X124088307Y-65503698D01*
X124099037Y-65487631D01*
X124152733Y-65458191D01*
X124240934Y-65460139D01*
X124348154Y-65487378D01*
X124393153Y-65492876D01*
X124405533Y-65467657D01*
X124383118Y-65417422D01*
X124325540Y-65381350D01*
X124247300Y-65361991D01*
X124162898Y-65361893D01*
X124086836Y-65383604D01*
G36*
X124709293Y-65543977D02*
G01*
X124684452Y-65584466D01*
X124668780Y-65643335D01*
X124668413Y-65704321D01*
X124670554Y-65714700D01*
X124694193Y-65768357D01*
X124722519Y-65775932D01*
X124747082Y-65739997D01*
X124760523Y-65676281D01*
X124760618Y-65606529D01*
X124748448Y-65552762D01*
X124737168Y-65538134D01*
X124709293Y-65543977D01*
G37*
X124709293Y-65543977D02*
X124684452Y-65584466D01*
X124668780Y-65643335D01*
X124668413Y-65704321D01*
X124670554Y-65714700D01*
X124694193Y-65768357D01*
X124722519Y-65775932D01*
X124747082Y-65739997D01*
X124760523Y-65676281D01*
X124760618Y-65606529D01*
X124748448Y-65552762D01*
X124737168Y-65538134D01*
X124709293Y-65543977D01*
G36*
X118699293Y-57963977D02*
G01*
X118674452Y-58004466D01*
X118658780Y-58063335D01*
X118658413Y-58124321D01*
X118660554Y-58134700D01*
X118684193Y-58188357D01*
X118712519Y-58195932D01*
X118737082Y-58159997D01*
X118750523Y-58096281D01*
X118750618Y-58026529D01*
X118738448Y-57972762D01*
X118727168Y-57958134D01*
X118699293Y-57963977D01*
G37*
X118699293Y-57963977D02*
X118674452Y-58004466D01*
X118658780Y-58063335D01*
X118658413Y-58124321D01*
X118660554Y-58134700D01*
X118684193Y-58188357D01*
X118712519Y-58195932D01*
X118737082Y-58159997D01*
X118750523Y-58096281D01*
X118750618Y-58026529D01*
X118738448Y-57972762D01*
X118727168Y-57958134D01*
X118699293Y-57963977D01*
G36*
X118076836Y-57803604D02*
G01*
X118043736Y-57825833D01*
X117992705Y-57882650D01*
X117976620Y-57936186D01*
X117997574Y-57995119D01*
X118057659Y-58068127D01*
X118115777Y-58124541D01*
X118186335Y-58192126D01*
X118239531Y-58247063D01*
X118266422Y-58279977D01*
X118268023Y-58284103D01*
X118245555Y-58296075D01*
X118190188Y-58302154D01*
X118177090Y-58302344D01*
X118098401Y-58310666D01*
X118033048Y-58330797D01*
X118031022Y-58331851D01*
X117992866Y-58355009D01*
X117998660Y-58369291D01*
X118026323Y-58381062D01*
X118104501Y-58396701D01*
X118205424Y-58398232D01*
X118302807Y-58385610D01*
X118318893Y-58381565D01*
X118375225Y-58354659D01*
X118391763Y-58313968D01*
X118367405Y-58256203D01*
X118301052Y-58178077D01*
X118227341Y-58107989D01*
X118145678Y-58032747D01*
X118097349Y-57982354D01*
X118076756Y-57948706D01*
X118078307Y-57923698D01*
X118089037Y-57907631D01*
X118142733Y-57878191D01*
X118230934Y-57880139D01*
X118338154Y-57907378D01*
X118383153Y-57912876D01*
X118395533Y-57887657D01*
X118373118Y-57837422D01*
X118315540Y-57801350D01*
X118237300Y-57781991D01*
X118152898Y-57781893D01*
X118076836Y-57803604D01*
G37*
X118076836Y-57803604D02*
X118043736Y-57825833D01*
X117992705Y-57882650D01*
X117976620Y-57936186D01*
X117997574Y-57995119D01*
X118057659Y-58068127D01*
X118115777Y-58124541D01*
X118186335Y-58192126D01*
X118239531Y-58247063D01*
X118266422Y-58279977D01*
X118268023Y-58284103D01*
X118245555Y-58296075D01*
X118190188Y-58302154D01*
X118177090Y-58302344D01*
X118098401Y-58310666D01*
X118033048Y-58330797D01*
X118031022Y-58331851D01*
X117992866Y-58355009D01*
X117998660Y-58369291D01*
X118026323Y-58381062D01*
X118104501Y-58396701D01*
X118205424Y-58398232D01*
X118302807Y-58385610D01*
X118318893Y-58381565D01*
X118375225Y-58354659D01*
X118391763Y-58313968D01*
X118367405Y-58256203D01*
X118301052Y-58178077D01*
X118227341Y-58107989D01*
X118145678Y-58032747D01*
X118097349Y-57982354D01*
X118076756Y-57948706D01*
X118078307Y-57923698D01*
X118089037Y-57907631D01*
X118142733Y-57878191D01*
X118230934Y-57880139D01*
X118338154Y-57907378D01*
X118383153Y-57912876D01*
X118395533Y-57887657D01*
X118373118Y-57837422D01*
X118315540Y-57801350D01*
X118237300Y-57781991D01*
X118152898Y-57781893D01*
X118076836Y-57803604D01*
G36*
X118587359Y-57802583D02*
G01*
X118574368Y-57812418D01*
X118540811Y-57850899D01*
X118519825Y-57908779D01*
X118506790Y-58000233D01*
X118504473Y-58026990D01*
X118498301Y-58155345D01*
X118506290Y-58244328D01*
X118531707Y-58304392D01*
X118577819Y-58345992D01*
X118609503Y-58363062D01*
X118676692Y-58392409D01*
X118722451Y-58400217D01*
X118770658Y-58388373D01*
X118797561Y-58377918D01*
X118854294Y-58329262D01*
X118891116Y-58243333D01*
X118905727Y-58134117D01*
X118802125Y-58134117D01*
X118794198Y-58214657D01*
X118776872Y-58266977D01*
X118772963Y-58271741D01*
X118712691Y-58300431D01*
X118645275Y-58285854D01*
X118614122Y-58262269D01*
X118588231Y-58208708D01*
X118575263Y-58124305D01*
X118576721Y-58027925D01*
X118589556Y-57953851D01*
X118624215Y-57903411D01*
X118681318Y-57879051D01*
X118740310Y-57885737D01*
X118770688Y-57910102D01*
X118790252Y-57963148D01*
X118800770Y-58044050D01*
X118802125Y-58134117D01*
X118905727Y-58134117D01*
X118906205Y-58130549D01*
X118897735Y-58001325D01*
X118878813Y-57913738D01*
X118832798Y-57825717D01*
X118761122Y-57775268D01*
X118675427Y-57766265D01*
X118587359Y-57802583D01*
G37*
X118587359Y-57802583D02*
X118574368Y-57812418D01*
X118540811Y-57850899D01*
X118519825Y-57908779D01*
X118506790Y-58000233D01*
X118504473Y-58026990D01*
X118498301Y-58155345D01*
X118506290Y-58244328D01*
X118531707Y-58304392D01*
X118577819Y-58345992D01*
X118609503Y-58363062D01*
X118676692Y-58392409D01*
X118722451Y-58400217D01*
X118770658Y-58388373D01*
X118797561Y-58377918D01*
X118854294Y-58329262D01*
X118891116Y-58243333D01*
X118905727Y-58134117D01*
X118802125Y-58134117D01*
X118794198Y-58214657D01*
X118776872Y-58266977D01*
X118772963Y-58271741D01*
X118712691Y-58300431D01*
X118645275Y-58285854D01*
X118614122Y-58262269D01*
X118588231Y-58208708D01*
X118575263Y-58124305D01*
X118576721Y-58027925D01*
X118589556Y-57953851D01*
X118624215Y-57903411D01*
X118681318Y-57879051D01*
X118740310Y-57885737D01*
X118770688Y-57910102D01*
X118790252Y-57963148D01*
X118800770Y-58044050D01*
X118802125Y-58134117D01*
X118905727Y-58134117D01*
X118906205Y-58130549D01*
X118897735Y-58001325D01*
X118878813Y-57913738D01*
X118832798Y-57825717D01*
X118761122Y-57775268D01*
X118675427Y-57766265D01*
X118587359Y-57802583D01*
G36*
X119077241Y-57804380D02*
G01*
X119063756Y-57887702D01*
X119058674Y-58019745D01*
X119058585Y-58044535D01*
X119052686Y-58178309D01*
X119035211Y-58265705D01*
X119022441Y-58291022D01*
X119000721Y-58342624D01*
X119012813Y-58372402D01*
X119057762Y-58398098D01*
X119116007Y-58402485D01*
X119163390Y-58385858D01*
X119175219Y-58370410D01*
X119177738Y-58326535D01*
X119169047Y-58254872D01*
X119161894Y-58218892D01*
X119146752Y-58124739D01*
X119154111Y-58049041D01*
X119187223Y-57963147D01*
X119192098Y-57952847D01*
X119204590Y-57896926D01*
X119180085Y-57837365D01*
X119176447Y-57831713D01*
X119132754Y-57777890D01*
X119099963Y-57768278D01*
X119077241Y-57804380D01*
G37*
X119077241Y-57804380D02*
X119063756Y-57887702D01*
X119058674Y-58019745D01*
X119058585Y-58044535D01*
X119052686Y-58178309D01*
X119035211Y-58265705D01*
X119022441Y-58291022D01*
X119000721Y-58342624D01*
X119012813Y-58372402D01*
X119057762Y-58398098D01*
X119116007Y-58402485D01*
X119163390Y-58385858D01*
X119175219Y-58370410D01*
X119177738Y-58326535D01*
X119169047Y-58254872D01*
X119161894Y-58218892D01*
X119146752Y-58124739D01*
X119154111Y-58049041D01*
X119187223Y-57963147D01*
X119192098Y-57952847D01*
X119204590Y-57896926D01*
X119180085Y-57837365D01*
X119176447Y-57831713D01*
X119132754Y-57777890D01*
X119099963Y-57768278D01*
X119077241Y-57804380D01*
G36*
X124962308Y-115425649D02*
G01*
X125136325Y-115424742D01*
X125270600Y-115422857D01*
X125370762Y-115419688D01*
X125442440Y-115414931D01*
X125491266Y-115408280D01*
X125522869Y-115399428D01*
X125542878Y-115388072D01*
X125549541Y-115382122D01*
X125567830Y-115355497D01*
X125581283Y-115312239D01*
X125591048Y-115243983D01*
X125598275Y-115142365D01*
X125604112Y-114999022D01*
X125604715Y-114980465D01*
X125616137Y-114622570D01*
X125917232Y-114622570D01*
X126092435Y-114618795D01*
X126222268Y-114606848D01*
X126311848Y-114585795D01*
X126366293Y-114554702D01*
X126380125Y-114538093D01*
X126384814Y-114506040D01*
X126389114Y-114429293D01*
X126392881Y-114314165D01*
X126395968Y-114166965D01*
X126398231Y-113994005D01*
X126399523Y-113801594D01*
X126399770Y-113685371D01*
X126400161Y-112862932D01*
X126164267Y-112858745D01*
X126042642Y-112857537D01*
X125924971Y-112857977D01*
X125831437Y-112859942D01*
X125809293Y-112860906D01*
X125742627Y-112860051D01*
X125694442Y-112844513D01*
X125661090Y-112807164D01*
X125638925Y-112740878D01*
X125624301Y-112638526D01*
X125613569Y-112492981D01*
X125612611Y-112476507D01*
X125601671Y-112331219D01*
X125584084Y-112228431D01*
X125553579Y-112159642D01*
X125503883Y-112116351D01*
X125428726Y-112090056D01*
X125321834Y-112072255D01*
X125313597Y-112071184D01*
X125187701Y-112059565D01*
X125047884Y-112053416D01*
X124959297Y-112053417D01*
X124871050Y-112055580D01*
X124745494Y-112058325D01*
X124596317Y-112061367D01*
X124437207Y-112064423D01*
X124353625Y-112065951D01*
X124197146Y-112068953D01*
X124084468Y-112072207D01*
X124008394Y-112076796D01*
X123961728Y-112083806D01*
X123937271Y-112094321D01*
X123927829Y-112109425D01*
X123926204Y-112130204D01*
X123926203Y-112130365D01*
X123922649Y-112234459D01*
X123913776Y-112356024D01*
X123900992Y-112483841D01*
X123885709Y-112606687D01*
X123869334Y-112713341D01*
X123853277Y-112792582D01*
X123838948Y-112833188D01*
X123837753Y-112834603D01*
X123790897Y-112854952D01*
X123693476Y-112872486D01*
X123545858Y-112887145D01*
X123501223Y-112890349D01*
X123383512Y-112898383D01*
X123286399Y-112905203D01*
X123220010Y-112910086D01*
X123194482Y-112912302D01*
X123181501Y-112940815D01*
X123169727Y-113012807D01*
X123163746Y-113074870D01*
X123255866Y-113074870D01*
X123317019Y-113058506D01*
X123375608Y-113049540D01*
X123463142Y-113043451D01*
X123534001Y-113041794D01*
X123717419Y-113034681D01*
X123856172Y-113014497D01*
X123948252Y-112981598D01*
X123972451Y-112964142D01*
X124001506Y-112921236D01*
X124022053Y-112849446D01*
X124036869Y-112738481D01*
X124038683Y-112718789D01*
X124056209Y-112552944D01*
X124079773Y-112430818D01*
X124116289Y-112345132D01*
X124172675Y-112288608D01*
X124255843Y-112253969D01*
X124372709Y-112233936D01*
X124510192Y-112222527D01*
X124688956Y-112213815D01*
X124864969Y-112210797D01*
X125028852Y-112213151D01*
X125171228Y-112220555D01*
X125282719Y-112232688D01*
X125353947Y-112249228D01*
X125359685Y-112251650D01*
X125412969Y-112290327D01*
X125449494Y-112353715D01*
X125471482Y-112449209D01*
X125481159Y-112584207D01*
X125482089Y-112658769D01*
X125483799Y-112770805D01*
X125490424Y-112843912D01*
X125504202Y-112890098D01*
X125527371Y-112921366D01*
X125531836Y-112925549D01*
X125588616Y-112953946D01*
X125686708Y-112978571D01*
X125816468Y-112997929D01*
X125968254Y-113010522D01*
X126106888Y-113014786D01*
X126259900Y-113015869D01*
X126243718Y-113647081D01*
X126239117Y-113824197D01*
X126234784Y-113986602D01*
X126230932Y-114126619D01*
X126227776Y-114236572D01*
X126225530Y-114308782D01*
X126224592Y-114333178D01*
X126209472Y-114372864D01*
X126165213Y-114404649D01*
X126086342Y-114430317D01*
X125967389Y-114451650D01*
X125803808Y-114470344D01*
X125693067Y-114483231D01*
X125600021Y-114498259D01*
X125537398Y-114513152D01*
X125519635Y-114521148D01*
X125502126Y-114562714D01*
X125488841Y-114654442D01*
X125479866Y-114795659D01*
X125478269Y-114839788D01*
X125473551Y-114966872D01*
X125467411Y-115053853D01*
X125457518Y-115111623D01*
X125441539Y-115151074D01*
X125417141Y-115183100D01*
X125401217Y-115199571D01*
X125371652Y-115226450D01*
X125339176Y-115245994D01*
X125294485Y-115260201D01*
X125228274Y-115271067D01*
X125131239Y-115280591D01*
X124994075Y-115290768D01*
X124967852Y-115292586D01*
X124751173Y-115302928D01*
X124540951Y-115304478D01*
X124357585Y-115297146D01*
X124334498Y-115295345D01*
X124066727Y-115272871D01*
X124052340Y-115165077D01*
X124047751Y-115091295D01*
X124047609Y-114984810D01*
X124051776Y-114863718D01*
X124055104Y-114808049D01*
X124062120Y-114701868D01*
X124067158Y-114617304D01*
X124069586Y-114565482D01*
X124069491Y-114554651D01*
X124044538Y-114551382D01*
X123977945Y-114545273D01*
X123878947Y-114537108D01*
X123756777Y-114527670D01*
X123713502Y-114524451D01*
X123584734Y-114514175D01*
X123475140Y-114503945D01*
X123394296Y-114494767D01*
X123351779Y-114487648D01*
X123347868Y-114486007D01*
X123329096Y-114448467D01*
X123313083Y-114374377D01*
X123299554Y-114260802D01*
X123288232Y-114104806D01*
X123278842Y-113903452D01*
X123271696Y-113676582D01*
X123255866Y-113074870D01*
X123163746Y-113074870D01*
X123159322Y-113120761D01*
X123150449Y-113257164D01*
X123143269Y-113414500D01*
X123137944Y-113585254D01*
X123134635Y-113761911D01*
X123133506Y-113936956D01*
X123134717Y-114102875D01*
X123138431Y-114252151D01*
X123144809Y-114377271D01*
X123154014Y-114470718D01*
X123160170Y-114505166D01*
X123183275Y-114578426D01*
X123219141Y-114622305D01*
X123281144Y-114646917D01*
X123365422Y-114660368D01*
X123538446Y-114682149D01*
X123667643Y-114703818D01*
X123759875Y-114730934D01*
X123822003Y-114769056D01*
X123860888Y-114823742D01*
X123883392Y-114900552D01*
X123896376Y-115005044D01*
X123903372Y-115096199D01*
X123913924Y-115210864D01*
X123927220Y-115307476D01*
X123941356Y-115374102D01*
X123951434Y-115397284D01*
X123981687Y-115406548D01*
X124053295Y-115413916D01*
X124168255Y-115419459D01*
X124328565Y-115423248D01*
X124536222Y-115425357D01*
X124742918Y-115425883D01*
X124962308Y-115425649D01*
G37*
X124962308Y-115425649D02*
X125136325Y-115424742D01*
X125270600Y-115422857D01*
X125370762Y-115419688D01*
X125442440Y-115414931D01*
X125491266Y-115408280D01*
X125522869Y-115399428D01*
X125542878Y-115388072D01*
X125549541Y-115382122D01*
X125567830Y-115355497D01*
X125581283Y-115312239D01*
X125591048Y-115243983D01*
X125598275Y-115142365D01*
X125604112Y-114999022D01*
X125604715Y-114980465D01*
X125616137Y-114622570D01*
X125917232Y-114622570D01*
X126092435Y-114618795D01*
X126222268Y-114606848D01*
X126311848Y-114585795D01*
X126366293Y-114554702D01*
X126380125Y-114538093D01*
X126384814Y-114506040D01*
X126389114Y-114429293D01*
X126392881Y-114314165D01*
X126395968Y-114166965D01*
X126398231Y-113994005D01*
X126399523Y-113801594D01*
X126399770Y-113685371D01*
X126400161Y-112862932D01*
X126164267Y-112858745D01*
X126042642Y-112857537D01*
X125924971Y-112857977D01*
X125831437Y-112859942D01*
X125809293Y-112860906D01*
X125742627Y-112860051D01*
X125694442Y-112844513D01*
X125661090Y-112807164D01*
X125638925Y-112740878D01*
X125624301Y-112638526D01*
X125613569Y-112492981D01*
X125612611Y-112476507D01*
X125601671Y-112331219D01*
X125584084Y-112228431D01*
X125553579Y-112159642D01*
X125503883Y-112116351D01*
X125428726Y-112090056D01*
X125321834Y-112072255D01*
X125313597Y-112071184D01*
X125187701Y-112059565D01*
X125047884Y-112053416D01*
X124959297Y-112053417D01*
X124871050Y-112055580D01*
X124745494Y-112058325D01*
X124596317Y-112061367D01*
X124437207Y-112064423D01*
X124353625Y-112065951D01*
X124197146Y-112068953D01*
X124084468Y-112072207D01*
X124008394Y-112076796D01*
X123961728Y-112083806D01*
X123937271Y-112094321D01*
X123927829Y-112109425D01*
X123926204Y-112130204D01*
X123926203Y-112130365D01*
X123922649Y-112234459D01*
X123913776Y-112356024D01*
X123900992Y-112483841D01*
X123885709Y-112606687D01*
X123869334Y-112713341D01*
X123853277Y-112792582D01*
X123838948Y-112833188D01*
X123837753Y-112834603D01*
X123790897Y-112854952D01*
X123693476Y-112872486D01*
X123545858Y-112887145D01*
X123501223Y-112890349D01*
X123383512Y-112898383D01*
X123286399Y-112905203D01*
X123220010Y-112910086D01*
X123194482Y-112912302D01*
X123181501Y-112940815D01*
X123169727Y-113012807D01*
X123163746Y-113074870D01*
X123255866Y-113074870D01*
X123317019Y-113058506D01*
X123375608Y-113049540D01*
X123463142Y-113043451D01*
X123534001Y-113041794D01*
X123717419Y-113034681D01*
X123856172Y-113014497D01*
X123948252Y-112981598D01*
X123972451Y-112964142D01*
X124001506Y-112921236D01*
X124022053Y-112849446D01*
X124036869Y-112738481D01*
X124038683Y-112718789D01*
X124056209Y-112552944D01*
X124079773Y-112430818D01*
X124116289Y-112345132D01*
X124172675Y-112288608D01*
X124255843Y-112253969D01*
X124372709Y-112233936D01*
X124510192Y-112222527D01*
X124688956Y-112213815D01*
X124864969Y-112210797D01*
X125028852Y-112213151D01*
X125171228Y-112220555D01*
X125282719Y-112232688D01*
X125353947Y-112249228D01*
X125359685Y-112251650D01*
X125412969Y-112290327D01*
X125449494Y-112353715D01*
X125471482Y-112449209D01*
X125481159Y-112584207D01*
X125482089Y-112658769D01*
X125483799Y-112770805D01*
X125490424Y-112843912D01*
X125504202Y-112890098D01*
X125527371Y-112921366D01*
X125531836Y-112925549D01*
X125588616Y-112953946D01*
X125686708Y-112978571D01*
X125816468Y-112997929D01*
X125968254Y-113010522D01*
X126106888Y-113014786D01*
X126259900Y-113015869D01*
X126243718Y-113647081D01*
X126239117Y-113824197D01*
X126234784Y-113986602D01*
X126230932Y-114126619D01*
X126227776Y-114236572D01*
X126225530Y-114308782D01*
X126224592Y-114333178D01*
X126209472Y-114372864D01*
X126165213Y-114404649D01*
X126086342Y-114430317D01*
X125967389Y-114451650D01*
X125803808Y-114470344D01*
X125693067Y-114483231D01*
X125600021Y-114498259D01*
X125537398Y-114513152D01*
X125519635Y-114521148D01*
X125502126Y-114562714D01*
X125488841Y-114654442D01*
X125479866Y-114795659D01*
X125478269Y-114839788D01*
X125473551Y-114966872D01*
X125467411Y-115053853D01*
X125457518Y-115111623D01*
X125441539Y-115151074D01*
X125417141Y-115183100D01*
X125401217Y-115199571D01*
X125371652Y-115226450D01*
X125339176Y-115245994D01*
X125294485Y-115260201D01*
X125228274Y-115271067D01*
X125131239Y-115280591D01*
X124994075Y-115290768D01*
X124967852Y-115292586D01*
X124751173Y-115302928D01*
X124540951Y-115304478D01*
X124357585Y-115297146D01*
X124334498Y-115295345D01*
X124066727Y-115272871D01*
X124052340Y-115165077D01*
X124047751Y-115091295D01*
X124047609Y-114984810D01*
X124051776Y-114863718D01*
X124055104Y-114808049D01*
X124062120Y-114701868D01*
X124067158Y-114617304D01*
X124069586Y-114565482D01*
X124069491Y-114554651D01*
X124044538Y-114551382D01*
X123977945Y-114545273D01*
X123878947Y-114537108D01*
X123756777Y-114527670D01*
X123713502Y-114524451D01*
X123584734Y-114514175D01*
X123475140Y-114503945D01*
X123394296Y-114494767D01*
X123351779Y-114487648D01*
X123347868Y-114486007D01*
X123329096Y-114448467D01*
X123313083Y-114374377D01*
X123299554Y-114260802D01*
X123288232Y-114104806D01*
X123278842Y-113903452D01*
X123271696Y-113676582D01*
X123255866Y-113074870D01*
X123163746Y-113074870D01*
X123159322Y-113120761D01*
X123150449Y-113257164D01*
X123143269Y-113414500D01*
X123137944Y-113585254D01*
X123134635Y-113761911D01*
X123133506Y-113936956D01*
X123134717Y-114102875D01*
X123138431Y-114252151D01*
X123144809Y-114377271D01*
X123154014Y-114470718D01*
X123160170Y-114505166D01*
X123183275Y-114578426D01*
X123219141Y-114622305D01*
X123281144Y-114646917D01*
X123365422Y-114660368D01*
X123538446Y-114682149D01*
X123667643Y-114703818D01*
X123759875Y-114730934D01*
X123822003Y-114769056D01*
X123860888Y-114823742D01*
X123883392Y-114900552D01*
X123896376Y-115005044D01*
X123903372Y-115096199D01*
X123913924Y-115210864D01*
X123927220Y-115307476D01*
X123941356Y-115374102D01*
X123951434Y-115397284D01*
X123981687Y-115406548D01*
X124053295Y-115413916D01*
X124168255Y-115419459D01*
X124328565Y-115423248D01*
X124536222Y-115425357D01*
X124742918Y-115425883D01*
X124962308Y-115425649D01*
G36*
X119393052Y-88446099D02*
G01*
X119909468Y-88435987D01*
X120069149Y-88431911D01*
X120213353Y-88426439D01*
X120333577Y-88420038D01*
X120421315Y-88413175D01*
X120468063Y-88406318D01*
X120471427Y-88405139D01*
X120501032Y-88386436D01*
X120498785Y-88359658D01*
X120475769Y-88321520D01*
X120438912Y-88275140D01*
X120376409Y-88206057D01*
X120299626Y-88126663D01*
X120270838Y-88098100D01*
X120191251Y-88017697D01*
X120142420Y-87959789D01*
X120117083Y-87912872D01*
X120107979Y-87865442D01*
X120107243Y-87838912D01*
X120113685Y-87770929D01*
X120136766Y-87704849D01*
X120182415Y-87629479D01*
X120256563Y-87533627D01*
X120290517Y-87492965D01*
X120348466Y-87417613D01*
X120394642Y-87345560D01*
X120411309Y-87311523D01*
X120424978Y-87259564D01*
X120405723Y-87230825D01*
X120368162Y-87213082D01*
X120320357Y-87203126D01*
X120231414Y-87193241D01*
X120111194Y-87184194D01*
X119969558Y-87176752D01*
X119846184Y-87172437D01*
X119393994Y-87160161D01*
X119387148Y-86588888D01*
X119380301Y-86017616D01*
X119176285Y-86223064D01*
X119083447Y-86313877D01*
X118992970Y-86397756D01*
X118916875Y-86463791D01*
X118876900Y-86494750D01*
X118838050Y-86522015D01*
X118807010Y-86538717D01*
X118776543Y-86541335D01*
X118739408Y-86526348D01*
X118688367Y-86490236D01*
X118616178Y-86429477D01*
X118515604Y-86340551D01*
X118462103Y-86293022D01*
X118373047Y-86215379D01*
X118297519Y-86152074D01*
X118243757Y-86109844D01*
X118220352Y-86095381D01*
X118202642Y-86120635D01*
X118188565Y-86195652D01*
X118178210Y-86319315D01*
X118171663Y-86490505D01*
X118169013Y-86708105D01*
X118168956Y-86749242D01*
X118168956Y-87166466D01*
X117856556Y-87168278D01*
X117699426Y-87170936D01*
X117542967Y-87176680D01*
X117396028Y-87184861D01*
X117267457Y-87194825D01*
X117166103Y-87205920D01*
X117100816Y-87217494D01*
X117081448Y-87225393D01*
X117085685Y-87256416D01*
X117125858Y-87319012D01*
X117199973Y-87410653D01*
X117306036Y-87528809D01*
X117393261Y-87620807D01*
X117578196Y-87812457D01*
X117357160Y-88051361D01*
X117247025Y-88172583D01*
X117237963Y-88183266D01*
X117429398Y-88183266D01*
X117445878Y-88151112D01*
X117489289Y-88094499D01*
X117550585Y-88025121D01*
X117556908Y-88018398D01*
X117627469Y-87938720D01*
X117666837Y-87878221D01*
X117682791Y-87823177D01*
X117684418Y-87793446D01*
X117675369Y-87724386D01*
X117639972Y-87682140D01*
X117614013Y-87666910D01*
X117563306Y-87627028D01*
X117512377Y-87566090D01*
X117469826Y-87498105D01*
X117444251Y-87437085D01*
X117444249Y-87397041D01*
X117446591Y-87394092D01*
X117479441Y-87383747D01*
X117552858Y-87371857D01*
X117656484Y-87359787D01*
X117779966Y-87348906D01*
X117800123Y-87347420D01*
X117931325Y-87336333D01*
X118049713Y-87323273D01*
X118142938Y-87309806D01*
X118198651Y-87297499D01*
X118201291Y-87296544D01*
X118248329Y-87271007D01*
X118282732Y-87231110D01*
X118306212Y-87169693D01*
X118320480Y-87079595D01*
X118327248Y-86953651D01*
X118328227Y-86784702D01*
X118328080Y-86766008D01*
X118324917Y-86403803D01*
X118529667Y-86555616D01*
X118655431Y-86642587D01*
X118748889Y-86692797D01*
X118807663Y-86707429D01*
X118863337Y-86694106D01*
X118937872Y-86651478D01*
X119037903Y-86575557D01*
X119066850Y-86551596D01*
X119252791Y-86395762D01*
X119268128Y-86863995D01*
X119273183Y-87012688D01*
X119277954Y-87142607D01*
X119282113Y-87245644D01*
X119285333Y-87313692D01*
X119287254Y-87338604D01*
X119312674Y-87340580D01*
X119381231Y-87342306D01*
X119485059Y-87343682D01*
X119616293Y-87344606D01*
X119767066Y-87344977D01*
X119781454Y-87344980D01*
X120271864Y-87344980D01*
X120036623Y-87581204D01*
X119801381Y-87817427D01*
X120024193Y-88040240D01*
X120247005Y-88263052D01*
X119809364Y-88263052D01*
X119662714Y-88263923D01*
X119532120Y-88266334D01*
X119426868Y-88269986D01*
X119356242Y-88274578D01*
X119331383Y-88278531D01*
X119310894Y-88296735D01*
X119297990Y-88338585D01*
X119290936Y-88413559D01*
X119288190Y-88514425D01*
X119283879Y-88697343D01*
X119276249Y-88863495D01*
X119265913Y-89006085D01*
X119253483Y-89118319D01*
X119239570Y-89193399D01*
X119224787Y-89224531D01*
X119224214Y-89224757D01*
X119195208Y-89211767D01*
X119140102Y-89169190D01*
X119067916Y-89104426D01*
X119016809Y-89054639D01*
X118937363Y-88978288D01*
X118868248Y-88918078D01*
X118818933Y-88881939D01*
X118802416Y-88875100D01*
X118763116Y-88885012D01*
X118706841Y-88917468D01*
X118627748Y-88976550D01*
X118519995Y-89066343D01*
X118483115Y-89098219D01*
X118325487Y-89235267D01*
X118355059Y-88296801D01*
X117956869Y-88279632D01*
X117769601Y-88269776D01*
X117628542Y-88257903D01*
X117528911Y-88243142D01*
X117465926Y-88224616D01*
X117434805Y-88201455D01*
X117429398Y-88183266D01*
X117237963Y-88183266D01*
X117170158Y-88263194D01*
X117123302Y-88328183D01*
X117103198Y-88372539D01*
X117106590Y-88401249D01*
X117120263Y-88414142D01*
X117157193Y-88422749D01*
X117235274Y-88432001D01*
X117344665Y-88441282D01*
X117475531Y-88449979D01*
X117618031Y-88457479D01*
X117762327Y-88463166D01*
X117898582Y-88466427D01*
X117966754Y-88466965D01*
X118134331Y-88467068D01*
X118164739Y-88906978D01*
X118178756Y-89100043D01*
X118191210Y-89247435D01*
X118202837Y-89354433D01*
X118214377Y-89426315D01*
X118226567Y-89468359D01*
X118240145Y-89485845D01*
X118245840Y-89487148D01*
X118272111Y-89471901D01*
X118329494Y-89430263D01*
X118409830Y-89368384D01*
X118504961Y-89292419D01*
X118516390Y-89283132D01*
X118613375Y-89205819D01*
X118697325Y-89141951D01*
X118759826Y-89097716D01*
X118792465Y-89079300D01*
X118793833Y-89079116D01*
X118833439Y-89090950D01*
X118891645Y-89128678D01*
X118972603Y-89195643D01*
X119080466Y-89295188D01*
X119169910Y-89381829D01*
X119393052Y-89600844D01*
X119393052Y-88446099D01*
G37*
X119393052Y-88446099D02*
X119909468Y-88435987D01*
X120069149Y-88431911D01*
X120213353Y-88426439D01*
X120333577Y-88420038D01*
X120421315Y-88413175D01*
X120468063Y-88406318D01*
X120471427Y-88405139D01*
X120501032Y-88386436D01*
X120498785Y-88359658D01*
X120475769Y-88321520D01*
X120438912Y-88275140D01*
X120376409Y-88206057D01*
X120299626Y-88126663D01*
X120270838Y-88098100D01*
X120191251Y-88017697D01*
X120142420Y-87959789D01*
X120117083Y-87912872D01*
X120107979Y-87865442D01*
X120107243Y-87838912D01*
X120113685Y-87770929D01*
X120136766Y-87704849D01*
X120182415Y-87629479D01*
X120256563Y-87533627D01*
X120290517Y-87492965D01*
X120348466Y-87417613D01*
X120394642Y-87345560D01*
X120411309Y-87311523D01*
X120424978Y-87259564D01*
X120405723Y-87230825D01*
X120368162Y-87213082D01*
X120320357Y-87203126D01*
X120231414Y-87193241D01*
X120111194Y-87184194D01*
X119969558Y-87176752D01*
X119846184Y-87172437D01*
X119393994Y-87160161D01*
X119387148Y-86588888D01*
X119380301Y-86017616D01*
X119176285Y-86223064D01*
X119083447Y-86313877D01*
X118992970Y-86397756D01*
X118916875Y-86463791D01*
X118876900Y-86494750D01*
X118838050Y-86522015D01*
X118807010Y-86538717D01*
X118776543Y-86541335D01*
X118739408Y-86526348D01*
X118688367Y-86490236D01*
X118616178Y-86429477D01*
X118515604Y-86340551D01*
X118462103Y-86293022D01*
X118373047Y-86215379D01*
X118297519Y-86152074D01*
X118243757Y-86109844D01*
X118220352Y-86095381D01*
X118202642Y-86120635D01*
X118188565Y-86195652D01*
X118178210Y-86319315D01*
X118171663Y-86490505D01*
X118169013Y-86708105D01*
X118168956Y-86749242D01*
X118168956Y-87166466D01*
X117856556Y-87168278D01*
X117699426Y-87170936D01*
X117542967Y-87176680D01*
X117396028Y-87184861D01*
X117267457Y-87194825D01*
X117166103Y-87205920D01*
X117100816Y-87217494D01*
X117081448Y-87225393D01*
X117085685Y-87256416D01*
X117125858Y-87319012D01*
X117199973Y-87410653D01*
X117306036Y-87528809D01*
X117393261Y-87620807D01*
X117578196Y-87812457D01*
X117357160Y-88051361D01*
X117247025Y-88172583D01*
X117237963Y-88183266D01*
X117429398Y-88183266D01*
X117445878Y-88151112D01*
X117489289Y-88094499D01*
X117550585Y-88025121D01*
X117556908Y-88018398D01*
X117627469Y-87938720D01*
X117666837Y-87878221D01*
X117682791Y-87823177D01*
X117684418Y-87793446D01*
X117675369Y-87724386D01*
X117639972Y-87682140D01*
X117614013Y-87666910D01*
X117563306Y-87627028D01*
X117512377Y-87566090D01*
X117469826Y-87498105D01*
X117444251Y-87437085D01*
X117444249Y-87397041D01*
X117446591Y-87394092D01*
X117479441Y-87383747D01*
X117552858Y-87371857D01*
X117656484Y-87359787D01*
X117779966Y-87348906D01*
X117800123Y-87347420D01*
X117931325Y-87336333D01*
X118049713Y-87323273D01*
X118142938Y-87309806D01*
X118198651Y-87297499D01*
X118201291Y-87296544D01*
X118248329Y-87271007D01*
X118282732Y-87231110D01*
X118306212Y-87169693D01*
X118320480Y-87079595D01*
X118327248Y-86953651D01*
X118328227Y-86784702D01*
X118328080Y-86766008D01*
X118324917Y-86403803D01*
X118529667Y-86555616D01*
X118655431Y-86642587D01*
X118748889Y-86692797D01*
X118807663Y-86707429D01*
X118863337Y-86694106D01*
X118937872Y-86651478D01*
X119037903Y-86575557D01*
X119066850Y-86551596D01*
X119252791Y-86395762D01*
X119268128Y-86863995D01*
X119273183Y-87012688D01*
X119277954Y-87142607D01*
X119282113Y-87245644D01*
X119285333Y-87313692D01*
X119287254Y-87338604D01*
X119312674Y-87340580D01*
X119381231Y-87342306D01*
X119485059Y-87343682D01*
X119616293Y-87344606D01*
X119767066Y-87344977D01*
X119781454Y-87344980D01*
X120271864Y-87344980D01*
X120036623Y-87581204D01*
X119801381Y-87817427D01*
X120024193Y-88040240D01*
X120247005Y-88263052D01*
X119809364Y-88263052D01*
X119662714Y-88263923D01*
X119532120Y-88266334D01*
X119426868Y-88269986D01*
X119356242Y-88274578D01*
X119331383Y-88278531D01*
X119310894Y-88296735D01*
X119297990Y-88338585D01*
X119290936Y-88413559D01*
X119288190Y-88514425D01*
X119283879Y-88697343D01*
X119276249Y-88863495D01*
X119265913Y-89006085D01*
X119253483Y-89118319D01*
X119239570Y-89193399D01*
X119224787Y-89224531D01*
X119224214Y-89224757D01*
X119195208Y-89211767D01*
X119140102Y-89169190D01*
X119067916Y-89104426D01*
X119016809Y-89054639D01*
X118937363Y-88978288D01*
X118868248Y-88918078D01*
X118818933Y-88881939D01*
X118802416Y-88875100D01*
X118763116Y-88885012D01*
X118706841Y-88917468D01*
X118627748Y-88976550D01*
X118519995Y-89066343D01*
X118483115Y-89098219D01*
X118325487Y-89235267D01*
X118355059Y-88296801D01*
X117956869Y-88279632D01*
X117769601Y-88269776D01*
X117628542Y-88257903D01*
X117528911Y-88243142D01*
X117465926Y-88224616D01*
X117434805Y-88201455D01*
X117429398Y-88183266D01*
X117237963Y-88183266D01*
X117170158Y-88263194D01*
X117123302Y-88328183D01*
X117103198Y-88372539D01*
X117106590Y-88401249D01*
X117120263Y-88414142D01*
X117157193Y-88422749D01*
X117235274Y-88432001D01*
X117344665Y-88441282D01*
X117475531Y-88449979D01*
X117618031Y-88457479D01*
X117762327Y-88463166D01*
X117898582Y-88466427D01*
X117966754Y-88466965D01*
X118134331Y-88467068D01*
X118164739Y-88906978D01*
X118178756Y-89100043D01*
X118191210Y-89247435D01*
X118202837Y-89354433D01*
X118214377Y-89426315D01*
X118226567Y-89468359D01*
X118240145Y-89485845D01*
X118245840Y-89487148D01*
X118272111Y-89471901D01*
X118329494Y-89430263D01*
X118409830Y-89368384D01*
X118504961Y-89292419D01*
X118516390Y-89283132D01*
X118613375Y-89205819D01*
X118697325Y-89141951D01*
X118759826Y-89097716D01*
X118792465Y-89079300D01*
X118793833Y-89079116D01*
X118833439Y-89090950D01*
X118891645Y-89128678D01*
X118972603Y-89195643D01*
X119080466Y-89295188D01*
X119169910Y-89381829D01*
X119393052Y-89600844D01*
X119393052Y-88446099D01*
G36*
X119393052Y-114366099D02*
G01*
X119909468Y-114355987D01*
X120069149Y-114351911D01*
X120213353Y-114346439D01*
X120333577Y-114340038D01*
X120421315Y-114333175D01*
X120468063Y-114326318D01*
X120471427Y-114325139D01*
X120501032Y-114306436D01*
X120498785Y-114279658D01*
X120475769Y-114241520D01*
X120438912Y-114195140D01*
X120376409Y-114126057D01*
X120299626Y-114046663D01*
X120270838Y-114018100D01*
X120191251Y-113937697D01*
X120142420Y-113879789D01*
X120117083Y-113832872D01*
X120107979Y-113785442D01*
X120107243Y-113758912D01*
X120113685Y-113690929D01*
X120136766Y-113624849D01*
X120182415Y-113549479D01*
X120256563Y-113453627D01*
X120290517Y-113412965D01*
X120348466Y-113337613D01*
X120394642Y-113265560D01*
X120411309Y-113231523D01*
X120424978Y-113179564D01*
X120405723Y-113150825D01*
X120368162Y-113133082D01*
X120320357Y-113123126D01*
X120231414Y-113113241D01*
X120111194Y-113104194D01*
X119969558Y-113096752D01*
X119846184Y-113092437D01*
X119393994Y-113080161D01*
X119387148Y-112508888D01*
X119380301Y-111937616D01*
X119176285Y-112143064D01*
X119083447Y-112233877D01*
X118992970Y-112317756D01*
X118916875Y-112383791D01*
X118876900Y-112414750D01*
X118838050Y-112442015D01*
X118807010Y-112458717D01*
X118776543Y-112461335D01*
X118739408Y-112446348D01*
X118688367Y-112410236D01*
X118616178Y-112349477D01*
X118515604Y-112260551D01*
X118462103Y-112213022D01*
X118373047Y-112135379D01*
X118297519Y-112072074D01*
X118243757Y-112029844D01*
X118220352Y-112015381D01*
X118202642Y-112040635D01*
X118188565Y-112115652D01*
X118178210Y-112239315D01*
X118171663Y-112410505D01*
X118169013Y-112628105D01*
X118168956Y-112669242D01*
X118168956Y-113086466D01*
X117856556Y-113088278D01*
X117699426Y-113090936D01*
X117542967Y-113096680D01*
X117396028Y-113104861D01*
X117267457Y-113114825D01*
X117166103Y-113125920D01*
X117100816Y-113137494D01*
X117081448Y-113145393D01*
X117085685Y-113176416D01*
X117125858Y-113239012D01*
X117199973Y-113330653D01*
X117306036Y-113448809D01*
X117393261Y-113540807D01*
X117578196Y-113732457D01*
X117357160Y-113971361D01*
X117247025Y-114092583D01*
X117237963Y-114103266D01*
X117429398Y-114103266D01*
X117445878Y-114071112D01*
X117489289Y-114014499D01*
X117550585Y-113945121D01*
X117556908Y-113938398D01*
X117627469Y-113858720D01*
X117666837Y-113798221D01*
X117682791Y-113743177D01*
X117684418Y-113713446D01*
X117675369Y-113644386D01*
X117639972Y-113602140D01*
X117614013Y-113586910D01*
X117563306Y-113547028D01*
X117512377Y-113486090D01*
X117469826Y-113418105D01*
X117444251Y-113357085D01*
X117444249Y-113317041D01*
X117446591Y-113314092D01*
X117479441Y-113303747D01*
X117552858Y-113291857D01*
X117656484Y-113279787D01*
X117779966Y-113268906D01*
X117800123Y-113267420D01*
X117931325Y-113256333D01*
X118049713Y-113243273D01*
X118142938Y-113229806D01*
X118198651Y-113217499D01*
X118201291Y-113216544D01*
X118248329Y-113191007D01*
X118282732Y-113151110D01*
X118306212Y-113089693D01*
X118320480Y-112999595D01*
X118327248Y-112873651D01*
X118328227Y-112704702D01*
X118328080Y-112686008D01*
X118324917Y-112323803D01*
X118529667Y-112475616D01*
X118655431Y-112562587D01*
X118748889Y-112612797D01*
X118807663Y-112627429D01*
X118863337Y-112614106D01*
X118937872Y-112571478D01*
X119037903Y-112495557D01*
X119066850Y-112471596D01*
X119252791Y-112315762D01*
X119268128Y-112783995D01*
X119273183Y-112932688D01*
X119277954Y-113062607D01*
X119282113Y-113165644D01*
X119285333Y-113233692D01*
X119287254Y-113258604D01*
X119312674Y-113260580D01*
X119381231Y-113262306D01*
X119485059Y-113263682D01*
X119616293Y-113264606D01*
X119767066Y-113264977D01*
X119781454Y-113264980D01*
X120271864Y-113264980D01*
X120036623Y-113501204D01*
X119801381Y-113737427D01*
X120024193Y-113960240D01*
X120247005Y-114183052D01*
X119809364Y-114183052D01*
X119662714Y-114183923D01*
X119532120Y-114186334D01*
X119426868Y-114189986D01*
X119356242Y-114194578D01*
X119331383Y-114198531D01*
X119310894Y-114216735D01*
X119297990Y-114258585D01*
X119290936Y-114333559D01*
X119288190Y-114434425D01*
X119283879Y-114617343D01*
X119276249Y-114783495D01*
X119265913Y-114926085D01*
X119253483Y-115038319D01*
X119239570Y-115113399D01*
X119224787Y-115144531D01*
X119224214Y-115144757D01*
X119195208Y-115131767D01*
X119140102Y-115089190D01*
X119067916Y-115024426D01*
X119016809Y-114974639D01*
X118937363Y-114898288D01*
X118868248Y-114838078D01*
X118818933Y-114801939D01*
X118802416Y-114795100D01*
X118763116Y-114805012D01*
X118706841Y-114837468D01*
X118627748Y-114896550D01*
X118519995Y-114986343D01*
X118483115Y-115018219D01*
X118325487Y-115155267D01*
X118355059Y-114216801D01*
X117956869Y-114199632D01*
X117769601Y-114189776D01*
X117628542Y-114177903D01*
X117528911Y-114163142D01*
X117465926Y-114144616D01*
X117434805Y-114121455D01*
X117429398Y-114103266D01*
X117237963Y-114103266D01*
X117170158Y-114183194D01*
X117123302Y-114248183D01*
X117103198Y-114292539D01*
X117106590Y-114321249D01*
X117120263Y-114334142D01*
X117157193Y-114342749D01*
X117235274Y-114352001D01*
X117344665Y-114361282D01*
X117475531Y-114369979D01*
X117618031Y-114377479D01*
X117762327Y-114383166D01*
X117898582Y-114386427D01*
X117966754Y-114386965D01*
X118134331Y-114387068D01*
X118164739Y-114826978D01*
X118178756Y-115020043D01*
X118191210Y-115167435D01*
X118202837Y-115274433D01*
X118214377Y-115346315D01*
X118226567Y-115388359D01*
X118240145Y-115405845D01*
X118245840Y-115407148D01*
X118272111Y-115391901D01*
X118329494Y-115350263D01*
X118409830Y-115288384D01*
X118504961Y-115212419D01*
X118516390Y-115203132D01*
X118613375Y-115125819D01*
X118697325Y-115061951D01*
X118759826Y-115017716D01*
X118792465Y-114999300D01*
X118793833Y-114999116D01*
X118833439Y-115010950D01*
X118891645Y-115048678D01*
X118972603Y-115115643D01*
X119080466Y-115215188D01*
X119169910Y-115301829D01*
X119393052Y-115520844D01*
X119393052Y-114366099D01*
G37*
X119393052Y-114366099D02*
X119909468Y-114355987D01*
X120069149Y-114351911D01*
X120213353Y-114346439D01*
X120333577Y-114340038D01*
X120421315Y-114333175D01*
X120468063Y-114326318D01*
X120471427Y-114325139D01*
X120501032Y-114306436D01*
X120498785Y-114279658D01*
X120475769Y-114241520D01*
X120438912Y-114195140D01*
X120376409Y-114126057D01*
X120299626Y-114046663D01*
X120270838Y-114018100D01*
X120191251Y-113937697D01*
X120142420Y-113879789D01*
X120117083Y-113832872D01*
X120107979Y-113785442D01*
X120107243Y-113758912D01*
X120113685Y-113690929D01*
X120136766Y-113624849D01*
X120182415Y-113549479D01*
X120256563Y-113453627D01*
X120290517Y-113412965D01*
X120348466Y-113337613D01*
X120394642Y-113265560D01*
X120411309Y-113231523D01*
X120424978Y-113179564D01*
X120405723Y-113150825D01*
X120368162Y-113133082D01*
X120320357Y-113123126D01*
X120231414Y-113113241D01*
X120111194Y-113104194D01*
X119969558Y-113096752D01*
X119846184Y-113092437D01*
X119393994Y-113080161D01*
X119387148Y-112508888D01*
X119380301Y-111937616D01*
X119176285Y-112143064D01*
X119083447Y-112233877D01*
X118992970Y-112317756D01*
X118916875Y-112383791D01*
X118876900Y-112414750D01*
X118838050Y-112442015D01*
X118807010Y-112458717D01*
X118776543Y-112461335D01*
X118739408Y-112446348D01*
X118688367Y-112410236D01*
X118616178Y-112349477D01*
X118515604Y-112260551D01*
X118462103Y-112213022D01*
X118373047Y-112135379D01*
X118297519Y-112072074D01*
X118243757Y-112029844D01*
X118220352Y-112015381D01*
X118202642Y-112040635D01*
X118188565Y-112115652D01*
X118178210Y-112239315D01*
X118171663Y-112410505D01*
X118169013Y-112628105D01*
X118168956Y-112669242D01*
X118168956Y-113086466D01*
X117856556Y-113088278D01*
X117699426Y-113090936D01*
X117542967Y-113096680D01*
X117396028Y-113104861D01*
X117267457Y-113114825D01*
X117166103Y-113125920D01*
X117100816Y-113137494D01*
X117081448Y-113145393D01*
X117085685Y-113176416D01*
X117125858Y-113239012D01*
X117199973Y-113330653D01*
X117306036Y-113448809D01*
X117393261Y-113540807D01*
X117578196Y-113732457D01*
X117357160Y-113971361D01*
X117247025Y-114092583D01*
X117237963Y-114103266D01*
X117429398Y-114103266D01*
X117445878Y-114071112D01*
X117489289Y-114014499D01*
X117550585Y-113945121D01*
X117556908Y-113938398D01*
X117627469Y-113858720D01*
X117666837Y-113798221D01*
X117682791Y-113743177D01*
X117684418Y-113713446D01*
X117675369Y-113644386D01*
X117639972Y-113602140D01*
X117614013Y-113586910D01*
X117563306Y-113547028D01*
X117512377Y-113486090D01*
X117469826Y-113418105D01*
X117444251Y-113357085D01*
X117444249Y-113317041D01*
X117446591Y-113314092D01*
X117479441Y-113303747D01*
X117552858Y-113291857D01*
X117656484Y-113279787D01*
X117779966Y-113268906D01*
X117800123Y-113267420D01*
X117931325Y-113256333D01*
X118049713Y-113243273D01*
X118142938Y-113229806D01*
X118198651Y-113217499D01*
X118201291Y-113216544D01*
X118248329Y-113191007D01*
X118282732Y-113151110D01*
X118306212Y-113089693D01*
X118320480Y-112999595D01*
X118327248Y-112873651D01*
X118328227Y-112704702D01*
X118328080Y-112686008D01*
X118324917Y-112323803D01*
X118529667Y-112475616D01*
X118655431Y-112562587D01*
X118748889Y-112612797D01*
X118807663Y-112627429D01*
X118863337Y-112614106D01*
X118937872Y-112571478D01*
X119037903Y-112495557D01*
X119066850Y-112471596D01*
X119252791Y-112315762D01*
X119268128Y-112783995D01*
X119273183Y-112932688D01*
X119277954Y-113062607D01*
X119282113Y-113165644D01*
X119285333Y-113233692D01*
X119287254Y-113258604D01*
X119312674Y-113260580D01*
X119381231Y-113262306D01*
X119485059Y-113263682D01*
X119616293Y-113264606D01*
X119767066Y-113264977D01*
X119781454Y-113264980D01*
X120271864Y-113264980D01*
X120036623Y-113501204D01*
X119801381Y-113737427D01*
X120024193Y-113960240D01*
X120247005Y-114183052D01*
X119809364Y-114183052D01*
X119662714Y-114183923D01*
X119532120Y-114186334D01*
X119426868Y-114189986D01*
X119356242Y-114194578D01*
X119331383Y-114198531D01*
X119310894Y-114216735D01*
X119297990Y-114258585D01*
X119290936Y-114333559D01*
X119288190Y-114434425D01*
X119283879Y-114617343D01*
X119276249Y-114783495D01*
X119265913Y-114926085D01*
X119253483Y-115038319D01*
X119239570Y-115113399D01*
X119224787Y-115144531D01*
X119224214Y-115144757D01*
X119195208Y-115131767D01*
X119140102Y-115089190D01*
X119067916Y-115024426D01*
X119016809Y-114974639D01*
X118937363Y-114898288D01*
X118868248Y-114838078D01*
X118818933Y-114801939D01*
X118802416Y-114795100D01*
X118763116Y-114805012D01*
X118706841Y-114837468D01*
X118627748Y-114896550D01*
X118519995Y-114986343D01*
X118483115Y-115018219D01*
X118325487Y-115155267D01*
X118355059Y-114216801D01*
X117956869Y-114199632D01*
X117769601Y-114189776D01*
X117628542Y-114177903D01*
X117528911Y-114163142D01*
X117465926Y-114144616D01*
X117434805Y-114121455D01*
X117429398Y-114103266D01*
X117237963Y-114103266D01*
X117170158Y-114183194D01*
X117123302Y-114248183D01*
X117103198Y-114292539D01*
X117106590Y-114321249D01*
X117120263Y-114334142D01*
X117157193Y-114342749D01*
X117235274Y-114352001D01*
X117344665Y-114361282D01*
X117475531Y-114369979D01*
X117618031Y-114377479D01*
X117762327Y-114383166D01*
X117898582Y-114386427D01*
X117966754Y-114386965D01*
X118134331Y-114387068D01*
X118164739Y-114826978D01*
X118178756Y-115020043D01*
X118191210Y-115167435D01*
X118202837Y-115274433D01*
X118214377Y-115346315D01*
X118226567Y-115388359D01*
X118240145Y-115405845D01*
X118245840Y-115407148D01*
X118272111Y-115391901D01*
X118329494Y-115350263D01*
X118409830Y-115288384D01*
X118504961Y-115212419D01*
X118516390Y-115203132D01*
X118613375Y-115125819D01*
X118697325Y-115061951D01*
X118759826Y-115017716D01*
X118792465Y-114999300D01*
X118793833Y-114999116D01*
X118833439Y-115010950D01*
X118891645Y-115048678D01*
X118972603Y-115115643D01*
X119080466Y-115215188D01*
X119169910Y-115301829D01*
X119393052Y-115520844D01*
X119393052Y-114366099D01*
G36*
X119393052Y-140286099D02*
G01*
X119909468Y-140275987D01*
X120069149Y-140271911D01*
X120213353Y-140266439D01*
X120333577Y-140260038D01*
X120421315Y-140253175D01*
X120468063Y-140246318D01*
X120471427Y-140245139D01*
X120501032Y-140226436D01*
X120498785Y-140199658D01*
X120475769Y-140161520D01*
X120438912Y-140115140D01*
X120376409Y-140046057D01*
X120299626Y-139966663D01*
X120270838Y-139938100D01*
X120191251Y-139857697D01*
X120142420Y-139799789D01*
X120117083Y-139752872D01*
X120107979Y-139705442D01*
X120107243Y-139678912D01*
X120113685Y-139610929D01*
X120136766Y-139544849D01*
X120182415Y-139469479D01*
X120256563Y-139373627D01*
X120290517Y-139332965D01*
X120348466Y-139257613D01*
X120394642Y-139185560D01*
X120411309Y-139151523D01*
X120424978Y-139099564D01*
X120405723Y-139070825D01*
X120368162Y-139053082D01*
X120320357Y-139043126D01*
X120231414Y-139033241D01*
X120111194Y-139024194D01*
X119969558Y-139016752D01*
X119846184Y-139012437D01*
X119393994Y-139000161D01*
X119387148Y-138428888D01*
X119380301Y-137857616D01*
X119176285Y-138063064D01*
X119083447Y-138153877D01*
X118992970Y-138237756D01*
X118916875Y-138303791D01*
X118876900Y-138334750D01*
X118838050Y-138362015D01*
X118807010Y-138378717D01*
X118776543Y-138381335D01*
X118739408Y-138366348D01*
X118688367Y-138330236D01*
X118616178Y-138269477D01*
X118515604Y-138180551D01*
X118462103Y-138133022D01*
X118373047Y-138055379D01*
X118297519Y-137992074D01*
X118243757Y-137949844D01*
X118220352Y-137935381D01*
X118202642Y-137960635D01*
X118188565Y-138035652D01*
X118178210Y-138159315D01*
X118171663Y-138330505D01*
X118169013Y-138548105D01*
X118168956Y-138589242D01*
X118168956Y-139006466D01*
X117856556Y-139008278D01*
X117699426Y-139010936D01*
X117542967Y-139016680D01*
X117396028Y-139024861D01*
X117267457Y-139034825D01*
X117166103Y-139045920D01*
X117100816Y-139057494D01*
X117081448Y-139065393D01*
X117085685Y-139096416D01*
X117125858Y-139159012D01*
X117199973Y-139250653D01*
X117306036Y-139368809D01*
X117393261Y-139460807D01*
X117578196Y-139652457D01*
X117357160Y-139891361D01*
X117247025Y-140012583D01*
X117237963Y-140023266D01*
X117429398Y-140023266D01*
X117445878Y-139991112D01*
X117489289Y-139934499D01*
X117550585Y-139865121D01*
X117556908Y-139858398D01*
X117627469Y-139778720D01*
X117666837Y-139718221D01*
X117682791Y-139663177D01*
X117684418Y-139633446D01*
X117675369Y-139564386D01*
X117639972Y-139522140D01*
X117614013Y-139506910D01*
X117563306Y-139467028D01*
X117512377Y-139406090D01*
X117469826Y-139338105D01*
X117444251Y-139277085D01*
X117444249Y-139237041D01*
X117446591Y-139234092D01*
X117479441Y-139223747D01*
X117552858Y-139211857D01*
X117656484Y-139199787D01*
X117779966Y-139188906D01*
X117800123Y-139187420D01*
X117931325Y-139176333D01*
X118049713Y-139163273D01*
X118142938Y-139149806D01*
X118198651Y-139137499D01*
X118201291Y-139136544D01*
X118248329Y-139111007D01*
X118282732Y-139071110D01*
X118306212Y-139009693D01*
X118320480Y-138919595D01*
X118327248Y-138793651D01*
X118328227Y-138624702D01*
X118328080Y-138606008D01*
X118324917Y-138243803D01*
X118529667Y-138395616D01*
X118655431Y-138482587D01*
X118748889Y-138532797D01*
X118807663Y-138547429D01*
X118863337Y-138534106D01*
X118937872Y-138491478D01*
X119037903Y-138415557D01*
X119066850Y-138391596D01*
X119252791Y-138235762D01*
X119268128Y-138703995D01*
X119273183Y-138852688D01*
X119277954Y-138982607D01*
X119282113Y-139085644D01*
X119285333Y-139153692D01*
X119287254Y-139178604D01*
X119312674Y-139180580D01*
X119381231Y-139182306D01*
X119485059Y-139183682D01*
X119616293Y-139184606D01*
X119767066Y-139184977D01*
X119781454Y-139184980D01*
X120271864Y-139184980D01*
X120036623Y-139421204D01*
X119801381Y-139657427D01*
X120024193Y-139880240D01*
X120247005Y-140103052D01*
X119809364Y-140103052D01*
X119662714Y-140103923D01*
X119532120Y-140106334D01*
X119426868Y-140109986D01*
X119356242Y-140114578D01*
X119331383Y-140118531D01*
X119310894Y-140136735D01*
X119297990Y-140178585D01*
X119290936Y-140253559D01*
X119288190Y-140354425D01*
X119283879Y-140537343D01*
X119276249Y-140703495D01*
X119265913Y-140846085D01*
X119253483Y-140958319D01*
X119239570Y-141033399D01*
X119224787Y-141064531D01*
X119224214Y-141064757D01*
X119195208Y-141051767D01*
X119140102Y-141009190D01*
X119067916Y-140944426D01*
X119016809Y-140894639D01*
X118937363Y-140818288D01*
X118868248Y-140758078D01*
X118818933Y-140721939D01*
X118802416Y-140715100D01*
X118763116Y-140725012D01*
X118706841Y-140757468D01*
X118627748Y-140816550D01*
X118519995Y-140906343D01*
X118483115Y-140938219D01*
X118325487Y-141075267D01*
X118355059Y-140136801D01*
X117956869Y-140119632D01*
X117769601Y-140109776D01*
X117628542Y-140097903D01*
X117528911Y-140083142D01*
X117465926Y-140064616D01*
X117434805Y-140041455D01*
X117429398Y-140023266D01*
X117237963Y-140023266D01*
X117170158Y-140103194D01*
X117123302Y-140168183D01*
X117103198Y-140212539D01*
X117106590Y-140241249D01*
X117120263Y-140254142D01*
X117157193Y-140262749D01*
X117235274Y-140272001D01*
X117344665Y-140281282D01*
X117475531Y-140289979D01*
X117618031Y-140297479D01*
X117762327Y-140303166D01*
X117898582Y-140306427D01*
X117966754Y-140306965D01*
X118134331Y-140307068D01*
X118164739Y-140746978D01*
X118178756Y-140940043D01*
X118191210Y-141087435D01*
X118202837Y-141194433D01*
X118214377Y-141266315D01*
X118226567Y-141308359D01*
X118240145Y-141325845D01*
X118245840Y-141327148D01*
X118272111Y-141311901D01*
X118329494Y-141270263D01*
X118409830Y-141208384D01*
X118504961Y-141132419D01*
X118516390Y-141123132D01*
X118613375Y-141045819D01*
X118697325Y-140981951D01*
X118759826Y-140937716D01*
X118792465Y-140919300D01*
X118793833Y-140919116D01*
X118833439Y-140930950D01*
X118891645Y-140968678D01*
X118972603Y-141035643D01*
X119080466Y-141135188D01*
X119169910Y-141221829D01*
X119393052Y-141440844D01*
X119393052Y-140286099D01*
G37*
X119393052Y-140286099D02*
X119909468Y-140275987D01*
X120069149Y-140271911D01*
X120213353Y-140266439D01*
X120333577Y-140260038D01*
X120421315Y-140253175D01*
X120468063Y-140246318D01*
X120471427Y-140245139D01*
X120501032Y-140226436D01*
X120498785Y-140199658D01*
X120475769Y-140161520D01*
X120438912Y-140115140D01*
X120376409Y-140046057D01*
X120299626Y-139966663D01*
X120270838Y-139938100D01*
X120191251Y-139857697D01*
X120142420Y-139799789D01*
X120117083Y-139752872D01*
X120107979Y-139705442D01*
X120107243Y-139678912D01*
X120113685Y-139610929D01*
X120136766Y-139544849D01*
X120182415Y-139469479D01*
X120256563Y-139373627D01*
X120290517Y-139332965D01*
X120348466Y-139257613D01*
X120394642Y-139185560D01*
X120411309Y-139151523D01*
X120424978Y-139099564D01*
X120405723Y-139070825D01*
X120368162Y-139053082D01*
X120320357Y-139043126D01*
X120231414Y-139033241D01*
X120111194Y-139024194D01*
X119969558Y-139016752D01*
X119846184Y-139012437D01*
X119393994Y-139000161D01*
X119387148Y-138428888D01*
X119380301Y-137857616D01*
X119176285Y-138063064D01*
X119083447Y-138153877D01*
X118992970Y-138237756D01*
X118916875Y-138303791D01*
X118876900Y-138334750D01*
X118838050Y-138362015D01*
X118807010Y-138378717D01*
X118776543Y-138381335D01*
X118739408Y-138366348D01*
X118688367Y-138330236D01*
X118616178Y-138269477D01*
X118515604Y-138180551D01*
X118462103Y-138133022D01*
X118373047Y-138055379D01*
X118297519Y-137992074D01*
X118243757Y-137949844D01*
X118220352Y-137935381D01*
X118202642Y-137960635D01*
X118188565Y-138035652D01*
X118178210Y-138159315D01*
X118171663Y-138330505D01*
X118169013Y-138548105D01*
X118168956Y-138589242D01*
X118168956Y-139006466D01*
X117856556Y-139008278D01*
X117699426Y-139010936D01*
X117542967Y-139016680D01*
X117396028Y-139024861D01*
X117267457Y-139034825D01*
X117166103Y-139045920D01*
X117100816Y-139057494D01*
X117081448Y-139065393D01*
X117085685Y-139096416D01*
X117125858Y-139159012D01*
X117199973Y-139250653D01*
X117306036Y-139368809D01*
X117393261Y-139460807D01*
X117578196Y-139652457D01*
X117357160Y-139891361D01*
X117247025Y-140012583D01*
X117237963Y-140023266D01*
X117429398Y-140023266D01*
X117445878Y-139991112D01*
X117489289Y-139934499D01*
X117550585Y-139865121D01*
X117556908Y-139858398D01*
X117627469Y-139778720D01*
X117666837Y-139718221D01*
X117682791Y-139663177D01*
X117684418Y-139633446D01*
X117675369Y-139564386D01*
X117639972Y-139522140D01*
X117614013Y-139506910D01*
X117563306Y-139467028D01*
X117512377Y-139406090D01*
X117469826Y-139338105D01*
X117444251Y-139277085D01*
X117444249Y-139237041D01*
X117446591Y-139234092D01*
X117479441Y-139223747D01*
X117552858Y-139211857D01*
X117656484Y-139199787D01*
X117779966Y-139188906D01*
X117800123Y-139187420D01*
X117931325Y-139176333D01*
X118049713Y-139163273D01*
X118142938Y-139149806D01*
X118198651Y-139137499D01*
X118201291Y-139136544D01*
X118248329Y-139111007D01*
X118282732Y-139071110D01*
X118306212Y-139009693D01*
X118320480Y-138919595D01*
X118327248Y-138793651D01*
X118328227Y-138624702D01*
X118328080Y-138606008D01*
X118324917Y-138243803D01*
X118529667Y-138395616D01*
X118655431Y-138482587D01*
X118748889Y-138532797D01*
X118807663Y-138547429D01*
X118863337Y-138534106D01*
X118937872Y-138491478D01*
X119037903Y-138415557D01*
X119066850Y-138391596D01*
X119252791Y-138235762D01*
X119268128Y-138703995D01*
X119273183Y-138852688D01*
X119277954Y-138982607D01*
X119282113Y-139085644D01*
X119285333Y-139153692D01*
X119287254Y-139178604D01*
X119312674Y-139180580D01*
X119381231Y-139182306D01*
X119485059Y-139183682D01*
X119616293Y-139184606D01*
X119767066Y-139184977D01*
X119781454Y-139184980D01*
X120271864Y-139184980D01*
X120036623Y-139421204D01*
X119801381Y-139657427D01*
X120024193Y-139880240D01*
X120247005Y-140103052D01*
X119809364Y-140103052D01*
X119662714Y-140103923D01*
X119532120Y-140106334D01*
X119426868Y-140109986D01*
X119356242Y-140114578D01*
X119331383Y-140118531D01*
X119310894Y-140136735D01*
X119297990Y-140178585D01*
X119290936Y-140253559D01*
X119288190Y-140354425D01*
X119283879Y-140537343D01*
X119276249Y-140703495D01*
X119265913Y-140846085D01*
X119253483Y-140958319D01*
X119239570Y-141033399D01*
X119224787Y-141064531D01*
X119224214Y-141064757D01*
X119195208Y-141051767D01*
X119140102Y-141009190D01*
X119067916Y-140944426D01*
X119016809Y-140894639D01*
X118937363Y-140818288D01*
X118868248Y-140758078D01*
X118818933Y-140721939D01*
X118802416Y-140715100D01*
X118763116Y-140725012D01*
X118706841Y-140757468D01*
X118627748Y-140816550D01*
X118519995Y-140906343D01*
X118483115Y-140938219D01*
X118325487Y-141075267D01*
X118355059Y-140136801D01*
X117956869Y-140119632D01*
X117769601Y-140109776D01*
X117628542Y-140097903D01*
X117528911Y-140083142D01*
X117465926Y-140064616D01*
X117434805Y-140041455D01*
X117429398Y-140023266D01*
X117237963Y-140023266D01*
X117170158Y-140103194D01*
X117123302Y-140168183D01*
X117103198Y-140212539D01*
X117106590Y-140241249D01*
X117120263Y-140254142D01*
X117157193Y-140262749D01*
X117235274Y-140272001D01*
X117344665Y-140281282D01*
X117475531Y-140289979D01*
X117618031Y-140297479D01*
X117762327Y-140303166D01*
X117898582Y-140306427D01*
X117966754Y-140306965D01*
X118134331Y-140307068D01*
X118164739Y-140746978D01*
X118178756Y-140940043D01*
X118191210Y-141087435D01*
X118202837Y-141194433D01*
X118214377Y-141266315D01*
X118226567Y-141308359D01*
X118240145Y-141325845D01*
X118245840Y-141327148D01*
X118272111Y-141311901D01*
X118329494Y-141270263D01*
X118409830Y-141208384D01*
X118504961Y-141132419D01*
X118516390Y-141123132D01*
X118613375Y-141045819D01*
X118697325Y-140981951D01*
X118759826Y-140937716D01*
X118792465Y-140919300D01*
X118793833Y-140919116D01*
X118833439Y-140930950D01*
X118891645Y-140968678D01*
X118972603Y-141035643D01*
X119080466Y-141135188D01*
X119169910Y-141221829D01*
X119393052Y-141440844D01*
X119393052Y-140286099D01*
G36*
X124962308Y-89505649D02*
G01*
X125136325Y-89504742D01*
X125270600Y-89502857D01*
X125370762Y-89499688D01*
X125442440Y-89494931D01*
X125491266Y-89488280D01*
X125522869Y-89479428D01*
X125542878Y-89468072D01*
X125549541Y-89462122D01*
X125567830Y-89435497D01*
X125581283Y-89392239D01*
X125591048Y-89323983D01*
X125598275Y-89222365D01*
X125604112Y-89079022D01*
X125604715Y-89060465D01*
X125616137Y-88702570D01*
X125917232Y-88702570D01*
X126092435Y-88698795D01*
X126222268Y-88686848D01*
X126311848Y-88665795D01*
X126366293Y-88634702D01*
X126380125Y-88618093D01*
X126384814Y-88586040D01*
X126389114Y-88509293D01*
X126392881Y-88394165D01*
X126395968Y-88246965D01*
X126398231Y-88074005D01*
X126399523Y-87881594D01*
X126399770Y-87765371D01*
X126400161Y-86942932D01*
X126164267Y-86938745D01*
X126042642Y-86937537D01*
X125924971Y-86937977D01*
X125831437Y-86939942D01*
X125809293Y-86940906D01*
X125742627Y-86940051D01*
X125694442Y-86924513D01*
X125661090Y-86887164D01*
X125638925Y-86820878D01*
X125624301Y-86718526D01*
X125613569Y-86572981D01*
X125612611Y-86556507D01*
X125601671Y-86411219D01*
X125584084Y-86308431D01*
X125553579Y-86239642D01*
X125503883Y-86196351D01*
X125428726Y-86170056D01*
X125321834Y-86152255D01*
X125313597Y-86151184D01*
X125187701Y-86139565D01*
X125047884Y-86133416D01*
X124959297Y-86133417D01*
X124871050Y-86135580D01*
X124745494Y-86138325D01*
X124596317Y-86141367D01*
X124437207Y-86144423D01*
X124353625Y-86145951D01*
X124197146Y-86148953D01*
X124084468Y-86152207D01*
X124008394Y-86156796D01*
X123961728Y-86163806D01*
X123937271Y-86174321D01*
X123927829Y-86189425D01*
X123926204Y-86210204D01*
X123926203Y-86210365D01*
X123922649Y-86314459D01*
X123913776Y-86436024D01*
X123900992Y-86563841D01*
X123885709Y-86686687D01*
X123869334Y-86793341D01*
X123853277Y-86872582D01*
X123838948Y-86913188D01*
X123837753Y-86914603D01*
X123790897Y-86934952D01*
X123693476Y-86952486D01*
X123545858Y-86967145D01*
X123501223Y-86970349D01*
X123383512Y-86978383D01*
X123286399Y-86985203D01*
X123220010Y-86990086D01*
X123194482Y-86992302D01*
X123181501Y-87020815D01*
X123169727Y-87092807D01*
X123163746Y-87154870D01*
X123255866Y-87154870D01*
X123317019Y-87138506D01*
X123375608Y-87129540D01*
X123463142Y-87123451D01*
X123534001Y-87121794D01*
X123717419Y-87114681D01*
X123856172Y-87094497D01*
X123948252Y-87061598D01*
X123972451Y-87044142D01*
X124001506Y-87001236D01*
X124022053Y-86929446D01*
X124036869Y-86818481D01*
X124038683Y-86798789D01*
X124056209Y-86632944D01*
X124079773Y-86510818D01*
X124116289Y-86425132D01*
X124172675Y-86368608D01*
X124255843Y-86333969D01*
X124372709Y-86313936D01*
X124510192Y-86302527D01*
X124688956Y-86293815D01*
X124864969Y-86290797D01*
X125028852Y-86293151D01*
X125171228Y-86300555D01*
X125282719Y-86312688D01*
X125353947Y-86329228D01*
X125359685Y-86331650D01*
X125412969Y-86370327D01*
X125449494Y-86433715D01*
X125471482Y-86529209D01*
X125481159Y-86664207D01*
X125482089Y-86738769D01*
X125483799Y-86850805D01*
X125490424Y-86923912D01*
X125504202Y-86970098D01*
X125527371Y-87001366D01*
X125531836Y-87005549D01*
X125588616Y-87033946D01*
X125686708Y-87058571D01*
X125816468Y-87077929D01*
X125968254Y-87090522D01*
X126106888Y-87094786D01*
X126259900Y-87095869D01*
X126243718Y-87727081D01*
X126239117Y-87904197D01*
X126234784Y-88066602D01*
X126230932Y-88206619D01*
X126227776Y-88316572D01*
X126225530Y-88388782D01*
X126224592Y-88413178D01*
X126209472Y-88452864D01*
X126165213Y-88484649D01*
X126086342Y-88510317D01*
X125967389Y-88531650D01*
X125803808Y-88550344D01*
X125693067Y-88563231D01*
X125600021Y-88578259D01*
X125537398Y-88593152D01*
X125519635Y-88601148D01*
X125502126Y-88642714D01*
X125488841Y-88734442D01*
X125479866Y-88875659D01*
X125478269Y-88919788D01*
X125473551Y-89046872D01*
X125467411Y-89133853D01*
X125457518Y-89191623D01*
X125441539Y-89231074D01*
X125417141Y-89263100D01*
X125401217Y-89279571D01*
X125371652Y-89306450D01*
X125339176Y-89325994D01*
X125294485Y-89340201D01*
X125228274Y-89351067D01*
X125131239Y-89360591D01*
X124994075Y-89370768D01*
X124967852Y-89372586D01*
X124751173Y-89382928D01*
X124540951Y-89384478D01*
X124357585Y-89377146D01*
X124334498Y-89375345D01*
X124066727Y-89352871D01*
X124052340Y-89245077D01*
X124047751Y-89171295D01*
X124047609Y-89064810D01*
X124051776Y-88943718D01*
X124055104Y-88888049D01*
X124062120Y-88781868D01*
X124067158Y-88697304D01*
X124069586Y-88645482D01*
X124069491Y-88634651D01*
X124044538Y-88631382D01*
X123977945Y-88625273D01*
X123878947Y-88617108D01*
X123756777Y-88607670D01*
X123713502Y-88604451D01*
X123584734Y-88594175D01*
X123475140Y-88583945D01*
X123394296Y-88574767D01*
X123351779Y-88567648D01*
X123347868Y-88566007D01*
X123329096Y-88528467D01*
X123313083Y-88454377D01*
X123299554Y-88340802D01*
X123288232Y-88184806D01*
X123278842Y-87983452D01*
X123271696Y-87756582D01*
X123255866Y-87154870D01*
X123163746Y-87154870D01*
X123159322Y-87200761D01*
X123150449Y-87337164D01*
X123143269Y-87494500D01*
X123137944Y-87665254D01*
X123134635Y-87841911D01*
X123133506Y-88016956D01*
X123134717Y-88182875D01*
X123138431Y-88332151D01*
X123144809Y-88457271D01*
X123154014Y-88550718D01*
X123160170Y-88585166D01*
X123183275Y-88658426D01*
X123219141Y-88702305D01*
X123281144Y-88726917D01*
X123365422Y-88740368D01*
X123538446Y-88762149D01*
X123667643Y-88783818D01*
X123759875Y-88810934D01*
X123822003Y-88849056D01*
X123860888Y-88903742D01*
X123883392Y-88980552D01*
X123896376Y-89085044D01*
X123903372Y-89176199D01*
X123913924Y-89290864D01*
X123927220Y-89387476D01*
X123941356Y-89454102D01*
X123951434Y-89477284D01*
X123981687Y-89486548D01*
X124053295Y-89493916D01*
X124168255Y-89499459D01*
X124328565Y-89503248D01*
X124536222Y-89505357D01*
X124742918Y-89505883D01*
X124962308Y-89505649D01*
G37*
X124962308Y-89505649D02*
X125136325Y-89504742D01*
X125270600Y-89502857D01*
X125370762Y-89499688D01*
X125442440Y-89494931D01*
X125491266Y-89488280D01*
X125522869Y-89479428D01*
X125542878Y-89468072D01*
X125549541Y-89462122D01*
X125567830Y-89435497D01*
X125581283Y-89392239D01*
X125591048Y-89323983D01*
X125598275Y-89222365D01*
X125604112Y-89079022D01*
X125604715Y-89060465D01*
X125616137Y-88702570D01*
X125917232Y-88702570D01*
X126092435Y-88698795D01*
X126222268Y-88686848D01*
X126311848Y-88665795D01*
X126366293Y-88634702D01*
X126380125Y-88618093D01*
X126384814Y-88586040D01*
X126389114Y-88509293D01*
X126392881Y-88394165D01*
X126395968Y-88246965D01*
X126398231Y-88074005D01*
X126399523Y-87881594D01*
X126399770Y-87765371D01*
X126400161Y-86942932D01*
X126164267Y-86938745D01*
X126042642Y-86937537D01*
X125924971Y-86937977D01*
X125831437Y-86939942D01*
X125809293Y-86940906D01*
X125742627Y-86940051D01*
X125694442Y-86924513D01*
X125661090Y-86887164D01*
X125638925Y-86820878D01*
X125624301Y-86718526D01*
X125613569Y-86572981D01*
X125612611Y-86556507D01*
X125601671Y-86411219D01*
X125584084Y-86308431D01*
X125553579Y-86239642D01*
X125503883Y-86196351D01*
X125428726Y-86170056D01*
X125321834Y-86152255D01*
X125313597Y-86151184D01*
X125187701Y-86139565D01*
X125047884Y-86133416D01*
X124959297Y-86133417D01*
X124871050Y-86135580D01*
X124745494Y-86138325D01*
X124596317Y-86141367D01*
X124437207Y-86144423D01*
X124353625Y-86145951D01*
X124197146Y-86148953D01*
X124084468Y-86152207D01*
X124008394Y-86156796D01*
X123961728Y-86163806D01*
X123937271Y-86174321D01*
X123927829Y-86189425D01*
X123926204Y-86210204D01*
X123926203Y-86210365D01*
X123922649Y-86314459D01*
X123913776Y-86436024D01*
X123900992Y-86563841D01*
X123885709Y-86686687D01*
X123869334Y-86793341D01*
X123853277Y-86872582D01*
X123838948Y-86913188D01*
X123837753Y-86914603D01*
X123790897Y-86934952D01*
X123693476Y-86952486D01*
X123545858Y-86967145D01*
X123501223Y-86970349D01*
X123383512Y-86978383D01*
X123286399Y-86985203D01*
X123220010Y-86990086D01*
X123194482Y-86992302D01*
X123181501Y-87020815D01*
X123169727Y-87092807D01*
X123163746Y-87154870D01*
X123255866Y-87154870D01*
X123317019Y-87138506D01*
X123375608Y-87129540D01*
X123463142Y-87123451D01*
X123534001Y-87121794D01*
X123717419Y-87114681D01*
X123856172Y-87094497D01*
X123948252Y-87061598D01*
X123972451Y-87044142D01*
X124001506Y-87001236D01*
X124022053Y-86929446D01*
X124036869Y-86818481D01*
X124038683Y-86798789D01*
X124056209Y-86632944D01*
X124079773Y-86510818D01*
X124116289Y-86425132D01*
X124172675Y-86368608D01*
X124255843Y-86333969D01*
X124372709Y-86313936D01*
X124510192Y-86302527D01*
X124688956Y-86293815D01*
X124864969Y-86290797D01*
X125028852Y-86293151D01*
X125171228Y-86300555D01*
X125282719Y-86312688D01*
X125353947Y-86329228D01*
X125359685Y-86331650D01*
X125412969Y-86370327D01*
X125449494Y-86433715D01*
X125471482Y-86529209D01*
X125481159Y-86664207D01*
X125482089Y-86738769D01*
X125483799Y-86850805D01*
X125490424Y-86923912D01*
X125504202Y-86970098D01*
X125527371Y-87001366D01*
X125531836Y-87005549D01*
X125588616Y-87033946D01*
X125686708Y-87058571D01*
X125816468Y-87077929D01*
X125968254Y-87090522D01*
X126106888Y-87094786D01*
X126259900Y-87095869D01*
X126243718Y-87727081D01*
X126239117Y-87904197D01*
X126234784Y-88066602D01*
X126230932Y-88206619D01*
X126227776Y-88316572D01*
X126225530Y-88388782D01*
X126224592Y-88413178D01*
X126209472Y-88452864D01*
X126165213Y-88484649D01*
X126086342Y-88510317D01*
X125967389Y-88531650D01*
X125803808Y-88550344D01*
X125693067Y-88563231D01*
X125600021Y-88578259D01*
X125537398Y-88593152D01*
X125519635Y-88601148D01*
X125502126Y-88642714D01*
X125488841Y-88734442D01*
X125479866Y-88875659D01*
X125478269Y-88919788D01*
X125473551Y-89046872D01*
X125467411Y-89133853D01*
X125457518Y-89191623D01*
X125441539Y-89231074D01*
X125417141Y-89263100D01*
X125401217Y-89279571D01*
X125371652Y-89306450D01*
X125339176Y-89325994D01*
X125294485Y-89340201D01*
X125228274Y-89351067D01*
X125131239Y-89360591D01*
X124994075Y-89370768D01*
X124967852Y-89372586D01*
X124751173Y-89382928D01*
X124540951Y-89384478D01*
X124357585Y-89377146D01*
X124334498Y-89375345D01*
X124066727Y-89352871D01*
X124052340Y-89245077D01*
X124047751Y-89171295D01*
X124047609Y-89064810D01*
X124051776Y-88943718D01*
X124055104Y-88888049D01*
X124062120Y-88781868D01*
X124067158Y-88697304D01*
X124069586Y-88645482D01*
X124069491Y-88634651D01*
X124044538Y-88631382D01*
X123977945Y-88625273D01*
X123878947Y-88617108D01*
X123756777Y-88607670D01*
X123713502Y-88604451D01*
X123584734Y-88594175D01*
X123475140Y-88583945D01*
X123394296Y-88574767D01*
X123351779Y-88567648D01*
X123347868Y-88566007D01*
X123329096Y-88528467D01*
X123313083Y-88454377D01*
X123299554Y-88340802D01*
X123288232Y-88184806D01*
X123278842Y-87983452D01*
X123271696Y-87756582D01*
X123255866Y-87154870D01*
X123163746Y-87154870D01*
X123159322Y-87200761D01*
X123150449Y-87337164D01*
X123143269Y-87494500D01*
X123137944Y-87665254D01*
X123134635Y-87841911D01*
X123133506Y-88016956D01*
X123134717Y-88182875D01*
X123138431Y-88332151D01*
X123144809Y-88457271D01*
X123154014Y-88550718D01*
X123160170Y-88585166D01*
X123183275Y-88658426D01*
X123219141Y-88702305D01*
X123281144Y-88726917D01*
X123365422Y-88740368D01*
X123538446Y-88762149D01*
X123667643Y-88783818D01*
X123759875Y-88810934D01*
X123822003Y-88849056D01*
X123860888Y-88903742D01*
X123883392Y-88980552D01*
X123896376Y-89085044D01*
X123903372Y-89176199D01*
X123913924Y-89290864D01*
X123927220Y-89387476D01*
X123941356Y-89454102D01*
X123951434Y-89477284D01*
X123981687Y-89486548D01*
X124053295Y-89493916D01*
X124168255Y-89499459D01*
X124328565Y-89503248D01*
X124536222Y-89505357D01*
X124742918Y-89505883D01*
X124962308Y-89505649D01*
G36*
X124962308Y-141345649D02*
G01*
X125136325Y-141344742D01*
X125270600Y-141342857D01*
X125370762Y-141339688D01*
X125442440Y-141334931D01*
X125491266Y-141328280D01*
X125522869Y-141319428D01*
X125542878Y-141308072D01*
X125549541Y-141302122D01*
X125567830Y-141275497D01*
X125581283Y-141232239D01*
X125591048Y-141163983D01*
X125598275Y-141062365D01*
X125604112Y-140919022D01*
X125604715Y-140900465D01*
X125616137Y-140542570D01*
X125917232Y-140542570D01*
X126092435Y-140538795D01*
X126222268Y-140526848D01*
X126311848Y-140505795D01*
X126366293Y-140474702D01*
X126380125Y-140458093D01*
X126384814Y-140426040D01*
X126389114Y-140349293D01*
X126392881Y-140234165D01*
X126395968Y-140086965D01*
X126398231Y-139914005D01*
X126399523Y-139721594D01*
X126399770Y-139605371D01*
X126400161Y-138782932D01*
X126164267Y-138778745D01*
X126042642Y-138777537D01*
X125924971Y-138777977D01*
X125831437Y-138779942D01*
X125809293Y-138780906D01*
X125742627Y-138780051D01*
X125694442Y-138764513D01*
X125661090Y-138727164D01*
X125638925Y-138660878D01*
X125624301Y-138558526D01*
X125613569Y-138412981D01*
X125612611Y-138396507D01*
X125601671Y-138251219D01*
X125584084Y-138148431D01*
X125553579Y-138079642D01*
X125503883Y-138036351D01*
X125428726Y-138010056D01*
X125321834Y-137992255D01*
X125313597Y-137991184D01*
X125187701Y-137979565D01*
X125047884Y-137973416D01*
X124959297Y-137973417D01*
X124871050Y-137975580D01*
X124745494Y-137978325D01*
X124596317Y-137981367D01*
X124437207Y-137984423D01*
X124353625Y-137985951D01*
X124197146Y-137988953D01*
X124084468Y-137992207D01*
X124008394Y-137996796D01*
X123961728Y-138003806D01*
X123937271Y-138014321D01*
X123927829Y-138029425D01*
X123926204Y-138050204D01*
X123926203Y-138050365D01*
X123922649Y-138154459D01*
X123913776Y-138276024D01*
X123900992Y-138403841D01*
X123885709Y-138526687D01*
X123869334Y-138633341D01*
X123853277Y-138712582D01*
X123838948Y-138753188D01*
X123837753Y-138754603D01*
X123790897Y-138774952D01*
X123693476Y-138792486D01*
X123545858Y-138807145D01*
X123501223Y-138810349D01*
X123383512Y-138818383D01*
X123286399Y-138825203D01*
X123220010Y-138830086D01*
X123194482Y-138832302D01*
X123181501Y-138860815D01*
X123169727Y-138932807D01*
X123163746Y-138994870D01*
X123255866Y-138994870D01*
X123317019Y-138978506D01*
X123375608Y-138969540D01*
X123463142Y-138963451D01*
X123534001Y-138961794D01*
X123717419Y-138954681D01*
X123856172Y-138934497D01*
X123948252Y-138901598D01*
X123972451Y-138884142D01*
X124001506Y-138841236D01*
X124022053Y-138769446D01*
X124036869Y-138658481D01*
X124038683Y-138638789D01*
X124056209Y-138472944D01*
X124079773Y-138350818D01*
X124116289Y-138265132D01*
X124172675Y-138208608D01*
X124255843Y-138173969D01*
X124372709Y-138153936D01*
X124510192Y-138142527D01*
X124688956Y-138133815D01*
X124864969Y-138130797D01*
X125028852Y-138133151D01*
X125171228Y-138140555D01*
X125282719Y-138152688D01*
X125353947Y-138169228D01*
X125359685Y-138171650D01*
X125412969Y-138210327D01*
X125449494Y-138273715D01*
X125471482Y-138369209D01*
X125481159Y-138504207D01*
X125482089Y-138578769D01*
X125483799Y-138690805D01*
X125490424Y-138763912D01*
X125504202Y-138810098D01*
X125527371Y-138841366D01*
X125531836Y-138845549D01*
X125588616Y-138873946D01*
X125686708Y-138898571D01*
X125816468Y-138917929D01*
X125968254Y-138930522D01*
X126106888Y-138934786D01*
X126259900Y-138935869D01*
X126243718Y-139567081D01*
X126239117Y-139744197D01*
X126234784Y-139906602D01*
X126230932Y-140046619D01*
X126227776Y-140156572D01*
X126225530Y-140228782D01*
X126224592Y-140253178D01*
X126209472Y-140292864D01*
X126165213Y-140324649D01*
X126086342Y-140350317D01*
X125967389Y-140371650D01*
X125803808Y-140390344D01*
X125693067Y-140403231D01*
X125600021Y-140418259D01*
X125537398Y-140433152D01*
X125519635Y-140441148D01*
X125502126Y-140482714D01*
X125488841Y-140574442D01*
X125479866Y-140715659D01*
X125478269Y-140759788D01*
X125473551Y-140886872D01*
X125467411Y-140973853D01*
X125457518Y-141031623D01*
X125441539Y-141071074D01*
X125417141Y-141103100D01*
X125401217Y-141119571D01*
X125371652Y-141146450D01*
X125339176Y-141165994D01*
X125294485Y-141180201D01*
X125228274Y-141191067D01*
X125131239Y-141200591D01*
X124994075Y-141210768D01*
X124967852Y-141212586D01*
X124751173Y-141222928D01*
X124540951Y-141224478D01*
X124357585Y-141217146D01*
X124334498Y-141215345D01*
X124066727Y-141192871D01*
X124052340Y-141085077D01*
X124047751Y-141011295D01*
X124047609Y-140904810D01*
X124051776Y-140783718D01*
X124055104Y-140728049D01*
X124062120Y-140621868D01*
X124067158Y-140537304D01*
X124069586Y-140485482D01*
X124069491Y-140474651D01*
X124044538Y-140471382D01*
X123977945Y-140465273D01*
X123878947Y-140457108D01*
X123756777Y-140447670D01*
X123713502Y-140444451D01*
X123584734Y-140434175D01*
X123475140Y-140423945D01*
X123394296Y-140414767D01*
X123351779Y-140407648D01*
X123347868Y-140406007D01*
X123329096Y-140368467D01*
X123313083Y-140294377D01*
X123299554Y-140180802D01*
X123288232Y-140024806D01*
X123278842Y-139823452D01*
X123271696Y-139596582D01*
X123255866Y-138994870D01*
X123163746Y-138994870D01*
X123159322Y-139040761D01*
X123150449Y-139177164D01*
X123143269Y-139334500D01*
X123137944Y-139505254D01*
X123134635Y-139681911D01*
X123133506Y-139856956D01*
X123134717Y-140022875D01*
X123138431Y-140172151D01*
X123144809Y-140297271D01*
X123154014Y-140390718D01*
X123160170Y-140425166D01*
X123183275Y-140498426D01*
X123219141Y-140542305D01*
X123281144Y-140566917D01*
X123365422Y-140580368D01*
X123538446Y-140602149D01*
X123667643Y-140623818D01*
X123759875Y-140650934D01*
X123822003Y-140689056D01*
X123860888Y-140743742D01*
X123883392Y-140820552D01*
X123896376Y-140925044D01*
X123903372Y-141016199D01*
X123913924Y-141130864D01*
X123927220Y-141227476D01*
X123941356Y-141294102D01*
X123951434Y-141317284D01*
X123981687Y-141326548D01*
X124053295Y-141333916D01*
X124168255Y-141339459D01*
X124328565Y-141343248D01*
X124536222Y-141345357D01*
X124742918Y-141345883D01*
X124962308Y-141345649D01*
G37*
X124962308Y-141345649D02*
X125136325Y-141344742D01*
X125270600Y-141342857D01*
X125370762Y-141339688D01*
X125442440Y-141334931D01*
X125491266Y-141328280D01*
X125522869Y-141319428D01*
X125542878Y-141308072D01*
X125549541Y-141302122D01*
X125567830Y-141275497D01*
X125581283Y-141232239D01*
X125591048Y-141163983D01*
X125598275Y-141062365D01*
X125604112Y-140919022D01*
X125604715Y-140900465D01*
X125616137Y-140542570D01*
X125917232Y-140542570D01*
X126092435Y-140538795D01*
X126222268Y-140526848D01*
X126311848Y-140505795D01*
X126366293Y-140474702D01*
X126380125Y-140458093D01*
X126384814Y-140426040D01*
X126389114Y-140349293D01*
X126392881Y-140234165D01*
X126395968Y-140086965D01*
X126398231Y-139914005D01*
X126399523Y-139721594D01*
X126399770Y-139605371D01*
X126400161Y-138782932D01*
X126164267Y-138778745D01*
X126042642Y-138777537D01*
X125924971Y-138777977D01*
X125831437Y-138779942D01*
X125809293Y-138780906D01*
X125742627Y-138780051D01*
X125694442Y-138764513D01*
X125661090Y-138727164D01*
X125638925Y-138660878D01*
X125624301Y-138558526D01*
X125613569Y-138412981D01*
X125612611Y-138396507D01*
X125601671Y-138251219D01*
X125584084Y-138148431D01*
X125553579Y-138079642D01*
X125503883Y-138036351D01*
X125428726Y-138010056D01*
X125321834Y-137992255D01*
X125313597Y-137991184D01*
X125187701Y-137979565D01*
X125047884Y-137973416D01*
X124959297Y-137973417D01*
X124871050Y-137975580D01*
X124745494Y-137978325D01*
X124596317Y-137981367D01*
X124437207Y-137984423D01*
X124353625Y-137985951D01*
X124197146Y-137988953D01*
X124084468Y-137992207D01*
X124008394Y-137996796D01*
X123961728Y-138003806D01*
X123937271Y-138014321D01*
X123927829Y-138029425D01*
X123926204Y-138050204D01*
X123926203Y-138050365D01*
X123922649Y-138154459D01*
X123913776Y-138276024D01*
X123900992Y-138403841D01*
X123885709Y-138526687D01*
X123869334Y-138633341D01*
X123853277Y-138712582D01*
X123838948Y-138753188D01*
X123837753Y-138754603D01*
X123790897Y-138774952D01*
X123693476Y-138792486D01*
X123545858Y-138807145D01*
X123501223Y-138810349D01*
X123383512Y-138818383D01*
X123286399Y-138825203D01*
X123220010Y-138830086D01*
X123194482Y-138832302D01*
X123181501Y-138860815D01*
X123169727Y-138932807D01*
X123163746Y-138994870D01*
X123255866Y-138994870D01*
X123317019Y-138978506D01*
X123375608Y-138969540D01*
X123463142Y-138963451D01*
X123534001Y-138961794D01*
X123717419Y-138954681D01*
X123856172Y-138934497D01*
X123948252Y-138901598D01*
X123972451Y-138884142D01*
X124001506Y-138841236D01*
X124022053Y-138769446D01*
X124036869Y-138658481D01*
X124038683Y-138638789D01*
X124056209Y-138472944D01*
X124079773Y-138350818D01*
X124116289Y-138265132D01*
X124172675Y-138208608D01*
X124255843Y-138173969D01*
X124372709Y-138153936D01*
X124510192Y-138142527D01*
X124688956Y-138133815D01*
X124864969Y-138130797D01*
X125028852Y-138133151D01*
X125171228Y-138140555D01*
X125282719Y-138152688D01*
X125353947Y-138169228D01*
X125359685Y-138171650D01*
X125412969Y-138210327D01*
X125449494Y-138273715D01*
X125471482Y-138369209D01*
X125481159Y-138504207D01*
X125482089Y-138578769D01*
X125483799Y-138690805D01*
X125490424Y-138763912D01*
X125504202Y-138810098D01*
X125527371Y-138841366D01*
X125531836Y-138845549D01*
X125588616Y-138873946D01*
X125686708Y-138898571D01*
X125816468Y-138917929D01*
X125968254Y-138930522D01*
X126106888Y-138934786D01*
X126259900Y-138935869D01*
X126243718Y-139567081D01*
X126239117Y-139744197D01*
X126234784Y-139906602D01*
X126230932Y-140046619D01*
X126227776Y-140156572D01*
X126225530Y-140228782D01*
X126224592Y-140253178D01*
X126209472Y-140292864D01*
X126165213Y-140324649D01*
X126086342Y-140350317D01*
X125967389Y-140371650D01*
X125803808Y-140390344D01*
X125693067Y-140403231D01*
X125600021Y-140418259D01*
X125537398Y-140433152D01*
X125519635Y-140441148D01*
X125502126Y-140482714D01*
X125488841Y-140574442D01*
X125479866Y-140715659D01*
X125478269Y-140759788D01*
X125473551Y-140886872D01*
X125467411Y-140973853D01*
X125457518Y-141031623D01*
X125441539Y-141071074D01*
X125417141Y-141103100D01*
X125401217Y-141119571D01*
X125371652Y-141146450D01*
X125339176Y-141165994D01*
X125294485Y-141180201D01*
X125228274Y-141191067D01*
X125131239Y-141200591D01*
X124994075Y-141210768D01*
X124967852Y-141212586D01*
X124751173Y-141222928D01*
X124540951Y-141224478D01*
X124357585Y-141217146D01*
X124334498Y-141215345D01*
X124066727Y-141192871D01*
X124052340Y-141085077D01*
X124047751Y-141011295D01*
X124047609Y-140904810D01*
X124051776Y-140783718D01*
X124055104Y-140728049D01*
X124062120Y-140621868D01*
X124067158Y-140537304D01*
X124069586Y-140485482D01*
X124069491Y-140474651D01*
X124044538Y-140471382D01*
X123977945Y-140465273D01*
X123878947Y-140457108D01*
X123756777Y-140447670D01*
X123713502Y-140444451D01*
X123584734Y-140434175D01*
X123475140Y-140423945D01*
X123394296Y-140414767D01*
X123351779Y-140407648D01*
X123347868Y-140406007D01*
X123329096Y-140368467D01*
X123313083Y-140294377D01*
X123299554Y-140180802D01*
X123288232Y-140024806D01*
X123278842Y-139823452D01*
X123271696Y-139596582D01*
X123255866Y-138994870D01*
X123163746Y-138994870D01*
X123159322Y-139040761D01*
X123150449Y-139177164D01*
X123143269Y-139334500D01*
X123137944Y-139505254D01*
X123134635Y-139681911D01*
X123133506Y-139856956D01*
X123134717Y-140022875D01*
X123138431Y-140172151D01*
X123144809Y-140297271D01*
X123154014Y-140390718D01*
X123160170Y-140425166D01*
X123183275Y-140498426D01*
X123219141Y-140542305D01*
X123281144Y-140566917D01*
X123365422Y-140580368D01*
X123538446Y-140602149D01*
X123667643Y-140623818D01*
X123759875Y-140650934D01*
X123822003Y-140689056D01*
X123860888Y-140743742D01*
X123883392Y-140820552D01*
X123896376Y-140925044D01*
X123903372Y-141016199D01*
X123913924Y-141130864D01*
X123927220Y-141227476D01*
X123941356Y-141294102D01*
X123951434Y-141317284D01*
X123981687Y-141326548D01*
X124053295Y-141333916D01*
X124168255Y-141339459D01*
X124328565Y-141343248D01*
X124536222Y-141345357D01*
X124742918Y-141345883D01*
X124962308Y-141345649D01*
G36*
X124962308Y-63585649D02*
G01*
X125136325Y-63584742D01*
X125270600Y-63582857D01*
X125370762Y-63579688D01*
X125442440Y-63574931D01*
X125491266Y-63568280D01*
X125522869Y-63559428D01*
X125542878Y-63548072D01*
X125549541Y-63542122D01*
X125567830Y-63515497D01*
X125581283Y-63472239D01*
X125591048Y-63403983D01*
X125598275Y-63302365D01*
X125604112Y-63159022D01*
X125604715Y-63140465D01*
X125616137Y-62782570D01*
X125917232Y-62782570D01*
X126092435Y-62778795D01*
X126222268Y-62766848D01*
X126311848Y-62745795D01*
X126366293Y-62714702D01*
X126380125Y-62698093D01*
X126384814Y-62666040D01*
X126389114Y-62589293D01*
X126392881Y-62474165D01*
X126395968Y-62326965D01*
X126398231Y-62154005D01*
X126399523Y-61961594D01*
X126399770Y-61845371D01*
X126400161Y-61022932D01*
X126164267Y-61018745D01*
X126042642Y-61017537D01*
X125924971Y-61017977D01*
X125831437Y-61019942D01*
X125809293Y-61020906D01*
X125742627Y-61020051D01*
X125694442Y-61004513D01*
X125661090Y-60967164D01*
X125638925Y-60900878D01*
X125624301Y-60798526D01*
X125613569Y-60652981D01*
X125612611Y-60636507D01*
X125601671Y-60491219D01*
X125584084Y-60388431D01*
X125553579Y-60319642D01*
X125503883Y-60276351D01*
X125428726Y-60250056D01*
X125321834Y-60232255D01*
X125313597Y-60231184D01*
X125187701Y-60219565D01*
X125047884Y-60213416D01*
X124959297Y-60213417D01*
X124871050Y-60215580D01*
X124745494Y-60218325D01*
X124596317Y-60221367D01*
X124437207Y-60224423D01*
X124353625Y-60225951D01*
X124197146Y-60228953D01*
X124084468Y-60232207D01*
X124008394Y-60236796D01*
X123961728Y-60243806D01*
X123937271Y-60254321D01*
X123927829Y-60269425D01*
X123926204Y-60290204D01*
X123926203Y-60290365D01*
X123922649Y-60394459D01*
X123913776Y-60516024D01*
X123900992Y-60643841D01*
X123885709Y-60766687D01*
X123869334Y-60873341D01*
X123853277Y-60952582D01*
X123838948Y-60993188D01*
X123837753Y-60994603D01*
X123790897Y-61014952D01*
X123693476Y-61032486D01*
X123545858Y-61047145D01*
X123501223Y-61050349D01*
X123383512Y-61058383D01*
X123286399Y-61065203D01*
X123220010Y-61070086D01*
X123194482Y-61072302D01*
X123181501Y-61100815D01*
X123169727Y-61172807D01*
X123163746Y-61234870D01*
X123255866Y-61234870D01*
X123317019Y-61218506D01*
X123375608Y-61209540D01*
X123463142Y-61203451D01*
X123534001Y-61201794D01*
X123717419Y-61194681D01*
X123856172Y-61174497D01*
X123948252Y-61141598D01*
X123972451Y-61124142D01*
X124001506Y-61081236D01*
X124022053Y-61009446D01*
X124036869Y-60898481D01*
X124038683Y-60878789D01*
X124056209Y-60712944D01*
X124079773Y-60590818D01*
X124116289Y-60505132D01*
X124172675Y-60448608D01*
X124255843Y-60413969D01*
X124372709Y-60393936D01*
X124510192Y-60382527D01*
X124688956Y-60373815D01*
X124864969Y-60370797D01*
X125028852Y-60373151D01*
X125171228Y-60380555D01*
X125282719Y-60392688D01*
X125353947Y-60409228D01*
X125359685Y-60411650D01*
X125412969Y-60450327D01*
X125449494Y-60513715D01*
X125471482Y-60609209D01*
X125481159Y-60744207D01*
X125482089Y-60818769D01*
X125483799Y-60930805D01*
X125490424Y-61003912D01*
X125504202Y-61050098D01*
X125527371Y-61081366D01*
X125531836Y-61085549D01*
X125588616Y-61113946D01*
X125686708Y-61138571D01*
X125816468Y-61157929D01*
X125968254Y-61170522D01*
X126106888Y-61174786D01*
X126259900Y-61175869D01*
X126243718Y-61807081D01*
X126239117Y-61984197D01*
X126234784Y-62146602D01*
X126230932Y-62286619D01*
X126227776Y-62396572D01*
X126225530Y-62468782D01*
X126224592Y-62493178D01*
X126209472Y-62532864D01*
X126165213Y-62564649D01*
X126086342Y-62590317D01*
X125967389Y-62611650D01*
X125803808Y-62630344D01*
X125693067Y-62643231D01*
X125600021Y-62658259D01*
X125537398Y-62673152D01*
X125519635Y-62681148D01*
X125502126Y-62722714D01*
X125488841Y-62814442D01*
X125479866Y-62955659D01*
X125478269Y-62999788D01*
X125473551Y-63126872D01*
X125467411Y-63213853D01*
X125457518Y-63271623D01*
X125441539Y-63311074D01*
X125417141Y-63343100D01*
X125401217Y-63359571D01*
X125371652Y-63386450D01*
X125339176Y-63405994D01*
X125294485Y-63420201D01*
X125228274Y-63431067D01*
X125131239Y-63440591D01*
X124994075Y-63450768D01*
X124967852Y-63452586D01*
X124751173Y-63462928D01*
X124540951Y-63464478D01*
X124357585Y-63457146D01*
X124334498Y-63455345D01*
X124066727Y-63432871D01*
X124052340Y-63325077D01*
X124047751Y-63251295D01*
X124047609Y-63144810D01*
X124051776Y-63023718D01*
X124055104Y-62968049D01*
X124062120Y-62861868D01*
X124067158Y-62777304D01*
X124069586Y-62725482D01*
X124069491Y-62714651D01*
X124044538Y-62711382D01*
X123977945Y-62705273D01*
X123878947Y-62697108D01*
X123756777Y-62687670D01*
X123713502Y-62684451D01*
X123584734Y-62674175D01*
X123475140Y-62663945D01*
X123394296Y-62654767D01*
X123351779Y-62647648D01*
X123347868Y-62646007D01*
X123329096Y-62608467D01*
X123313083Y-62534377D01*
X123299554Y-62420802D01*
X123288232Y-62264806D01*
X123278842Y-62063452D01*
X123271696Y-61836582D01*
X123255866Y-61234870D01*
X123163746Y-61234870D01*
X123159322Y-61280761D01*
X123150449Y-61417164D01*
X123143269Y-61574500D01*
X123137944Y-61745254D01*
X123134635Y-61921911D01*
X123133506Y-62096956D01*
X123134717Y-62262875D01*
X123138431Y-62412151D01*
X123144809Y-62537271D01*
X123154014Y-62630718D01*
X123160170Y-62665166D01*
X123183275Y-62738426D01*
X123219141Y-62782305D01*
X123281144Y-62806917D01*
X123365422Y-62820368D01*
X123538446Y-62842149D01*
X123667643Y-62863818D01*
X123759875Y-62890934D01*
X123822003Y-62929056D01*
X123860888Y-62983742D01*
X123883392Y-63060552D01*
X123896376Y-63165044D01*
X123903372Y-63256199D01*
X123913924Y-63370864D01*
X123927220Y-63467476D01*
X123941356Y-63534102D01*
X123951434Y-63557284D01*
X123981687Y-63566548D01*
X124053295Y-63573916D01*
X124168255Y-63579459D01*
X124328565Y-63583248D01*
X124536222Y-63585357D01*
X124742918Y-63585883D01*
X124962308Y-63585649D01*
G37*
X124962308Y-63585649D02*
X125136325Y-63584742D01*
X125270600Y-63582857D01*
X125370762Y-63579688D01*
X125442440Y-63574931D01*
X125491266Y-63568280D01*
X125522869Y-63559428D01*
X125542878Y-63548072D01*
X125549541Y-63542122D01*
X125567830Y-63515497D01*
X125581283Y-63472239D01*
X125591048Y-63403983D01*
X125598275Y-63302365D01*
X125604112Y-63159022D01*
X125604715Y-63140465D01*
X125616137Y-62782570D01*
X125917232Y-62782570D01*
X126092435Y-62778795D01*
X126222268Y-62766848D01*
X126311848Y-62745795D01*
X126366293Y-62714702D01*
X126380125Y-62698093D01*
X126384814Y-62666040D01*
X126389114Y-62589293D01*
X126392881Y-62474165D01*
X126395968Y-62326965D01*
X126398231Y-62154005D01*
X126399523Y-61961594D01*
X126399770Y-61845371D01*
X126400161Y-61022932D01*
X126164267Y-61018745D01*
X126042642Y-61017537D01*
X125924971Y-61017977D01*
X125831437Y-61019942D01*
X125809293Y-61020906D01*
X125742627Y-61020051D01*
X125694442Y-61004513D01*
X125661090Y-60967164D01*
X125638925Y-60900878D01*
X125624301Y-60798526D01*
X125613569Y-60652981D01*
X125612611Y-60636507D01*
X125601671Y-60491219D01*
X125584084Y-60388431D01*
X125553579Y-60319642D01*
X125503883Y-60276351D01*
X125428726Y-60250056D01*
X125321834Y-60232255D01*
X125313597Y-60231184D01*
X125187701Y-60219565D01*
X125047884Y-60213416D01*
X124959297Y-60213417D01*
X124871050Y-60215580D01*
X124745494Y-60218325D01*
X124596317Y-60221367D01*
X124437207Y-60224423D01*
X124353625Y-60225951D01*
X124197146Y-60228953D01*
X124084468Y-60232207D01*
X124008394Y-60236796D01*
X123961728Y-60243806D01*
X123937271Y-60254321D01*
X123927829Y-60269425D01*
X123926204Y-60290204D01*
X123926203Y-60290365D01*
X123922649Y-60394459D01*
X123913776Y-60516024D01*
X123900992Y-60643841D01*
X123885709Y-60766687D01*
X123869334Y-60873341D01*
X123853277Y-60952582D01*
X123838948Y-60993188D01*
X123837753Y-60994603D01*
X123790897Y-61014952D01*
X123693476Y-61032486D01*
X123545858Y-61047145D01*
X123501223Y-61050349D01*
X123383512Y-61058383D01*
X123286399Y-61065203D01*
X123220010Y-61070086D01*
X123194482Y-61072302D01*
X123181501Y-61100815D01*
X123169727Y-61172807D01*
X123163746Y-61234870D01*
X123255866Y-61234870D01*
X123317019Y-61218506D01*
X123375608Y-61209540D01*
X123463142Y-61203451D01*
X123534001Y-61201794D01*
X123717419Y-61194681D01*
X123856172Y-61174497D01*
X123948252Y-61141598D01*
X123972451Y-61124142D01*
X124001506Y-61081236D01*
X124022053Y-61009446D01*
X124036869Y-60898481D01*
X124038683Y-60878789D01*
X124056209Y-60712944D01*
X124079773Y-60590818D01*
X124116289Y-60505132D01*
X124172675Y-60448608D01*
X124255843Y-60413969D01*
X124372709Y-60393936D01*
X124510192Y-60382527D01*
X124688956Y-60373815D01*
X124864969Y-60370797D01*
X125028852Y-60373151D01*
X125171228Y-60380555D01*
X125282719Y-60392688D01*
X125353947Y-60409228D01*
X125359685Y-60411650D01*
X125412969Y-60450327D01*
X125449494Y-60513715D01*
X125471482Y-60609209D01*
X125481159Y-60744207D01*
X125482089Y-60818769D01*
X125483799Y-60930805D01*
X125490424Y-61003912D01*
X125504202Y-61050098D01*
X125527371Y-61081366D01*
X125531836Y-61085549D01*
X125588616Y-61113946D01*
X125686708Y-61138571D01*
X125816468Y-61157929D01*
X125968254Y-61170522D01*
X126106888Y-61174786D01*
X126259900Y-61175869D01*
X126243718Y-61807081D01*
X126239117Y-61984197D01*
X126234784Y-62146602D01*
X126230932Y-62286619D01*
X126227776Y-62396572D01*
X126225530Y-62468782D01*
X126224592Y-62493178D01*
X126209472Y-62532864D01*
X126165213Y-62564649D01*
X126086342Y-62590317D01*
X125967389Y-62611650D01*
X125803808Y-62630344D01*
X125693067Y-62643231D01*
X125600021Y-62658259D01*
X125537398Y-62673152D01*
X125519635Y-62681148D01*
X125502126Y-62722714D01*
X125488841Y-62814442D01*
X125479866Y-62955659D01*
X125478269Y-62999788D01*
X125473551Y-63126872D01*
X125467411Y-63213853D01*
X125457518Y-63271623D01*
X125441539Y-63311074D01*
X125417141Y-63343100D01*
X125401217Y-63359571D01*
X125371652Y-63386450D01*
X125339176Y-63405994D01*
X125294485Y-63420201D01*
X125228274Y-63431067D01*
X125131239Y-63440591D01*
X124994075Y-63450768D01*
X124967852Y-63452586D01*
X124751173Y-63462928D01*
X124540951Y-63464478D01*
X124357585Y-63457146D01*
X124334498Y-63455345D01*
X124066727Y-63432871D01*
X124052340Y-63325077D01*
X124047751Y-63251295D01*
X124047609Y-63144810D01*
X124051776Y-63023718D01*
X124055104Y-62968049D01*
X124062120Y-62861868D01*
X124067158Y-62777304D01*
X124069586Y-62725482D01*
X124069491Y-62714651D01*
X124044538Y-62711382D01*
X123977945Y-62705273D01*
X123878947Y-62697108D01*
X123756777Y-62687670D01*
X123713502Y-62684451D01*
X123584734Y-62674175D01*
X123475140Y-62663945D01*
X123394296Y-62654767D01*
X123351779Y-62647648D01*
X123347868Y-62646007D01*
X123329096Y-62608467D01*
X123313083Y-62534377D01*
X123299554Y-62420802D01*
X123288232Y-62264806D01*
X123278842Y-62063452D01*
X123271696Y-61836582D01*
X123255866Y-61234870D01*
X123163746Y-61234870D01*
X123159322Y-61280761D01*
X123150449Y-61417164D01*
X123143269Y-61574500D01*
X123137944Y-61745254D01*
X123134635Y-61921911D01*
X123133506Y-62096956D01*
X123134717Y-62262875D01*
X123138431Y-62412151D01*
X123144809Y-62537271D01*
X123154014Y-62630718D01*
X123160170Y-62665166D01*
X123183275Y-62738426D01*
X123219141Y-62782305D01*
X123281144Y-62806917D01*
X123365422Y-62820368D01*
X123538446Y-62842149D01*
X123667643Y-62863818D01*
X123759875Y-62890934D01*
X123822003Y-62929056D01*
X123860888Y-62983742D01*
X123883392Y-63060552D01*
X123896376Y-63165044D01*
X123903372Y-63256199D01*
X123913924Y-63370864D01*
X123927220Y-63467476D01*
X123941356Y-63534102D01*
X123951434Y-63557284D01*
X123981687Y-63566548D01*
X124053295Y-63573916D01*
X124168255Y-63579459D01*
X124328565Y-63583248D01*
X124536222Y-63585357D01*
X124742918Y-63585883D01*
X124962308Y-63585649D01*
G36*
X119393052Y-62526099D02*
G01*
X119909468Y-62515987D01*
X120069149Y-62511911D01*
X120213353Y-62506439D01*
X120333577Y-62500038D01*
X120421315Y-62493175D01*
X120468063Y-62486318D01*
X120471427Y-62485139D01*
X120501032Y-62466436D01*
X120498785Y-62439658D01*
X120475769Y-62401520D01*
X120438912Y-62355140D01*
X120376409Y-62286057D01*
X120299626Y-62206663D01*
X120270838Y-62178100D01*
X120191251Y-62097697D01*
X120142420Y-62039789D01*
X120117083Y-61992872D01*
X120107979Y-61945442D01*
X120107243Y-61918912D01*
X120113685Y-61850929D01*
X120136766Y-61784849D01*
X120182415Y-61709479D01*
X120256563Y-61613627D01*
X120290517Y-61572965D01*
X120348466Y-61497613D01*
X120394642Y-61425560D01*
X120411309Y-61391523D01*
X120424978Y-61339564D01*
X120405723Y-61310825D01*
X120368162Y-61293082D01*
X120320357Y-61283126D01*
X120231414Y-61273241D01*
X120111194Y-61264194D01*
X119969558Y-61256752D01*
X119846184Y-61252437D01*
X119393994Y-61240161D01*
X119387148Y-60668888D01*
X119380301Y-60097616D01*
X119176285Y-60303064D01*
X119083447Y-60393877D01*
X118992970Y-60477756D01*
X118916875Y-60543791D01*
X118876900Y-60574750D01*
X118838050Y-60602015D01*
X118807010Y-60618717D01*
X118776543Y-60621335D01*
X118739408Y-60606348D01*
X118688367Y-60570236D01*
X118616178Y-60509477D01*
X118515604Y-60420551D01*
X118462103Y-60373022D01*
X118373047Y-60295379D01*
X118297519Y-60232074D01*
X118243757Y-60189844D01*
X118220352Y-60175381D01*
X118202642Y-60200635D01*
X118188565Y-60275652D01*
X118178210Y-60399315D01*
X118171663Y-60570505D01*
X118169013Y-60788105D01*
X118168956Y-60829242D01*
X118168956Y-61246466D01*
X117856556Y-61248278D01*
X117699426Y-61250936D01*
X117542967Y-61256680D01*
X117396028Y-61264861D01*
X117267457Y-61274825D01*
X117166103Y-61285920D01*
X117100816Y-61297494D01*
X117081448Y-61305393D01*
X117085685Y-61336416D01*
X117125858Y-61399012D01*
X117199973Y-61490653D01*
X117306036Y-61608809D01*
X117393261Y-61700807D01*
X117578196Y-61892457D01*
X117357160Y-62131361D01*
X117247025Y-62252583D01*
X117237963Y-62263266D01*
X117429398Y-62263266D01*
X117445878Y-62231112D01*
X117489289Y-62174499D01*
X117550585Y-62105121D01*
X117556908Y-62098398D01*
X117627469Y-62018720D01*
X117666837Y-61958221D01*
X117682791Y-61903177D01*
X117684418Y-61873446D01*
X117675369Y-61804386D01*
X117639972Y-61762140D01*
X117614013Y-61746910D01*
X117563306Y-61707028D01*
X117512377Y-61646090D01*
X117469826Y-61578105D01*
X117444251Y-61517085D01*
X117444249Y-61477041D01*
X117446591Y-61474092D01*
X117479441Y-61463747D01*
X117552858Y-61451857D01*
X117656484Y-61439787D01*
X117779966Y-61428906D01*
X117800123Y-61427420D01*
X117931325Y-61416333D01*
X118049713Y-61403273D01*
X118142938Y-61389806D01*
X118198651Y-61377499D01*
X118201291Y-61376544D01*
X118248329Y-61351007D01*
X118282732Y-61311110D01*
X118306212Y-61249693D01*
X118320480Y-61159595D01*
X118327248Y-61033651D01*
X118328227Y-60864702D01*
X118328080Y-60846008D01*
X118324917Y-60483803D01*
X118529667Y-60635616D01*
X118655431Y-60722587D01*
X118748889Y-60772797D01*
X118807663Y-60787429D01*
X118863337Y-60774106D01*
X118937872Y-60731478D01*
X119037903Y-60655557D01*
X119066850Y-60631596D01*
X119252791Y-60475762D01*
X119268128Y-60943995D01*
X119273183Y-61092688D01*
X119277954Y-61222607D01*
X119282113Y-61325644D01*
X119285333Y-61393692D01*
X119287254Y-61418604D01*
X119312674Y-61420580D01*
X119381231Y-61422306D01*
X119485059Y-61423682D01*
X119616293Y-61424606D01*
X119767066Y-61424977D01*
X119781454Y-61424980D01*
X120271864Y-61424980D01*
X120036623Y-61661204D01*
X119801381Y-61897427D01*
X120024193Y-62120240D01*
X120247005Y-62343052D01*
X119809364Y-62343052D01*
X119662714Y-62343923D01*
X119532120Y-62346334D01*
X119426868Y-62349986D01*
X119356242Y-62354578D01*
X119331383Y-62358531D01*
X119310894Y-62376735D01*
X119297990Y-62418585D01*
X119290936Y-62493559D01*
X119288190Y-62594425D01*
X119283879Y-62777343D01*
X119276249Y-62943495D01*
X119265913Y-63086085D01*
X119253483Y-63198319D01*
X119239570Y-63273399D01*
X119224787Y-63304531D01*
X119224214Y-63304757D01*
X119195208Y-63291767D01*
X119140102Y-63249190D01*
X119067916Y-63184426D01*
X119016809Y-63134639D01*
X118937363Y-63058288D01*
X118868248Y-62998078D01*
X118818933Y-62961939D01*
X118802416Y-62955100D01*
X118763116Y-62965012D01*
X118706841Y-62997468D01*
X118627748Y-63056550D01*
X118519995Y-63146343D01*
X118483115Y-63178219D01*
X118325487Y-63315267D01*
X118355059Y-62376801D01*
X117956869Y-62359632D01*
X117769601Y-62349776D01*
X117628542Y-62337903D01*
X117528911Y-62323142D01*
X117465926Y-62304616D01*
X117434805Y-62281455D01*
X117429398Y-62263266D01*
X117237963Y-62263266D01*
X117170158Y-62343194D01*
X117123302Y-62408183D01*
X117103198Y-62452539D01*
X117106590Y-62481249D01*
X117120263Y-62494142D01*
X117157193Y-62502749D01*
X117235274Y-62512001D01*
X117344665Y-62521282D01*
X117475531Y-62529979D01*
X117618031Y-62537479D01*
X117762327Y-62543166D01*
X117898582Y-62546427D01*
X117966754Y-62546965D01*
X118134331Y-62547068D01*
X118164739Y-62986978D01*
X118178756Y-63180043D01*
X118191210Y-63327435D01*
X118202837Y-63434433D01*
X118214377Y-63506315D01*
X118226567Y-63548359D01*
X118240145Y-63565845D01*
X118245840Y-63567148D01*
X118272111Y-63551901D01*
X118329494Y-63510263D01*
X118409830Y-63448384D01*
X118504961Y-63372419D01*
X118516390Y-63363132D01*
X118613375Y-63285819D01*
X118697325Y-63221951D01*
X118759826Y-63177716D01*
X118792465Y-63159300D01*
X118793833Y-63159116D01*
X118833439Y-63170950D01*
X118891645Y-63208678D01*
X118972603Y-63275643D01*
X119080466Y-63375188D01*
X119169910Y-63461829D01*
X119393052Y-63680844D01*
X119393052Y-62526099D01*
G37*
X119393052Y-62526099D02*
X119909468Y-62515987D01*
X120069149Y-62511911D01*
X120213353Y-62506439D01*
X120333577Y-62500038D01*
X120421315Y-62493175D01*
X120468063Y-62486318D01*
X120471427Y-62485139D01*
X120501032Y-62466436D01*
X120498785Y-62439658D01*
X120475769Y-62401520D01*
X120438912Y-62355140D01*
X120376409Y-62286057D01*
X120299626Y-62206663D01*
X120270838Y-62178100D01*
X120191251Y-62097697D01*
X120142420Y-62039789D01*
X120117083Y-61992872D01*
X120107979Y-61945442D01*
X120107243Y-61918912D01*
X120113685Y-61850929D01*
X120136766Y-61784849D01*
X120182415Y-61709479D01*
X120256563Y-61613627D01*
X120290517Y-61572965D01*
X120348466Y-61497613D01*
X120394642Y-61425560D01*
X120411309Y-61391523D01*
X120424978Y-61339564D01*
X120405723Y-61310825D01*
X120368162Y-61293082D01*
X120320357Y-61283126D01*
X120231414Y-61273241D01*
X120111194Y-61264194D01*
X119969558Y-61256752D01*
X119846184Y-61252437D01*
X119393994Y-61240161D01*
X119387148Y-60668888D01*
X119380301Y-60097616D01*
X119176285Y-60303064D01*
X119083447Y-60393877D01*
X118992970Y-60477756D01*
X118916875Y-60543791D01*
X118876900Y-60574750D01*
X118838050Y-60602015D01*
X118807010Y-60618717D01*
X118776543Y-60621335D01*
X118739408Y-60606348D01*
X118688367Y-60570236D01*
X118616178Y-60509477D01*
X118515604Y-60420551D01*
X118462103Y-60373022D01*
X118373047Y-60295379D01*
X118297519Y-60232074D01*
X118243757Y-60189844D01*
X118220352Y-60175381D01*
X118202642Y-60200635D01*
X118188565Y-60275652D01*
X118178210Y-60399315D01*
X118171663Y-60570505D01*
X118169013Y-60788105D01*
X118168956Y-60829242D01*
X118168956Y-61246466D01*
X117856556Y-61248278D01*
X117699426Y-61250936D01*
X117542967Y-61256680D01*
X117396028Y-61264861D01*
X117267457Y-61274825D01*
X117166103Y-61285920D01*
X117100816Y-61297494D01*
X117081448Y-61305393D01*
X117085685Y-61336416D01*
X117125858Y-61399012D01*
X117199973Y-61490653D01*
X117306036Y-61608809D01*
X117393261Y-61700807D01*
X117578196Y-61892457D01*
X117357160Y-62131361D01*
X117247025Y-62252583D01*
X117237963Y-62263266D01*
X117429398Y-62263266D01*
X117445878Y-62231112D01*
X117489289Y-62174499D01*
X117550585Y-62105121D01*
X117556908Y-62098398D01*
X117627469Y-62018720D01*
X117666837Y-61958221D01*
X117682791Y-61903177D01*
X117684418Y-61873446D01*
X117675369Y-61804386D01*
X117639972Y-61762140D01*
X117614013Y-61746910D01*
X117563306Y-61707028D01*
X117512377Y-61646090D01*
X117469826Y-61578105D01*
X117444251Y-61517085D01*
X117444249Y-61477041D01*
X117446591Y-61474092D01*
X117479441Y-61463747D01*
X117552858Y-61451857D01*
X117656484Y-61439787D01*
X117779966Y-61428906D01*
X117800123Y-61427420D01*
X117931325Y-61416333D01*
X118049713Y-61403273D01*
X118142938Y-61389806D01*
X118198651Y-61377499D01*
X118201291Y-61376544D01*
X118248329Y-61351007D01*
X118282732Y-61311110D01*
X118306212Y-61249693D01*
X118320480Y-61159595D01*
X118327248Y-61033651D01*
X118328227Y-60864702D01*
X118328080Y-60846008D01*
X118324917Y-60483803D01*
X118529667Y-60635616D01*
X118655431Y-60722587D01*
X118748889Y-60772797D01*
X118807663Y-60787429D01*
X118863337Y-60774106D01*
X118937872Y-60731478D01*
X119037903Y-60655557D01*
X119066850Y-60631596D01*
X119252791Y-60475762D01*
X119268128Y-60943995D01*
X119273183Y-61092688D01*
X119277954Y-61222607D01*
X119282113Y-61325644D01*
X119285333Y-61393692D01*
X119287254Y-61418604D01*
X119312674Y-61420580D01*
X119381231Y-61422306D01*
X119485059Y-61423682D01*
X119616293Y-61424606D01*
X119767066Y-61424977D01*
X119781454Y-61424980D01*
X120271864Y-61424980D01*
X120036623Y-61661204D01*
X119801381Y-61897427D01*
X120024193Y-62120240D01*
X120247005Y-62343052D01*
X119809364Y-62343052D01*
X119662714Y-62343923D01*
X119532120Y-62346334D01*
X119426868Y-62349986D01*
X119356242Y-62354578D01*
X119331383Y-62358531D01*
X119310894Y-62376735D01*
X119297990Y-62418585D01*
X119290936Y-62493559D01*
X119288190Y-62594425D01*
X119283879Y-62777343D01*
X119276249Y-62943495D01*
X119265913Y-63086085D01*
X119253483Y-63198319D01*
X119239570Y-63273399D01*
X119224787Y-63304531D01*
X119224214Y-63304757D01*
X119195208Y-63291767D01*
X119140102Y-63249190D01*
X119067916Y-63184426D01*
X119016809Y-63134639D01*
X118937363Y-63058288D01*
X118868248Y-62998078D01*
X118818933Y-62961939D01*
X118802416Y-62955100D01*
X118763116Y-62965012D01*
X118706841Y-62997468D01*
X118627748Y-63056550D01*
X118519995Y-63146343D01*
X118483115Y-63178219D01*
X118325487Y-63315267D01*
X118355059Y-62376801D01*
X117956869Y-62359632D01*
X117769601Y-62349776D01*
X117628542Y-62337903D01*
X117528911Y-62323142D01*
X117465926Y-62304616D01*
X117434805Y-62281455D01*
X117429398Y-62263266D01*
X117237963Y-62263266D01*
X117170158Y-62343194D01*
X117123302Y-62408183D01*
X117103198Y-62452539D01*
X117106590Y-62481249D01*
X117120263Y-62494142D01*
X117157193Y-62502749D01*
X117235274Y-62512001D01*
X117344665Y-62521282D01*
X117475531Y-62529979D01*
X117618031Y-62537479D01*
X117762327Y-62543166D01*
X117898582Y-62546427D01*
X117966754Y-62546965D01*
X118134331Y-62547068D01*
X118164739Y-62986978D01*
X118178756Y-63180043D01*
X118191210Y-63327435D01*
X118202837Y-63434433D01*
X118214377Y-63506315D01*
X118226567Y-63548359D01*
X118240145Y-63565845D01*
X118245840Y-63567148D01*
X118272111Y-63551901D01*
X118329494Y-63510263D01*
X118409830Y-63448384D01*
X118504961Y-63372419D01*
X118516390Y-63363132D01*
X118613375Y-63285819D01*
X118697325Y-63221951D01*
X118759826Y-63177716D01*
X118792465Y-63159300D01*
X118793833Y-63159116D01*
X118833439Y-63170950D01*
X118891645Y-63208678D01*
X118972603Y-63275643D01*
X119080466Y-63375188D01*
X119169910Y-63461829D01*
X119393052Y-63680844D01*
X119393052Y-62526099D01*
%TO.C,*%
G36*
X124163365Y-48750953D02*
G01*
X124151262Y-48759975D01*
X124139148Y-48773796D01*
X124134680Y-48795944D01*
X124139717Y-48832283D01*
X124156117Y-48888678D01*
X124185738Y-48970993D01*
X124230441Y-49085091D01*
X124292082Y-49236838D01*
X124337049Y-49346161D01*
X124565435Y-49900054D01*
X124324450Y-50455499D01*
X124248241Y-50632019D01*
X124190860Y-50767726D01*
X124150353Y-50868383D01*
X124124767Y-50939757D01*
X124112150Y-50987611D01*
X124110548Y-51017711D01*
X124118010Y-51035823D01*
X124125472Y-51042917D01*
X124165966Y-51060802D01*
X124183858Y-51055668D01*
X124198385Y-51027260D01*
X124229359Y-50959229D01*
X124273519Y-50858991D01*
X124327601Y-50733966D01*
X124388345Y-50591571D01*
X124399739Y-50564659D01*
X124461312Y-50419958D01*
X124516779Y-50291319D01*
X124562887Y-50186152D01*
X124596379Y-50111866D01*
X124614002Y-50075873D01*
X124615241Y-50074029D01*
X124629019Y-50090969D01*
X124658763Y-50148852D01*
X124701541Y-50241247D01*
X124754419Y-50361722D01*
X124814465Y-50503847D01*
X124844901Y-50577694D01*
X124907491Y-50729171D01*
X124964180Y-50863369D01*
X125012023Y-50973552D01*
X125048073Y-51052990D01*
X125069383Y-51094949D01*
X125073428Y-51099811D01*
X125105411Y-51087471D01*
X125124789Y-51076325D01*
X125133383Y-51061474D01*
X125131799Y-51030064D01*
X125118305Y-50976931D01*
X125091173Y-50896906D01*
X125048674Y-50784822D01*
X124989077Y-50635514D01*
X124923573Y-50475203D01*
X124685861Y-49897175D01*
X124923266Y-49348892D01*
X125000347Y-49169361D01*
X125058008Y-49031010D01*
X125098076Y-48928650D01*
X125122380Y-48857094D01*
X125132746Y-48811154D01*
X125131003Y-48785641D01*
X125124482Y-48777703D01*
X125084081Y-48757339D01*
X125072051Y-48754407D01*
X125057652Y-48776649D01*
X125026664Y-48839030D01*
X124982260Y-48934669D01*
X124927614Y-49056687D01*
X124865899Y-49198201D01*
X124845838Y-49244930D01*
X124783003Y-49391510D01*
X124727096Y-49521306D01*
X124681152Y-49627321D01*
X124648207Y-49702559D01*
X124631298Y-49740021D01*
X124629792Y-49742863D01*
X124618787Y-49722668D01*
X124591723Y-49662258D01*
X124551633Y-49568718D01*
X124501549Y-49449129D01*
X124444501Y-49310575D01*
X124438786Y-49296578D01*
X124365538Y-49117178D01*
X124308890Y-48979828D01*
X124266087Y-48879388D01*
X124234375Y-48810719D01*
X124211001Y-48768681D01*
X124193211Y-48748133D01*
X124178250Y-48743937D01*
X124163365Y-48750953D01*
G37*
X124163365Y-48750953D02*
X124151262Y-48759975D01*
X124139148Y-48773796D01*
X124134680Y-48795944D01*
X124139717Y-48832283D01*
X124156117Y-48888678D01*
X124185738Y-48970993D01*
X124230441Y-49085091D01*
X124292082Y-49236838D01*
X124337049Y-49346161D01*
X124565435Y-49900054D01*
X124324450Y-50455499D01*
X124248241Y-50632019D01*
X124190860Y-50767726D01*
X124150353Y-50868383D01*
X124124767Y-50939757D01*
X124112150Y-50987611D01*
X124110548Y-51017711D01*
X124118010Y-51035823D01*
X124125472Y-51042917D01*
X124165966Y-51060802D01*
X124183858Y-51055668D01*
X124198385Y-51027260D01*
X124229359Y-50959229D01*
X124273519Y-50858991D01*
X124327601Y-50733966D01*
X124388345Y-50591571D01*
X124399739Y-50564659D01*
X124461312Y-50419958D01*
X124516779Y-50291319D01*
X124562887Y-50186152D01*
X124596379Y-50111866D01*
X124614002Y-50075873D01*
X124615241Y-50074029D01*
X124629019Y-50090969D01*
X124658763Y-50148852D01*
X124701541Y-50241247D01*
X124754419Y-50361722D01*
X124814465Y-50503847D01*
X124844901Y-50577694D01*
X124907491Y-50729171D01*
X124964180Y-50863369D01*
X125012023Y-50973552D01*
X125048073Y-51052990D01*
X125069383Y-51094949D01*
X125073428Y-51099811D01*
X125105411Y-51087471D01*
X125124789Y-51076325D01*
X125133383Y-51061474D01*
X125131799Y-51030064D01*
X125118305Y-50976931D01*
X125091173Y-50896906D01*
X125048674Y-50784822D01*
X124989077Y-50635514D01*
X124923573Y-50475203D01*
X124685861Y-49897175D01*
X124923266Y-49348892D01*
X125000347Y-49169361D01*
X125058008Y-49031010D01*
X125098076Y-48928650D01*
X125122380Y-48857094D01*
X125132746Y-48811154D01*
X125131003Y-48785641D01*
X125124482Y-48777703D01*
X125084081Y-48757339D01*
X125072051Y-48754407D01*
X125057652Y-48776649D01*
X125026664Y-48839030D01*
X124982260Y-48934669D01*
X124927614Y-49056687D01*
X124865899Y-49198201D01*
X124845838Y-49244930D01*
X124783003Y-49391510D01*
X124727096Y-49521306D01*
X124681152Y-49627321D01*
X124648207Y-49702559D01*
X124631298Y-49740021D01*
X124629792Y-49742863D01*
X124618787Y-49722668D01*
X124591723Y-49662258D01*
X124551633Y-49568718D01*
X124501549Y-49449129D01*
X124444501Y-49310575D01*
X124438786Y-49296578D01*
X124365538Y-49117178D01*
X124308890Y-48979828D01*
X124266087Y-48879388D01*
X124234375Y-48810719D01*
X124211001Y-48768681D01*
X124193211Y-48748133D01*
X124178250Y-48743937D01*
X124163365Y-48750953D01*
G36*
X122894868Y-48974906D02*
G01*
X122786235Y-49091496D01*
X122707628Y-49177627D01*
X122658343Y-49243547D01*
X122637681Y-49299506D01*
X122644937Y-49355751D01*
X122679411Y-49422534D01*
X122740401Y-49510102D01*
X122827204Y-49628705D01*
X122848098Y-49657748D01*
X123095550Y-50003615D01*
X123570924Y-50003615D01*
X123570924Y-50539157D01*
X123571104Y-50717237D01*
X123572055Y-50850730D01*
X123574390Y-50946051D01*
X123578724Y-51009617D01*
X123585671Y-51047844D01*
X123595845Y-51067148D01*
X123609859Y-51073946D01*
X123622188Y-51074699D01*
X123634282Y-51073679D01*
X123644276Y-51067702D01*
X123652339Y-51052390D01*
X123658642Y-51023368D01*
X123663352Y-50976258D01*
X123666639Y-50906685D01*
X123668673Y-50810270D01*
X123669623Y-50682639D01*
X123669658Y-50519414D01*
X123668946Y-50316218D01*
X123667659Y-50068676D01*
X123666816Y-49920733D01*
X123665284Y-49654138D01*
X123553063Y-49654138D01*
X123552419Y-49761571D01*
X123550637Y-49834608D01*
X123547767Y-49865209D01*
X123547547Y-49865535D01*
X123518788Y-49870539D01*
X123452179Y-49874263D01*
X123360869Y-49876041D01*
X123339083Y-49876105D01*
X123141245Y-49876105D01*
X122948052Y-49605241D01*
X122875970Y-49502861D01*
X122816106Y-49415321D01*
X122774032Y-49350957D01*
X122755317Y-49318104D01*
X122754859Y-49316209D01*
X122771220Y-49291306D01*
X122815589Y-49237652D01*
X122880896Y-49163519D01*
X122948334Y-49089783D01*
X123141809Y-48881526D01*
X123543289Y-48881526D01*
X123550731Y-49368246D01*
X123552518Y-49520349D01*
X123553063Y-49654138D01*
X123665284Y-49654138D01*
X123660181Y-48766767D01*
X123379406Y-48759614D01*
X123098632Y-48752460D01*
X122894868Y-48974906D01*
G37*
X122894868Y-48974906D02*
X122786235Y-49091496D01*
X122707628Y-49177627D01*
X122658343Y-49243547D01*
X122637681Y-49299506D01*
X122644937Y-49355751D01*
X122679411Y-49422534D01*
X122740401Y-49510102D01*
X122827204Y-49628705D01*
X122848098Y-49657748D01*
X123095550Y-50003615D01*
X123570924Y-50003615D01*
X123570924Y-50539157D01*
X123571104Y-50717237D01*
X123572055Y-50850730D01*
X123574390Y-50946051D01*
X123578724Y-51009617D01*
X123585671Y-51047844D01*
X123595845Y-51067148D01*
X123609859Y-51073946D01*
X123622188Y-51074699D01*
X123634282Y-51073679D01*
X123644276Y-51067702D01*
X123652339Y-51052390D01*
X123658642Y-51023368D01*
X123663352Y-50976258D01*
X123666639Y-50906685D01*
X123668673Y-50810270D01*
X123669623Y-50682639D01*
X123669658Y-50519414D01*
X123668946Y-50316218D01*
X123667659Y-50068676D01*
X123666816Y-49920733D01*
X123665284Y-49654138D01*
X123553063Y-49654138D01*
X123552419Y-49761571D01*
X123550637Y-49834608D01*
X123547767Y-49865209D01*
X123547547Y-49865535D01*
X123518788Y-49870539D01*
X123452179Y-49874263D01*
X123360869Y-49876041D01*
X123339083Y-49876105D01*
X123141245Y-49876105D01*
X122948052Y-49605241D01*
X122875970Y-49502861D01*
X122816106Y-49415321D01*
X122774032Y-49350957D01*
X122755317Y-49318104D01*
X122754859Y-49316209D01*
X122771220Y-49291306D01*
X122815589Y-49237652D01*
X122880896Y-49163519D01*
X122948334Y-49089783D01*
X123141809Y-48881526D01*
X123543289Y-48881526D01*
X123550731Y-49368246D01*
X123552518Y-49520349D01*
X123553063Y-49654138D01*
X123665284Y-49654138D01*
X123660181Y-48766767D01*
X123379406Y-48759614D01*
X123098632Y-48752460D01*
X122894868Y-48974906D01*
G36*
X125458072Y-48907028D02*
G01*
X126325141Y-48907028D01*
X126325141Y-49825101D01*
X125458072Y-49825101D01*
X125458072Y-49952611D01*
X126326291Y-49952611D01*
X126319340Y-50418022D01*
X126312390Y-50883434D01*
X125870786Y-50890419D01*
X125711335Y-50893103D01*
X125595937Y-50896023D01*
X125517646Y-50900200D01*
X125469518Y-50906655D01*
X125444607Y-50916410D01*
X125435968Y-50930486D01*
X125436655Y-50949904D01*
X125437252Y-50954174D01*
X125443102Y-50978554D01*
X125458346Y-50994790D01*
X125491901Y-51004609D01*
X125552687Y-51009739D01*
X125649621Y-51011910D01*
X125738594Y-51012564D01*
X125881741Y-51012390D01*
X126030488Y-51010614D01*
X126163342Y-51007562D01*
X126229508Y-51005116D01*
X126427149Y-50996048D01*
X126427149Y-48779518D01*
X125458072Y-48779518D01*
X125458072Y-48907028D01*
G37*
X125458072Y-48907028D02*
X126325141Y-48907028D01*
X126325141Y-49825101D01*
X125458072Y-49825101D01*
X125458072Y-49952611D01*
X126326291Y-49952611D01*
X126319340Y-50418022D01*
X126312390Y-50883434D01*
X125870786Y-50890419D01*
X125711335Y-50893103D01*
X125595937Y-50896023D01*
X125517646Y-50900200D01*
X125469518Y-50906655D01*
X125444607Y-50916410D01*
X125435968Y-50930486D01*
X125436655Y-50949904D01*
X125437252Y-50954174D01*
X125443102Y-50978554D01*
X125458346Y-50994790D01*
X125491901Y-51004609D01*
X125552687Y-51009739D01*
X125649621Y-51011910D01*
X125738594Y-51012564D01*
X125881741Y-51012390D01*
X126030488Y-51010614D01*
X126163342Y-51007562D01*
X126229508Y-51005116D01*
X126427149Y-50996048D01*
X126427149Y-48779518D01*
X125458072Y-48779518D01*
X125458072Y-48907028D01*
%TO.C,G\u002A\u002A\u002A*%
G36*
X122700116Y-46264050D02*
G01*
X122689361Y-46274205D01*
X122680672Y-46297412D01*
X122673636Y-46338813D01*
X122667837Y-46403547D01*
X122662865Y-46496756D01*
X122658304Y-46623580D01*
X122653742Y-46789160D01*
X122648765Y-46998636D01*
X122646674Y-47091022D01*
X122628040Y-47920237D01*
X122865421Y-48238613D01*
X122947785Y-48347760D01*
X123019853Y-48440779D01*
X123076057Y-48510678D01*
X123110829Y-48550464D01*
X123118942Y-48556988D01*
X123140237Y-48538685D01*
X123188748Y-48488083D01*
X123258539Y-48411646D01*
X123343675Y-48315835D01*
X123405854Y-48244589D01*
X123676626Y-47932189D01*
X123677389Y-47096998D01*
X123677513Y-46868812D01*
X123677216Y-46686487D01*
X123676188Y-46544881D01*
X123674121Y-46438853D01*
X123670704Y-46363259D01*
X123665630Y-46312958D01*
X123658587Y-46282806D01*
X123649268Y-46267663D01*
X123637362Y-46262386D01*
X123627149Y-46261808D01*
X123612993Y-46263241D01*
X123601732Y-46271030D01*
X123593035Y-46290408D01*
X123586571Y-46326608D01*
X123582009Y-46384862D01*
X123579018Y-46470404D01*
X123577268Y-46588467D01*
X123576426Y-46744283D01*
X123576163Y-46943087D01*
X123576145Y-47068181D01*
X123576145Y-47874554D01*
X123356713Y-48126514D01*
X123273934Y-48220143D01*
X123202847Y-48297881D01*
X123150179Y-48352563D01*
X123122659Y-48377029D01*
X123120819Y-48377669D01*
X123100100Y-48358006D01*
X123056193Y-48305186D01*
X122995705Y-48227450D01*
X122930849Y-48140685D01*
X122757341Y-47904506D01*
X122759365Y-47083157D01*
X122759807Y-46856900D01*
X122759702Y-46676472D01*
X122758760Y-46536700D01*
X122756692Y-46432409D01*
X122753208Y-46358424D01*
X122748017Y-46309573D01*
X122740831Y-46280680D01*
X122731358Y-46266572D01*
X122719310Y-46262075D01*
X122713349Y-46261808D01*
X122700116Y-46264050D01*
G37*
X122700116Y-46264050D02*
X122689361Y-46274205D01*
X122680672Y-46297412D01*
X122673636Y-46338813D01*
X122667837Y-46403547D01*
X122662865Y-46496756D01*
X122658304Y-46623580D01*
X122653742Y-46789160D01*
X122648765Y-46998636D01*
X122646674Y-47091022D01*
X122628040Y-47920237D01*
X122865421Y-48238613D01*
X122947785Y-48347760D01*
X123019853Y-48440779D01*
X123076057Y-48510678D01*
X123110829Y-48550464D01*
X123118942Y-48556988D01*
X123140237Y-48538685D01*
X123188748Y-48488083D01*
X123258539Y-48411646D01*
X123343675Y-48315835D01*
X123405854Y-48244589D01*
X123676626Y-47932189D01*
X123677389Y-47096998D01*
X123677513Y-46868812D01*
X123677216Y-46686487D01*
X123676188Y-46544881D01*
X123674121Y-46438853D01*
X123670704Y-46363259D01*
X123665630Y-46312958D01*
X123658587Y-46282806D01*
X123649268Y-46267663D01*
X123637362Y-46262386D01*
X123627149Y-46261808D01*
X123612993Y-46263241D01*
X123601732Y-46271030D01*
X123593035Y-46290408D01*
X123586571Y-46326608D01*
X123582009Y-46384862D01*
X123579018Y-46470404D01*
X123577268Y-46588467D01*
X123576426Y-46744283D01*
X123576163Y-46943087D01*
X123576145Y-47068181D01*
X123576145Y-47874554D01*
X123356713Y-48126514D01*
X123273934Y-48220143D01*
X123202847Y-48297881D01*
X123150179Y-48352563D01*
X123122659Y-48377029D01*
X123120819Y-48377669D01*
X123100100Y-48358006D01*
X123056193Y-48305186D01*
X122995705Y-48227450D01*
X122930849Y-48140685D01*
X122757341Y-47904506D01*
X122759365Y-47083157D01*
X122759807Y-46856900D01*
X122759702Y-46676472D01*
X122758760Y-46536700D01*
X122756692Y-46432409D01*
X122753208Y-46358424D01*
X122748017Y-46309573D01*
X122740831Y-46280680D01*
X122731358Y-46266572D01*
X122719310Y-46262075D01*
X122713349Y-46261808D01*
X122700116Y-46264050D01*
G36*
X124477175Y-46184886D02*
G01*
X124431968Y-46236109D01*
X124367501Y-46314314D01*
X124289507Y-46412634D01*
X124245572Y-46469341D01*
X124009679Y-46776209D01*
X124009679Y-47910373D01*
X124242026Y-48220929D01*
X124323834Y-48328646D01*
X124395649Y-48420146D01*
X124451727Y-48488349D01*
X124486327Y-48526173D01*
X124493897Y-48531486D01*
X124517125Y-48513763D01*
X124568442Y-48464860D01*
X124641453Y-48391174D01*
X124729759Y-48299102D01*
X124784340Y-48241003D01*
X125055261Y-47950520D01*
X125055261Y-46877833D01*
X124953253Y-46877833D01*
X124953253Y-47892818D01*
X124730110Y-48135513D01*
X124646587Y-48226106D01*
X124576777Y-48301353D01*
X124527217Y-48354243D01*
X124504443Y-48377766D01*
X124503700Y-48378341D01*
X124488081Y-48359303D01*
X124447977Y-48307373D01*
X124389464Y-48230490D01*
X124318810Y-48136843D01*
X124137189Y-47895212D01*
X124137189Y-46793804D01*
X124304772Y-46579190D01*
X124375341Y-46489968D01*
X124435171Y-46416465D01*
X124476883Y-46367617D01*
X124491955Y-46352463D01*
X124514332Y-46366597D01*
X124562105Y-46413767D01*
X124628864Y-46487132D01*
X124708202Y-46579854D01*
X124732404Y-46609091D01*
X124953253Y-46877833D01*
X125055261Y-46877833D01*
X125055261Y-46820720D01*
X124784293Y-46496635D01*
X124693049Y-46388311D01*
X124612953Y-46294743D01*
X124549766Y-46222540D01*
X124509249Y-46178311D01*
X124497395Y-46167512D01*
X124477175Y-46184886D01*
G37*
X124477175Y-46184886D02*
X124431968Y-46236109D01*
X124367501Y-46314314D01*
X124289507Y-46412634D01*
X124245572Y-46469341D01*
X124009679Y-46776209D01*
X124009679Y-47910373D01*
X124242026Y-48220929D01*
X124323834Y-48328646D01*
X124395649Y-48420146D01*
X124451727Y-48488349D01*
X124486327Y-48526173D01*
X124493897Y-48531486D01*
X124517125Y-48513763D01*
X124568442Y-48464860D01*
X124641453Y-48391174D01*
X124729759Y-48299102D01*
X124784340Y-48241003D01*
X125055261Y-47950520D01*
X125055261Y-46877833D01*
X124953253Y-46877833D01*
X124953253Y-47892818D01*
X124730110Y-48135513D01*
X124646587Y-48226106D01*
X124576777Y-48301353D01*
X124527217Y-48354243D01*
X124504443Y-48377766D01*
X124503700Y-48378341D01*
X124488081Y-48359303D01*
X124447977Y-48307373D01*
X124389464Y-48230490D01*
X124318810Y-48136843D01*
X124137189Y-47895212D01*
X124137189Y-46793804D01*
X124304772Y-46579190D01*
X124375341Y-46489968D01*
X124435171Y-46416465D01*
X124476883Y-46367617D01*
X124491955Y-46352463D01*
X124514332Y-46366597D01*
X124562105Y-46413767D01*
X124628864Y-46487132D01*
X124708202Y-46579854D01*
X124732404Y-46609091D01*
X124953253Y-46877833D01*
X125055261Y-46877833D01*
X125055261Y-46820720D01*
X124784293Y-46496635D01*
X124693049Y-46388311D01*
X124612953Y-46294743D01*
X124549766Y-46222540D01*
X124509249Y-46178311D01*
X124497395Y-46167512D01*
X124477175Y-46184886D01*
G36*
X118577751Y-46363816D02*
G01*
X119419317Y-46363816D01*
X119419317Y-47307390D01*
X118577751Y-47307390D01*
X118577751Y-47434900D01*
X119419317Y-47434900D01*
X119419317Y-48403976D01*
X118552249Y-48403976D01*
X118552249Y-48531486D01*
X119546827Y-48531486D01*
X119546827Y-46236306D01*
X118577751Y-46236306D01*
X118577751Y-46363816D01*
G37*
X118577751Y-46363816D02*
X119419317Y-46363816D01*
X119419317Y-47307390D01*
X118577751Y-47307390D01*
X118577751Y-47434900D01*
X119419317Y-47434900D01*
X119419317Y-48403976D01*
X118552249Y-48403976D01*
X118552249Y-48531486D01*
X119546827Y-48531486D01*
X119546827Y-46236306D01*
X118577751Y-46236306D01*
X118577751Y-46363816D01*
G36*
X126196476Y-46210919D02*
G01*
X126077844Y-46212592D01*
X125931165Y-46216994D01*
X125779277Y-46223358D01*
X125697933Y-46227639D01*
X125573502Y-46235347D01*
X125491562Y-46242768D01*
X125443658Y-46252010D01*
X125421333Y-46265185D01*
X125416132Y-46284404D01*
X125417411Y-46297653D01*
X125421928Y-46316945D01*
X125433921Y-46330735D01*
X125460598Y-46339739D01*
X125509169Y-46344672D01*
X125586842Y-46346249D01*
X125700825Y-46345187D01*
X125858329Y-46342200D01*
X125864950Y-46342064D01*
X126304859Y-46333064D01*
X126304859Y-47307390D01*
X125437791Y-47307390D01*
X125437791Y-47434900D01*
X126303825Y-47434900D01*
X126310718Y-47963734D01*
X126313369Y-48141679D01*
X126316460Y-48275093D01*
X126320613Y-48370448D01*
X126326447Y-48434216D01*
X126334583Y-48472869D01*
X126345642Y-48492880D01*
X126360243Y-48500720D01*
X126362239Y-48501146D01*
X126372811Y-48500729D01*
X126381574Y-48492162D01*
X126388695Y-48471125D01*
X126394344Y-48433296D01*
X126398690Y-48374352D01*
X126401901Y-48289974D01*
X126404148Y-48175838D01*
X126405599Y-48027625D01*
X126406423Y-47841011D01*
X126406790Y-47611676D01*
X126406867Y-47360264D01*
X126406867Y-46210804D01*
X126196476Y-46210919D01*
G37*
X126196476Y-46210919D02*
X126077844Y-46212592D01*
X125931165Y-46216994D01*
X125779277Y-46223358D01*
X125697933Y-46227639D01*
X125573502Y-46235347D01*
X125491562Y-46242768D01*
X125443658Y-46252010D01*
X125421333Y-46265185D01*
X125416132Y-46284404D01*
X125417411Y-46297653D01*
X125421928Y-46316945D01*
X125433921Y-46330735D01*
X125460598Y-46339739D01*
X125509169Y-46344672D01*
X125586842Y-46346249D01*
X125700825Y-46345187D01*
X125858329Y-46342200D01*
X125864950Y-46342064D01*
X126304859Y-46333064D01*
X126304859Y-47307390D01*
X125437791Y-47307390D01*
X125437791Y-47434900D01*
X126303825Y-47434900D01*
X126310718Y-47963734D01*
X126313369Y-48141679D01*
X126316460Y-48275093D01*
X126320613Y-48370448D01*
X126326447Y-48434216D01*
X126334583Y-48472869D01*
X126345642Y-48492880D01*
X126360243Y-48500720D01*
X126362239Y-48501146D01*
X126372811Y-48500729D01*
X126381574Y-48492162D01*
X126388695Y-48471125D01*
X126394344Y-48433296D01*
X126398690Y-48374352D01*
X126401901Y-48289974D01*
X126404148Y-48175838D01*
X126405599Y-48027625D01*
X126406423Y-47841011D01*
X126406790Y-47611676D01*
X126406867Y-47360264D01*
X126406867Y-46210804D01*
X126196476Y-46210919D01*
G36*
X121585986Y-46382942D02*
G01*
X121499585Y-46473944D01*
X121408944Y-46569868D01*
X121335944Y-46647540D01*
X121225569Y-46765501D01*
X121439613Y-47055572D01*
X121518068Y-47162252D01*
X121586092Y-47255422D01*
X121637689Y-47326818D01*
X121666863Y-47368178D01*
X121670511Y-47373766D01*
X121665536Y-47404317D01*
X121642248Y-47474266D01*
X121603379Y-47576553D01*
X121551660Y-47704117D01*
X121489824Y-47849896D01*
X121458706Y-47921191D01*
X121384003Y-48091934D01*
X121328442Y-48222254D01*
X121289975Y-48318120D01*
X121266554Y-48385504D01*
X121256131Y-48430375D01*
X121256657Y-48458704D01*
X121266085Y-48476461D01*
X121267649Y-48478097D01*
X121302491Y-48503578D01*
X121316819Y-48504132D01*
X121329946Y-48478391D01*
X121360314Y-48412687D01*
X121404860Y-48313844D01*
X121460519Y-48188686D01*
X121524228Y-48044039D01*
X121556585Y-47970108D01*
X121784784Y-47447651D01*
X122199036Y-47432837D01*
X122199036Y-47969411D01*
X122199220Y-48147696D01*
X122200176Y-48281386D01*
X122202516Y-48376890D01*
X122206846Y-48440617D01*
X122213778Y-48478976D01*
X122223919Y-48498376D01*
X122237880Y-48505225D01*
X122250040Y-48505984D01*
X122262172Y-48504855D01*
X122272209Y-48498525D01*
X122280351Y-48482582D01*
X122286795Y-48452613D01*
X122291740Y-48404206D01*
X122295385Y-48332946D01*
X122297928Y-48234423D01*
X122299566Y-48104223D01*
X122300498Y-47937932D01*
X122300924Y-47731140D01*
X122301040Y-47479432D01*
X122301044Y-47371145D01*
X122301044Y-46363816D01*
X122199036Y-46363816D01*
X122199036Y-47307390D01*
X121765399Y-47307390D01*
X121591453Y-47071496D01*
X121520469Y-46974695D01*
X121459943Y-46891152D01*
X121416787Y-46830475D01*
X121398643Y-46803577D01*
X121406560Y-46769122D01*
X121449737Y-46703933D01*
X121525671Y-46611560D01*
X121564758Y-46567684D01*
X121749738Y-46363816D01*
X122199036Y-46363816D01*
X122301044Y-46363816D01*
X122301044Y-46236306D01*
X121725652Y-46236306D01*
X121585986Y-46382942D01*
G37*
X121585986Y-46382942D02*
X121499585Y-46473944D01*
X121408944Y-46569868D01*
X121335944Y-46647540D01*
X121225569Y-46765501D01*
X121439613Y-47055572D01*
X121518068Y-47162252D01*
X121586092Y-47255422D01*
X121637689Y-47326818D01*
X121666863Y-47368178D01*
X121670511Y-47373766D01*
X121665536Y-47404317D01*
X121642248Y-47474266D01*
X121603379Y-47576553D01*
X121551660Y-47704117D01*
X121489824Y-47849896D01*
X121458706Y-47921191D01*
X121384003Y-48091934D01*
X121328442Y-48222254D01*
X121289975Y-48318120D01*
X121266554Y-48385504D01*
X121256131Y-48430375D01*
X121256657Y-48458704D01*
X121266085Y-48476461D01*
X121267649Y-48478097D01*
X121302491Y-48503578D01*
X121316819Y-48504132D01*
X121329946Y-48478391D01*
X121360314Y-48412687D01*
X121404860Y-48313844D01*
X121460519Y-48188686D01*
X121524228Y-48044039D01*
X121556585Y-47970108D01*
X121784784Y-47447651D01*
X122199036Y-47432837D01*
X122199036Y-47969411D01*
X122199220Y-48147696D01*
X122200176Y-48281386D01*
X122202516Y-48376890D01*
X122206846Y-48440617D01*
X122213778Y-48478976D01*
X122223919Y-48498376D01*
X122237880Y-48505225D01*
X122250040Y-48505984D01*
X122262172Y-48504855D01*
X122272209Y-48498525D01*
X122280351Y-48482582D01*
X122286795Y-48452613D01*
X122291740Y-48404206D01*
X122295385Y-48332946D01*
X122297928Y-48234423D01*
X122299566Y-48104223D01*
X122300498Y-47937932D01*
X122300924Y-47731140D01*
X122301040Y-47479432D01*
X122301044Y-47371145D01*
X122301044Y-46363816D01*
X122199036Y-46363816D01*
X122199036Y-47307390D01*
X121765399Y-47307390D01*
X121591453Y-47071496D01*
X121520469Y-46974695D01*
X121459943Y-46891152D01*
X121416787Y-46830475D01*
X121398643Y-46803577D01*
X121406560Y-46769122D01*
X121449737Y-46703933D01*
X121525671Y-46611560D01*
X121564758Y-46567684D01*
X121749738Y-46363816D01*
X122199036Y-46363816D01*
X122301044Y-46363816D01*
X122301044Y-46236306D01*
X121725652Y-46236306D01*
X121585986Y-46382942D01*
G36*
X119870526Y-46194922D02*
G01*
X119858957Y-46223555D01*
X119863433Y-46244899D01*
X119886018Y-46272558D01*
X119931508Y-46309960D01*
X120004705Y-46360533D01*
X120110405Y-46427708D01*
X120253408Y-46514912D01*
X120336514Y-46564775D01*
X120821928Y-46854991D01*
X120821928Y-47332892D01*
X119887822Y-47332892D01*
X119898565Y-47632540D01*
X119904099Y-47751429D01*
X119911128Y-47851084D01*
X119918734Y-47920770D01*
X119925708Y-47949490D01*
X119954918Y-47970841D01*
X120019038Y-48012501D01*
X120110076Y-48069644D01*
X120220039Y-48137448D01*
X120340933Y-48211088D01*
X120464766Y-48285742D01*
X120583546Y-48356585D01*
X120689279Y-48418793D01*
X120773973Y-48467543D01*
X120829634Y-48498012D01*
X120847814Y-48505984D01*
X120875254Y-48486213D01*
X120876757Y-48480482D01*
X120882987Y-48431420D01*
X120883133Y-48430014D01*
X120863153Y-48409690D01*
X120805940Y-48367569D01*
X120718024Y-48308050D01*
X120605935Y-48235534D01*
X120476202Y-48154418D01*
X120452149Y-48139653D01*
X120018614Y-47874257D01*
X120011246Y-47654579D01*
X120003878Y-47434900D01*
X120923936Y-47434900D01*
X120923936Y-46778824D01*
X120431244Y-46483595D01*
X120287252Y-46397895D01*
X120156642Y-46321264D01*
X120046172Y-46257575D01*
X119962597Y-46210705D01*
X119912675Y-46184528D01*
X119902683Y-46180458D01*
X119870526Y-46194922D01*
G37*
X119870526Y-46194922D02*
X119858957Y-46223555D01*
X119863433Y-46244899D01*
X119886018Y-46272558D01*
X119931508Y-46309960D01*
X120004705Y-46360533D01*
X120110405Y-46427708D01*
X120253408Y-46514912D01*
X120336514Y-46564775D01*
X120821928Y-46854991D01*
X120821928Y-47332892D01*
X119887822Y-47332892D01*
X119898565Y-47632540D01*
X119904099Y-47751429D01*
X119911128Y-47851084D01*
X119918734Y-47920770D01*
X119925708Y-47949490D01*
X119954918Y-47970841D01*
X120019038Y-48012501D01*
X120110076Y-48069644D01*
X120220039Y-48137448D01*
X120340933Y-48211088D01*
X120464766Y-48285742D01*
X120583546Y-48356585D01*
X120689279Y-48418793D01*
X120773973Y-48467543D01*
X120829634Y-48498012D01*
X120847814Y-48505984D01*
X120875254Y-48486213D01*
X120876757Y-48480482D01*
X120882987Y-48431420D01*
X120883133Y-48430014D01*
X120863153Y-48409690D01*
X120805940Y-48367569D01*
X120718024Y-48308050D01*
X120605935Y-48235534D01*
X120476202Y-48154418D01*
X120452149Y-48139653D01*
X120018614Y-47874257D01*
X120011246Y-47654579D01*
X120003878Y-47434900D01*
X120923936Y-47434900D01*
X120923936Y-46778824D01*
X120431244Y-46483595D01*
X120287252Y-46397895D01*
X120156642Y-46321264D01*
X120046172Y-46257575D01*
X119962597Y-46210705D01*
X119912675Y-46184528D01*
X119902683Y-46180458D01*
X119870526Y-46194922D01*
G36*
X117085754Y-46198408D02*
G01*
X117075630Y-46222616D01*
X117074285Y-46249057D01*
X117095368Y-46268988D01*
X117154177Y-46310538D01*
X117244390Y-46369608D01*
X117359685Y-46442101D01*
X117493741Y-46523921D01*
X117554777Y-46560473D01*
X118034897Y-46846387D01*
X118048879Y-47070497D01*
X118053885Y-47173053D01*
X118055322Y-47255706D01*
X118053077Y-47305645D01*
X118051029Y-47313749D01*
X118022941Y-47319890D01*
X117952191Y-47325215D01*
X117847119Y-47329381D01*
X117716067Y-47332051D01*
X117581668Y-47332892D01*
X117124137Y-47332892D01*
X117124137Y-47937961D01*
X117566532Y-48208529D01*
X117727879Y-48307011D01*
X117851299Y-48381590D01*
X117942271Y-48435149D01*
X118006272Y-48470571D01*
X118048780Y-48490739D01*
X118075272Y-48498536D01*
X118091226Y-48496845D01*
X118100920Y-48489776D01*
X118114454Y-48467055D01*
X118108559Y-48440021D01*
X118078855Y-48405002D01*
X118020963Y-48358326D01*
X117930504Y-48296322D01*
X117803098Y-48215318D01*
X117691556Y-48146549D01*
X117558838Y-48064550D01*
X117440986Y-47990245D01*
X117345001Y-47928170D01*
X117277883Y-47882860D01*
X117246634Y-47858852D01*
X117245662Y-47857669D01*
X117236663Y-47820370D01*
X117229914Y-47746715D01*
X117226656Y-47651345D01*
X117226535Y-47632540D01*
X117226145Y-47434900D01*
X118169719Y-47434900D01*
X118169719Y-47133750D01*
X118166719Y-46972446D01*
X118157679Y-46861122D01*
X118142534Y-46799107D01*
X118137841Y-46791298D01*
X118107385Y-46766626D01*
X118039726Y-46720388D01*
X117941607Y-46656909D01*
X117819768Y-46580513D01*
X117680953Y-46495524D01*
X117611085Y-46453434D01*
X117443886Y-46354012D01*
X117315034Y-46279828D01*
X117219663Y-46229029D01*
X117152904Y-46199761D01*
X117109890Y-46190172D01*
X117085754Y-46198408D01*
G37*
X117085754Y-46198408D02*
X117075630Y-46222616D01*
X117074285Y-46249057D01*
X117095368Y-46268988D01*
X117154177Y-46310538D01*
X117244390Y-46369608D01*
X117359685Y-46442101D01*
X117493741Y-46523921D01*
X117554777Y-46560473D01*
X118034897Y-46846387D01*
X118048879Y-47070497D01*
X118053885Y-47173053D01*
X118055322Y-47255706D01*
X118053077Y-47305645D01*
X118051029Y-47313749D01*
X118022941Y-47319890D01*
X117952191Y-47325215D01*
X117847119Y-47329381D01*
X117716067Y-47332051D01*
X117581668Y-47332892D01*
X117124137Y-47332892D01*
X117124137Y-47937961D01*
X117566532Y-48208529D01*
X117727879Y-48307011D01*
X117851299Y-48381590D01*
X117942271Y-48435149D01*
X118006272Y-48470571D01*
X118048780Y-48490739D01*
X118075272Y-48498536D01*
X118091226Y-48496845D01*
X118100920Y-48489776D01*
X118114454Y-48467055D01*
X118108559Y-48440021D01*
X118078855Y-48405002D01*
X118020963Y-48358326D01*
X117930504Y-48296322D01*
X117803098Y-48215318D01*
X117691556Y-48146549D01*
X117558838Y-48064550D01*
X117440986Y-47990245D01*
X117345001Y-47928170D01*
X117277883Y-47882860D01*
X117246634Y-47858852D01*
X117245662Y-47857669D01*
X117236663Y-47820370D01*
X117229914Y-47746715D01*
X117226656Y-47651345D01*
X117226535Y-47632540D01*
X117226145Y-47434900D01*
X118169719Y-47434900D01*
X118169719Y-47133750D01*
X118166719Y-46972446D01*
X118157679Y-46861122D01*
X118142534Y-46799107D01*
X118137841Y-46791298D01*
X118107385Y-46766626D01*
X118039726Y-46720388D01*
X117941607Y-46656909D01*
X117819768Y-46580513D01*
X117680953Y-46495524D01*
X117611085Y-46453434D01*
X117443886Y-46354012D01*
X117315034Y-46279828D01*
X117219663Y-46229029D01*
X117152904Y-46199761D01*
X117109890Y-46190172D01*
X117085754Y-46198408D01*
%TO.C,*%
D12*
%TD*%
M02*
