%TF.GenerationSoftware,KiCad,Pcbnew,(5.1.7)-1*%
%TF.CreationDate,2021-11-09T13:07:33-06:00*%
%TF.ProjectId,IFM Fourses Expander,49464d20-466f-4757-9273-657320457870,rev?*%
%TF.SameCoordinates,Original*%
%TF.FileFunction,Soldermask,Top*%
%TF.FilePolarity,Negative*%
%FSLAX46Y46*%
G04 Gerber Fmt 4.6, Leading zero omitted, Abs format (unit mm)*
G04 Created by KiCad (PCBNEW (5.1.7)-1) date 2021-11-09 13:07:33*
%MOMM*%
%LPD*%
G01*
G04 APERTURE LIST*
%ADD10C,2.000000*%
%ADD11C,3.000000*%
%ADD12C,2.130000*%
%ADD13R,1.930000X1.830000*%
G04 APERTURE END LIST*
D10*
%TO.C,REF\u002A\u002A*%
X124760000Y-61900000D03*
%TD*%
%TO.C,REF\u002A\u002A*%
X124760000Y-87820000D03*
%TD*%
%TO.C,REF\u002A\u002A*%
X118760000Y-61900000D03*
%TD*%
%TO.C,REF\u002A\u002A*%
X118760000Y-87820000D03*
%TD*%
%TO.C,REF\u002A\u002A*%
X121760000Y-154380000D03*
%TD*%
D11*
%TO.C,REF\u002A\u002A*%
X121760000Y-146260000D03*
%TD*%
D10*
%TO.C,REF\u002A\u002A*%
X124760000Y-139660000D03*
%TD*%
%TO.C,REF\u002A\u002A*%
X118760000Y-139660000D03*
%TD*%
%TO.C,REF\u002A\u002A*%
X124760000Y-113740000D03*
%TD*%
%TO.C,REF\u002A\u002A*%
X118760000Y-113740000D03*
%TD*%
D12*
%TO.C,REF\u002A\u002A*%
X121760000Y-84760000D03*
D13*
X121760000Y-87860000D03*
D12*
X121760000Y-76460000D03*
%TD*%
D11*
%TO.C,REF\u002A\u002A*%
X121760000Y-81380000D03*
%TD*%
%TO.C,REF\u002A\u002A*%
X121760000Y-133300000D03*
%TD*%
%TO.C,REF\u002A\u002A*%
X121760000Y-107340000D03*
%TD*%
%TO.C,REF\u002A\u002A*%
X121760000Y-68380000D03*
%TD*%
%TO.C,REF\u002A\u002A*%
X121760000Y-120300000D03*
%TD*%
%TO.C,REF\u002A\u002A*%
X121760000Y-55420000D03*
%TD*%
%TO.C,REF\u002A\u002A*%
X121760000Y-94340000D03*
%TD*%
D12*
%TO.C,REF\u002A\u002A*%
X121760000Y-136680000D03*
D13*
X121760000Y-139780000D03*
D12*
X121760000Y-128380000D03*
%TD*%
%TO.C,REF\u002A\u002A*%
X121760000Y-73300000D03*
D13*
X121760000Y-61900000D03*
D12*
X121760000Y-65000000D03*
%TD*%
%TO.C,REF\u002A\u002A*%
X121760000Y-125220000D03*
D13*
X121760000Y-113820000D03*
D12*
X121760000Y-116920000D03*
%TD*%
%TO.C,REF\u002A\u002A*%
X121760000Y-58800000D03*
D13*
X121760000Y-61900000D03*
D12*
X121760000Y-50500000D03*
%TD*%
%TO.C,REF\u002A\u002A*%
X121760000Y-99260000D03*
D13*
X121760000Y-87860000D03*
D12*
X121760000Y-90960000D03*
%TD*%
%TO.C,REF\u002A\u002A*%
X121760000Y-110720000D03*
D13*
X121760000Y-113820000D03*
D12*
X121760000Y-102420000D03*
%TD*%
%TO.C,REF\u002A\u002A*%
X121760000Y-142880000D03*
D13*
X121760000Y-139780000D03*
D12*
X121760000Y-151180000D03*
%TD*%
M02*
