%TF.GenerationSoftware,KiCad,Pcbnew,(5.1.7)-1*%
%TF.CreationDate,2021-11-09T13:07:33-06:00*%
%TF.ProjectId,IFM Fourses Expander,49464d20-466f-4757-9273-657320457870,rev?*%
%TF.SameCoordinates,Original*%
%TF.FileFunction,Copper,L2,Bot*%
%TF.FilePolarity,Positive*%
%FSLAX46Y46*%
G04 Gerber Fmt 4.6, Leading zero omitted, Abs format (unit mm)*
G04 Created by KiCad (PCBNEW (5.1.7)-1) date 2021-11-09 13:07:33*
%MOMM*%
%LPD*%
G01*
G04 APERTURE LIST*
%TA.AperFunction,ComponentPad*%
%ADD10C,2.000000*%
%TD*%
%TA.AperFunction,ComponentPad*%
%ADD11C,2.130000*%
%TD*%
%TA.AperFunction,ComponentPad*%
%ADD12R,1.930000X1.830000*%
%TD*%
%TA.AperFunction,Conductor*%
%ADD13C,0.450000*%
%TD*%
G04 APERTURE END LIST*
%TO.P,R79,2*%
%TO.N,N/C*%
%TA.AperFunction,SMDPad,CuDef*%
G36*
G01*
X118299999Y-136330000D02*
X119200001Y-136330000D01*
G75*
G02*
X119450000Y-136579999I0J-249999D01*
G01*
X119450000Y-137230001D01*
G75*
G02*
X119200001Y-137480000I-249999J0D01*
G01*
X118299999Y-137480000D01*
G75*
G02*
X118050000Y-137230001I0J249999D01*
G01*
X118050000Y-136579999D01*
G75*
G02*
X118299999Y-136330000I249999J0D01*
G01*
G37*
%TD.AperFunction*%
%TO.P,R79,1*%
%TA.AperFunction,SMDPad,CuDef*%
G36*
G01*
X118299999Y-134280000D02*
X119200001Y-134280000D01*
G75*
G02*
X119450000Y-134529999I0J-249999D01*
G01*
X119450000Y-135180001D01*
G75*
G02*
X119200001Y-135430000I-249999J0D01*
G01*
X118299999Y-135430000D01*
G75*
G02*
X118050000Y-135180001I0J249999D01*
G01*
X118050000Y-134529999D01*
G75*
G02*
X118299999Y-134280000I249999J0D01*
G01*
G37*
%TD.AperFunction*%
%TD*%
%TO.P,R79,1*%
%TO.N,N/C*%
%TA.AperFunction,SMDPad,CuDef*%
G36*
G01*
X124309999Y-141860000D02*
X125210001Y-141860000D01*
G75*
G02*
X125460000Y-142109999I0J-249999D01*
G01*
X125460000Y-142760001D01*
G75*
G02*
X125210001Y-143010000I-249999J0D01*
G01*
X124309999Y-143010000D01*
G75*
G02*
X124060000Y-142760001I0J249999D01*
G01*
X124060000Y-142109999D01*
G75*
G02*
X124309999Y-141860000I249999J0D01*
G01*
G37*
%TD.AperFunction*%
%TO.P,R79,2*%
%TA.AperFunction,SMDPad,CuDef*%
G36*
G01*
X124309999Y-143910000D02*
X125210001Y-143910000D01*
G75*
G02*
X125460000Y-144159999I0J-249999D01*
G01*
X125460000Y-144810001D01*
G75*
G02*
X125210001Y-145060000I-249999J0D01*
G01*
X124309999Y-145060000D01*
G75*
G02*
X124060000Y-144810001I0J249999D01*
G01*
X124060000Y-144159999D01*
G75*
G02*
X124309999Y-143910000I249999J0D01*
G01*
G37*
%TD.AperFunction*%
%TD*%
%TO.P,R79,2*%
%TO.N,N/C*%
%TA.AperFunction,SMDPad,CuDef*%
G36*
G01*
X124309999Y-117990000D02*
X125210001Y-117990000D01*
G75*
G02*
X125460000Y-118239999I0J-249999D01*
G01*
X125460000Y-118890001D01*
G75*
G02*
X125210001Y-119140000I-249999J0D01*
G01*
X124309999Y-119140000D01*
G75*
G02*
X124060000Y-118890001I0J249999D01*
G01*
X124060000Y-118239999D01*
G75*
G02*
X124309999Y-117990000I249999J0D01*
G01*
G37*
%TD.AperFunction*%
%TO.P,R79,1*%
%TA.AperFunction,SMDPad,CuDef*%
G36*
G01*
X124309999Y-115940000D02*
X125210001Y-115940000D01*
G75*
G02*
X125460000Y-116189999I0J-249999D01*
G01*
X125460000Y-116840001D01*
G75*
G02*
X125210001Y-117090000I-249999J0D01*
G01*
X124309999Y-117090000D01*
G75*
G02*
X124060000Y-116840001I0J249999D01*
G01*
X124060000Y-116189999D01*
G75*
G02*
X124309999Y-115940000I249999J0D01*
G01*
G37*
%TD.AperFunction*%
%TD*%
%TO.P,R79,1*%
%TO.N,N/C*%
%TA.AperFunction,SMDPad,CuDef*%
G36*
G01*
X118299999Y-108360000D02*
X119200001Y-108360000D01*
G75*
G02*
X119450000Y-108609999I0J-249999D01*
G01*
X119450000Y-109260001D01*
G75*
G02*
X119200001Y-109510000I-249999J0D01*
G01*
X118299999Y-109510000D01*
G75*
G02*
X118050000Y-109260001I0J249999D01*
G01*
X118050000Y-108609999D01*
G75*
G02*
X118299999Y-108360000I249999J0D01*
G01*
G37*
%TD.AperFunction*%
%TO.P,R79,2*%
%TA.AperFunction,SMDPad,CuDef*%
G36*
G01*
X118299999Y-110410000D02*
X119200001Y-110410000D01*
G75*
G02*
X119450000Y-110659999I0J-249999D01*
G01*
X119450000Y-111310001D01*
G75*
G02*
X119200001Y-111560000I-249999J0D01*
G01*
X118299999Y-111560000D01*
G75*
G02*
X118050000Y-111310001I0J249999D01*
G01*
X118050000Y-110659999D01*
G75*
G02*
X118299999Y-110410000I249999J0D01*
G01*
G37*
%TD.AperFunction*%
%TD*%
%TO.P,R79,2*%
%TO.N,N/C*%
%TA.AperFunction,SMDPad,CuDef*%
G36*
G01*
X118299999Y-84490000D02*
X119200001Y-84490000D01*
G75*
G02*
X119450000Y-84739999I0J-249999D01*
G01*
X119450000Y-85390001D01*
G75*
G02*
X119200001Y-85640000I-249999J0D01*
G01*
X118299999Y-85640000D01*
G75*
G02*
X118050000Y-85390001I0J249999D01*
G01*
X118050000Y-84739999D01*
G75*
G02*
X118299999Y-84490000I249999J0D01*
G01*
G37*
%TD.AperFunction*%
%TO.P,R79,1*%
%TA.AperFunction,SMDPad,CuDef*%
G36*
G01*
X118299999Y-82440000D02*
X119200001Y-82440000D01*
G75*
G02*
X119450000Y-82689999I0J-249999D01*
G01*
X119450000Y-83340001D01*
G75*
G02*
X119200001Y-83590000I-249999J0D01*
G01*
X118299999Y-83590000D01*
G75*
G02*
X118050000Y-83340001I0J249999D01*
G01*
X118050000Y-82689999D01*
G75*
G02*
X118299999Y-82440000I249999J0D01*
G01*
G37*
%TD.AperFunction*%
%TD*%
%TO.P,R79,1*%
%TO.N,N/C*%
%TA.AperFunction,SMDPad,CuDef*%
G36*
G01*
X124309999Y-90020000D02*
X125210001Y-90020000D01*
G75*
G02*
X125460000Y-90269999I0J-249999D01*
G01*
X125460000Y-90920001D01*
G75*
G02*
X125210001Y-91170000I-249999J0D01*
G01*
X124309999Y-91170000D01*
G75*
G02*
X124060000Y-90920001I0J249999D01*
G01*
X124060000Y-90269999D01*
G75*
G02*
X124309999Y-90020000I249999J0D01*
G01*
G37*
%TD.AperFunction*%
%TO.P,R79,2*%
%TA.AperFunction,SMDPad,CuDef*%
G36*
G01*
X124309999Y-92070000D02*
X125210001Y-92070000D01*
G75*
G02*
X125460000Y-92319999I0J-249999D01*
G01*
X125460000Y-92970001D01*
G75*
G02*
X125210001Y-93220000I-249999J0D01*
G01*
X124309999Y-93220000D01*
G75*
G02*
X124060000Y-92970001I0J249999D01*
G01*
X124060000Y-92319999D01*
G75*
G02*
X124309999Y-92070000I249999J0D01*
G01*
G37*
%TD.AperFunction*%
%TD*%
%TO.P,R79,2*%
%TO.N,N/C*%
%TA.AperFunction,SMDPad,CuDef*%
G36*
G01*
X124309999Y-66150000D02*
X125210001Y-66150000D01*
G75*
G02*
X125460000Y-66399999I0J-249999D01*
G01*
X125460000Y-67050001D01*
G75*
G02*
X125210001Y-67300000I-249999J0D01*
G01*
X124309999Y-67300000D01*
G75*
G02*
X124060000Y-67050001I0J249999D01*
G01*
X124060000Y-66399999D01*
G75*
G02*
X124309999Y-66150000I249999J0D01*
G01*
G37*
%TD.AperFunction*%
%TO.P,R79,1*%
%TA.AperFunction,SMDPad,CuDef*%
G36*
G01*
X124309999Y-64100000D02*
X125210001Y-64100000D01*
G75*
G02*
X125460000Y-64349999I0J-249999D01*
G01*
X125460000Y-65000001D01*
G75*
G02*
X125210001Y-65250000I-249999J0D01*
G01*
X124309999Y-65250000D01*
G75*
G02*
X124060000Y-65000001I0J249999D01*
G01*
X124060000Y-64349999D01*
G75*
G02*
X124309999Y-64100000I249999J0D01*
G01*
G37*
%TD.AperFunction*%
%TD*%
%TO.P,R79,1*%
%TO.N,N/C*%
%TA.AperFunction,SMDPad,CuDef*%
G36*
G01*
X118299999Y-56520000D02*
X119200001Y-56520000D01*
G75*
G02*
X119450000Y-56769999I0J-249999D01*
G01*
X119450000Y-57420001D01*
G75*
G02*
X119200001Y-57670000I-249999J0D01*
G01*
X118299999Y-57670000D01*
G75*
G02*
X118050000Y-57420001I0J249999D01*
G01*
X118050000Y-56769999D01*
G75*
G02*
X118299999Y-56520000I249999J0D01*
G01*
G37*
%TD.AperFunction*%
%TO.P,R79,2*%
%TA.AperFunction,SMDPad,CuDef*%
G36*
G01*
X118299999Y-58570000D02*
X119200001Y-58570000D01*
G75*
G02*
X119450000Y-58819999I0J-249999D01*
G01*
X119450000Y-59470001D01*
G75*
G02*
X119200001Y-59720000I-249999J0D01*
G01*
X118299999Y-59720000D01*
G75*
G02*
X118050000Y-59470001I0J249999D01*
G01*
X118050000Y-58819999D01*
G75*
G02*
X118299999Y-58570000I249999J0D01*
G01*
G37*
%TD.AperFunction*%
%TD*%
D10*
%TO.P,REF\u002A\u002A,*%
%TO.N,*%
X124760000Y-61900000D03*
%TD*%
%TO.P,REF\u002A\u002A,*%
%TO.N,*%
X124760000Y-87820000D03*
%TD*%
%TO.P,REF\u002A\u002A,*%
%TO.N,*%
X118760000Y-61900000D03*
%TD*%
%TO.P,REF\u002A\u002A,*%
%TO.N,*%
X118760000Y-87820000D03*
%TD*%
%TO.P,REF\u002A\u002A,*%
%TO.N,*%
X121760000Y-154380000D03*
%TD*%
%TO.P,REF\u002A\u002A,*%
%TO.N,*%
X124760000Y-139660000D03*
%TD*%
%TO.P,REF\u002A\u002A,*%
%TO.N,*%
X118760000Y-139660000D03*
%TD*%
%TO.P,REF\u002A\u002A,*%
%TO.N,*%
X124760000Y-113740000D03*
%TD*%
%TO.P,REF\u002A\u002A,*%
%TO.N,*%
X118760000Y-113740000D03*
%TD*%
D11*
%TO.P,REF\u002A\u002A,TN*%
%TO.N,N/C*%
X121760000Y-84760000D03*
D12*
%TO.P,REF\u002A\u002A,S*%
X121760000Y-87860000D03*
D11*
%TO.P,REF\u002A\u002A,T*%
X121760000Y-76460000D03*
%TD*%
%TO.P,REF\u002A\u002A,TN*%
%TO.N,N/C*%
X121760000Y-136680000D03*
D12*
%TO.P,REF\u002A\u002A,S*%
X121760000Y-139780000D03*
D11*
%TO.P,REF\u002A\u002A,T*%
X121760000Y-128380000D03*
%TD*%
%TO.P,REF\u002A\u002A,T*%
%TO.N,N/C*%
X121760000Y-73300000D03*
D12*
%TO.P,REF\u002A\u002A,S*%
X121760000Y-61900000D03*
D11*
%TO.P,REF\u002A\u002A,TN*%
X121760000Y-65000000D03*
%TD*%
%TO.P,REF\u002A\u002A,T*%
%TO.N,N/C*%
X121760000Y-125220000D03*
D12*
%TO.P,REF\u002A\u002A,S*%
X121760000Y-113820000D03*
D11*
%TO.P,REF\u002A\u002A,TN*%
X121760000Y-116920000D03*
%TD*%
%TO.P,REF\u002A\u002A,TN*%
%TO.N,N/C*%
X121760000Y-58800000D03*
D12*
%TO.P,REF\u002A\u002A,S*%
X121760000Y-61900000D03*
D11*
%TO.P,REF\u002A\u002A,T*%
X121760000Y-50500000D03*
%TD*%
%TO.P,REF\u002A\u002A,T*%
%TO.N,N/C*%
X121760000Y-99260000D03*
D12*
%TO.P,REF\u002A\u002A,S*%
X121760000Y-87860000D03*
D11*
%TO.P,REF\u002A\u002A,TN*%
X121760000Y-90960000D03*
%TD*%
%TO.P,REF\u002A\u002A,TN*%
%TO.N,N/C*%
X121760000Y-110720000D03*
D12*
%TO.P,REF\u002A\u002A,S*%
X121760000Y-113820000D03*
D11*
%TO.P,REF\u002A\u002A,T*%
X121760000Y-102420000D03*
%TD*%
%TO.P,REF\u002A\u002A,TN*%
%TO.N,N/C*%
X121760000Y-142880000D03*
D12*
%TO.P,REF\u002A\u002A,S*%
X121760000Y-139780000D03*
D11*
%TO.P,REF\u002A\u002A,T*%
X121760000Y-151180000D03*
%TD*%
D13*
%TO.N,*%
X124760000Y-148180000D02*
X121760000Y-151180000D01*
X124760000Y-144485000D02*
X124760000Y-148180000D01*
X118760000Y-131380000D02*
X121760000Y-128380000D01*
X118750000Y-134855000D02*
X118760000Y-131380000D01*
X124760000Y-122220000D02*
X121760000Y-125220000D01*
X124760000Y-118565000D02*
X124760000Y-122220000D01*
X118760000Y-105420000D02*
X121760000Y-102420000D01*
X118750000Y-108935000D02*
X118760000Y-105420000D01*
X124760000Y-96260000D02*
X121760000Y-99260000D01*
X124760000Y-92645000D02*
X124760000Y-96260000D01*
X118760000Y-79460000D02*
X121760000Y-76460000D01*
X118750000Y-83015000D02*
X118760000Y-79460000D01*
X124760000Y-70300000D02*
X121760000Y-73300000D01*
X124760000Y-66725000D02*
X124760000Y-70300000D01*
X118760000Y-53500000D02*
X121760000Y-50500000D01*
X118750000Y-57095000D02*
X118760000Y-53500000D01*
X118750000Y-59145000D02*
X118760000Y-61900000D01*
X124760000Y-64675000D02*
X124760000Y-61900000D01*
X118750000Y-85065000D02*
X118750000Y-87810000D01*
X124760000Y-87820000D02*
X124760000Y-90595000D01*
X118750000Y-110985000D02*
X118750000Y-113730000D01*
X124760000Y-113740000D02*
X124760000Y-116515000D01*
X118750000Y-136905000D02*
X118750000Y-139650000D01*
X124760000Y-142435000D02*
X124760000Y-139660000D01*
%TD*%
M02*
