%TF.GenerationSoftware,KiCad,Pcbnew,(5.1.7)-1*%
%TF.CreationDate,2021-11-09T13:07:33-06:00*%
%TF.ProjectId,IFM Fourses Expander,49464d20-466f-4757-9273-657320457870,rev?*%
%TF.SameCoordinates,Original*%
%TF.FileFunction,Legend,Top*%
%TF.FilePolarity,Positive*%
%FSLAX46Y46*%
G04 Gerber Fmt 4.6, Leading zero omitted, Abs format (unit mm)*
G04 Created by KiCad (PCBNEW (5.1.7)-1) date 2021-11-09 13:07:33*
%MOMM*%
%LPD*%
G01*
G04 APERTURE LIST*
%ADD10C,0.010000*%
%ADD11C,0.120000*%
%ADD12C,0.150000*%
G04 APERTURE END LIST*
D10*
%TO.C,*%
G36*
X122942440Y-91606644D02*
G01*
X122996426Y-91618152D01*
X123029892Y-91634255D01*
X123052963Y-91657591D01*
X123064047Y-91673211D01*
X123086889Y-91720747D01*
X123096643Y-91784232D01*
X123094751Y-91877675D01*
X123090631Y-91931531D01*
X123079266Y-92162963D01*
X123089795Y-92351805D01*
X123123239Y-92502000D01*
X123180617Y-92617496D01*
X123262950Y-92702238D01*
X123295449Y-92723933D01*
X123339297Y-92748448D01*
X123384282Y-92767931D01*
X123438705Y-92784044D01*
X123510865Y-92798450D01*
X123609064Y-92812812D01*
X123741600Y-92828795D01*
X123912669Y-92847619D01*
X124086854Y-92866903D01*
X124216355Y-92882716D01*
X124307283Y-92896185D01*
X124365751Y-92908443D01*
X124397869Y-92920618D01*
X124409749Y-92933841D01*
X124410209Y-92939621D01*
X124410324Y-92971843D01*
X124411901Y-93050098D01*
X124414807Y-93169440D01*
X124418904Y-93324925D01*
X124424060Y-93511605D01*
X124430140Y-93724536D01*
X124437008Y-93958772D01*
X124444531Y-94209366D01*
X124446922Y-94287861D01*
X124454257Y-94541523D01*
X124460334Y-94779595D01*
X124465085Y-94997244D01*
X124468446Y-95189635D01*
X124470347Y-95351932D01*
X124470721Y-95479304D01*
X124469503Y-95566917D01*
X124466624Y-95609933D01*
X124465342Y-95613491D01*
X124434903Y-95618746D01*
X124360599Y-95625455D01*
X124249537Y-95633157D01*
X124108817Y-95641399D01*
X123945544Y-95649722D01*
X123801346Y-95656221D01*
X123626121Y-95663811D01*
X123468704Y-95670900D01*
X123335962Y-95677155D01*
X123234761Y-95682247D01*
X123171964Y-95685841D01*
X123153930Y-95687450D01*
X123153598Y-95712889D01*
X123155415Y-95782093D01*
X123159120Y-95887879D01*
X123164451Y-96023066D01*
X123171144Y-96180470D01*
X123175410Y-96276063D01*
X123182357Y-96444796D01*
X123187287Y-96597221D01*
X123190063Y-96725699D01*
X123190548Y-96822593D01*
X123188604Y-96880265D01*
X123186525Y-96892353D01*
X123153370Y-96908745D01*
X123072627Y-96924080D01*
X122947701Y-96938194D01*
X122781999Y-96950922D01*
X122578929Y-96962101D01*
X122341898Y-96971569D01*
X122074311Y-96979159D01*
X121779577Y-96984708D01*
X121461102Y-96988053D01*
X121175996Y-96989040D01*
X120998986Y-96989230D01*
X120831258Y-96989640D01*
X120682206Y-96990230D01*
X120561221Y-96990958D01*
X120477696Y-96991785D01*
X120455149Y-96992170D01*
X120323108Y-96995080D01*
X120319266Y-96871631D01*
X120318762Y-96807344D01*
X120319665Y-96702462D01*
X120321809Y-96567370D01*
X120325028Y-96412454D01*
X120329157Y-96248099D01*
X120329274Y-96243806D01*
X120333279Y-96046746D01*
X120333202Y-95897222D01*
X120329067Y-95796175D01*
X120320900Y-95744552D01*
X120315199Y-95737558D01*
X120282878Y-95736311D01*
X120206882Y-95733797D01*
X120094520Y-95730245D01*
X119953101Y-95725885D01*
X119789930Y-95720945D01*
X119662149Y-95717130D01*
X119489174Y-95711650D01*
X119333944Y-95706075D01*
X119203464Y-95700709D01*
X119104738Y-95695859D01*
X119044769Y-95691829D01*
X119029450Y-95689540D01*
X119027033Y-95662128D01*
X119024728Y-95589852D01*
X119022563Y-95478852D01*
X119020573Y-95335267D01*
X119018786Y-95165239D01*
X119017234Y-94974905D01*
X119015951Y-94770408D01*
X119014966Y-94557886D01*
X119014310Y-94343480D01*
X119014015Y-94133328D01*
X119014112Y-93933572D01*
X119014633Y-93750352D01*
X119015609Y-93589806D01*
X119016450Y-93514104D01*
X119284054Y-93537516D01*
X119276362Y-93662143D01*
X119274545Y-93723723D01*
X119273676Y-93826008D01*
X119273656Y-93961051D01*
X119274390Y-94120908D01*
X119275776Y-94297635D01*
X119277719Y-94483286D01*
X119280121Y-94669918D01*
X119282883Y-94849584D01*
X119285908Y-95014340D01*
X119289097Y-95156241D01*
X119292353Y-95267342D01*
X119295578Y-95339699D01*
X119297282Y-95359935D01*
X119304848Y-95418196D01*
X119914627Y-95471545D01*
X120105838Y-95488373D01*
X120252408Y-95501871D01*
X120360503Y-95513145D01*
X120436295Y-95523299D01*
X120485952Y-95533440D01*
X120515642Y-95544672D01*
X120531535Y-95558101D01*
X120539799Y-95574833D01*
X120542786Y-95584100D01*
X120550761Y-95630128D01*
X120560133Y-95716205D01*
X120569912Y-95831432D01*
X120579105Y-95964913D01*
X120582136Y-96016333D01*
X120593965Y-96209817D01*
X120606366Y-96359124D01*
X120621457Y-96471062D01*
X120641353Y-96552435D01*
X120668170Y-96610050D01*
X120704021Y-96650710D01*
X120751026Y-96681222D01*
X120795195Y-96701679D01*
X120855697Y-96717644D01*
X120956234Y-96730725D01*
X121098579Y-96740985D01*
X121284503Y-96748496D01*
X121515777Y-96753324D01*
X121794171Y-96755539D01*
X122121458Y-96755208D01*
X122177938Y-96754926D01*
X122366224Y-96753605D01*
X122537459Y-96751851D01*
X122685140Y-96749772D01*
X122802767Y-96747480D01*
X122883839Y-96745086D01*
X122921854Y-96742702D01*
X122923803Y-96742184D01*
X122927600Y-96715372D01*
X122932118Y-96644478D01*
X122937070Y-96536414D01*
X122942169Y-96398095D01*
X122947128Y-96236431D01*
X122950943Y-96088943D01*
X122955494Y-95913138D01*
X122960297Y-95754943D01*
X122965084Y-95621264D01*
X122969589Y-95519008D01*
X122973542Y-95455082D01*
X122976224Y-95436075D01*
X123003425Y-95434324D01*
X123074471Y-95433887D01*
X123182221Y-95434692D01*
X123319538Y-95436666D01*
X123479279Y-95439737D01*
X123594472Y-95442352D01*
X123765031Y-95446209D01*
X123917779Y-95449197D01*
X124045608Y-95451213D01*
X124141409Y-95452160D01*
X124198076Y-95451934D01*
X124210604Y-95451080D01*
X124213301Y-95424289D01*
X124214950Y-95353407D01*
X124215641Y-95245335D01*
X124215466Y-95106975D01*
X124214512Y-94945224D01*
X124212868Y-94766985D01*
X124210625Y-94579160D01*
X124207872Y-94388647D01*
X124204698Y-94202348D01*
X124201193Y-94027163D01*
X124197445Y-93869993D01*
X124193545Y-93737739D01*
X124189581Y-93637301D01*
X124186432Y-93584595D01*
X124173367Y-93467771D01*
X124154616Y-93357700D01*
X124133639Y-93273653D01*
X124127559Y-93256716D01*
X124101019Y-93199624D01*
X124068948Y-93155815D01*
X124024512Y-93123328D01*
X123960877Y-93100203D01*
X123871209Y-93084477D01*
X123748673Y-93074191D01*
X123586437Y-93067381D01*
X123455630Y-93063870D01*
X123300325Y-93059923D01*
X123158698Y-93055864D01*
X123040220Y-93052000D01*
X122954358Y-93048640D01*
X122911832Y-93046214D01*
X122844101Y-93039901D01*
X122873907Y-92600919D01*
X122885927Y-92395879D01*
X122887792Y-92235356D01*
X122874929Y-92113168D01*
X122842766Y-92023134D01*
X122786731Y-91959072D01*
X122702252Y-91914803D01*
X122584756Y-91884145D01*
X122429670Y-91860916D01*
X122316962Y-91848005D01*
X122214502Y-91839208D01*
X122080012Y-91831193D01*
X121920610Y-91824065D01*
X121743415Y-91817928D01*
X121555546Y-91812887D01*
X121364119Y-91809045D01*
X121176256Y-91806507D01*
X120999073Y-91805376D01*
X120839690Y-91805758D01*
X120705223Y-91807757D01*
X120602793Y-91811477D01*
X120539517Y-91817021D01*
X120522670Y-91821725D01*
X120517439Y-91851227D01*
X120514780Y-91923093D01*
X120514718Y-92028743D01*
X120517277Y-92159603D01*
X120521374Y-92280369D01*
X120526759Y-92433058D01*
X120530407Y-92574785D01*
X120532143Y-92694813D01*
X120531794Y-92782408D01*
X120530138Y-92819528D01*
X120502260Y-92936777D01*
X120440250Y-93024395D01*
X120339261Y-93086960D01*
X120204731Y-93126962D01*
X120159856Y-93132208D01*
X120074893Y-93138661D01*
X119960723Y-93145615D01*
X119828224Y-93152362D01*
X119780680Y-93154495D01*
X119616397Y-93162301D01*
X119494787Y-93174108D01*
X119408912Y-93196897D01*
X119351836Y-93237651D01*
X119316625Y-93303351D01*
X119296343Y-93400979D01*
X119284054Y-93537516D01*
X119016450Y-93514104D01*
X119017071Y-93458075D01*
X119017841Y-93412641D01*
X119021904Y-93269108D01*
X119027890Y-93143567D01*
X119035181Y-93044814D01*
X119043165Y-92981643D01*
X119049264Y-92962887D01*
X119090918Y-92949006D01*
X119177859Y-92935550D01*
X119304371Y-92922984D01*
X119464737Y-92911769D01*
X119653240Y-92902370D01*
X119864162Y-92895252D01*
X119892283Y-92894534D01*
X120299176Y-92884517D01*
X120294525Y-92780078D01*
X120292398Y-92718459D01*
X120289603Y-92617494D01*
X120286436Y-92488833D01*
X120283187Y-92344126D01*
X120281543Y-92265319D01*
X120278874Y-92109009D01*
X120278662Y-91994591D01*
X120281617Y-91912985D01*
X120288447Y-91855109D01*
X120299862Y-91811882D01*
X120316572Y-91774222D01*
X120320486Y-91766793D01*
X120352052Y-91719465D01*
X120394585Y-91679684D01*
X120452321Y-91646854D01*
X120529496Y-91620382D01*
X120630345Y-91599671D01*
X120759104Y-91584130D01*
X120920010Y-91573162D01*
X121117297Y-91566175D01*
X121355202Y-91562571D01*
X121637960Y-91561759D01*
X121778785Y-91562136D01*
X121977468Y-91563770D01*
X122176910Y-91566940D01*
X122365959Y-91571357D01*
X122533465Y-91576733D01*
X122668276Y-91582776D01*
X122732408Y-91586874D01*
X122857809Y-91597097D01*
X122942440Y-91606644D01*
G37*
X122942440Y-91606644D02*
X122996426Y-91618152D01*
X123029892Y-91634255D01*
X123052963Y-91657591D01*
X123064047Y-91673211D01*
X123086889Y-91720747D01*
X123096643Y-91784232D01*
X123094751Y-91877675D01*
X123090631Y-91931531D01*
X123079266Y-92162963D01*
X123089795Y-92351805D01*
X123123239Y-92502000D01*
X123180617Y-92617496D01*
X123262950Y-92702238D01*
X123295449Y-92723933D01*
X123339297Y-92748448D01*
X123384282Y-92767931D01*
X123438705Y-92784044D01*
X123510865Y-92798450D01*
X123609064Y-92812812D01*
X123741600Y-92828795D01*
X123912669Y-92847619D01*
X124086854Y-92866903D01*
X124216355Y-92882716D01*
X124307283Y-92896185D01*
X124365751Y-92908443D01*
X124397869Y-92920618D01*
X124409749Y-92933841D01*
X124410209Y-92939621D01*
X124410324Y-92971843D01*
X124411901Y-93050098D01*
X124414807Y-93169440D01*
X124418904Y-93324925D01*
X124424060Y-93511605D01*
X124430140Y-93724536D01*
X124437008Y-93958772D01*
X124444531Y-94209366D01*
X124446922Y-94287861D01*
X124454257Y-94541523D01*
X124460334Y-94779595D01*
X124465085Y-94997244D01*
X124468446Y-95189635D01*
X124470347Y-95351932D01*
X124470721Y-95479304D01*
X124469503Y-95566917D01*
X124466624Y-95609933D01*
X124465342Y-95613491D01*
X124434903Y-95618746D01*
X124360599Y-95625455D01*
X124249537Y-95633157D01*
X124108817Y-95641399D01*
X123945544Y-95649722D01*
X123801346Y-95656221D01*
X123626121Y-95663811D01*
X123468704Y-95670900D01*
X123335962Y-95677155D01*
X123234761Y-95682247D01*
X123171964Y-95685841D01*
X123153930Y-95687450D01*
X123153598Y-95712889D01*
X123155415Y-95782093D01*
X123159120Y-95887879D01*
X123164451Y-96023066D01*
X123171144Y-96180470D01*
X123175410Y-96276063D01*
X123182357Y-96444796D01*
X123187287Y-96597221D01*
X123190063Y-96725699D01*
X123190548Y-96822593D01*
X123188604Y-96880265D01*
X123186525Y-96892353D01*
X123153370Y-96908745D01*
X123072627Y-96924080D01*
X122947701Y-96938194D01*
X122781999Y-96950922D01*
X122578929Y-96962101D01*
X122341898Y-96971569D01*
X122074311Y-96979159D01*
X121779577Y-96984708D01*
X121461102Y-96988053D01*
X121175996Y-96989040D01*
X120998986Y-96989230D01*
X120831258Y-96989640D01*
X120682206Y-96990230D01*
X120561221Y-96990958D01*
X120477696Y-96991785D01*
X120455149Y-96992170D01*
X120323108Y-96995080D01*
X120319266Y-96871631D01*
X120318762Y-96807344D01*
X120319665Y-96702462D01*
X120321809Y-96567370D01*
X120325028Y-96412454D01*
X120329157Y-96248099D01*
X120329274Y-96243806D01*
X120333279Y-96046746D01*
X120333202Y-95897222D01*
X120329067Y-95796175D01*
X120320900Y-95744552D01*
X120315199Y-95737558D01*
X120282878Y-95736311D01*
X120206882Y-95733797D01*
X120094520Y-95730245D01*
X119953101Y-95725885D01*
X119789930Y-95720945D01*
X119662149Y-95717130D01*
X119489174Y-95711650D01*
X119333944Y-95706075D01*
X119203464Y-95700709D01*
X119104738Y-95695859D01*
X119044769Y-95691829D01*
X119029450Y-95689540D01*
X119027033Y-95662128D01*
X119024728Y-95589852D01*
X119022563Y-95478852D01*
X119020573Y-95335267D01*
X119018786Y-95165239D01*
X119017234Y-94974905D01*
X119015951Y-94770408D01*
X119014966Y-94557886D01*
X119014310Y-94343480D01*
X119014015Y-94133328D01*
X119014112Y-93933572D01*
X119014633Y-93750352D01*
X119015609Y-93589806D01*
X119016450Y-93514104D01*
X119284054Y-93537516D01*
X119276362Y-93662143D01*
X119274545Y-93723723D01*
X119273676Y-93826008D01*
X119273656Y-93961051D01*
X119274390Y-94120908D01*
X119275776Y-94297635D01*
X119277719Y-94483286D01*
X119280121Y-94669918D01*
X119282883Y-94849584D01*
X119285908Y-95014340D01*
X119289097Y-95156241D01*
X119292353Y-95267342D01*
X119295578Y-95339699D01*
X119297282Y-95359935D01*
X119304848Y-95418196D01*
X119914627Y-95471545D01*
X120105838Y-95488373D01*
X120252408Y-95501871D01*
X120360503Y-95513145D01*
X120436295Y-95523299D01*
X120485952Y-95533440D01*
X120515642Y-95544672D01*
X120531535Y-95558101D01*
X120539799Y-95574833D01*
X120542786Y-95584100D01*
X120550761Y-95630128D01*
X120560133Y-95716205D01*
X120569912Y-95831432D01*
X120579105Y-95964913D01*
X120582136Y-96016333D01*
X120593965Y-96209817D01*
X120606366Y-96359124D01*
X120621457Y-96471062D01*
X120641353Y-96552435D01*
X120668170Y-96610050D01*
X120704021Y-96650710D01*
X120751026Y-96681222D01*
X120795195Y-96701679D01*
X120855697Y-96717644D01*
X120956234Y-96730725D01*
X121098579Y-96740985D01*
X121284503Y-96748496D01*
X121515777Y-96753324D01*
X121794171Y-96755539D01*
X122121458Y-96755208D01*
X122177938Y-96754926D01*
X122366224Y-96753605D01*
X122537459Y-96751851D01*
X122685140Y-96749772D01*
X122802767Y-96747480D01*
X122883839Y-96745086D01*
X122921854Y-96742702D01*
X122923803Y-96742184D01*
X122927600Y-96715372D01*
X122932118Y-96644478D01*
X122937070Y-96536414D01*
X122942169Y-96398095D01*
X122947128Y-96236431D01*
X122950943Y-96088943D01*
X122955494Y-95913138D01*
X122960297Y-95754943D01*
X122965084Y-95621264D01*
X122969589Y-95519008D01*
X122973542Y-95455082D01*
X122976224Y-95436075D01*
X123003425Y-95434324D01*
X123074471Y-95433887D01*
X123182221Y-95434692D01*
X123319538Y-95436666D01*
X123479279Y-95439737D01*
X123594472Y-95442352D01*
X123765031Y-95446209D01*
X123917779Y-95449197D01*
X124045608Y-95451213D01*
X124141409Y-95452160D01*
X124198076Y-95451934D01*
X124210604Y-95451080D01*
X124213301Y-95424289D01*
X124214950Y-95353407D01*
X124215641Y-95245335D01*
X124215466Y-95106975D01*
X124214512Y-94945224D01*
X124212868Y-94766985D01*
X124210625Y-94579160D01*
X124207872Y-94388647D01*
X124204698Y-94202348D01*
X124201193Y-94027163D01*
X124197445Y-93869993D01*
X124193545Y-93737739D01*
X124189581Y-93637301D01*
X124186432Y-93584595D01*
X124173367Y-93467771D01*
X124154616Y-93357700D01*
X124133639Y-93273653D01*
X124127559Y-93256716D01*
X124101019Y-93199624D01*
X124068948Y-93155815D01*
X124024512Y-93123328D01*
X123960877Y-93100203D01*
X123871209Y-93084477D01*
X123748673Y-93074191D01*
X123586437Y-93067381D01*
X123455630Y-93063870D01*
X123300325Y-93059923D01*
X123158698Y-93055864D01*
X123040220Y-93052000D01*
X122954358Y-93048640D01*
X122911832Y-93046214D01*
X122844101Y-93039901D01*
X122873907Y-92600919D01*
X122885927Y-92395879D01*
X122887792Y-92235356D01*
X122874929Y-92113168D01*
X122842766Y-92023134D01*
X122786731Y-91959072D01*
X122702252Y-91914803D01*
X122584756Y-91884145D01*
X122429670Y-91860916D01*
X122316962Y-91848005D01*
X122214502Y-91839208D01*
X122080012Y-91831193D01*
X121920610Y-91824065D01*
X121743415Y-91817928D01*
X121555546Y-91812887D01*
X121364119Y-91809045D01*
X121176256Y-91806507D01*
X120999073Y-91805376D01*
X120839690Y-91805758D01*
X120705223Y-91807757D01*
X120602793Y-91811477D01*
X120539517Y-91817021D01*
X120522670Y-91821725D01*
X120517439Y-91851227D01*
X120514780Y-91923093D01*
X120514718Y-92028743D01*
X120517277Y-92159603D01*
X120521374Y-92280369D01*
X120526759Y-92433058D01*
X120530407Y-92574785D01*
X120532143Y-92694813D01*
X120531794Y-92782408D01*
X120530138Y-92819528D01*
X120502260Y-92936777D01*
X120440250Y-93024395D01*
X120339261Y-93086960D01*
X120204731Y-93126962D01*
X120159856Y-93132208D01*
X120074893Y-93138661D01*
X119960723Y-93145615D01*
X119828224Y-93152362D01*
X119780680Y-93154495D01*
X119616397Y-93162301D01*
X119494787Y-93174108D01*
X119408912Y-93196897D01*
X119351836Y-93237651D01*
X119316625Y-93303351D01*
X119296343Y-93400979D01*
X119284054Y-93537516D01*
X119016450Y-93514104D01*
X119017071Y-93458075D01*
X119017841Y-93412641D01*
X119021904Y-93269108D01*
X119027890Y-93143567D01*
X119035181Y-93044814D01*
X119043165Y-92981643D01*
X119049264Y-92962887D01*
X119090918Y-92949006D01*
X119177859Y-92935550D01*
X119304371Y-92922984D01*
X119464737Y-92911769D01*
X119653240Y-92902370D01*
X119864162Y-92895252D01*
X119892283Y-92894534D01*
X120299176Y-92884517D01*
X120294525Y-92780078D01*
X120292398Y-92718459D01*
X120289603Y-92617494D01*
X120286436Y-92488833D01*
X120283187Y-92344126D01*
X120281543Y-92265319D01*
X120278874Y-92109009D01*
X120278662Y-91994591D01*
X120281617Y-91912985D01*
X120288447Y-91855109D01*
X120299862Y-91811882D01*
X120316572Y-91774222D01*
X120320486Y-91766793D01*
X120352052Y-91719465D01*
X120394585Y-91679684D01*
X120452321Y-91646854D01*
X120529496Y-91620382D01*
X120630345Y-91599671D01*
X120759104Y-91584130D01*
X120920010Y-91573162D01*
X121117297Y-91566175D01*
X121355202Y-91562571D01*
X121637960Y-91561759D01*
X121778785Y-91562136D01*
X121977468Y-91563770D01*
X122176910Y-91566940D01*
X122365959Y-91571357D01*
X122533465Y-91576733D01*
X122668276Y-91582776D01*
X122732408Y-91586874D01*
X122857809Y-91597097D01*
X122942440Y-91606644D01*
G36*
X120863421Y-104494094D02*
G01*
X120932720Y-104496168D01*
X120937558Y-104497614D01*
X121015915Y-104539280D01*
X121117862Y-104621155D01*
X121240089Y-104740114D01*
X121379284Y-104893033D01*
X121469749Y-105000002D01*
X121684424Y-105260120D01*
X121731051Y-105206430D01*
X121804779Y-105126795D01*
X121905876Y-105024689D01*
X122023044Y-104910902D01*
X122144987Y-104796225D01*
X122260410Y-104691446D01*
X122358014Y-104607360D01*
X122359529Y-104606110D01*
X122475517Y-104515822D01*
X122562370Y-104461417D01*
X122624919Y-104440732D01*
X122668000Y-104451604D01*
X122679689Y-104462845D01*
X122698753Y-104512302D01*
X122715335Y-104609429D01*
X122729178Y-104750940D01*
X122740023Y-104933545D01*
X122747610Y-105153962D01*
X122751358Y-105373753D01*
X122755662Y-105633221D01*
X122762789Y-105842063D01*
X122772761Y-106000579D01*
X122785600Y-106109070D01*
X122801328Y-106167836D01*
X122809827Y-106178424D01*
X122842190Y-106182528D01*
X122915396Y-106185021D01*
X123019304Y-106185746D01*
X123143774Y-106184550D01*
X123173113Y-106184008D01*
X123416889Y-106181148D01*
X123649025Y-106182293D01*
X123864302Y-106187122D01*
X124057503Y-106195318D01*
X124223409Y-106206560D01*
X124356801Y-106220529D01*
X124452465Y-106236907D01*
X124505180Y-106255372D01*
X124513949Y-106266082D01*
X124500657Y-106314660D01*
X124454121Y-106395750D01*
X124377116Y-106505747D01*
X124272413Y-106641051D01*
X124142785Y-106798055D01*
X123991005Y-106973157D01*
X123845389Y-107134907D01*
X123760617Y-107227571D01*
X123863465Y-107328448D01*
X124079700Y-107544028D01*
X124258459Y-107729767D01*
X124399393Y-107885246D01*
X124502152Y-108010047D01*
X124566387Y-108103749D01*
X124591748Y-108165935D01*
X124584035Y-108192529D01*
X124543132Y-108208474D01*
X124459725Y-108223109D01*
X124332200Y-108236564D01*
X124158941Y-108248975D01*
X123938333Y-108260471D01*
X123668760Y-108271186D01*
X123590469Y-108273860D01*
X123413274Y-108280403D01*
X123248122Y-108287754D01*
X123103495Y-108295437D01*
X122987879Y-108302975D01*
X122909755Y-108309893D01*
X122884676Y-108313492D01*
X122790048Y-108332863D01*
X122785417Y-108468879D01*
X122784342Y-108535908D01*
X122784035Y-108643803D01*
X122784461Y-108782432D01*
X122785584Y-108941665D01*
X122787370Y-109111369D01*
X122787787Y-109144446D01*
X122790084Y-109403647D01*
X122789528Y-109614527D01*
X122786013Y-109779695D01*
X122779430Y-109901761D01*
X122769672Y-109983331D01*
X122756631Y-110027017D01*
X122751138Y-110033951D01*
X122714050Y-110038008D01*
X122656170Y-110021772D01*
X122654851Y-110021213D01*
X122576857Y-109976429D01*
X122465413Y-109894721D01*
X122321447Y-109776838D01*
X122145890Y-109623531D01*
X122013967Y-109504041D01*
X121918882Y-109417603D01*
X121837651Y-109345110D01*
X121777393Y-109292810D01*
X121745219Y-109266949D01*
X121742045Y-109265278D01*
X121720841Y-109282379D01*
X121671190Y-109329078D01*
X121600259Y-109398460D01*
X121515217Y-109483611D01*
X121505548Y-109493401D01*
X121389670Y-109607431D01*
X121268033Y-109721205D01*
X121147436Y-109828964D01*
X121034676Y-109924951D01*
X120936551Y-110003407D01*
X120859859Y-110058574D01*
X120811397Y-110084693D01*
X120806127Y-110085875D01*
X120783630Y-110075575D01*
X120764834Y-110036619D01*
X120749546Y-109966135D01*
X120737577Y-109861254D01*
X120728733Y-109719109D01*
X120722825Y-109536830D01*
X120719661Y-109311546D01*
X120719047Y-109040392D01*
X120720199Y-108797875D01*
X120723630Y-108313952D01*
X120164193Y-108297769D01*
X119870118Y-108288219D01*
X119623833Y-108277402D01*
X119422122Y-108264370D01*
X119261770Y-108248183D01*
X119139564Y-108227896D01*
X119129939Y-108225102D01*
X119405034Y-107998331D01*
X119428473Y-108005436D01*
X119496735Y-108013133D01*
X119603648Y-108021051D01*
X119743037Y-108028816D01*
X119908733Y-108036056D01*
X120094562Y-108042398D01*
X120170205Y-108044522D01*
X120363357Y-108049916D01*
X120539852Y-108055398D01*
X120693292Y-108060727D01*
X120817278Y-108065660D01*
X120905413Y-108069954D01*
X120951300Y-108073367D01*
X120956274Y-108074349D01*
X120959905Y-108101221D01*
X120962221Y-108172898D01*
X120963222Y-108283201D01*
X120962908Y-108425947D01*
X120961277Y-108594956D01*
X120958331Y-108784045D01*
X120956327Y-108885982D01*
X120952533Y-109082441D01*
X120949722Y-109261537D01*
X120947937Y-109417175D01*
X120947224Y-109543258D01*
X120947626Y-109633690D01*
X120949189Y-109682377D01*
X120950465Y-109689172D01*
X120971382Y-109672647D01*
X121022906Y-109626055D01*
X121099113Y-109554926D01*
X121194080Y-109464787D01*
X121300562Y-109362444D01*
X121412779Y-109254403D01*
X121516333Y-109155504D01*
X121604071Y-109072519D01*
X121668839Y-109012216D01*
X121701600Y-108982916D01*
X121763541Y-108931177D01*
X121901986Y-109073186D01*
X122079354Y-109250868D01*
X122225667Y-109388185D01*
X122340984Y-109485186D01*
X122425368Y-109541920D01*
X122478877Y-109558436D01*
X122492271Y-109553299D01*
X122505783Y-109519825D01*
X122519233Y-109449881D01*
X122529914Y-109357934D01*
X122530725Y-109348089D01*
X122536149Y-109252881D01*
X122540689Y-109122305D01*
X122543933Y-108971997D01*
X122545474Y-108817592D01*
X122545545Y-108782289D01*
X122548434Y-108554065D01*
X122557175Y-108373747D01*
X122572103Y-108238539D01*
X122593549Y-108145642D01*
X122621845Y-108092261D01*
X122628229Y-108086184D01*
X122650129Y-108070326D01*
X122677263Y-108057419D01*
X122715716Y-108046768D01*
X122771574Y-108037674D01*
X122850922Y-108029439D01*
X122959846Y-108021365D01*
X123104429Y-108012754D01*
X123290759Y-108002909D01*
X123404512Y-107997153D01*
X123575626Y-107988275D01*
X123729055Y-107979766D01*
X123857700Y-107972067D01*
X123954460Y-107965614D01*
X124012237Y-107960848D01*
X124025648Y-107958783D01*
X124013057Y-107937762D01*
X123972538Y-107883564D01*
X123908808Y-107802198D01*
X123826588Y-107699672D01*
X123730597Y-107581993D01*
X123710816Y-107557960D01*
X123386707Y-107164784D01*
X123804470Y-106811500D01*
X124222233Y-106458216D01*
X123392938Y-106434498D01*
X123140105Y-106426396D01*
X122935791Y-106417861D01*
X122777509Y-106408707D01*
X122662772Y-106398747D01*
X122589097Y-106387794D01*
X122553995Y-106375663D01*
X122550396Y-106371206D01*
X122538600Y-106309899D01*
X122528511Y-106207886D01*
X122520384Y-106075445D01*
X122514480Y-105922856D01*
X122511058Y-105760396D01*
X122510378Y-105598343D01*
X122512695Y-105446975D01*
X122518272Y-105316570D01*
X122522450Y-105261477D01*
X122535173Y-105115357D01*
X122539716Y-105009810D01*
X122531613Y-104943663D01*
X122506402Y-104915742D01*
X122459618Y-104924877D01*
X122386796Y-104969894D01*
X122283471Y-105049618D01*
X122145646Y-105162494D01*
X122014610Y-105269702D01*
X121915297Y-105347466D01*
X121840460Y-105399248D01*
X121782851Y-105428511D01*
X121735224Y-105438717D01*
X121690333Y-105433328D01*
X121640931Y-105415806D01*
X121627394Y-105410093D01*
X121585010Y-105384444D01*
X121511765Y-105332330D01*
X121415957Y-105259968D01*
X121305883Y-105173573D01*
X121231038Y-105113180D01*
X121122531Y-105026229D01*
X121029052Y-104954311D01*
X120957023Y-104902125D01*
X120912869Y-104874370D01*
X120901909Y-104872470D01*
X120902799Y-104906177D01*
X120905837Y-104981386D01*
X120910610Y-105088658D01*
X120916703Y-105218553D01*
X120920486Y-105296619D01*
X120931594Y-105567062D01*
X120936850Y-105802870D01*
X120936282Y-106000356D01*
X120929924Y-106155832D01*
X120917806Y-106265611D01*
X120912173Y-106292701D01*
X120893586Y-106355614D01*
X120867853Y-106387649D01*
X120816826Y-106406747D01*
X120789830Y-106413645D01*
X120689624Y-106431096D01*
X120542875Y-106445643D01*
X120353973Y-106457049D01*
X120127307Y-106465077D01*
X119867267Y-106469489D01*
X119741925Y-106470229D01*
X119597811Y-106471088D01*
X119473146Y-106472715D01*
X119376135Y-106474933D01*
X119314983Y-106477562D01*
X119297327Y-106479972D01*
X119314259Y-106499723D01*
X119362012Y-106549970D01*
X119435249Y-106625238D01*
X119528631Y-106720052D01*
X119636822Y-106828937D01*
X119666097Y-106858255D01*
X119777295Y-106970895D01*
X119874722Y-107072255D01*
X119953049Y-107156571D01*
X120006949Y-107218074D01*
X120031092Y-107251000D01*
X120031862Y-107254036D01*
X120014366Y-107280549D01*
X119968094Y-107338333D01*
X119898532Y-107420869D01*
X119811165Y-107521644D01*
X119718525Y-107626263D01*
X119619491Y-107738162D01*
X119533136Y-107837882D01*
X119464948Y-107918908D01*
X119420415Y-107974729D01*
X119405034Y-107998331D01*
X119129939Y-108225102D01*
X119052289Y-108202567D01*
X118996731Y-108171250D01*
X118969676Y-108133004D01*
X118967908Y-108086883D01*
X118988214Y-108031946D01*
X119027378Y-107967248D01*
X119029171Y-107964619D01*
X119075534Y-107905591D01*
X119149986Y-107820796D01*
X119243798Y-107719760D01*
X119348240Y-107612009D01*
X119397033Y-107563223D01*
X119495023Y-107465552D01*
X119578909Y-107380545D01*
X119642526Y-107314562D01*
X119679707Y-107273964D01*
X119686780Y-107264325D01*
X119670578Y-107242107D01*
X119625075Y-107189923D01*
X119556374Y-107114524D01*
X119470576Y-107022661D01*
X119424549Y-106974110D01*
X119271879Y-106808656D01*
X119144889Y-106660359D01*
X119045877Y-106532472D01*
X118977141Y-106428244D01*
X118940982Y-106350924D01*
X118939697Y-106303763D01*
X118945451Y-106296768D01*
X118988708Y-106280987D01*
X119079687Y-106265979D01*
X119219118Y-106251675D01*
X119407734Y-106238008D01*
X119646264Y-106224907D01*
X119781059Y-106218698D01*
X119945207Y-106211015D01*
X120099030Y-106202865D01*
X120232554Y-106194850D01*
X120335800Y-106187572D01*
X120398794Y-106181633D01*
X120401578Y-106181264D01*
X120496958Y-106158595D01*
X120582481Y-106121874D01*
X120643419Y-106078681D01*
X120664247Y-106046103D01*
X120666666Y-106009780D01*
X120668026Y-105932966D01*
X120668254Y-105826169D01*
X120667274Y-105699891D01*
X120666894Y-105670913D01*
X120666550Y-105364318D01*
X120675085Y-105106461D01*
X120692854Y-104895796D01*
X120720215Y-104730775D01*
X120757525Y-104609850D01*
X120805141Y-104531472D01*
X120863421Y-104494094D01*
G37*
X120863421Y-104494094D02*
X120932720Y-104496168D01*
X120937558Y-104497614D01*
X121015915Y-104539280D01*
X121117862Y-104621155D01*
X121240089Y-104740114D01*
X121379284Y-104893033D01*
X121469749Y-105000002D01*
X121684424Y-105260120D01*
X121731051Y-105206430D01*
X121804779Y-105126795D01*
X121905876Y-105024689D01*
X122023044Y-104910902D01*
X122144987Y-104796225D01*
X122260410Y-104691446D01*
X122358014Y-104607360D01*
X122359529Y-104606110D01*
X122475517Y-104515822D01*
X122562370Y-104461417D01*
X122624919Y-104440732D01*
X122668000Y-104451604D01*
X122679689Y-104462845D01*
X122698753Y-104512302D01*
X122715335Y-104609429D01*
X122729178Y-104750940D01*
X122740023Y-104933545D01*
X122747610Y-105153962D01*
X122751358Y-105373753D01*
X122755662Y-105633221D01*
X122762789Y-105842063D01*
X122772761Y-106000579D01*
X122785600Y-106109070D01*
X122801328Y-106167836D01*
X122809827Y-106178424D01*
X122842190Y-106182528D01*
X122915396Y-106185021D01*
X123019304Y-106185746D01*
X123143774Y-106184550D01*
X123173113Y-106184008D01*
X123416889Y-106181148D01*
X123649025Y-106182293D01*
X123864302Y-106187122D01*
X124057503Y-106195318D01*
X124223409Y-106206560D01*
X124356801Y-106220529D01*
X124452465Y-106236907D01*
X124505180Y-106255372D01*
X124513949Y-106266082D01*
X124500657Y-106314660D01*
X124454121Y-106395750D01*
X124377116Y-106505747D01*
X124272413Y-106641051D01*
X124142785Y-106798055D01*
X123991005Y-106973157D01*
X123845389Y-107134907D01*
X123760617Y-107227571D01*
X123863465Y-107328448D01*
X124079700Y-107544028D01*
X124258459Y-107729767D01*
X124399393Y-107885246D01*
X124502152Y-108010047D01*
X124566387Y-108103749D01*
X124591748Y-108165935D01*
X124584035Y-108192529D01*
X124543132Y-108208474D01*
X124459725Y-108223109D01*
X124332200Y-108236564D01*
X124158941Y-108248975D01*
X123938333Y-108260471D01*
X123668760Y-108271186D01*
X123590469Y-108273860D01*
X123413274Y-108280403D01*
X123248122Y-108287754D01*
X123103495Y-108295437D01*
X122987879Y-108302975D01*
X122909755Y-108309893D01*
X122884676Y-108313492D01*
X122790048Y-108332863D01*
X122785417Y-108468879D01*
X122784342Y-108535908D01*
X122784035Y-108643803D01*
X122784461Y-108782432D01*
X122785584Y-108941665D01*
X122787370Y-109111369D01*
X122787787Y-109144446D01*
X122790084Y-109403647D01*
X122789528Y-109614527D01*
X122786013Y-109779695D01*
X122779430Y-109901761D01*
X122769672Y-109983331D01*
X122756631Y-110027017D01*
X122751138Y-110033951D01*
X122714050Y-110038008D01*
X122656170Y-110021772D01*
X122654851Y-110021213D01*
X122576857Y-109976429D01*
X122465413Y-109894721D01*
X122321447Y-109776838D01*
X122145890Y-109623531D01*
X122013967Y-109504041D01*
X121918882Y-109417603D01*
X121837651Y-109345110D01*
X121777393Y-109292810D01*
X121745219Y-109266949D01*
X121742045Y-109265278D01*
X121720841Y-109282379D01*
X121671190Y-109329078D01*
X121600259Y-109398460D01*
X121515217Y-109483611D01*
X121505548Y-109493401D01*
X121389670Y-109607431D01*
X121268033Y-109721205D01*
X121147436Y-109828964D01*
X121034676Y-109924951D01*
X120936551Y-110003407D01*
X120859859Y-110058574D01*
X120811397Y-110084693D01*
X120806127Y-110085875D01*
X120783630Y-110075575D01*
X120764834Y-110036619D01*
X120749546Y-109966135D01*
X120737577Y-109861254D01*
X120728733Y-109719109D01*
X120722825Y-109536830D01*
X120719661Y-109311546D01*
X120719047Y-109040392D01*
X120720199Y-108797875D01*
X120723630Y-108313952D01*
X120164193Y-108297769D01*
X119870118Y-108288219D01*
X119623833Y-108277402D01*
X119422122Y-108264370D01*
X119261770Y-108248183D01*
X119139564Y-108227896D01*
X119129939Y-108225102D01*
X119405034Y-107998331D01*
X119428473Y-108005436D01*
X119496735Y-108013133D01*
X119603648Y-108021051D01*
X119743037Y-108028816D01*
X119908733Y-108036056D01*
X120094562Y-108042398D01*
X120170205Y-108044522D01*
X120363357Y-108049916D01*
X120539852Y-108055398D01*
X120693292Y-108060727D01*
X120817278Y-108065660D01*
X120905413Y-108069954D01*
X120951300Y-108073367D01*
X120956274Y-108074349D01*
X120959905Y-108101221D01*
X120962221Y-108172898D01*
X120963222Y-108283201D01*
X120962908Y-108425947D01*
X120961277Y-108594956D01*
X120958331Y-108784045D01*
X120956327Y-108885982D01*
X120952533Y-109082441D01*
X120949722Y-109261537D01*
X120947937Y-109417175D01*
X120947224Y-109543258D01*
X120947626Y-109633690D01*
X120949189Y-109682377D01*
X120950465Y-109689172D01*
X120971382Y-109672647D01*
X121022906Y-109626055D01*
X121099113Y-109554926D01*
X121194080Y-109464787D01*
X121300562Y-109362444D01*
X121412779Y-109254403D01*
X121516333Y-109155504D01*
X121604071Y-109072519D01*
X121668839Y-109012216D01*
X121701600Y-108982916D01*
X121763541Y-108931177D01*
X121901986Y-109073186D01*
X122079354Y-109250868D01*
X122225667Y-109388185D01*
X122340984Y-109485186D01*
X122425368Y-109541920D01*
X122478877Y-109558436D01*
X122492271Y-109553299D01*
X122505783Y-109519825D01*
X122519233Y-109449881D01*
X122529914Y-109357934D01*
X122530725Y-109348089D01*
X122536149Y-109252881D01*
X122540689Y-109122305D01*
X122543933Y-108971997D01*
X122545474Y-108817592D01*
X122545545Y-108782289D01*
X122548434Y-108554065D01*
X122557175Y-108373747D01*
X122572103Y-108238539D01*
X122593549Y-108145642D01*
X122621845Y-108092261D01*
X122628229Y-108086184D01*
X122650129Y-108070326D01*
X122677263Y-108057419D01*
X122715716Y-108046768D01*
X122771574Y-108037674D01*
X122850922Y-108029439D01*
X122959846Y-108021365D01*
X123104429Y-108012754D01*
X123290759Y-108002909D01*
X123404512Y-107997153D01*
X123575626Y-107988275D01*
X123729055Y-107979766D01*
X123857700Y-107972067D01*
X123954460Y-107965614D01*
X124012237Y-107960848D01*
X124025648Y-107958783D01*
X124013057Y-107937762D01*
X123972538Y-107883564D01*
X123908808Y-107802198D01*
X123826588Y-107699672D01*
X123730597Y-107581993D01*
X123710816Y-107557960D01*
X123386707Y-107164784D01*
X123804470Y-106811500D01*
X124222233Y-106458216D01*
X123392938Y-106434498D01*
X123140105Y-106426396D01*
X122935791Y-106417861D01*
X122777509Y-106408707D01*
X122662772Y-106398747D01*
X122589097Y-106387794D01*
X122553995Y-106375663D01*
X122550396Y-106371206D01*
X122538600Y-106309899D01*
X122528511Y-106207886D01*
X122520384Y-106075445D01*
X122514480Y-105922856D01*
X122511058Y-105760396D01*
X122510378Y-105598343D01*
X122512695Y-105446975D01*
X122518272Y-105316570D01*
X122522450Y-105261477D01*
X122535173Y-105115357D01*
X122539716Y-105009810D01*
X122531613Y-104943663D01*
X122506402Y-104915742D01*
X122459618Y-104924877D01*
X122386796Y-104969894D01*
X122283471Y-105049618D01*
X122145646Y-105162494D01*
X122014610Y-105269702D01*
X121915297Y-105347466D01*
X121840460Y-105399248D01*
X121782851Y-105428511D01*
X121735224Y-105438717D01*
X121690333Y-105433328D01*
X121640931Y-105415806D01*
X121627394Y-105410093D01*
X121585010Y-105384444D01*
X121511765Y-105332330D01*
X121415957Y-105259968D01*
X121305883Y-105173573D01*
X121231038Y-105113180D01*
X121122531Y-105026229D01*
X121029052Y-104954311D01*
X120957023Y-104902125D01*
X120912869Y-104874370D01*
X120901909Y-104872470D01*
X120902799Y-104906177D01*
X120905837Y-104981386D01*
X120910610Y-105088658D01*
X120916703Y-105218553D01*
X120920486Y-105296619D01*
X120931594Y-105567062D01*
X120936850Y-105802870D01*
X120936282Y-106000356D01*
X120929924Y-106155832D01*
X120917806Y-106265611D01*
X120912173Y-106292701D01*
X120893586Y-106355614D01*
X120867853Y-106387649D01*
X120816826Y-106406747D01*
X120789830Y-106413645D01*
X120689624Y-106431096D01*
X120542875Y-106445643D01*
X120353973Y-106457049D01*
X120127307Y-106465077D01*
X119867267Y-106469489D01*
X119741925Y-106470229D01*
X119597811Y-106471088D01*
X119473146Y-106472715D01*
X119376135Y-106474933D01*
X119314983Y-106477562D01*
X119297327Y-106479972D01*
X119314259Y-106499723D01*
X119362012Y-106549970D01*
X119435249Y-106625238D01*
X119528631Y-106720052D01*
X119636822Y-106828937D01*
X119666097Y-106858255D01*
X119777295Y-106970895D01*
X119874722Y-107072255D01*
X119953049Y-107156571D01*
X120006949Y-107218074D01*
X120031092Y-107251000D01*
X120031862Y-107254036D01*
X120014366Y-107280549D01*
X119968094Y-107338333D01*
X119898532Y-107420869D01*
X119811165Y-107521644D01*
X119718525Y-107626263D01*
X119619491Y-107738162D01*
X119533136Y-107837882D01*
X119464948Y-107918908D01*
X119420415Y-107974729D01*
X119405034Y-107998331D01*
X119129939Y-108225102D01*
X119052289Y-108202567D01*
X118996731Y-108171250D01*
X118969676Y-108133004D01*
X118967908Y-108086883D01*
X118988214Y-108031946D01*
X119027378Y-107967248D01*
X119029171Y-107964619D01*
X119075534Y-107905591D01*
X119149986Y-107820796D01*
X119243798Y-107719760D01*
X119348240Y-107612009D01*
X119397033Y-107563223D01*
X119495023Y-107465552D01*
X119578909Y-107380545D01*
X119642526Y-107314562D01*
X119679707Y-107273964D01*
X119686780Y-107264325D01*
X119670578Y-107242107D01*
X119625075Y-107189923D01*
X119556374Y-107114524D01*
X119470576Y-107022661D01*
X119424549Y-106974110D01*
X119271879Y-106808656D01*
X119144889Y-106660359D01*
X119045877Y-106532472D01*
X118977141Y-106428244D01*
X118940982Y-106350924D01*
X118939697Y-106303763D01*
X118945451Y-106296768D01*
X118988708Y-106280987D01*
X119079687Y-106265979D01*
X119219118Y-106251675D01*
X119407734Y-106238008D01*
X119646264Y-106224907D01*
X119781059Y-106218698D01*
X119945207Y-106211015D01*
X120099030Y-106202865D01*
X120232554Y-106194850D01*
X120335800Y-106187572D01*
X120398794Y-106181633D01*
X120401578Y-106181264D01*
X120496958Y-106158595D01*
X120582481Y-106121874D01*
X120643419Y-106078681D01*
X120664247Y-106046103D01*
X120666666Y-106009780D01*
X120668026Y-105932966D01*
X120668254Y-105826169D01*
X120667274Y-105699891D01*
X120666894Y-105670913D01*
X120666550Y-105364318D01*
X120675085Y-105106461D01*
X120692854Y-104895796D01*
X120720215Y-104730775D01*
X120757525Y-104609850D01*
X120805141Y-104531472D01*
X120863421Y-104494094D01*
G36*
X120863421Y-78574094D02*
G01*
X120932720Y-78576168D01*
X120937558Y-78577614D01*
X121015915Y-78619280D01*
X121117862Y-78701155D01*
X121240089Y-78820114D01*
X121379284Y-78973033D01*
X121469749Y-79080002D01*
X121684424Y-79340120D01*
X121731051Y-79286430D01*
X121804779Y-79206795D01*
X121905876Y-79104689D01*
X122023044Y-78990902D01*
X122144987Y-78876225D01*
X122260410Y-78771446D01*
X122358014Y-78687360D01*
X122359529Y-78686110D01*
X122475517Y-78595822D01*
X122562370Y-78541417D01*
X122624919Y-78520732D01*
X122668000Y-78531604D01*
X122679689Y-78542845D01*
X122698753Y-78592302D01*
X122715335Y-78689429D01*
X122729178Y-78830940D01*
X122740023Y-79013545D01*
X122747610Y-79233962D01*
X122751358Y-79453753D01*
X122755662Y-79713221D01*
X122762789Y-79922063D01*
X122772761Y-80080579D01*
X122785600Y-80189070D01*
X122801328Y-80247836D01*
X122809827Y-80258424D01*
X122842190Y-80262528D01*
X122915396Y-80265021D01*
X123019304Y-80265746D01*
X123143774Y-80264550D01*
X123173113Y-80264008D01*
X123416889Y-80261148D01*
X123649025Y-80262293D01*
X123864302Y-80267122D01*
X124057503Y-80275318D01*
X124223409Y-80286560D01*
X124356801Y-80300529D01*
X124452465Y-80316907D01*
X124505180Y-80335372D01*
X124513949Y-80346082D01*
X124500657Y-80394660D01*
X124454121Y-80475750D01*
X124377116Y-80585747D01*
X124272413Y-80721051D01*
X124142785Y-80878055D01*
X123991005Y-81053157D01*
X123845389Y-81214907D01*
X123760617Y-81307571D01*
X123863465Y-81408448D01*
X124079700Y-81624028D01*
X124258459Y-81809767D01*
X124399393Y-81965246D01*
X124502152Y-82090047D01*
X124566387Y-82183749D01*
X124591748Y-82245935D01*
X124584035Y-82272529D01*
X124543132Y-82288474D01*
X124459725Y-82303109D01*
X124332200Y-82316564D01*
X124158941Y-82328975D01*
X123938333Y-82340471D01*
X123668760Y-82351186D01*
X123590469Y-82353860D01*
X123413274Y-82360403D01*
X123248122Y-82367754D01*
X123103495Y-82375437D01*
X122987879Y-82382975D01*
X122909755Y-82389893D01*
X122884676Y-82393492D01*
X122790048Y-82412863D01*
X122785417Y-82548879D01*
X122784342Y-82615908D01*
X122784035Y-82723803D01*
X122784461Y-82862432D01*
X122785584Y-83021665D01*
X122787370Y-83191369D01*
X122787787Y-83224446D01*
X122790084Y-83483647D01*
X122789528Y-83694527D01*
X122786013Y-83859695D01*
X122779430Y-83981761D01*
X122769672Y-84063331D01*
X122756631Y-84107017D01*
X122751138Y-84113951D01*
X122714050Y-84118008D01*
X122656170Y-84101772D01*
X122654851Y-84101213D01*
X122576857Y-84056429D01*
X122465413Y-83974721D01*
X122321447Y-83856838D01*
X122145890Y-83703531D01*
X122013967Y-83584041D01*
X121918882Y-83497603D01*
X121837651Y-83425110D01*
X121777393Y-83372810D01*
X121745219Y-83346949D01*
X121742045Y-83345278D01*
X121720841Y-83362379D01*
X121671190Y-83409078D01*
X121600259Y-83478460D01*
X121515217Y-83563611D01*
X121505548Y-83573401D01*
X121389670Y-83687431D01*
X121268033Y-83801205D01*
X121147436Y-83908964D01*
X121034676Y-84004951D01*
X120936551Y-84083407D01*
X120859859Y-84138574D01*
X120811397Y-84164693D01*
X120806127Y-84165875D01*
X120783630Y-84155575D01*
X120764834Y-84116619D01*
X120749546Y-84046135D01*
X120737577Y-83941254D01*
X120728733Y-83799109D01*
X120722825Y-83616830D01*
X120719661Y-83391546D01*
X120719047Y-83120392D01*
X120720199Y-82877875D01*
X120723630Y-82393952D01*
X120164193Y-82377769D01*
X119870118Y-82368219D01*
X119623833Y-82357402D01*
X119422122Y-82344370D01*
X119261770Y-82328183D01*
X119139564Y-82307896D01*
X119129939Y-82305102D01*
X119405034Y-82078331D01*
X119428473Y-82085436D01*
X119496735Y-82093133D01*
X119603648Y-82101051D01*
X119743037Y-82108816D01*
X119908733Y-82116056D01*
X120094562Y-82122398D01*
X120170205Y-82124522D01*
X120363357Y-82129916D01*
X120539852Y-82135398D01*
X120693292Y-82140727D01*
X120817278Y-82145660D01*
X120905413Y-82149954D01*
X120951300Y-82153367D01*
X120956274Y-82154349D01*
X120959905Y-82181221D01*
X120962221Y-82252898D01*
X120963222Y-82363201D01*
X120962908Y-82505947D01*
X120961277Y-82674956D01*
X120958331Y-82864045D01*
X120956327Y-82965982D01*
X120952533Y-83162441D01*
X120949722Y-83341537D01*
X120947937Y-83497175D01*
X120947224Y-83623258D01*
X120947626Y-83713690D01*
X120949189Y-83762377D01*
X120950465Y-83769172D01*
X120971382Y-83752647D01*
X121022906Y-83706055D01*
X121099113Y-83634926D01*
X121194080Y-83544787D01*
X121300562Y-83442444D01*
X121412779Y-83334403D01*
X121516333Y-83235504D01*
X121604071Y-83152519D01*
X121668839Y-83092216D01*
X121701600Y-83062916D01*
X121763541Y-83011177D01*
X121901986Y-83153186D01*
X122079354Y-83330868D01*
X122225667Y-83468185D01*
X122340984Y-83565186D01*
X122425368Y-83621920D01*
X122478877Y-83638436D01*
X122492271Y-83633299D01*
X122505783Y-83599825D01*
X122519233Y-83529881D01*
X122529914Y-83437934D01*
X122530725Y-83428089D01*
X122536149Y-83332881D01*
X122540689Y-83202305D01*
X122543933Y-83051997D01*
X122545474Y-82897592D01*
X122545545Y-82862289D01*
X122548434Y-82634065D01*
X122557175Y-82453747D01*
X122572103Y-82318539D01*
X122593549Y-82225642D01*
X122621845Y-82172261D01*
X122628229Y-82166184D01*
X122650129Y-82150326D01*
X122677263Y-82137419D01*
X122715716Y-82126768D01*
X122771574Y-82117674D01*
X122850922Y-82109439D01*
X122959846Y-82101365D01*
X123104429Y-82092754D01*
X123290759Y-82082909D01*
X123404512Y-82077153D01*
X123575626Y-82068275D01*
X123729055Y-82059766D01*
X123857700Y-82052067D01*
X123954460Y-82045614D01*
X124012237Y-82040848D01*
X124025648Y-82038783D01*
X124013057Y-82017762D01*
X123972538Y-81963564D01*
X123908808Y-81882198D01*
X123826588Y-81779672D01*
X123730597Y-81661993D01*
X123710816Y-81637960D01*
X123386707Y-81244784D01*
X123804470Y-80891500D01*
X124222233Y-80538216D01*
X123392938Y-80514498D01*
X123140105Y-80506396D01*
X122935791Y-80497861D01*
X122777509Y-80488707D01*
X122662772Y-80478747D01*
X122589097Y-80467794D01*
X122553995Y-80455663D01*
X122550396Y-80451206D01*
X122538600Y-80389899D01*
X122528511Y-80287886D01*
X122520384Y-80155445D01*
X122514480Y-80002856D01*
X122511058Y-79840396D01*
X122510378Y-79678343D01*
X122512695Y-79526975D01*
X122518272Y-79396570D01*
X122522450Y-79341477D01*
X122535173Y-79195357D01*
X122539716Y-79089810D01*
X122531613Y-79023663D01*
X122506402Y-78995742D01*
X122459618Y-79004877D01*
X122386796Y-79049894D01*
X122283471Y-79129618D01*
X122145646Y-79242494D01*
X122014610Y-79349702D01*
X121915297Y-79427466D01*
X121840460Y-79479248D01*
X121782851Y-79508511D01*
X121735224Y-79518717D01*
X121690333Y-79513328D01*
X121640931Y-79495806D01*
X121627394Y-79490093D01*
X121585010Y-79464444D01*
X121511765Y-79412330D01*
X121415957Y-79339968D01*
X121305883Y-79253573D01*
X121231038Y-79193180D01*
X121122531Y-79106229D01*
X121029052Y-79034311D01*
X120957023Y-78982125D01*
X120912869Y-78954370D01*
X120901909Y-78952470D01*
X120902799Y-78986177D01*
X120905837Y-79061386D01*
X120910610Y-79168658D01*
X120916703Y-79298553D01*
X120920486Y-79376619D01*
X120931594Y-79647062D01*
X120936850Y-79882870D01*
X120936282Y-80080356D01*
X120929924Y-80235832D01*
X120917806Y-80345611D01*
X120912173Y-80372701D01*
X120893586Y-80435614D01*
X120867853Y-80467649D01*
X120816826Y-80486747D01*
X120789830Y-80493645D01*
X120689624Y-80511096D01*
X120542875Y-80525643D01*
X120353973Y-80537049D01*
X120127307Y-80545077D01*
X119867267Y-80549489D01*
X119741925Y-80550229D01*
X119597811Y-80551088D01*
X119473146Y-80552715D01*
X119376135Y-80554933D01*
X119314983Y-80557562D01*
X119297327Y-80559972D01*
X119314259Y-80579723D01*
X119362012Y-80629970D01*
X119435249Y-80705238D01*
X119528631Y-80800052D01*
X119636822Y-80908937D01*
X119666097Y-80938255D01*
X119777295Y-81050895D01*
X119874722Y-81152255D01*
X119953049Y-81236571D01*
X120006949Y-81298074D01*
X120031092Y-81331000D01*
X120031862Y-81334036D01*
X120014366Y-81360549D01*
X119968094Y-81418333D01*
X119898532Y-81500869D01*
X119811165Y-81601644D01*
X119718525Y-81706263D01*
X119619491Y-81818162D01*
X119533136Y-81917882D01*
X119464948Y-81998908D01*
X119420415Y-82054729D01*
X119405034Y-82078331D01*
X119129939Y-82305102D01*
X119052289Y-82282567D01*
X118996731Y-82251250D01*
X118969676Y-82213004D01*
X118967908Y-82166883D01*
X118988214Y-82111946D01*
X119027378Y-82047248D01*
X119029171Y-82044619D01*
X119075534Y-81985591D01*
X119149986Y-81900796D01*
X119243798Y-81799760D01*
X119348240Y-81692009D01*
X119397033Y-81643223D01*
X119495023Y-81545552D01*
X119578909Y-81460545D01*
X119642526Y-81394562D01*
X119679707Y-81353964D01*
X119686780Y-81344325D01*
X119670578Y-81322107D01*
X119625075Y-81269923D01*
X119556374Y-81194524D01*
X119470576Y-81102661D01*
X119424549Y-81054110D01*
X119271879Y-80888656D01*
X119144889Y-80740359D01*
X119045877Y-80612472D01*
X118977141Y-80508244D01*
X118940982Y-80430924D01*
X118939697Y-80383763D01*
X118945451Y-80376768D01*
X118988708Y-80360987D01*
X119079687Y-80345979D01*
X119219118Y-80331675D01*
X119407734Y-80318008D01*
X119646264Y-80304907D01*
X119781059Y-80298698D01*
X119945207Y-80291015D01*
X120099030Y-80282865D01*
X120232554Y-80274850D01*
X120335800Y-80267572D01*
X120398794Y-80261633D01*
X120401578Y-80261264D01*
X120496958Y-80238595D01*
X120582481Y-80201874D01*
X120643419Y-80158681D01*
X120664247Y-80126103D01*
X120666666Y-80089780D01*
X120668026Y-80012966D01*
X120668254Y-79906169D01*
X120667274Y-79779891D01*
X120666894Y-79750913D01*
X120666550Y-79444318D01*
X120675085Y-79186461D01*
X120692854Y-78975796D01*
X120720215Y-78810775D01*
X120757525Y-78689850D01*
X120805141Y-78611472D01*
X120863421Y-78574094D01*
G37*
X120863421Y-78574094D02*
X120932720Y-78576168D01*
X120937558Y-78577614D01*
X121015915Y-78619280D01*
X121117862Y-78701155D01*
X121240089Y-78820114D01*
X121379284Y-78973033D01*
X121469749Y-79080002D01*
X121684424Y-79340120D01*
X121731051Y-79286430D01*
X121804779Y-79206795D01*
X121905876Y-79104689D01*
X122023044Y-78990902D01*
X122144987Y-78876225D01*
X122260410Y-78771446D01*
X122358014Y-78687360D01*
X122359529Y-78686110D01*
X122475517Y-78595822D01*
X122562370Y-78541417D01*
X122624919Y-78520732D01*
X122668000Y-78531604D01*
X122679689Y-78542845D01*
X122698753Y-78592302D01*
X122715335Y-78689429D01*
X122729178Y-78830940D01*
X122740023Y-79013545D01*
X122747610Y-79233962D01*
X122751358Y-79453753D01*
X122755662Y-79713221D01*
X122762789Y-79922063D01*
X122772761Y-80080579D01*
X122785600Y-80189070D01*
X122801328Y-80247836D01*
X122809827Y-80258424D01*
X122842190Y-80262528D01*
X122915396Y-80265021D01*
X123019304Y-80265746D01*
X123143774Y-80264550D01*
X123173113Y-80264008D01*
X123416889Y-80261148D01*
X123649025Y-80262293D01*
X123864302Y-80267122D01*
X124057503Y-80275318D01*
X124223409Y-80286560D01*
X124356801Y-80300529D01*
X124452465Y-80316907D01*
X124505180Y-80335372D01*
X124513949Y-80346082D01*
X124500657Y-80394660D01*
X124454121Y-80475750D01*
X124377116Y-80585747D01*
X124272413Y-80721051D01*
X124142785Y-80878055D01*
X123991005Y-81053157D01*
X123845389Y-81214907D01*
X123760617Y-81307571D01*
X123863465Y-81408448D01*
X124079700Y-81624028D01*
X124258459Y-81809767D01*
X124399393Y-81965246D01*
X124502152Y-82090047D01*
X124566387Y-82183749D01*
X124591748Y-82245935D01*
X124584035Y-82272529D01*
X124543132Y-82288474D01*
X124459725Y-82303109D01*
X124332200Y-82316564D01*
X124158941Y-82328975D01*
X123938333Y-82340471D01*
X123668760Y-82351186D01*
X123590469Y-82353860D01*
X123413274Y-82360403D01*
X123248122Y-82367754D01*
X123103495Y-82375437D01*
X122987879Y-82382975D01*
X122909755Y-82389893D01*
X122884676Y-82393492D01*
X122790048Y-82412863D01*
X122785417Y-82548879D01*
X122784342Y-82615908D01*
X122784035Y-82723803D01*
X122784461Y-82862432D01*
X122785584Y-83021665D01*
X122787370Y-83191369D01*
X122787787Y-83224446D01*
X122790084Y-83483647D01*
X122789528Y-83694527D01*
X122786013Y-83859695D01*
X122779430Y-83981761D01*
X122769672Y-84063331D01*
X122756631Y-84107017D01*
X122751138Y-84113951D01*
X122714050Y-84118008D01*
X122656170Y-84101772D01*
X122654851Y-84101213D01*
X122576857Y-84056429D01*
X122465413Y-83974721D01*
X122321447Y-83856838D01*
X122145890Y-83703531D01*
X122013967Y-83584041D01*
X121918882Y-83497603D01*
X121837651Y-83425110D01*
X121777393Y-83372810D01*
X121745219Y-83346949D01*
X121742045Y-83345278D01*
X121720841Y-83362379D01*
X121671190Y-83409078D01*
X121600259Y-83478460D01*
X121515217Y-83563611D01*
X121505548Y-83573401D01*
X121389670Y-83687431D01*
X121268033Y-83801205D01*
X121147436Y-83908964D01*
X121034676Y-84004951D01*
X120936551Y-84083407D01*
X120859859Y-84138574D01*
X120811397Y-84164693D01*
X120806127Y-84165875D01*
X120783630Y-84155575D01*
X120764834Y-84116619D01*
X120749546Y-84046135D01*
X120737577Y-83941254D01*
X120728733Y-83799109D01*
X120722825Y-83616830D01*
X120719661Y-83391546D01*
X120719047Y-83120392D01*
X120720199Y-82877875D01*
X120723630Y-82393952D01*
X120164193Y-82377769D01*
X119870118Y-82368219D01*
X119623833Y-82357402D01*
X119422122Y-82344370D01*
X119261770Y-82328183D01*
X119139564Y-82307896D01*
X119129939Y-82305102D01*
X119405034Y-82078331D01*
X119428473Y-82085436D01*
X119496735Y-82093133D01*
X119603648Y-82101051D01*
X119743037Y-82108816D01*
X119908733Y-82116056D01*
X120094562Y-82122398D01*
X120170205Y-82124522D01*
X120363357Y-82129916D01*
X120539852Y-82135398D01*
X120693292Y-82140727D01*
X120817278Y-82145660D01*
X120905413Y-82149954D01*
X120951300Y-82153367D01*
X120956274Y-82154349D01*
X120959905Y-82181221D01*
X120962221Y-82252898D01*
X120963222Y-82363201D01*
X120962908Y-82505947D01*
X120961277Y-82674956D01*
X120958331Y-82864045D01*
X120956327Y-82965982D01*
X120952533Y-83162441D01*
X120949722Y-83341537D01*
X120947937Y-83497175D01*
X120947224Y-83623258D01*
X120947626Y-83713690D01*
X120949189Y-83762377D01*
X120950465Y-83769172D01*
X120971382Y-83752647D01*
X121022906Y-83706055D01*
X121099113Y-83634926D01*
X121194080Y-83544787D01*
X121300562Y-83442444D01*
X121412779Y-83334403D01*
X121516333Y-83235504D01*
X121604071Y-83152519D01*
X121668839Y-83092216D01*
X121701600Y-83062916D01*
X121763541Y-83011177D01*
X121901986Y-83153186D01*
X122079354Y-83330868D01*
X122225667Y-83468185D01*
X122340984Y-83565186D01*
X122425368Y-83621920D01*
X122478877Y-83638436D01*
X122492271Y-83633299D01*
X122505783Y-83599825D01*
X122519233Y-83529881D01*
X122529914Y-83437934D01*
X122530725Y-83428089D01*
X122536149Y-83332881D01*
X122540689Y-83202305D01*
X122543933Y-83051997D01*
X122545474Y-82897592D01*
X122545545Y-82862289D01*
X122548434Y-82634065D01*
X122557175Y-82453747D01*
X122572103Y-82318539D01*
X122593549Y-82225642D01*
X122621845Y-82172261D01*
X122628229Y-82166184D01*
X122650129Y-82150326D01*
X122677263Y-82137419D01*
X122715716Y-82126768D01*
X122771574Y-82117674D01*
X122850922Y-82109439D01*
X122959846Y-82101365D01*
X123104429Y-82092754D01*
X123290759Y-82082909D01*
X123404512Y-82077153D01*
X123575626Y-82068275D01*
X123729055Y-82059766D01*
X123857700Y-82052067D01*
X123954460Y-82045614D01*
X124012237Y-82040848D01*
X124025648Y-82038783D01*
X124013057Y-82017762D01*
X123972538Y-81963564D01*
X123908808Y-81882198D01*
X123826588Y-81779672D01*
X123730597Y-81661993D01*
X123710816Y-81637960D01*
X123386707Y-81244784D01*
X123804470Y-80891500D01*
X124222233Y-80538216D01*
X123392938Y-80514498D01*
X123140105Y-80506396D01*
X122935791Y-80497861D01*
X122777509Y-80488707D01*
X122662772Y-80478747D01*
X122589097Y-80467794D01*
X122553995Y-80455663D01*
X122550396Y-80451206D01*
X122538600Y-80389899D01*
X122528511Y-80287886D01*
X122520384Y-80155445D01*
X122514480Y-80002856D01*
X122511058Y-79840396D01*
X122510378Y-79678343D01*
X122512695Y-79526975D01*
X122518272Y-79396570D01*
X122522450Y-79341477D01*
X122535173Y-79195357D01*
X122539716Y-79089810D01*
X122531613Y-79023663D01*
X122506402Y-78995742D01*
X122459618Y-79004877D01*
X122386796Y-79049894D01*
X122283471Y-79129618D01*
X122145646Y-79242494D01*
X122014610Y-79349702D01*
X121915297Y-79427466D01*
X121840460Y-79479248D01*
X121782851Y-79508511D01*
X121735224Y-79518717D01*
X121690333Y-79513328D01*
X121640931Y-79495806D01*
X121627394Y-79490093D01*
X121585010Y-79464444D01*
X121511765Y-79412330D01*
X121415957Y-79339968D01*
X121305883Y-79253573D01*
X121231038Y-79193180D01*
X121122531Y-79106229D01*
X121029052Y-79034311D01*
X120957023Y-78982125D01*
X120912869Y-78954370D01*
X120901909Y-78952470D01*
X120902799Y-78986177D01*
X120905837Y-79061386D01*
X120910610Y-79168658D01*
X120916703Y-79298553D01*
X120920486Y-79376619D01*
X120931594Y-79647062D01*
X120936850Y-79882870D01*
X120936282Y-80080356D01*
X120929924Y-80235832D01*
X120917806Y-80345611D01*
X120912173Y-80372701D01*
X120893586Y-80435614D01*
X120867853Y-80467649D01*
X120816826Y-80486747D01*
X120789830Y-80493645D01*
X120689624Y-80511096D01*
X120542875Y-80525643D01*
X120353973Y-80537049D01*
X120127307Y-80545077D01*
X119867267Y-80549489D01*
X119741925Y-80550229D01*
X119597811Y-80551088D01*
X119473146Y-80552715D01*
X119376135Y-80554933D01*
X119314983Y-80557562D01*
X119297327Y-80559972D01*
X119314259Y-80579723D01*
X119362012Y-80629970D01*
X119435249Y-80705238D01*
X119528631Y-80800052D01*
X119636822Y-80908937D01*
X119666097Y-80938255D01*
X119777295Y-81050895D01*
X119874722Y-81152255D01*
X119953049Y-81236571D01*
X120006949Y-81298074D01*
X120031092Y-81331000D01*
X120031862Y-81334036D01*
X120014366Y-81360549D01*
X119968094Y-81418333D01*
X119898532Y-81500869D01*
X119811165Y-81601644D01*
X119718525Y-81706263D01*
X119619491Y-81818162D01*
X119533136Y-81917882D01*
X119464948Y-81998908D01*
X119420415Y-82054729D01*
X119405034Y-82078331D01*
X119129939Y-82305102D01*
X119052289Y-82282567D01*
X118996731Y-82251250D01*
X118969676Y-82213004D01*
X118967908Y-82166883D01*
X118988214Y-82111946D01*
X119027378Y-82047248D01*
X119029171Y-82044619D01*
X119075534Y-81985591D01*
X119149986Y-81900796D01*
X119243798Y-81799760D01*
X119348240Y-81692009D01*
X119397033Y-81643223D01*
X119495023Y-81545552D01*
X119578909Y-81460545D01*
X119642526Y-81394562D01*
X119679707Y-81353964D01*
X119686780Y-81344325D01*
X119670578Y-81322107D01*
X119625075Y-81269923D01*
X119556374Y-81194524D01*
X119470576Y-81102661D01*
X119424549Y-81054110D01*
X119271879Y-80888656D01*
X119144889Y-80740359D01*
X119045877Y-80612472D01*
X118977141Y-80508244D01*
X118940982Y-80430924D01*
X118939697Y-80383763D01*
X118945451Y-80376768D01*
X118988708Y-80360987D01*
X119079687Y-80345979D01*
X119219118Y-80331675D01*
X119407734Y-80318008D01*
X119646264Y-80304907D01*
X119781059Y-80298698D01*
X119945207Y-80291015D01*
X120099030Y-80282865D01*
X120232554Y-80274850D01*
X120335800Y-80267572D01*
X120398794Y-80261633D01*
X120401578Y-80261264D01*
X120496958Y-80238595D01*
X120582481Y-80201874D01*
X120643419Y-80158681D01*
X120664247Y-80126103D01*
X120666666Y-80089780D01*
X120668026Y-80012966D01*
X120668254Y-79906169D01*
X120667274Y-79779891D01*
X120666894Y-79750913D01*
X120666550Y-79444318D01*
X120675085Y-79186461D01*
X120692854Y-78975796D01*
X120720215Y-78810775D01*
X120757525Y-78689850D01*
X120805141Y-78611472D01*
X120863421Y-78574094D01*
G36*
X122942440Y-117526644D02*
G01*
X122996426Y-117538152D01*
X123029892Y-117554255D01*
X123052963Y-117577591D01*
X123064047Y-117593211D01*
X123086889Y-117640747D01*
X123096643Y-117704232D01*
X123094751Y-117797675D01*
X123090631Y-117851531D01*
X123079266Y-118082963D01*
X123089795Y-118271805D01*
X123123239Y-118422000D01*
X123180617Y-118537496D01*
X123262950Y-118622238D01*
X123295449Y-118643933D01*
X123339297Y-118668448D01*
X123384282Y-118687931D01*
X123438705Y-118704044D01*
X123510865Y-118718450D01*
X123609064Y-118732812D01*
X123741600Y-118748795D01*
X123912669Y-118767619D01*
X124086854Y-118786903D01*
X124216355Y-118802716D01*
X124307283Y-118816185D01*
X124365751Y-118828443D01*
X124397869Y-118840618D01*
X124409749Y-118853841D01*
X124410209Y-118859621D01*
X124410324Y-118891843D01*
X124411901Y-118970098D01*
X124414807Y-119089440D01*
X124418904Y-119244925D01*
X124424060Y-119431605D01*
X124430140Y-119644536D01*
X124437008Y-119878772D01*
X124444531Y-120129366D01*
X124446922Y-120207861D01*
X124454257Y-120461523D01*
X124460334Y-120699595D01*
X124465085Y-120917244D01*
X124468446Y-121109635D01*
X124470347Y-121271932D01*
X124470721Y-121399304D01*
X124469503Y-121486917D01*
X124466624Y-121529933D01*
X124465342Y-121533491D01*
X124434903Y-121538746D01*
X124360599Y-121545455D01*
X124249537Y-121553157D01*
X124108817Y-121561399D01*
X123945544Y-121569722D01*
X123801346Y-121576221D01*
X123626121Y-121583811D01*
X123468704Y-121590900D01*
X123335962Y-121597155D01*
X123234761Y-121602247D01*
X123171964Y-121605841D01*
X123153930Y-121607450D01*
X123153598Y-121632889D01*
X123155415Y-121702093D01*
X123159120Y-121807879D01*
X123164451Y-121943066D01*
X123171144Y-122100470D01*
X123175410Y-122196063D01*
X123182357Y-122364796D01*
X123187287Y-122517221D01*
X123190063Y-122645699D01*
X123190548Y-122742593D01*
X123188604Y-122800265D01*
X123186525Y-122812353D01*
X123153370Y-122828745D01*
X123072627Y-122844080D01*
X122947701Y-122858194D01*
X122781999Y-122870922D01*
X122578929Y-122882101D01*
X122341898Y-122891569D01*
X122074311Y-122899159D01*
X121779577Y-122904708D01*
X121461102Y-122908053D01*
X121175996Y-122909040D01*
X120998986Y-122909230D01*
X120831258Y-122909640D01*
X120682206Y-122910230D01*
X120561221Y-122910958D01*
X120477696Y-122911785D01*
X120455149Y-122912170D01*
X120323108Y-122915080D01*
X120319266Y-122791631D01*
X120318762Y-122727344D01*
X120319665Y-122622462D01*
X120321809Y-122487370D01*
X120325028Y-122332454D01*
X120329157Y-122168099D01*
X120329274Y-122163806D01*
X120333279Y-121966746D01*
X120333202Y-121817222D01*
X120329067Y-121716175D01*
X120320900Y-121664552D01*
X120315199Y-121657558D01*
X120282878Y-121656311D01*
X120206882Y-121653797D01*
X120094520Y-121650245D01*
X119953101Y-121645885D01*
X119789930Y-121640945D01*
X119662149Y-121637130D01*
X119489174Y-121631650D01*
X119333944Y-121626075D01*
X119203464Y-121620709D01*
X119104738Y-121615859D01*
X119044769Y-121611829D01*
X119029450Y-121609540D01*
X119027033Y-121582128D01*
X119024728Y-121509852D01*
X119022563Y-121398852D01*
X119020573Y-121255267D01*
X119018786Y-121085239D01*
X119017234Y-120894905D01*
X119015951Y-120690408D01*
X119014966Y-120477886D01*
X119014310Y-120263480D01*
X119014015Y-120053328D01*
X119014112Y-119853572D01*
X119014633Y-119670352D01*
X119015609Y-119509806D01*
X119016450Y-119434104D01*
X119284054Y-119457516D01*
X119276362Y-119582143D01*
X119274545Y-119643723D01*
X119273676Y-119746008D01*
X119273656Y-119881051D01*
X119274390Y-120040908D01*
X119275776Y-120217635D01*
X119277719Y-120403286D01*
X119280121Y-120589918D01*
X119282883Y-120769584D01*
X119285908Y-120934340D01*
X119289097Y-121076241D01*
X119292353Y-121187342D01*
X119295578Y-121259699D01*
X119297282Y-121279935D01*
X119304848Y-121338196D01*
X119914627Y-121391545D01*
X120105838Y-121408373D01*
X120252408Y-121421871D01*
X120360503Y-121433145D01*
X120436295Y-121443299D01*
X120485952Y-121453440D01*
X120515642Y-121464672D01*
X120531535Y-121478101D01*
X120539799Y-121494833D01*
X120542786Y-121504100D01*
X120550761Y-121550128D01*
X120560133Y-121636205D01*
X120569912Y-121751432D01*
X120579105Y-121884913D01*
X120582136Y-121936333D01*
X120593965Y-122129817D01*
X120606366Y-122279124D01*
X120621457Y-122391062D01*
X120641353Y-122472435D01*
X120668170Y-122530050D01*
X120704021Y-122570710D01*
X120751026Y-122601222D01*
X120795195Y-122621679D01*
X120855697Y-122637644D01*
X120956234Y-122650725D01*
X121098579Y-122660985D01*
X121284503Y-122668496D01*
X121515777Y-122673324D01*
X121794171Y-122675539D01*
X122121458Y-122675208D01*
X122177938Y-122674926D01*
X122366224Y-122673605D01*
X122537459Y-122671851D01*
X122685140Y-122669772D01*
X122802767Y-122667480D01*
X122883839Y-122665086D01*
X122921854Y-122662702D01*
X122923803Y-122662184D01*
X122927600Y-122635372D01*
X122932118Y-122564478D01*
X122937070Y-122456414D01*
X122942169Y-122318095D01*
X122947128Y-122156431D01*
X122950943Y-122008943D01*
X122955494Y-121833138D01*
X122960297Y-121674943D01*
X122965084Y-121541264D01*
X122969589Y-121439008D01*
X122973542Y-121375082D01*
X122976224Y-121356075D01*
X123003425Y-121354324D01*
X123074471Y-121353887D01*
X123182221Y-121354692D01*
X123319538Y-121356666D01*
X123479279Y-121359737D01*
X123594472Y-121362352D01*
X123765031Y-121366209D01*
X123917779Y-121369197D01*
X124045608Y-121371213D01*
X124141409Y-121372160D01*
X124198076Y-121371934D01*
X124210604Y-121371080D01*
X124213301Y-121344289D01*
X124214950Y-121273407D01*
X124215641Y-121165335D01*
X124215466Y-121026975D01*
X124214512Y-120865224D01*
X124212868Y-120686985D01*
X124210625Y-120499160D01*
X124207872Y-120308647D01*
X124204698Y-120122348D01*
X124201193Y-119947163D01*
X124197445Y-119789993D01*
X124193545Y-119657739D01*
X124189581Y-119557301D01*
X124186432Y-119504595D01*
X124173367Y-119387771D01*
X124154616Y-119277700D01*
X124133639Y-119193653D01*
X124127559Y-119176716D01*
X124101019Y-119119624D01*
X124068948Y-119075815D01*
X124024512Y-119043328D01*
X123960877Y-119020203D01*
X123871209Y-119004477D01*
X123748673Y-118994191D01*
X123586437Y-118987381D01*
X123455630Y-118983870D01*
X123300325Y-118979923D01*
X123158698Y-118975864D01*
X123040220Y-118972000D01*
X122954358Y-118968640D01*
X122911832Y-118966214D01*
X122844101Y-118959901D01*
X122873907Y-118520919D01*
X122885927Y-118315879D01*
X122887792Y-118155356D01*
X122874929Y-118033168D01*
X122842766Y-117943134D01*
X122786731Y-117879072D01*
X122702252Y-117834803D01*
X122584756Y-117804145D01*
X122429670Y-117780916D01*
X122316962Y-117768005D01*
X122214502Y-117759208D01*
X122080012Y-117751193D01*
X121920610Y-117744065D01*
X121743415Y-117737928D01*
X121555546Y-117732887D01*
X121364119Y-117729045D01*
X121176256Y-117726507D01*
X120999073Y-117725376D01*
X120839690Y-117725758D01*
X120705223Y-117727757D01*
X120602793Y-117731477D01*
X120539517Y-117737021D01*
X120522670Y-117741725D01*
X120517439Y-117771227D01*
X120514780Y-117843093D01*
X120514718Y-117948743D01*
X120517277Y-118079603D01*
X120521374Y-118200369D01*
X120526759Y-118353058D01*
X120530407Y-118494785D01*
X120532143Y-118614813D01*
X120531794Y-118702408D01*
X120530138Y-118739528D01*
X120502260Y-118856777D01*
X120440250Y-118944395D01*
X120339261Y-119006960D01*
X120204731Y-119046962D01*
X120159856Y-119052208D01*
X120074893Y-119058661D01*
X119960723Y-119065615D01*
X119828224Y-119072362D01*
X119780680Y-119074495D01*
X119616397Y-119082301D01*
X119494787Y-119094108D01*
X119408912Y-119116897D01*
X119351836Y-119157651D01*
X119316625Y-119223351D01*
X119296343Y-119320979D01*
X119284054Y-119457516D01*
X119016450Y-119434104D01*
X119017071Y-119378075D01*
X119017841Y-119332641D01*
X119021904Y-119189108D01*
X119027890Y-119063567D01*
X119035181Y-118964814D01*
X119043165Y-118901643D01*
X119049264Y-118882887D01*
X119090918Y-118869006D01*
X119177859Y-118855550D01*
X119304371Y-118842984D01*
X119464737Y-118831769D01*
X119653240Y-118822370D01*
X119864162Y-118815252D01*
X119892283Y-118814534D01*
X120299176Y-118804517D01*
X120294525Y-118700078D01*
X120292398Y-118638459D01*
X120289603Y-118537494D01*
X120286436Y-118408833D01*
X120283187Y-118264126D01*
X120281543Y-118185319D01*
X120278874Y-118029009D01*
X120278662Y-117914591D01*
X120281617Y-117832985D01*
X120288447Y-117775109D01*
X120299862Y-117731882D01*
X120316572Y-117694222D01*
X120320486Y-117686793D01*
X120352052Y-117639465D01*
X120394585Y-117599684D01*
X120452321Y-117566854D01*
X120529496Y-117540382D01*
X120630345Y-117519671D01*
X120759104Y-117504130D01*
X120920010Y-117493162D01*
X121117297Y-117486175D01*
X121355202Y-117482571D01*
X121637960Y-117481759D01*
X121778785Y-117482136D01*
X121977468Y-117483770D01*
X122176910Y-117486940D01*
X122365959Y-117491357D01*
X122533465Y-117496733D01*
X122668276Y-117502776D01*
X122732408Y-117506874D01*
X122857809Y-117517097D01*
X122942440Y-117526644D01*
G37*
X122942440Y-117526644D02*
X122996426Y-117538152D01*
X123029892Y-117554255D01*
X123052963Y-117577591D01*
X123064047Y-117593211D01*
X123086889Y-117640747D01*
X123096643Y-117704232D01*
X123094751Y-117797675D01*
X123090631Y-117851531D01*
X123079266Y-118082963D01*
X123089795Y-118271805D01*
X123123239Y-118422000D01*
X123180617Y-118537496D01*
X123262950Y-118622238D01*
X123295449Y-118643933D01*
X123339297Y-118668448D01*
X123384282Y-118687931D01*
X123438705Y-118704044D01*
X123510865Y-118718450D01*
X123609064Y-118732812D01*
X123741600Y-118748795D01*
X123912669Y-118767619D01*
X124086854Y-118786903D01*
X124216355Y-118802716D01*
X124307283Y-118816185D01*
X124365751Y-118828443D01*
X124397869Y-118840618D01*
X124409749Y-118853841D01*
X124410209Y-118859621D01*
X124410324Y-118891843D01*
X124411901Y-118970098D01*
X124414807Y-119089440D01*
X124418904Y-119244925D01*
X124424060Y-119431605D01*
X124430140Y-119644536D01*
X124437008Y-119878772D01*
X124444531Y-120129366D01*
X124446922Y-120207861D01*
X124454257Y-120461523D01*
X124460334Y-120699595D01*
X124465085Y-120917244D01*
X124468446Y-121109635D01*
X124470347Y-121271932D01*
X124470721Y-121399304D01*
X124469503Y-121486917D01*
X124466624Y-121529933D01*
X124465342Y-121533491D01*
X124434903Y-121538746D01*
X124360599Y-121545455D01*
X124249537Y-121553157D01*
X124108817Y-121561399D01*
X123945544Y-121569722D01*
X123801346Y-121576221D01*
X123626121Y-121583811D01*
X123468704Y-121590900D01*
X123335962Y-121597155D01*
X123234761Y-121602247D01*
X123171964Y-121605841D01*
X123153930Y-121607450D01*
X123153598Y-121632889D01*
X123155415Y-121702093D01*
X123159120Y-121807879D01*
X123164451Y-121943066D01*
X123171144Y-122100470D01*
X123175410Y-122196063D01*
X123182357Y-122364796D01*
X123187287Y-122517221D01*
X123190063Y-122645699D01*
X123190548Y-122742593D01*
X123188604Y-122800265D01*
X123186525Y-122812353D01*
X123153370Y-122828745D01*
X123072627Y-122844080D01*
X122947701Y-122858194D01*
X122781999Y-122870922D01*
X122578929Y-122882101D01*
X122341898Y-122891569D01*
X122074311Y-122899159D01*
X121779577Y-122904708D01*
X121461102Y-122908053D01*
X121175996Y-122909040D01*
X120998986Y-122909230D01*
X120831258Y-122909640D01*
X120682206Y-122910230D01*
X120561221Y-122910958D01*
X120477696Y-122911785D01*
X120455149Y-122912170D01*
X120323108Y-122915080D01*
X120319266Y-122791631D01*
X120318762Y-122727344D01*
X120319665Y-122622462D01*
X120321809Y-122487370D01*
X120325028Y-122332454D01*
X120329157Y-122168099D01*
X120329274Y-122163806D01*
X120333279Y-121966746D01*
X120333202Y-121817222D01*
X120329067Y-121716175D01*
X120320900Y-121664552D01*
X120315199Y-121657558D01*
X120282878Y-121656311D01*
X120206882Y-121653797D01*
X120094520Y-121650245D01*
X119953101Y-121645885D01*
X119789930Y-121640945D01*
X119662149Y-121637130D01*
X119489174Y-121631650D01*
X119333944Y-121626075D01*
X119203464Y-121620709D01*
X119104738Y-121615859D01*
X119044769Y-121611829D01*
X119029450Y-121609540D01*
X119027033Y-121582128D01*
X119024728Y-121509852D01*
X119022563Y-121398852D01*
X119020573Y-121255267D01*
X119018786Y-121085239D01*
X119017234Y-120894905D01*
X119015951Y-120690408D01*
X119014966Y-120477886D01*
X119014310Y-120263480D01*
X119014015Y-120053328D01*
X119014112Y-119853572D01*
X119014633Y-119670352D01*
X119015609Y-119509806D01*
X119016450Y-119434104D01*
X119284054Y-119457516D01*
X119276362Y-119582143D01*
X119274545Y-119643723D01*
X119273676Y-119746008D01*
X119273656Y-119881051D01*
X119274390Y-120040908D01*
X119275776Y-120217635D01*
X119277719Y-120403286D01*
X119280121Y-120589918D01*
X119282883Y-120769584D01*
X119285908Y-120934340D01*
X119289097Y-121076241D01*
X119292353Y-121187342D01*
X119295578Y-121259699D01*
X119297282Y-121279935D01*
X119304848Y-121338196D01*
X119914627Y-121391545D01*
X120105838Y-121408373D01*
X120252408Y-121421871D01*
X120360503Y-121433145D01*
X120436295Y-121443299D01*
X120485952Y-121453440D01*
X120515642Y-121464672D01*
X120531535Y-121478101D01*
X120539799Y-121494833D01*
X120542786Y-121504100D01*
X120550761Y-121550128D01*
X120560133Y-121636205D01*
X120569912Y-121751432D01*
X120579105Y-121884913D01*
X120582136Y-121936333D01*
X120593965Y-122129817D01*
X120606366Y-122279124D01*
X120621457Y-122391062D01*
X120641353Y-122472435D01*
X120668170Y-122530050D01*
X120704021Y-122570710D01*
X120751026Y-122601222D01*
X120795195Y-122621679D01*
X120855697Y-122637644D01*
X120956234Y-122650725D01*
X121098579Y-122660985D01*
X121284503Y-122668496D01*
X121515777Y-122673324D01*
X121794171Y-122675539D01*
X122121458Y-122675208D01*
X122177938Y-122674926D01*
X122366224Y-122673605D01*
X122537459Y-122671851D01*
X122685140Y-122669772D01*
X122802767Y-122667480D01*
X122883839Y-122665086D01*
X122921854Y-122662702D01*
X122923803Y-122662184D01*
X122927600Y-122635372D01*
X122932118Y-122564478D01*
X122937070Y-122456414D01*
X122942169Y-122318095D01*
X122947128Y-122156431D01*
X122950943Y-122008943D01*
X122955494Y-121833138D01*
X122960297Y-121674943D01*
X122965084Y-121541264D01*
X122969589Y-121439008D01*
X122973542Y-121375082D01*
X122976224Y-121356075D01*
X123003425Y-121354324D01*
X123074471Y-121353887D01*
X123182221Y-121354692D01*
X123319538Y-121356666D01*
X123479279Y-121359737D01*
X123594472Y-121362352D01*
X123765031Y-121366209D01*
X123917779Y-121369197D01*
X124045608Y-121371213D01*
X124141409Y-121372160D01*
X124198076Y-121371934D01*
X124210604Y-121371080D01*
X124213301Y-121344289D01*
X124214950Y-121273407D01*
X124215641Y-121165335D01*
X124215466Y-121026975D01*
X124214512Y-120865224D01*
X124212868Y-120686985D01*
X124210625Y-120499160D01*
X124207872Y-120308647D01*
X124204698Y-120122348D01*
X124201193Y-119947163D01*
X124197445Y-119789993D01*
X124193545Y-119657739D01*
X124189581Y-119557301D01*
X124186432Y-119504595D01*
X124173367Y-119387771D01*
X124154616Y-119277700D01*
X124133639Y-119193653D01*
X124127559Y-119176716D01*
X124101019Y-119119624D01*
X124068948Y-119075815D01*
X124024512Y-119043328D01*
X123960877Y-119020203D01*
X123871209Y-119004477D01*
X123748673Y-118994191D01*
X123586437Y-118987381D01*
X123455630Y-118983870D01*
X123300325Y-118979923D01*
X123158698Y-118975864D01*
X123040220Y-118972000D01*
X122954358Y-118968640D01*
X122911832Y-118966214D01*
X122844101Y-118959901D01*
X122873907Y-118520919D01*
X122885927Y-118315879D01*
X122887792Y-118155356D01*
X122874929Y-118033168D01*
X122842766Y-117943134D01*
X122786731Y-117879072D01*
X122702252Y-117834803D01*
X122584756Y-117804145D01*
X122429670Y-117780916D01*
X122316962Y-117768005D01*
X122214502Y-117759208D01*
X122080012Y-117751193D01*
X121920610Y-117744065D01*
X121743415Y-117737928D01*
X121555546Y-117732887D01*
X121364119Y-117729045D01*
X121176256Y-117726507D01*
X120999073Y-117725376D01*
X120839690Y-117725758D01*
X120705223Y-117727757D01*
X120602793Y-117731477D01*
X120539517Y-117737021D01*
X120522670Y-117741725D01*
X120517439Y-117771227D01*
X120514780Y-117843093D01*
X120514718Y-117948743D01*
X120517277Y-118079603D01*
X120521374Y-118200369D01*
X120526759Y-118353058D01*
X120530407Y-118494785D01*
X120532143Y-118614813D01*
X120531794Y-118702408D01*
X120530138Y-118739528D01*
X120502260Y-118856777D01*
X120440250Y-118944395D01*
X120339261Y-119006960D01*
X120204731Y-119046962D01*
X120159856Y-119052208D01*
X120074893Y-119058661D01*
X119960723Y-119065615D01*
X119828224Y-119072362D01*
X119780680Y-119074495D01*
X119616397Y-119082301D01*
X119494787Y-119094108D01*
X119408912Y-119116897D01*
X119351836Y-119157651D01*
X119316625Y-119223351D01*
X119296343Y-119320979D01*
X119284054Y-119457516D01*
X119016450Y-119434104D01*
X119017071Y-119378075D01*
X119017841Y-119332641D01*
X119021904Y-119189108D01*
X119027890Y-119063567D01*
X119035181Y-118964814D01*
X119043165Y-118901643D01*
X119049264Y-118882887D01*
X119090918Y-118869006D01*
X119177859Y-118855550D01*
X119304371Y-118842984D01*
X119464737Y-118831769D01*
X119653240Y-118822370D01*
X119864162Y-118815252D01*
X119892283Y-118814534D01*
X120299176Y-118804517D01*
X120294525Y-118700078D01*
X120292398Y-118638459D01*
X120289603Y-118537494D01*
X120286436Y-118408833D01*
X120283187Y-118264126D01*
X120281543Y-118185319D01*
X120278874Y-118029009D01*
X120278662Y-117914591D01*
X120281617Y-117832985D01*
X120288447Y-117775109D01*
X120299862Y-117731882D01*
X120316572Y-117694222D01*
X120320486Y-117686793D01*
X120352052Y-117639465D01*
X120394585Y-117599684D01*
X120452321Y-117566854D01*
X120529496Y-117540382D01*
X120630345Y-117519671D01*
X120759104Y-117504130D01*
X120920010Y-117493162D01*
X121117297Y-117486175D01*
X121355202Y-117482571D01*
X121637960Y-117481759D01*
X121778785Y-117482136D01*
X121977468Y-117483770D01*
X122176910Y-117486940D01*
X122365959Y-117491357D01*
X122533465Y-117496733D01*
X122668276Y-117502776D01*
X122732408Y-117506874D01*
X122857809Y-117517097D01*
X122942440Y-117526644D01*
G36*
X122942440Y-143446644D02*
G01*
X122996426Y-143458152D01*
X123029892Y-143474255D01*
X123052963Y-143497591D01*
X123064047Y-143513211D01*
X123086889Y-143560747D01*
X123096643Y-143624232D01*
X123094751Y-143717675D01*
X123090631Y-143771531D01*
X123079266Y-144002963D01*
X123089795Y-144191805D01*
X123123239Y-144342000D01*
X123180617Y-144457496D01*
X123262950Y-144542238D01*
X123295449Y-144563933D01*
X123339297Y-144588448D01*
X123384282Y-144607931D01*
X123438705Y-144624044D01*
X123510865Y-144638450D01*
X123609064Y-144652812D01*
X123741600Y-144668795D01*
X123912669Y-144687619D01*
X124086854Y-144706903D01*
X124216355Y-144722716D01*
X124307283Y-144736185D01*
X124365751Y-144748443D01*
X124397869Y-144760618D01*
X124409749Y-144773841D01*
X124410209Y-144779621D01*
X124410324Y-144811843D01*
X124411901Y-144890098D01*
X124414807Y-145009440D01*
X124418904Y-145164925D01*
X124424060Y-145351605D01*
X124430140Y-145564536D01*
X124437008Y-145798772D01*
X124444531Y-146049366D01*
X124446922Y-146127861D01*
X124454257Y-146381523D01*
X124460334Y-146619595D01*
X124465085Y-146837244D01*
X124468446Y-147029635D01*
X124470347Y-147191932D01*
X124470721Y-147319304D01*
X124469503Y-147406917D01*
X124466624Y-147449933D01*
X124465342Y-147453491D01*
X124434903Y-147458746D01*
X124360599Y-147465455D01*
X124249537Y-147473157D01*
X124108817Y-147481399D01*
X123945544Y-147489722D01*
X123801346Y-147496221D01*
X123626121Y-147503811D01*
X123468704Y-147510900D01*
X123335962Y-147517155D01*
X123234761Y-147522247D01*
X123171964Y-147525841D01*
X123153930Y-147527450D01*
X123153598Y-147552889D01*
X123155415Y-147622093D01*
X123159120Y-147727879D01*
X123164451Y-147863066D01*
X123171144Y-148020470D01*
X123175410Y-148116063D01*
X123182357Y-148284796D01*
X123187287Y-148437221D01*
X123190063Y-148565699D01*
X123190548Y-148662593D01*
X123188604Y-148720265D01*
X123186525Y-148732353D01*
X123153370Y-148748745D01*
X123072627Y-148764080D01*
X122947701Y-148778194D01*
X122781999Y-148790922D01*
X122578929Y-148802101D01*
X122341898Y-148811569D01*
X122074311Y-148819159D01*
X121779577Y-148824708D01*
X121461102Y-148828053D01*
X121175996Y-148829040D01*
X120998986Y-148829230D01*
X120831258Y-148829640D01*
X120682206Y-148830230D01*
X120561221Y-148830958D01*
X120477696Y-148831785D01*
X120455149Y-148832170D01*
X120323108Y-148835080D01*
X120319266Y-148711631D01*
X120318762Y-148647344D01*
X120319665Y-148542462D01*
X120321809Y-148407370D01*
X120325028Y-148252454D01*
X120329157Y-148088099D01*
X120329274Y-148083806D01*
X120333279Y-147886746D01*
X120333202Y-147737222D01*
X120329067Y-147636175D01*
X120320900Y-147584552D01*
X120315199Y-147577558D01*
X120282878Y-147576311D01*
X120206882Y-147573797D01*
X120094520Y-147570245D01*
X119953101Y-147565885D01*
X119789930Y-147560945D01*
X119662149Y-147557130D01*
X119489174Y-147551650D01*
X119333944Y-147546075D01*
X119203464Y-147540709D01*
X119104738Y-147535859D01*
X119044769Y-147531829D01*
X119029450Y-147529540D01*
X119027033Y-147502128D01*
X119024728Y-147429852D01*
X119022563Y-147318852D01*
X119020573Y-147175267D01*
X119018786Y-147005239D01*
X119017234Y-146814905D01*
X119015951Y-146610408D01*
X119014966Y-146397886D01*
X119014310Y-146183480D01*
X119014015Y-145973328D01*
X119014112Y-145773572D01*
X119014633Y-145590352D01*
X119015609Y-145429806D01*
X119016450Y-145354104D01*
X119284054Y-145377516D01*
X119276362Y-145502143D01*
X119274545Y-145563723D01*
X119273676Y-145666008D01*
X119273656Y-145801051D01*
X119274390Y-145960908D01*
X119275776Y-146137635D01*
X119277719Y-146323286D01*
X119280121Y-146509918D01*
X119282883Y-146689584D01*
X119285908Y-146854340D01*
X119289097Y-146996241D01*
X119292353Y-147107342D01*
X119295578Y-147179699D01*
X119297282Y-147199935D01*
X119304848Y-147258196D01*
X119914627Y-147311545D01*
X120105838Y-147328373D01*
X120252408Y-147341871D01*
X120360503Y-147353145D01*
X120436295Y-147363299D01*
X120485952Y-147373440D01*
X120515642Y-147384672D01*
X120531535Y-147398101D01*
X120539799Y-147414833D01*
X120542786Y-147424100D01*
X120550761Y-147470128D01*
X120560133Y-147556205D01*
X120569912Y-147671432D01*
X120579105Y-147804913D01*
X120582136Y-147856333D01*
X120593965Y-148049817D01*
X120606366Y-148199124D01*
X120621457Y-148311062D01*
X120641353Y-148392435D01*
X120668170Y-148450050D01*
X120704021Y-148490710D01*
X120751026Y-148521222D01*
X120795195Y-148541679D01*
X120855697Y-148557644D01*
X120956234Y-148570725D01*
X121098579Y-148580985D01*
X121284503Y-148588496D01*
X121515777Y-148593324D01*
X121794171Y-148595539D01*
X122121458Y-148595208D01*
X122177938Y-148594926D01*
X122366224Y-148593605D01*
X122537459Y-148591851D01*
X122685140Y-148589772D01*
X122802767Y-148587480D01*
X122883839Y-148585086D01*
X122921854Y-148582702D01*
X122923803Y-148582184D01*
X122927600Y-148555372D01*
X122932118Y-148484478D01*
X122937070Y-148376414D01*
X122942169Y-148238095D01*
X122947128Y-148076431D01*
X122950943Y-147928943D01*
X122955494Y-147753138D01*
X122960297Y-147594943D01*
X122965084Y-147461264D01*
X122969589Y-147359008D01*
X122973542Y-147295082D01*
X122976224Y-147276075D01*
X123003425Y-147274324D01*
X123074471Y-147273887D01*
X123182221Y-147274692D01*
X123319538Y-147276666D01*
X123479279Y-147279737D01*
X123594472Y-147282352D01*
X123765031Y-147286209D01*
X123917779Y-147289197D01*
X124045608Y-147291213D01*
X124141409Y-147292160D01*
X124198076Y-147291934D01*
X124210604Y-147291080D01*
X124213301Y-147264289D01*
X124214950Y-147193407D01*
X124215641Y-147085335D01*
X124215466Y-146946975D01*
X124214512Y-146785224D01*
X124212868Y-146606985D01*
X124210625Y-146419160D01*
X124207872Y-146228647D01*
X124204698Y-146042348D01*
X124201193Y-145867163D01*
X124197445Y-145709993D01*
X124193545Y-145577739D01*
X124189581Y-145477301D01*
X124186432Y-145424595D01*
X124173367Y-145307771D01*
X124154616Y-145197700D01*
X124133639Y-145113653D01*
X124127559Y-145096716D01*
X124101019Y-145039624D01*
X124068948Y-144995815D01*
X124024512Y-144963328D01*
X123960877Y-144940203D01*
X123871209Y-144924477D01*
X123748673Y-144914191D01*
X123586437Y-144907381D01*
X123455630Y-144903870D01*
X123300325Y-144899923D01*
X123158698Y-144895864D01*
X123040220Y-144892000D01*
X122954358Y-144888640D01*
X122911832Y-144886214D01*
X122844101Y-144879901D01*
X122873907Y-144440919D01*
X122885927Y-144235879D01*
X122887792Y-144075356D01*
X122874929Y-143953168D01*
X122842766Y-143863134D01*
X122786731Y-143799072D01*
X122702252Y-143754803D01*
X122584756Y-143724145D01*
X122429670Y-143700916D01*
X122316962Y-143688005D01*
X122214502Y-143679208D01*
X122080012Y-143671193D01*
X121920610Y-143664065D01*
X121743415Y-143657928D01*
X121555546Y-143652887D01*
X121364119Y-143649045D01*
X121176256Y-143646507D01*
X120999073Y-143645376D01*
X120839690Y-143645758D01*
X120705223Y-143647757D01*
X120602793Y-143651477D01*
X120539517Y-143657021D01*
X120522670Y-143661725D01*
X120517439Y-143691227D01*
X120514780Y-143763093D01*
X120514718Y-143868743D01*
X120517277Y-143999603D01*
X120521374Y-144120369D01*
X120526759Y-144273058D01*
X120530407Y-144414785D01*
X120532143Y-144534813D01*
X120531794Y-144622408D01*
X120530138Y-144659528D01*
X120502260Y-144776777D01*
X120440250Y-144864395D01*
X120339261Y-144926960D01*
X120204731Y-144966962D01*
X120159856Y-144972208D01*
X120074893Y-144978661D01*
X119960723Y-144985615D01*
X119828224Y-144992362D01*
X119780680Y-144994495D01*
X119616397Y-145002301D01*
X119494787Y-145014108D01*
X119408912Y-145036897D01*
X119351836Y-145077651D01*
X119316625Y-145143351D01*
X119296343Y-145240979D01*
X119284054Y-145377516D01*
X119016450Y-145354104D01*
X119017071Y-145298075D01*
X119017841Y-145252641D01*
X119021904Y-145109108D01*
X119027890Y-144983567D01*
X119035181Y-144884814D01*
X119043165Y-144821643D01*
X119049264Y-144802887D01*
X119090918Y-144789006D01*
X119177859Y-144775550D01*
X119304371Y-144762984D01*
X119464737Y-144751769D01*
X119653240Y-144742370D01*
X119864162Y-144735252D01*
X119892283Y-144734534D01*
X120299176Y-144724517D01*
X120294525Y-144620078D01*
X120292398Y-144558459D01*
X120289603Y-144457494D01*
X120286436Y-144328833D01*
X120283187Y-144184126D01*
X120281543Y-144105319D01*
X120278874Y-143949009D01*
X120278662Y-143834591D01*
X120281617Y-143752985D01*
X120288447Y-143695109D01*
X120299862Y-143651882D01*
X120316572Y-143614222D01*
X120320486Y-143606793D01*
X120352052Y-143559465D01*
X120394585Y-143519684D01*
X120452321Y-143486854D01*
X120529496Y-143460382D01*
X120630345Y-143439671D01*
X120759104Y-143424130D01*
X120920010Y-143413162D01*
X121117297Y-143406175D01*
X121355202Y-143402571D01*
X121637960Y-143401759D01*
X121778785Y-143402136D01*
X121977468Y-143403770D01*
X122176910Y-143406940D01*
X122365959Y-143411357D01*
X122533465Y-143416733D01*
X122668276Y-143422776D01*
X122732408Y-143426874D01*
X122857809Y-143437097D01*
X122942440Y-143446644D01*
G37*
X122942440Y-143446644D02*
X122996426Y-143458152D01*
X123029892Y-143474255D01*
X123052963Y-143497591D01*
X123064047Y-143513211D01*
X123086889Y-143560747D01*
X123096643Y-143624232D01*
X123094751Y-143717675D01*
X123090631Y-143771531D01*
X123079266Y-144002963D01*
X123089795Y-144191805D01*
X123123239Y-144342000D01*
X123180617Y-144457496D01*
X123262950Y-144542238D01*
X123295449Y-144563933D01*
X123339297Y-144588448D01*
X123384282Y-144607931D01*
X123438705Y-144624044D01*
X123510865Y-144638450D01*
X123609064Y-144652812D01*
X123741600Y-144668795D01*
X123912669Y-144687619D01*
X124086854Y-144706903D01*
X124216355Y-144722716D01*
X124307283Y-144736185D01*
X124365751Y-144748443D01*
X124397869Y-144760618D01*
X124409749Y-144773841D01*
X124410209Y-144779621D01*
X124410324Y-144811843D01*
X124411901Y-144890098D01*
X124414807Y-145009440D01*
X124418904Y-145164925D01*
X124424060Y-145351605D01*
X124430140Y-145564536D01*
X124437008Y-145798772D01*
X124444531Y-146049366D01*
X124446922Y-146127861D01*
X124454257Y-146381523D01*
X124460334Y-146619595D01*
X124465085Y-146837244D01*
X124468446Y-147029635D01*
X124470347Y-147191932D01*
X124470721Y-147319304D01*
X124469503Y-147406917D01*
X124466624Y-147449933D01*
X124465342Y-147453491D01*
X124434903Y-147458746D01*
X124360599Y-147465455D01*
X124249537Y-147473157D01*
X124108817Y-147481399D01*
X123945544Y-147489722D01*
X123801346Y-147496221D01*
X123626121Y-147503811D01*
X123468704Y-147510900D01*
X123335962Y-147517155D01*
X123234761Y-147522247D01*
X123171964Y-147525841D01*
X123153930Y-147527450D01*
X123153598Y-147552889D01*
X123155415Y-147622093D01*
X123159120Y-147727879D01*
X123164451Y-147863066D01*
X123171144Y-148020470D01*
X123175410Y-148116063D01*
X123182357Y-148284796D01*
X123187287Y-148437221D01*
X123190063Y-148565699D01*
X123190548Y-148662593D01*
X123188604Y-148720265D01*
X123186525Y-148732353D01*
X123153370Y-148748745D01*
X123072627Y-148764080D01*
X122947701Y-148778194D01*
X122781999Y-148790922D01*
X122578929Y-148802101D01*
X122341898Y-148811569D01*
X122074311Y-148819159D01*
X121779577Y-148824708D01*
X121461102Y-148828053D01*
X121175996Y-148829040D01*
X120998986Y-148829230D01*
X120831258Y-148829640D01*
X120682206Y-148830230D01*
X120561221Y-148830958D01*
X120477696Y-148831785D01*
X120455149Y-148832170D01*
X120323108Y-148835080D01*
X120319266Y-148711631D01*
X120318762Y-148647344D01*
X120319665Y-148542462D01*
X120321809Y-148407370D01*
X120325028Y-148252454D01*
X120329157Y-148088099D01*
X120329274Y-148083806D01*
X120333279Y-147886746D01*
X120333202Y-147737222D01*
X120329067Y-147636175D01*
X120320900Y-147584552D01*
X120315199Y-147577558D01*
X120282878Y-147576311D01*
X120206882Y-147573797D01*
X120094520Y-147570245D01*
X119953101Y-147565885D01*
X119789930Y-147560945D01*
X119662149Y-147557130D01*
X119489174Y-147551650D01*
X119333944Y-147546075D01*
X119203464Y-147540709D01*
X119104738Y-147535859D01*
X119044769Y-147531829D01*
X119029450Y-147529540D01*
X119027033Y-147502128D01*
X119024728Y-147429852D01*
X119022563Y-147318852D01*
X119020573Y-147175267D01*
X119018786Y-147005239D01*
X119017234Y-146814905D01*
X119015951Y-146610408D01*
X119014966Y-146397886D01*
X119014310Y-146183480D01*
X119014015Y-145973328D01*
X119014112Y-145773572D01*
X119014633Y-145590352D01*
X119015609Y-145429806D01*
X119016450Y-145354104D01*
X119284054Y-145377516D01*
X119276362Y-145502143D01*
X119274545Y-145563723D01*
X119273676Y-145666008D01*
X119273656Y-145801051D01*
X119274390Y-145960908D01*
X119275776Y-146137635D01*
X119277719Y-146323286D01*
X119280121Y-146509918D01*
X119282883Y-146689584D01*
X119285908Y-146854340D01*
X119289097Y-146996241D01*
X119292353Y-147107342D01*
X119295578Y-147179699D01*
X119297282Y-147199935D01*
X119304848Y-147258196D01*
X119914627Y-147311545D01*
X120105838Y-147328373D01*
X120252408Y-147341871D01*
X120360503Y-147353145D01*
X120436295Y-147363299D01*
X120485952Y-147373440D01*
X120515642Y-147384672D01*
X120531535Y-147398101D01*
X120539799Y-147414833D01*
X120542786Y-147424100D01*
X120550761Y-147470128D01*
X120560133Y-147556205D01*
X120569912Y-147671432D01*
X120579105Y-147804913D01*
X120582136Y-147856333D01*
X120593965Y-148049817D01*
X120606366Y-148199124D01*
X120621457Y-148311062D01*
X120641353Y-148392435D01*
X120668170Y-148450050D01*
X120704021Y-148490710D01*
X120751026Y-148521222D01*
X120795195Y-148541679D01*
X120855697Y-148557644D01*
X120956234Y-148570725D01*
X121098579Y-148580985D01*
X121284503Y-148588496D01*
X121515777Y-148593324D01*
X121794171Y-148595539D01*
X122121458Y-148595208D01*
X122177938Y-148594926D01*
X122366224Y-148593605D01*
X122537459Y-148591851D01*
X122685140Y-148589772D01*
X122802767Y-148587480D01*
X122883839Y-148585086D01*
X122921854Y-148582702D01*
X122923803Y-148582184D01*
X122927600Y-148555372D01*
X122932118Y-148484478D01*
X122937070Y-148376414D01*
X122942169Y-148238095D01*
X122947128Y-148076431D01*
X122950943Y-147928943D01*
X122955494Y-147753138D01*
X122960297Y-147594943D01*
X122965084Y-147461264D01*
X122969589Y-147359008D01*
X122973542Y-147295082D01*
X122976224Y-147276075D01*
X123003425Y-147274324D01*
X123074471Y-147273887D01*
X123182221Y-147274692D01*
X123319538Y-147276666D01*
X123479279Y-147279737D01*
X123594472Y-147282352D01*
X123765031Y-147286209D01*
X123917779Y-147289197D01*
X124045608Y-147291213D01*
X124141409Y-147292160D01*
X124198076Y-147291934D01*
X124210604Y-147291080D01*
X124213301Y-147264289D01*
X124214950Y-147193407D01*
X124215641Y-147085335D01*
X124215466Y-146946975D01*
X124214512Y-146785224D01*
X124212868Y-146606985D01*
X124210625Y-146419160D01*
X124207872Y-146228647D01*
X124204698Y-146042348D01*
X124201193Y-145867163D01*
X124197445Y-145709993D01*
X124193545Y-145577739D01*
X124189581Y-145477301D01*
X124186432Y-145424595D01*
X124173367Y-145307771D01*
X124154616Y-145197700D01*
X124133639Y-145113653D01*
X124127559Y-145096716D01*
X124101019Y-145039624D01*
X124068948Y-144995815D01*
X124024512Y-144963328D01*
X123960877Y-144940203D01*
X123871209Y-144924477D01*
X123748673Y-144914191D01*
X123586437Y-144907381D01*
X123455630Y-144903870D01*
X123300325Y-144899923D01*
X123158698Y-144895864D01*
X123040220Y-144892000D01*
X122954358Y-144888640D01*
X122911832Y-144886214D01*
X122844101Y-144879901D01*
X122873907Y-144440919D01*
X122885927Y-144235879D01*
X122887792Y-144075356D01*
X122874929Y-143953168D01*
X122842766Y-143863134D01*
X122786731Y-143799072D01*
X122702252Y-143754803D01*
X122584756Y-143724145D01*
X122429670Y-143700916D01*
X122316962Y-143688005D01*
X122214502Y-143679208D01*
X122080012Y-143671193D01*
X121920610Y-143664065D01*
X121743415Y-143657928D01*
X121555546Y-143652887D01*
X121364119Y-143649045D01*
X121176256Y-143646507D01*
X120999073Y-143645376D01*
X120839690Y-143645758D01*
X120705223Y-143647757D01*
X120602793Y-143651477D01*
X120539517Y-143657021D01*
X120522670Y-143661725D01*
X120517439Y-143691227D01*
X120514780Y-143763093D01*
X120514718Y-143868743D01*
X120517277Y-143999603D01*
X120521374Y-144120369D01*
X120526759Y-144273058D01*
X120530407Y-144414785D01*
X120532143Y-144534813D01*
X120531794Y-144622408D01*
X120530138Y-144659528D01*
X120502260Y-144776777D01*
X120440250Y-144864395D01*
X120339261Y-144926960D01*
X120204731Y-144966962D01*
X120159856Y-144972208D01*
X120074893Y-144978661D01*
X119960723Y-144985615D01*
X119828224Y-144992362D01*
X119780680Y-144994495D01*
X119616397Y-145002301D01*
X119494787Y-145014108D01*
X119408912Y-145036897D01*
X119351836Y-145077651D01*
X119316625Y-145143351D01*
X119296343Y-145240979D01*
X119284054Y-145377516D01*
X119016450Y-145354104D01*
X119017071Y-145298075D01*
X119017841Y-145252641D01*
X119021904Y-145109108D01*
X119027890Y-144983567D01*
X119035181Y-144884814D01*
X119043165Y-144821643D01*
X119049264Y-144802887D01*
X119090918Y-144789006D01*
X119177859Y-144775550D01*
X119304371Y-144762984D01*
X119464737Y-144751769D01*
X119653240Y-144742370D01*
X119864162Y-144735252D01*
X119892283Y-144734534D01*
X120299176Y-144724517D01*
X120294525Y-144620078D01*
X120292398Y-144558459D01*
X120289603Y-144457494D01*
X120286436Y-144328833D01*
X120283187Y-144184126D01*
X120281543Y-144105319D01*
X120278874Y-143949009D01*
X120278662Y-143834591D01*
X120281617Y-143752985D01*
X120288447Y-143695109D01*
X120299862Y-143651882D01*
X120316572Y-143614222D01*
X120320486Y-143606793D01*
X120352052Y-143559465D01*
X120394585Y-143519684D01*
X120452321Y-143486854D01*
X120529496Y-143460382D01*
X120630345Y-143439671D01*
X120759104Y-143424130D01*
X120920010Y-143413162D01*
X121117297Y-143406175D01*
X121355202Y-143402571D01*
X121637960Y-143401759D01*
X121778785Y-143402136D01*
X121977468Y-143403770D01*
X122176910Y-143406940D01*
X122365959Y-143411357D01*
X122533465Y-143416733D01*
X122668276Y-143422776D01*
X122732408Y-143426874D01*
X122857809Y-143437097D01*
X122942440Y-143446644D01*
G36*
X120863421Y-130414094D02*
G01*
X120932720Y-130416168D01*
X120937558Y-130417614D01*
X121015915Y-130459280D01*
X121117862Y-130541155D01*
X121240089Y-130660114D01*
X121379284Y-130813033D01*
X121469749Y-130920002D01*
X121684424Y-131180120D01*
X121731051Y-131126430D01*
X121804779Y-131046795D01*
X121905876Y-130944689D01*
X122023044Y-130830902D01*
X122144987Y-130716225D01*
X122260410Y-130611446D01*
X122358014Y-130527360D01*
X122359529Y-130526110D01*
X122475517Y-130435822D01*
X122562370Y-130381417D01*
X122624919Y-130360732D01*
X122668000Y-130371604D01*
X122679689Y-130382845D01*
X122698753Y-130432302D01*
X122715335Y-130529429D01*
X122729178Y-130670940D01*
X122740023Y-130853545D01*
X122747610Y-131073962D01*
X122751358Y-131293753D01*
X122755662Y-131553221D01*
X122762789Y-131762063D01*
X122772761Y-131920579D01*
X122785600Y-132029070D01*
X122801328Y-132087836D01*
X122809827Y-132098424D01*
X122842190Y-132102528D01*
X122915396Y-132105021D01*
X123019304Y-132105746D01*
X123143774Y-132104550D01*
X123173113Y-132104008D01*
X123416889Y-132101148D01*
X123649025Y-132102293D01*
X123864302Y-132107122D01*
X124057503Y-132115318D01*
X124223409Y-132126560D01*
X124356801Y-132140529D01*
X124452465Y-132156907D01*
X124505180Y-132175372D01*
X124513949Y-132186082D01*
X124500657Y-132234660D01*
X124454121Y-132315750D01*
X124377116Y-132425747D01*
X124272413Y-132561051D01*
X124142785Y-132718055D01*
X123991005Y-132893157D01*
X123845389Y-133054907D01*
X123760617Y-133147571D01*
X123863465Y-133248448D01*
X124079700Y-133464028D01*
X124258459Y-133649767D01*
X124399393Y-133805246D01*
X124502152Y-133930047D01*
X124566387Y-134023749D01*
X124591748Y-134085935D01*
X124584035Y-134112529D01*
X124543132Y-134128474D01*
X124459725Y-134143109D01*
X124332200Y-134156564D01*
X124158941Y-134168975D01*
X123938333Y-134180471D01*
X123668760Y-134191186D01*
X123590469Y-134193860D01*
X123413274Y-134200403D01*
X123248122Y-134207754D01*
X123103495Y-134215437D01*
X122987879Y-134222975D01*
X122909755Y-134229893D01*
X122884676Y-134233492D01*
X122790048Y-134252863D01*
X122785417Y-134388879D01*
X122784342Y-134455908D01*
X122784035Y-134563803D01*
X122784461Y-134702432D01*
X122785584Y-134861665D01*
X122787370Y-135031369D01*
X122787787Y-135064446D01*
X122790084Y-135323647D01*
X122789528Y-135534527D01*
X122786013Y-135699695D01*
X122779430Y-135821761D01*
X122769672Y-135903331D01*
X122756631Y-135947017D01*
X122751138Y-135953951D01*
X122714050Y-135958008D01*
X122656170Y-135941772D01*
X122654851Y-135941213D01*
X122576857Y-135896429D01*
X122465413Y-135814721D01*
X122321447Y-135696838D01*
X122145890Y-135543531D01*
X122013967Y-135424041D01*
X121918882Y-135337603D01*
X121837651Y-135265110D01*
X121777393Y-135212810D01*
X121745219Y-135186949D01*
X121742045Y-135185278D01*
X121720841Y-135202379D01*
X121671190Y-135249078D01*
X121600259Y-135318460D01*
X121515217Y-135403611D01*
X121505548Y-135413401D01*
X121389670Y-135527431D01*
X121268033Y-135641205D01*
X121147436Y-135748964D01*
X121034676Y-135844951D01*
X120936551Y-135923407D01*
X120859859Y-135978574D01*
X120811397Y-136004693D01*
X120806127Y-136005875D01*
X120783630Y-135995575D01*
X120764834Y-135956619D01*
X120749546Y-135886135D01*
X120737577Y-135781254D01*
X120728733Y-135639109D01*
X120722825Y-135456830D01*
X120719661Y-135231546D01*
X120719047Y-134960392D01*
X120720199Y-134717875D01*
X120723630Y-134233952D01*
X120164193Y-134217769D01*
X119870118Y-134208219D01*
X119623833Y-134197402D01*
X119422122Y-134184370D01*
X119261770Y-134168183D01*
X119139564Y-134147896D01*
X119129939Y-134145102D01*
X119405034Y-133918331D01*
X119428473Y-133925436D01*
X119496735Y-133933133D01*
X119603648Y-133941051D01*
X119743037Y-133948816D01*
X119908733Y-133956056D01*
X120094562Y-133962398D01*
X120170205Y-133964522D01*
X120363357Y-133969916D01*
X120539852Y-133975398D01*
X120693292Y-133980727D01*
X120817278Y-133985660D01*
X120905413Y-133989954D01*
X120951300Y-133993367D01*
X120956274Y-133994349D01*
X120959905Y-134021221D01*
X120962221Y-134092898D01*
X120963222Y-134203201D01*
X120962908Y-134345947D01*
X120961277Y-134514956D01*
X120958331Y-134704045D01*
X120956327Y-134805982D01*
X120952533Y-135002441D01*
X120949722Y-135181537D01*
X120947937Y-135337175D01*
X120947224Y-135463258D01*
X120947626Y-135553690D01*
X120949189Y-135602377D01*
X120950465Y-135609172D01*
X120971382Y-135592647D01*
X121022906Y-135546055D01*
X121099113Y-135474926D01*
X121194080Y-135384787D01*
X121300562Y-135282444D01*
X121412779Y-135174403D01*
X121516333Y-135075504D01*
X121604071Y-134992519D01*
X121668839Y-134932216D01*
X121701600Y-134902916D01*
X121763541Y-134851177D01*
X121901986Y-134993186D01*
X122079354Y-135170868D01*
X122225667Y-135308185D01*
X122340984Y-135405186D01*
X122425368Y-135461920D01*
X122478877Y-135478436D01*
X122492271Y-135473299D01*
X122505783Y-135439825D01*
X122519233Y-135369881D01*
X122529914Y-135277934D01*
X122530725Y-135268089D01*
X122536149Y-135172881D01*
X122540689Y-135042305D01*
X122543933Y-134891997D01*
X122545474Y-134737592D01*
X122545545Y-134702289D01*
X122548434Y-134474065D01*
X122557175Y-134293747D01*
X122572103Y-134158539D01*
X122593549Y-134065642D01*
X122621845Y-134012261D01*
X122628229Y-134006184D01*
X122650129Y-133990326D01*
X122677263Y-133977419D01*
X122715716Y-133966768D01*
X122771574Y-133957674D01*
X122850922Y-133949439D01*
X122959846Y-133941365D01*
X123104429Y-133932754D01*
X123290759Y-133922909D01*
X123404512Y-133917153D01*
X123575626Y-133908275D01*
X123729055Y-133899766D01*
X123857700Y-133892067D01*
X123954460Y-133885614D01*
X124012237Y-133880848D01*
X124025648Y-133878783D01*
X124013057Y-133857762D01*
X123972538Y-133803564D01*
X123908808Y-133722198D01*
X123826588Y-133619672D01*
X123730597Y-133501993D01*
X123710816Y-133477960D01*
X123386707Y-133084784D01*
X123804470Y-132731500D01*
X124222233Y-132378216D01*
X123392938Y-132354498D01*
X123140105Y-132346396D01*
X122935791Y-132337861D01*
X122777509Y-132328707D01*
X122662772Y-132318747D01*
X122589097Y-132307794D01*
X122553995Y-132295663D01*
X122550396Y-132291206D01*
X122538600Y-132229899D01*
X122528511Y-132127886D01*
X122520384Y-131995445D01*
X122514480Y-131842856D01*
X122511058Y-131680396D01*
X122510378Y-131518343D01*
X122512695Y-131366975D01*
X122518272Y-131236570D01*
X122522450Y-131181477D01*
X122535173Y-131035357D01*
X122539716Y-130929810D01*
X122531613Y-130863663D01*
X122506402Y-130835742D01*
X122459618Y-130844877D01*
X122386796Y-130889894D01*
X122283471Y-130969618D01*
X122145646Y-131082494D01*
X122014610Y-131189702D01*
X121915297Y-131267466D01*
X121840460Y-131319248D01*
X121782851Y-131348511D01*
X121735224Y-131358717D01*
X121690333Y-131353328D01*
X121640931Y-131335806D01*
X121627394Y-131330093D01*
X121585010Y-131304444D01*
X121511765Y-131252330D01*
X121415957Y-131179968D01*
X121305883Y-131093573D01*
X121231038Y-131033180D01*
X121122531Y-130946229D01*
X121029052Y-130874311D01*
X120957023Y-130822125D01*
X120912869Y-130794370D01*
X120901909Y-130792470D01*
X120902799Y-130826177D01*
X120905837Y-130901386D01*
X120910610Y-131008658D01*
X120916703Y-131138553D01*
X120920486Y-131216619D01*
X120931594Y-131487062D01*
X120936850Y-131722870D01*
X120936282Y-131920356D01*
X120929924Y-132075832D01*
X120917806Y-132185611D01*
X120912173Y-132212701D01*
X120893586Y-132275614D01*
X120867853Y-132307649D01*
X120816826Y-132326747D01*
X120789830Y-132333645D01*
X120689624Y-132351096D01*
X120542875Y-132365643D01*
X120353973Y-132377049D01*
X120127307Y-132385077D01*
X119867267Y-132389489D01*
X119741925Y-132390229D01*
X119597811Y-132391088D01*
X119473146Y-132392715D01*
X119376135Y-132394933D01*
X119314983Y-132397562D01*
X119297327Y-132399972D01*
X119314259Y-132419723D01*
X119362012Y-132469970D01*
X119435249Y-132545238D01*
X119528631Y-132640052D01*
X119636822Y-132748937D01*
X119666097Y-132778255D01*
X119777295Y-132890895D01*
X119874722Y-132992255D01*
X119953049Y-133076571D01*
X120006949Y-133138074D01*
X120031092Y-133171000D01*
X120031862Y-133174036D01*
X120014366Y-133200549D01*
X119968094Y-133258333D01*
X119898532Y-133340869D01*
X119811165Y-133441644D01*
X119718525Y-133546263D01*
X119619491Y-133658162D01*
X119533136Y-133757882D01*
X119464948Y-133838908D01*
X119420415Y-133894729D01*
X119405034Y-133918331D01*
X119129939Y-134145102D01*
X119052289Y-134122567D01*
X118996731Y-134091250D01*
X118969676Y-134053004D01*
X118967908Y-134006883D01*
X118988214Y-133951946D01*
X119027378Y-133887248D01*
X119029171Y-133884619D01*
X119075534Y-133825591D01*
X119149986Y-133740796D01*
X119243798Y-133639760D01*
X119348240Y-133532009D01*
X119397033Y-133483223D01*
X119495023Y-133385552D01*
X119578909Y-133300545D01*
X119642526Y-133234562D01*
X119679707Y-133193964D01*
X119686780Y-133184325D01*
X119670578Y-133162107D01*
X119625075Y-133109923D01*
X119556374Y-133034524D01*
X119470576Y-132942661D01*
X119424549Y-132894110D01*
X119271879Y-132728656D01*
X119144889Y-132580359D01*
X119045877Y-132452472D01*
X118977141Y-132348244D01*
X118940982Y-132270924D01*
X118939697Y-132223763D01*
X118945451Y-132216768D01*
X118988708Y-132200987D01*
X119079687Y-132185979D01*
X119219118Y-132171675D01*
X119407734Y-132158008D01*
X119646264Y-132144907D01*
X119781059Y-132138698D01*
X119945207Y-132131015D01*
X120099030Y-132122865D01*
X120232554Y-132114850D01*
X120335800Y-132107572D01*
X120398794Y-132101633D01*
X120401578Y-132101264D01*
X120496958Y-132078595D01*
X120582481Y-132041874D01*
X120643419Y-131998681D01*
X120664247Y-131966103D01*
X120666666Y-131929780D01*
X120668026Y-131852966D01*
X120668254Y-131746169D01*
X120667274Y-131619891D01*
X120666894Y-131590913D01*
X120666550Y-131284318D01*
X120675085Y-131026461D01*
X120692854Y-130815796D01*
X120720215Y-130650775D01*
X120757525Y-130529850D01*
X120805141Y-130451472D01*
X120863421Y-130414094D01*
G37*
X120863421Y-130414094D02*
X120932720Y-130416168D01*
X120937558Y-130417614D01*
X121015915Y-130459280D01*
X121117862Y-130541155D01*
X121240089Y-130660114D01*
X121379284Y-130813033D01*
X121469749Y-130920002D01*
X121684424Y-131180120D01*
X121731051Y-131126430D01*
X121804779Y-131046795D01*
X121905876Y-130944689D01*
X122023044Y-130830902D01*
X122144987Y-130716225D01*
X122260410Y-130611446D01*
X122358014Y-130527360D01*
X122359529Y-130526110D01*
X122475517Y-130435822D01*
X122562370Y-130381417D01*
X122624919Y-130360732D01*
X122668000Y-130371604D01*
X122679689Y-130382845D01*
X122698753Y-130432302D01*
X122715335Y-130529429D01*
X122729178Y-130670940D01*
X122740023Y-130853545D01*
X122747610Y-131073962D01*
X122751358Y-131293753D01*
X122755662Y-131553221D01*
X122762789Y-131762063D01*
X122772761Y-131920579D01*
X122785600Y-132029070D01*
X122801328Y-132087836D01*
X122809827Y-132098424D01*
X122842190Y-132102528D01*
X122915396Y-132105021D01*
X123019304Y-132105746D01*
X123143774Y-132104550D01*
X123173113Y-132104008D01*
X123416889Y-132101148D01*
X123649025Y-132102293D01*
X123864302Y-132107122D01*
X124057503Y-132115318D01*
X124223409Y-132126560D01*
X124356801Y-132140529D01*
X124452465Y-132156907D01*
X124505180Y-132175372D01*
X124513949Y-132186082D01*
X124500657Y-132234660D01*
X124454121Y-132315750D01*
X124377116Y-132425747D01*
X124272413Y-132561051D01*
X124142785Y-132718055D01*
X123991005Y-132893157D01*
X123845389Y-133054907D01*
X123760617Y-133147571D01*
X123863465Y-133248448D01*
X124079700Y-133464028D01*
X124258459Y-133649767D01*
X124399393Y-133805246D01*
X124502152Y-133930047D01*
X124566387Y-134023749D01*
X124591748Y-134085935D01*
X124584035Y-134112529D01*
X124543132Y-134128474D01*
X124459725Y-134143109D01*
X124332200Y-134156564D01*
X124158941Y-134168975D01*
X123938333Y-134180471D01*
X123668760Y-134191186D01*
X123590469Y-134193860D01*
X123413274Y-134200403D01*
X123248122Y-134207754D01*
X123103495Y-134215437D01*
X122987879Y-134222975D01*
X122909755Y-134229893D01*
X122884676Y-134233492D01*
X122790048Y-134252863D01*
X122785417Y-134388879D01*
X122784342Y-134455908D01*
X122784035Y-134563803D01*
X122784461Y-134702432D01*
X122785584Y-134861665D01*
X122787370Y-135031369D01*
X122787787Y-135064446D01*
X122790084Y-135323647D01*
X122789528Y-135534527D01*
X122786013Y-135699695D01*
X122779430Y-135821761D01*
X122769672Y-135903331D01*
X122756631Y-135947017D01*
X122751138Y-135953951D01*
X122714050Y-135958008D01*
X122656170Y-135941772D01*
X122654851Y-135941213D01*
X122576857Y-135896429D01*
X122465413Y-135814721D01*
X122321447Y-135696838D01*
X122145890Y-135543531D01*
X122013967Y-135424041D01*
X121918882Y-135337603D01*
X121837651Y-135265110D01*
X121777393Y-135212810D01*
X121745219Y-135186949D01*
X121742045Y-135185278D01*
X121720841Y-135202379D01*
X121671190Y-135249078D01*
X121600259Y-135318460D01*
X121515217Y-135403611D01*
X121505548Y-135413401D01*
X121389670Y-135527431D01*
X121268033Y-135641205D01*
X121147436Y-135748964D01*
X121034676Y-135844951D01*
X120936551Y-135923407D01*
X120859859Y-135978574D01*
X120811397Y-136004693D01*
X120806127Y-136005875D01*
X120783630Y-135995575D01*
X120764834Y-135956619D01*
X120749546Y-135886135D01*
X120737577Y-135781254D01*
X120728733Y-135639109D01*
X120722825Y-135456830D01*
X120719661Y-135231546D01*
X120719047Y-134960392D01*
X120720199Y-134717875D01*
X120723630Y-134233952D01*
X120164193Y-134217769D01*
X119870118Y-134208219D01*
X119623833Y-134197402D01*
X119422122Y-134184370D01*
X119261770Y-134168183D01*
X119139564Y-134147896D01*
X119129939Y-134145102D01*
X119405034Y-133918331D01*
X119428473Y-133925436D01*
X119496735Y-133933133D01*
X119603648Y-133941051D01*
X119743037Y-133948816D01*
X119908733Y-133956056D01*
X120094562Y-133962398D01*
X120170205Y-133964522D01*
X120363357Y-133969916D01*
X120539852Y-133975398D01*
X120693292Y-133980727D01*
X120817278Y-133985660D01*
X120905413Y-133989954D01*
X120951300Y-133993367D01*
X120956274Y-133994349D01*
X120959905Y-134021221D01*
X120962221Y-134092898D01*
X120963222Y-134203201D01*
X120962908Y-134345947D01*
X120961277Y-134514956D01*
X120958331Y-134704045D01*
X120956327Y-134805982D01*
X120952533Y-135002441D01*
X120949722Y-135181537D01*
X120947937Y-135337175D01*
X120947224Y-135463258D01*
X120947626Y-135553690D01*
X120949189Y-135602377D01*
X120950465Y-135609172D01*
X120971382Y-135592647D01*
X121022906Y-135546055D01*
X121099113Y-135474926D01*
X121194080Y-135384787D01*
X121300562Y-135282444D01*
X121412779Y-135174403D01*
X121516333Y-135075504D01*
X121604071Y-134992519D01*
X121668839Y-134932216D01*
X121701600Y-134902916D01*
X121763541Y-134851177D01*
X121901986Y-134993186D01*
X122079354Y-135170868D01*
X122225667Y-135308185D01*
X122340984Y-135405186D01*
X122425368Y-135461920D01*
X122478877Y-135478436D01*
X122492271Y-135473299D01*
X122505783Y-135439825D01*
X122519233Y-135369881D01*
X122529914Y-135277934D01*
X122530725Y-135268089D01*
X122536149Y-135172881D01*
X122540689Y-135042305D01*
X122543933Y-134891997D01*
X122545474Y-134737592D01*
X122545545Y-134702289D01*
X122548434Y-134474065D01*
X122557175Y-134293747D01*
X122572103Y-134158539D01*
X122593549Y-134065642D01*
X122621845Y-134012261D01*
X122628229Y-134006184D01*
X122650129Y-133990326D01*
X122677263Y-133977419D01*
X122715716Y-133966768D01*
X122771574Y-133957674D01*
X122850922Y-133949439D01*
X122959846Y-133941365D01*
X123104429Y-133932754D01*
X123290759Y-133922909D01*
X123404512Y-133917153D01*
X123575626Y-133908275D01*
X123729055Y-133899766D01*
X123857700Y-133892067D01*
X123954460Y-133885614D01*
X124012237Y-133880848D01*
X124025648Y-133878783D01*
X124013057Y-133857762D01*
X123972538Y-133803564D01*
X123908808Y-133722198D01*
X123826588Y-133619672D01*
X123730597Y-133501993D01*
X123710816Y-133477960D01*
X123386707Y-133084784D01*
X123804470Y-132731500D01*
X124222233Y-132378216D01*
X123392938Y-132354498D01*
X123140105Y-132346396D01*
X122935791Y-132337861D01*
X122777509Y-132328707D01*
X122662772Y-132318747D01*
X122589097Y-132307794D01*
X122553995Y-132295663D01*
X122550396Y-132291206D01*
X122538600Y-132229899D01*
X122528511Y-132127886D01*
X122520384Y-131995445D01*
X122514480Y-131842856D01*
X122511058Y-131680396D01*
X122510378Y-131518343D01*
X122512695Y-131366975D01*
X122518272Y-131236570D01*
X122522450Y-131181477D01*
X122535173Y-131035357D01*
X122539716Y-130929810D01*
X122531613Y-130863663D01*
X122506402Y-130835742D01*
X122459618Y-130844877D01*
X122386796Y-130889894D01*
X122283471Y-130969618D01*
X122145646Y-131082494D01*
X122014610Y-131189702D01*
X121915297Y-131267466D01*
X121840460Y-131319248D01*
X121782851Y-131348511D01*
X121735224Y-131358717D01*
X121690333Y-131353328D01*
X121640931Y-131335806D01*
X121627394Y-131330093D01*
X121585010Y-131304444D01*
X121511765Y-131252330D01*
X121415957Y-131179968D01*
X121305883Y-131093573D01*
X121231038Y-131033180D01*
X121122531Y-130946229D01*
X121029052Y-130874311D01*
X120957023Y-130822125D01*
X120912869Y-130794370D01*
X120901909Y-130792470D01*
X120902799Y-130826177D01*
X120905837Y-130901386D01*
X120910610Y-131008658D01*
X120916703Y-131138553D01*
X120920486Y-131216619D01*
X120931594Y-131487062D01*
X120936850Y-131722870D01*
X120936282Y-131920356D01*
X120929924Y-132075832D01*
X120917806Y-132185611D01*
X120912173Y-132212701D01*
X120893586Y-132275614D01*
X120867853Y-132307649D01*
X120816826Y-132326747D01*
X120789830Y-132333645D01*
X120689624Y-132351096D01*
X120542875Y-132365643D01*
X120353973Y-132377049D01*
X120127307Y-132385077D01*
X119867267Y-132389489D01*
X119741925Y-132390229D01*
X119597811Y-132391088D01*
X119473146Y-132392715D01*
X119376135Y-132394933D01*
X119314983Y-132397562D01*
X119297327Y-132399972D01*
X119314259Y-132419723D01*
X119362012Y-132469970D01*
X119435249Y-132545238D01*
X119528631Y-132640052D01*
X119636822Y-132748937D01*
X119666097Y-132778255D01*
X119777295Y-132890895D01*
X119874722Y-132992255D01*
X119953049Y-133076571D01*
X120006949Y-133138074D01*
X120031092Y-133171000D01*
X120031862Y-133174036D01*
X120014366Y-133200549D01*
X119968094Y-133258333D01*
X119898532Y-133340869D01*
X119811165Y-133441644D01*
X119718525Y-133546263D01*
X119619491Y-133658162D01*
X119533136Y-133757882D01*
X119464948Y-133838908D01*
X119420415Y-133894729D01*
X119405034Y-133918331D01*
X119129939Y-134145102D01*
X119052289Y-134122567D01*
X118996731Y-134091250D01*
X118969676Y-134053004D01*
X118967908Y-134006883D01*
X118988214Y-133951946D01*
X119027378Y-133887248D01*
X119029171Y-133884619D01*
X119075534Y-133825591D01*
X119149986Y-133740796D01*
X119243798Y-133639760D01*
X119348240Y-133532009D01*
X119397033Y-133483223D01*
X119495023Y-133385552D01*
X119578909Y-133300545D01*
X119642526Y-133234562D01*
X119679707Y-133193964D01*
X119686780Y-133184325D01*
X119670578Y-133162107D01*
X119625075Y-133109923D01*
X119556374Y-133034524D01*
X119470576Y-132942661D01*
X119424549Y-132894110D01*
X119271879Y-132728656D01*
X119144889Y-132580359D01*
X119045877Y-132452472D01*
X118977141Y-132348244D01*
X118940982Y-132270924D01*
X118939697Y-132223763D01*
X118945451Y-132216768D01*
X118988708Y-132200987D01*
X119079687Y-132185979D01*
X119219118Y-132171675D01*
X119407734Y-132158008D01*
X119646264Y-132144907D01*
X119781059Y-132138698D01*
X119945207Y-132131015D01*
X120099030Y-132122865D01*
X120232554Y-132114850D01*
X120335800Y-132107572D01*
X120398794Y-132101633D01*
X120401578Y-132101264D01*
X120496958Y-132078595D01*
X120582481Y-132041874D01*
X120643419Y-131998681D01*
X120664247Y-131966103D01*
X120666666Y-131929780D01*
X120668026Y-131852966D01*
X120668254Y-131746169D01*
X120667274Y-131619891D01*
X120666894Y-131590913D01*
X120666550Y-131284318D01*
X120675085Y-131026461D01*
X120692854Y-130815796D01*
X120720215Y-130650775D01*
X120757525Y-130529850D01*
X120805141Y-130451472D01*
X120863421Y-130414094D01*
D11*
%TO.C,REF\u002A\u002A*%
X122820000Y-88860000D02*
X121960000Y-88860000D01*
X122820000Y-88860000D02*
X122820000Y-88060000D01*
X122110000Y-85880000D02*
X126260000Y-85880000D01*
X117260000Y-85880000D02*
X121410000Y-85880000D01*
X122260000Y-75380000D02*
X126260000Y-75380000D01*
X117260000Y-75380000D02*
X121260000Y-75380000D01*
X117260000Y-85880000D02*
X117260000Y-75380000D01*
X126260000Y-85880000D02*
X126260000Y-75380000D01*
D10*
%TO.C,*%
G36*
X120863421Y-52654094D02*
G01*
X120932720Y-52656168D01*
X120937558Y-52657614D01*
X121015915Y-52699280D01*
X121117862Y-52781155D01*
X121240089Y-52900114D01*
X121379284Y-53053033D01*
X121469749Y-53160002D01*
X121684424Y-53420120D01*
X121731051Y-53366430D01*
X121804779Y-53286795D01*
X121905876Y-53184689D01*
X122023044Y-53070902D01*
X122144987Y-52956225D01*
X122260410Y-52851446D01*
X122358014Y-52767360D01*
X122359529Y-52766110D01*
X122475517Y-52675822D01*
X122562370Y-52621417D01*
X122624919Y-52600732D01*
X122668000Y-52611604D01*
X122679689Y-52622845D01*
X122698753Y-52672302D01*
X122715335Y-52769429D01*
X122729178Y-52910940D01*
X122740023Y-53093545D01*
X122747610Y-53313962D01*
X122751358Y-53533753D01*
X122755662Y-53793221D01*
X122762789Y-54002063D01*
X122772761Y-54160579D01*
X122785600Y-54269070D01*
X122801328Y-54327836D01*
X122809827Y-54338424D01*
X122842190Y-54342528D01*
X122915396Y-54345021D01*
X123019304Y-54345746D01*
X123143774Y-54344550D01*
X123173113Y-54344008D01*
X123416889Y-54341148D01*
X123649025Y-54342293D01*
X123864302Y-54347122D01*
X124057503Y-54355318D01*
X124223409Y-54366560D01*
X124356801Y-54380529D01*
X124452465Y-54396907D01*
X124505180Y-54415372D01*
X124513949Y-54426082D01*
X124500657Y-54474660D01*
X124454121Y-54555750D01*
X124377116Y-54665747D01*
X124272413Y-54801051D01*
X124142785Y-54958055D01*
X123991005Y-55133157D01*
X123845389Y-55294907D01*
X123760617Y-55387571D01*
X123863465Y-55488448D01*
X124079700Y-55704028D01*
X124258459Y-55889767D01*
X124399393Y-56045246D01*
X124502152Y-56170047D01*
X124566387Y-56263749D01*
X124591748Y-56325935D01*
X124584035Y-56352529D01*
X124543132Y-56368474D01*
X124459725Y-56383109D01*
X124332200Y-56396564D01*
X124158941Y-56408975D01*
X123938333Y-56420471D01*
X123668760Y-56431186D01*
X123590469Y-56433860D01*
X123413274Y-56440403D01*
X123248122Y-56447754D01*
X123103495Y-56455437D01*
X122987879Y-56462975D01*
X122909755Y-56469893D01*
X122884676Y-56473492D01*
X122790048Y-56492863D01*
X122785417Y-56628879D01*
X122784342Y-56695908D01*
X122784035Y-56803803D01*
X122784461Y-56942432D01*
X122785584Y-57101665D01*
X122787370Y-57271369D01*
X122787787Y-57304446D01*
X122790084Y-57563647D01*
X122789528Y-57774527D01*
X122786013Y-57939695D01*
X122779430Y-58061761D01*
X122769672Y-58143331D01*
X122756631Y-58187017D01*
X122751138Y-58193951D01*
X122714050Y-58198008D01*
X122656170Y-58181772D01*
X122654851Y-58181213D01*
X122576857Y-58136429D01*
X122465413Y-58054721D01*
X122321447Y-57936838D01*
X122145890Y-57783531D01*
X122013967Y-57664041D01*
X121918882Y-57577603D01*
X121837651Y-57505110D01*
X121777393Y-57452810D01*
X121745219Y-57426949D01*
X121742045Y-57425278D01*
X121720841Y-57442379D01*
X121671190Y-57489078D01*
X121600259Y-57558460D01*
X121515217Y-57643611D01*
X121505548Y-57653401D01*
X121389670Y-57767431D01*
X121268033Y-57881205D01*
X121147436Y-57988964D01*
X121034676Y-58084951D01*
X120936551Y-58163407D01*
X120859859Y-58218574D01*
X120811397Y-58244693D01*
X120806127Y-58245875D01*
X120783630Y-58235575D01*
X120764834Y-58196619D01*
X120749546Y-58126135D01*
X120737577Y-58021254D01*
X120728733Y-57879109D01*
X120722825Y-57696830D01*
X120719661Y-57471546D01*
X120719047Y-57200392D01*
X120720199Y-56957875D01*
X120723630Y-56473952D01*
X120164193Y-56457769D01*
X119870118Y-56448219D01*
X119623833Y-56437402D01*
X119422122Y-56424370D01*
X119261770Y-56408183D01*
X119139564Y-56387896D01*
X119129939Y-56385102D01*
X119405034Y-56158331D01*
X119428473Y-56165436D01*
X119496735Y-56173133D01*
X119603648Y-56181051D01*
X119743037Y-56188816D01*
X119908733Y-56196056D01*
X120094562Y-56202398D01*
X120170205Y-56204522D01*
X120363357Y-56209916D01*
X120539852Y-56215398D01*
X120693292Y-56220727D01*
X120817278Y-56225660D01*
X120905413Y-56229954D01*
X120951300Y-56233367D01*
X120956274Y-56234349D01*
X120959905Y-56261221D01*
X120962221Y-56332898D01*
X120963222Y-56443201D01*
X120962908Y-56585947D01*
X120961277Y-56754956D01*
X120958331Y-56944045D01*
X120956327Y-57045982D01*
X120952533Y-57242441D01*
X120949722Y-57421537D01*
X120947937Y-57577175D01*
X120947224Y-57703258D01*
X120947626Y-57793690D01*
X120949189Y-57842377D01*
X120950465Y-57849172D01*
X120971382Y-57832647D01*
X121022906Y-57786055D01*
X121099113Y-57714926D01*
X121194080Y-57624787D01*
X121300562Y-57522444D01*
X121412779Y-57414403D01*
X121516333Y-57315504D01*
X121604071Y-57232519D01*
X121668839Y-57172216D01*
X121701600Y-57142916D01*
X121763541Y-57091177D01*
X121901986Y-57233186D01*
X122079354Y-57410868D01*
X122225667Y-57548185D01*
X122340984Y-57645186D01*
X122425368Y-57701920D01*
X122478877Y-57718436D01*
X122492271Y-57713299D01*
X122505783Y-57679825D01*
X122519233Y-57609881D01*
X122529914Y-57517934D01*
X122530725Y-57508089D01*
X122536149Y-57412881D01*
X122540689Y-57282305D01*
X122543933Y-57131997D01*
X122545474Y-56977592D01*
X122545545Y-56942289D01*
X122548434Y-56714065D01*
X122557175Y-56533747D01*
X122572103Y-56398539D01*
X122593549Y-56305642D01*
X122621845Y-56252261D01*
X122628229Y-56246184D01*
X122650129Y-56230326D01*
X122677263Y-56217419D01*
X122715716Y-56206768D01*
X122771574Y-56197674D01*
X122850922Y-56189439D01*
X122959846Y-56181365D01*
X123104429Y-56172754D01*
X123290759Y-56162909D01*
X123404512Y-56157153D01*
X123575626Y-56148275D01*
X123729055Y-56139766D01*
X123857700Y-56132067D01*
X123954460Y-56125614D01*
X124012237Y-56120848D01*
X124025648Y-56118783D01*
X124013057Y-56097762D01*
X123972538Y-56043564D01*
X123908808Y-55962198D01*
X123826588Y-55859672D01*
X123730597Y-55741993D01*
X123710816Y-55717960D01*
X123386707Y-55324784D01*
X123804470Y-54971500D01*
X124222233Y-54618216D01*
X123392938Y-54594498D01*
X123140105Y-54586396D01*
X122935791Y-54577861D01*
X122777509Y-54568707D01*
X122662772Y-54558747D01*
X122589097Y-54547794D01*
X122553995Y-54535663D01*
X122550396Y-54531206D01*
X122538600Y-54469899D01*
X122528511Y-54367886D01*
X122520384Y-54235445D01*
X122514480Y-54082856D01*
X122511058Y-53920396D01*
X122510378Y-53758343D01*
X122512695Y-53606975D01*
X122518272Y-53476570D01*
X122522450Y-53421477D01*
X122535173Y-53275357D01*
X122539716Y-53169810D01*
X122531613Y-53103663D01*
X122506402Y-53075742D01*
X122459618Y-53084877D01*
X122386796Y-53129894D01*
X122283471Y-53209618D01*
X122145646Y-53322494D01*
X122014610Y-53429702D01*
X121915297Y-53507466D01*
X121840460Y-53559248D01*
X121782851Y-53588511D01*
X121735224Y-53598717D01*
X121690333Y-53593328D01*
X121640931Y-53575806D01*
X121627394Y-53570093D01*
X121585010Y-53544444D01*
X121511765Y-53492330D01*
X121415957Y-53419968D01*
X121305883Y-53333573D01*
X121231038Y-53273180D01*
X121122531Y-53186229D01*
X121029052Y-53114311D01*
X120957023Y-53062125D01*
X120912869Y-53034370D01*
X120901909Y-53032470D01*
X120902799Y-53066177D01*
X120905837Y-53141386D01*
X120910610Y-53248658D01*
X120916703Y-53378553D01*
X120920486Y-53456619D01*
X120931594Y-53727062D01*
X120936850Y-53962870D01*
X120936282Y-54160356D01*
X120929924Y-54315832D01*
X120917806Y-54425611D01*
X120912173Y-54452701D01*
X120893586Y-54515614D01*
X120867853Y-54547649D01*
X120816826Y-54566747D01*
X120789830Y-54573645D01*
X120689624Y-54591096D01*
X120542875Y-54605643D01*
X120353973Y-54617049D01*
X120127307Y-54625077D01*
X119867267Y-54629489D01*
X119741925Y-54630229D01*
X119597811Y-54631088D01*
X119473146Y-54632715D01*
X119376135Y-54634933D01*
X119314983Y-54637562D01*
X119297327Y-54639972D01*
X119314259Y-54659723D01*
X119362012Y-54709970D01*
X119435249Y-54785238D01*
X119528631Y-54880052D01*
X119636822Y-54988937D01*
X119666097Y-55018255D01*
X119777295Y-55130895D01*
X119874722Y-55232255D01*
X119953049Y-55316571D01*
X120006949Y-55378074D01*
X120031092Y-55411000D01*
X120031862Y-55414036D01*
X120014366Y-55440549D01*
X119968094Y-55498333D01*
X119898532Y-55580869D01*
X119811165Y-55681644D01*
X119718525Y-55786263D01*
X119619491Y-55898162D01*
X119533136Y-55997882D01*
X119464948Y-56078908D01*
X119420415Y-56134729D01*
X119405034Y-56158331D01*
X119129939Y-56385102D01*
X119052289Y-56362567D01*
X118996731Y-56331250D01*
X118969676Y-56293004D01*
X118967908Y-56246883D01*
X118988214Y-56191946D01*
X119027378Y-56127248D01*
X119029171Y-56124619D01*
X119075534Y-56065591D01*
X119149986Y-55980796D01*
X119243798Y-55879760D01*
X119348240Y-55772009D01*
X119397033Y-55723223D01*
X119495023Y-55625552D01*
X119578909Y-55540545D01*
X119642526Y-55474562D01*
X119679707Y-55433964D01*
X119686780Y-55424325D01*
X119670578Y-55402107D01*
X119625075Y-55349923D01*
X119556374Y-55274524D01*
X119470576Y-55182661D01*
X119424549Y-55134110D01*
X119271879Y-54968656D01*
X119144889Y-54820359D01*
X119045877Y-54692472D01*
X118977141Y-54588244D01*
X118940982Y-54510924D01*
X118939697Y-54463763D01*
X118945451Y-54456768D01*
X118988708Y-54440987D01*
X119079687Y-54425979D01*
X119219118Y-54411675D01*
X119407734Y-54398008D01*
X119646264Y-54384907D01*
X119781059Y-54378698D01*
X119945207Y-54371015D01*
X120099030Y-54362865D01*
X120232554Y-54354850D01*
X120335800Y-54347572D01*
X120398794Y-54341633D01*
X120401578Y-54341264D01*
X120496958Y-54318595D01*
X120582481Y-54281874D01*
X120643419Y-54238681D01*
X120664247Y-54206103D01*
X120666666Y-54169780D01*
X120668026Y-54092966D01*
X120668254Y-53986169D01*
X120667274Y-53859891D01*
X120666894Y-53830913D01*
X120666550Y-53524318D01*
X120675085Y-53266461D01*
X120692854Y-53055796D01*
X120720215Y-52890775D01*
X120757525Y-52769850D01*
X120805141Y-52691472D01*
X120863421Y-52654094D01*
G37*
X120863421Y-52654094D02*
X120932720Y-52656168D01*
X120937558Y-52657614D01*
X121015915Y-52699280D01*
X121117862Y-52781155D01*
X121240089Y-52900114D01*
X121379284Y-53053033D01*
X121469749Y-53160002D01*
X121684424Y-53420120D01*
X121731051Y-53366430D01*
X121804779Y-53286795D01*
X121905876Y-53184689D01*
X122023044Y-53070902D01*
X122144987Y-52956225D01*
X122260410Y-52851446D01*
X122358014Y-52767360D01*
X122359529Y-52766110D01*
X122475517Y-52675822D01*
X122562370Y-52621417D01*
X122624919Y-52600732D01*
X122668000Y-52611604D01*
X122679689Y-52622845D01*
X122698753Y-52672302D01*
X122715335Y-52769429D01*
X122729178Y-52910940D01*
X122740023Y-53093545D01*
X122747610Y-53313962D01*
X122751358Y-53533753D01*
X122755662Y-53793221D01*
X122762789Y-54002063D01*
X122772761Y-54160579D01*
X122785600Y-54269070D01*
X122801328Y-54327836D01*
X122809827Y-54338424D01*
X122842190Y-54342528D01*
X122915396Y-54345021D01*
X123019304Y-54345746D01*
X123143774Y-54344550D01*
X123173113Y-54344008D01*
X123416889Y-54341148D01*
X123649025Y-54342293D01*
X123864302Y-54347122D01*
X124057503Y-54355318D01*
X124223409Y-54366560D01*
X124356801Y-54380529D01*
X124452465Y-54396907D01*
X124505180Y-54415372D01*
X124513949Y-54426082D01*
X124500657Y-54474660D01*
X124454121Y-54555750D01*
X124377116Y-54665747D01*
X124272413Y-54801051D01*
X124142785Y-54958055D01*
X123991005Y-55133157D01*
X123845389Y-55294907D01*
X123760617Y-55387571D01*
X123863465Y-55488448D01*
X124079700Y-55704028D01*
X124258459Y-55889767D01*
X124399393Y-56045246D01*
X124502152Y-56170047D01*
X124566387Y-56263749D01*
X124591748Y-56325935D01*
X124584035Y-56352529D01*
X124543132Y-56368474D01*
X124459725Y-56383109D01*
X124332200Y-56396564D01*
X124158941Y-56408975D01*
X123938333Y-56420471D01*
X123668760Y-56431186D01*
X123590469Y-56433860D01*
X123413274Y-56440403D01*
X123248122Y-56447754D01*
X123103495Y-56455437D01*
X122987879Y-56462975D01*
X122909755Y-56469893D01*
X122884676Y-56473492D01*
X122790048Y-56492863D01*
X122785417Y-56628879D01*
X122784342Y-56695908D01*
X122784035Y-56803803D01*
X122784461Y-56942432D01*
X122785584Y-57101665D01*
X122787370Y-57271369D01*
X122787787Y-57304446D01*
X122790084Y-57563647D01*
X122789528Y-57774527D01*
X122786013Y-57939695D01*
X122779430Y-58061761D01*
X122769672Y-58143331D01*
X122756631Y-58187017D01*
X122751138Y-58193951D01*
X122714050Y-58198008D01*
X122656170Y-58181772D01*
X122654851Y-58181213D01*
X122576857Y-58136429D01*
X122465413Y-58054721D01*
X122321447Y-57936838D01*
X122145890Y-57783531D01*
X122013967Y-57664041D01*
X121918882Y-57577603D01*
X121837651Y-57505110D01*
X121777393Y-57452810D01*
X121745219Y-57426949D01*
X121742045Y-57425278D01*
X121720841Y-57442379D01*
X121671190Y-57489078D01*
X121600259Y-57558460D01*
X121515217Y-57643611D01*
X121505548Y-57653401D01*
X121389670Y-57767431D01*
X121268033Y-57881205D01*
X121147436Y-57988964D01*
X121034676Y-58084951D01*
X120936551Y-58163407D01*
X120859859Y-58218574D01*
X120811397Y-58244693D01*
X120806127Y-58245875D01*
X120783630Y-58235575D01*
X120764834Y-58196619D01*
X120749546Y-58126135D01*
X120737577Y-58021254D01*
X120728733Y-57879109D01*
X120722825Y-57696830D01*
X120719661Y-57471546D01*
X120719047Y-57200392D01*
X120720199Y-56957875D01*
X120723630Y-56473952D01*
X120164193Y-56457769D01*
X119870118Y-56448219D01*
X119623833Y-56437402D01*
X119422122Y-56424370D01*
X119261770Y-56408183D01*
X119139564Y-56387896D01*
X119129939Y-56385102D01*
X119405034Y-56158331D01*
X119428473Y-56165436D01*
X119496735Y-56173133D01*
X119603648Y-56181051D01*
X119743037Y-56188816D01*
X119908733Y-56196056D01*
X120094562Y-56202398D01*
X120170205Y-56204522D01*
X120363357Y-56209916D01*
X120539852Y-56215398D01*
X120693292Y-56220727D01*
X120817278Y-56225660D01*
X120905413Y-56229954D01*
X120951300Y-56233367D01*
X120956274Y-56234349D01*
X120959905Y-56261221D01*
X120962221Y-56332898D01*
X120963222Y-56443201D01*
X120962908Y-56585947D01*
X120961277Y-56754956D01*
X120958331Y-56944045D01*
X120956327Y-57045982D01*
X120952533Y-57242441D01*
X120949722Y-57421537D01*
X120947937Y-57577175D01*
X120947224Y-57703258D01*
X120947626Y-57793690D01*
X120949189Y-57842377D01*
X120950465Y-57849172D01*
X120971382Y-57832647D01*
X121022906Y-57786055D01*
X121099113Y-57714926D01*
X121194080Y-57624787D01*
X121300562Y-57522444D01*
X121412779Y-57414403D01*
X121516333Y-57315504D01*
X121604071Y-57232519D01*
X121668839Y-57172216D01*
X121701600Y-57142916D01*
X121763541Y-57091177D01*
X121901986Y-57233186D01*
X122079354Y-57410868D01*
X122225667Y-57548185D01*
X122340984Y-57645186D01*
X122425368Y-57701920D01*
X122478877Y-57718436D01*
X122492271Y-57713299D01*
X122505783Y-57679825D01*
X122519233Y-57609881D01*
X122529914Y-57517934D01*
X122530725Y-57508089D01*
X122536149Y-57412881D01*
X122540689Y-57282305D01*
X122543933Y-57131997D01*
X122545474Y-56977592D01*
X122545545Y-56942289D01*
X122548434Y-56714065D01*
X122557175Y-56533747D01*
X122572103Y-56398539D01*
X122593549Y-56305642D01*
X122621845Y-56252261D01*
X122628229Y-56246184D01*
X122650129Y-56230326D01*
X122677263Y-56217419D01*
X122715716Y-56206768D01*
X122771574Y-56197674D01*
X122850922Y-56189439D01*
X122959846Y-56181365D01*
X123104429Y-56172754D01*
X123290759Y-56162909D01*
X123404512Y-56157153D01*
X123575626Y-56148275D01*
X123729055Y-56139766D01*
X123857700Y-56132067D01*
X123954460Y-56125614D01*
X124012237Y-56120848D01*
X124025648Y-56118783D01*
X124013057Y-56097762D01*
X123972538Y-56043564D01*
X123908808Y-55962198D01*
X123826588Y-55859672D01*
X123730597Y-55741993D01*
X123710816Y-55717960D01*
X123386707Y-55324784D01*
X123804470Y-54971500D01*
X124222233Y-54618216D01*
X123392938Y-54594498D01*
X123140105Y-54586396D01*
X122935791Y-54577861D01*
X122777509Y-54568707D01*
X122662772Y-54558747D01*
X122589097Y-54547794D01*
X122553995Y-54535663D01*
X122550396Y-54531206D01*
X122538600Y-54469899D01*
X122528511Y-54367886D01*
X122520384Y-54235445D01*
X122514480Y-54082856D01*
X122511058Y-53920396D01*
X122510378Y-53758343D01*
X122512695Y-53606975D01*
X122518272Y-53476570D01*
X122522450Y-53421477D01*
X122535173Y-53275357D01*
X122539716Y-53169810D01*
X122531613Y-53103663D01*
X122506402Y-53075742D01*
X122459618Y-53084877D01*
X122386796Y-53129894D01*
X122283471Y-53209618D01*
X122145646Y-53322494D01*
X122014610Y-53429702D01*
X121915297Y-53507466D01*
X121840460Y-53559248D01*
X121782851Y-53588511D01*
X121735224Y-53598717D01*
X121690333Y-53593328D01*
X121640931Y-53575806D01*
X121627394Y-53570093D01*
X121585010Y-53544444D01*
X121511765Y-53492330D01*
X121415957Y-53419968D01*
X121305883Y-53333573D01*
X121231038Y-53273180D01*
X121122531Y-53186229D01*
X121029052Y-53114311D01*
X120957023Y-53062125D01*
X120912869Y-53034370D01*
X120901909Y-53032470D01*
X120902799Y-53066177D01*
X120905837Y-53141386D01*
X120910610Y-53248658D01*
X120916703Y-53378553D01*
X120920486Y-53456619D01*
X120931594Y-53727062D01*
X120936850Y-53962870D01*
X120936282Y-54160356D01*
X120929924Y-54315832D01*
X120917806Y-54425611D01*
X120912173Y-54452701D01*
X120893586Y-54515614D01*
X120867853Y-54547649D01*
X120816826Y-54566747D01*
X120789830Y-54573645D01*
X120689624Y-54591096D01*
X120542875Y-54605643D01*
X120353973Y-54617049D01*
X120127307Y-54625077D01*
X119867267Y-54629489D01*
X119741925Y-54630229D01*
X119597811Y-54631088D01*
X119473146Y-54632715D01*
X119376135Y-54634933D01*
X119314983Y-54637562D01*
X119297327Y-54639972D01*
X119314259Y-54659723D01*
X119362012Y-54709970D01*
X119435249Y-54785238D01*
X119528631Y-54880052D01*
X119636822Y-54988937D01*
X119666097Y-55018255D01*
X119777295Y-55130895D01*
X119874722Y-55232255D01*
X119953049Y-55316571D01*
X120006949Y-55378074D01*
X120031092Y-55411000D01*
X120031862Y-55414036D01*
X120014366Y-55440549D01*
X119968094Y-55498333D01*
X119898532Y-55580869D01*
X119811165Y-55681644D01*
X119718525Y-55786263D01*
X119619491Y-55898162D01*
X119533136Y-55997882D01*
X119464948Y-56078908D01*
X119420415Y-56134729D01*
X119405034Y-56158331D01*
X119129939Y-56385102D01*
X119052289Y-56362567D01*
X118996731Y-56331250D01*
X118969676Y-56293004D01*
X118967908Y-56246883D01*
X118988214Y-56191946D01*
X119027378Y-56127248D01*
X119029171Y-56124619D01*
X119075534Y-56065591D01*
X119149986Y-55980796D01*
X119243798Y-55879760D01*
X119348240Y-55772009D01*
X119397033Y-55723223D01*
X119495023Y-55625552D01*
X119578909Y-55540545D01*
X119642526Y-55474562D01*
X119679707Y-55433964D01*
X119686780Y-55424325D01*
X119670578Y-55402107D01*
X119625075Y-55349923D01*
X119556374Y-55274524D01*
X119470576Y-55182661D01*
X119424549Y-55134110D01*
X119271879Y-54968656D01*
X119144889Y-54820359D01*
X119045877Y-54692472D01*
X118977141Y-54588244D01*
X118940982Y-54510924D01*
X118939697Y-54463763D01*
X118945451Y-54456768D01*
X118988708Y-54440987D01*
X119079687Y-54425979D01*
X119219118Y-54411675D01*
X119407734Y-54398008D01*
X119646264Y-54384907D01*
X119781059Y-54378698D01*
X119945207Y-54371015D01*
X120099030Y-54362865D01*
X120232554Y-54354850D01*
X120335800Y-54347572D01*
X120398794Y-54341633D01*
X120401578Y-54341264D01*
X120496958Y-54318595D01*
X120582481Y-54281874D01*
X120643419Y-54238681D01*
X120664247Y-54206103D01*
X120666666Y-54169780D01*
X120668026Y-54092966D01*
X120668254Y-53986169D01*
X120667274Y-53859891D01*
X120666894Y-53830913D01*
X120666550Y-53524318D01*
X120675085Y-53266461D01*
X120692854Y-53055796D01*
X120720215Y-52890775D01*
X120757525Y-52769850D01*
X120805141Y-52691472D01*
X120863421Y-52654094D01*
G36*
X122942440Y-65686644D02*
G01*
X122996426Y-65698152D01*
X123029892Y-65714255D01*
X123052963Y-65737591D01*
X123064047Y-65753211D01*
X123086889Y-65800747D01*
X123096643Y-65864232D01*
X123094751Y-65957675D01*
X123090631Y-66011531D01*
X123079266Y-66242963D01*
X123089795Y-66431805D01*
X123123239Y-66582000D01*
X123180617Y-66697496D01*
X123262950Y-66782238D01*
X123295449Y-66803933D01*
X123339297Y-66828448D01*
X123384282Y-66847931D01*
X123438705Y-66864044D01*
X123510865Y-66878450D01*
X123609064Y-66892812D01*
X123741600Y-66908795D01*
X123912669Y-66927619D01*
X124086854Y-66946903D01*
X124216355Y-66962716D01*
X124307283Y-66976185D01*
X124365751Y-66988443D01*
X124397869Y-67000618D01*
X124409749Y-67013841D01*
X124410209Y-67019621D01*
X124410324Y-67051843D01*
X124411901Y-67130098D01*
X124414807Y-67249440D01*
X124418904Y-67404925D01*
X124424060Y-67591605D01*
X124430140Y-67804536D01*
X124437008Y-68038772D01*
X124444531Y-68289366D01*
X124446922Y-68367861D01*
X124454257Y-68621523D01*
X124460334Y-68859595D01*
X124465085Y-69077244D01*
X124468446Y-69269635D01*
X124470347Y-69431932D01*
X124470721Y-69559304D01*
X124469503Y-69646917D01*
X124466624Y-69689933D01*
X124465342Y-69693491D01*
X124434903Y-69698746D01*
X124360599Y-69705455D01*
X124249537Y-69713157D01*
X124108817Y-69721399D01*
X123945544Y-69729722D01*
X123801346Y-69736221D01*
X123626121Y-69743811D01*
X123468704Y-69750900D01*
X123335962Y-69757155D01*
X123234761Y-69762247D01*
X123171964Y-69765841D01*
X123153930Y-69767450D01*
X123153598Y-69792889D01*
X123155415Y-69862093D01*
X123159120Y-69967879D01*
X123164451Y-70103066D01*
X123171144Y-70260470D01*
X123175410Y-70356063D01*
X123182357Y-70524796D01*
X123187287Y-70677221D01*
X123190063Y-70805699D01*
X123190548Y-70902593D01*
X123188604Y-70960265D01*
X123186525Y-70972353D01*
X123153370Y-70988745D01*
X123072627Y-71004080D01*
X122947701Y-71018194D01*
X122781999Y-71030922D01*
X122578929Y-71042101D01*
X122341898Y-71051569D01*
X122074311Y-71059159D01*
X121779577Y-71064708D01*
X121461102Y-71068053D01*
X121175996Y-71069040D01*
X120998986Y-71069230D01*
X120831258Y-71069640D01*
X120682206Y-71070230D01*
X120561221Y-71070958D01*
X120477696Y-71071785D01*
X120455149Y-71072170D01*
X120323108Y-71075080D01*
X120319266Y-70951631D01*
X120318762Y-70887344D01*
X120319665Y-70782462D01*
X120321809Y-70647370D01*
X120325028Y-70492454D01*
X120329157Y-70328099D01*
X120329274Y-70323806D01*
X120333279Y-70126746D01*
X120333202Y-69977222D01*
X120329067Y-69876175D01*
X120320900Y-69824552D01*
X120315199Y-69817558D01*
X120282878Y-69816311D01*
X120206882Y-69813797D01*
X120094520Y-69810245D01*
X119953101Y-69805885D01*
X119789930Y-69800945D01*
X119662149Y-69797130D01*
X119489174Y-69791650D01*
X119333944Y-69786075D01*
X119203464Y-69780709D01*
X119104738Y-69775859D01*
X119044769Y-69771829D01*
X119029450Y-69769540D01*
X119027033Y-69742128D01*
X119024728Y-69669852D01*
X119022563Y-69558852D01*
X119020573Y-69415267D01*
X119018786Y-69245239D01*
X119017234Y-69054905D01*
X119015951Y-68850408D01*
X119014966Y-68637886D01*
X119014310Y-68423480D01*
X119014015Y-68213328D01*
X119014112Y-68013572D01*
X119014633Y-67830352D01*
X119015609Y-67669806D01*
X119016450Y-67594104D01*
X119284054Y-67617516D01*
X119276362Y-67742143D01*
X119274545Y-67803723D01*
X119273676Y-67906008D01*
X119273656Y-68041051D01*
X119274390Y-68200908D01*
X119275776Y-68377635D01*
X119277719Y-68563286D01*
X119280121Y-68749918D01*
X119282883Y-68929584D01*
X119285908Y-69094340D01*
X119289097Y-69236241D01*
X119292353Y-69347342D01*
X119295578Y-69419699D01*
X119297282Y-69439935D01*
X119304848Y-69498196D01*
X119914627Y-69551545D01*
X120105838Y-69568373D01*
X120252408Y-69581871D01*
X120360503Y-69593145D01*
X120436295Y-69603299D01*
X120485952Y-69613440D01*
X120515642Y-69624672D01*
X120531535Y-69638101D01*
X120539799Y-69654833D01*
X120542786Y-69664100D01*
X120550761Y-69710128D01*
X120560133Y-69796205D01*
X120569912Y-69911432D01*
X120579105Y-70044913D01*
X120582136Y-70096333D01*
X120593965Y-70289817D01*
X120606366Y-70439124D01*
X120621457Y-70551062D01*
X120641353Y-70632435D01*
X120668170Y-70690050D01*
X120704021Y-70730710D01*
X120751026Y-70761222D01*
X120795195Y-70781679D01*
X120855697Y-70797644D01*
X120956234Y-70810725D01*
X121098579Y-70820985D01*
X121284503Y-70828496D01*
X121515777Y-70833324D01*
X121794171Y-70835539D01*
X122121458Y-70835208D01*
X122177938Y-70834926D01*
X122366224Y-70833605D01*
X122537459Y-70831851D01*
X122685140Y-70829772D01*
X122802767Y-70827480D01*
X122883839Y-70825086D01*
X122921854Y-70822702D01*
X122923803Y-70822184D01*
X122927600Y-70795372D01*
X122932118Y-70724478D01*
X122937070Y-70616414D01*
X122942169Y-70478095D01*
X122947128Y-70316431D01*
X122950943Y-70168943D01*
X122955494Y-69993138D01*
X122960297Y-69834943D01*
X122965084Y-69701264D01*
X122969589Y-69599008D01*
X122973542Y-69535082D01*
X122976224Y-69516075D01*
X123003425Y-69514324D01*
X123074471Y-69513887D01*
X123182221Y-69514692D01*
X123319538Y-69516666D01*
X123479279Y-69519737D01*
X123594472Y-69522352D01*
X123765031Y-69526209D01*
X123917779Y-69529197D01*
X124045608Y-69531213D01*
X124141409Y-69532160D01*
X124198076Y-69531934D01*
X124210604Y-69531080D01*
X124213301Y-69504289D01*
X124214950Y-69433407D01*
X124215641Y-69325335D01*
X124215466Y-69186975D01*
X124214512Y-69025224D01*
X124212868Y-68846985D01*
X124210625Y-68659160D01*
X124207872Y-68468647D01*
X124204698Y-68282348D01*
X124201193Y-68107163D01*
X124197445Y-67949993D01*
X124193545Y-67817739D01*
X124189581Y-67717301D01*
X124186432Y-67664595D01*
X124173367Y-67547771D01*
X124154616Y-67437700D01*
X124133639Y-67353653D01*
X124127559Y-67336716D01*
X124101019Y-67279624D01*
X124068948Y-67235815D01*
X124024512Y-67203328D01*
X123960877Y-67180203D01*
X123871209Y-67164477D01*
X123748673Y-67154191D01*
X123586437Y-67147381D01*
X123455630Y-67143870D01*
X123300325Y-67139923D01*
X123158698Y-67135864D01*
X123040220Y-67132000D01*
X122954358Y-67128640D01*
X122911832Y-67126214D01*
X122844101Y-67119901D01*
X122873907Y-66680919D01*
X122885927Y-66475879D01*
X122887792Y-66315356D01*
X122874929Y-66193168D01*
X122842766Y-66103134D01*
X122786731Y-66039072D01*
X122702252Y-65994803D01*
X122584756Y-65964145D01*
X122429670Y-65940916D01*
X122316962Y-65928005D01*
X122214502Y-65919208D01*
X122080012Y-65911193D01*
X121920610Y-65904065D01*
X121743415Y-65897928D01*
X121555546Y-65892887D01*
X121364119Y-65889045D01*
X121176256Y-65886507D01*
X120999073Y-65885376D01*
X120839690Y-65885758D01*
X120705223Y-65887757D01*
X120602793Y-65891477D01*
X120539517Y-65897021D01*
X120522670Y-65901725D01*
X120517439Y-65931227D01*
X120514780Y-66003093D01*
X120514718Y-66108743D01*
X120517277Y-66239603D01*
X120521374Y-66360369D01*
X120526759Y-66513058D01*
X120530407Y-66654785D01*
X120532143Y-66774813D01*
X120531794Y-66862408D01*
X120530138Y-66899528D01*
X120502260Y-67016777D01*
X120440250Y-67104395D01*
X120339261Y-67166960D01*
X120204731Y-67206962D01*
X120159856Y-67212208D01*
X120074893Y-67218661D01*
X119960723Y-67225615D01*
X119828224Y-67232362D01*
X119780680Y-67234495D01*
X119616397Y-67242301D01*
X119494787Y-67254108D01*
X119408912Y-67276897D01*
X119351836Y-67317651D01*
X119316625Y-67383351D01*
X119296343Y-67480979D01*
X119284054Y-67617516D01*
X119016450Y-67594104D01*
X119017071Y-67538075D01*
X119017841Y-67492641D01*
X119021904Y-67349108D01*
X119027890Y-67223567D01*
X119035181Y-67124814D01*
X119043165Y-67061643D01*
X119049264Y-67042887D01*
X119090918Y-67029006D01*
X119177859Y-67015550D01*
X119304371Y-67002984D01*
X119464737Y-66991769D01*
X119653240Y-66982370D01*
X119864162Y-66975252D01*
X119892283Y-66974534D01*
X120299176Y-66964517D01*
X120294525Y-66860078D01*
X120292398Y-66798459D01*
X120289603Y-66697494D01*
X120286436Y-66568833D01*
X120283187Y-66424126D01*
X120281543Y-66345319D01*
X120278874Y-66189009D01*
X120278662Y-66074591D01*
X120281617Y-65992985D01*
X120288447Y-65935109D01*
X120299862Y-65891882D01*
X120316572Y-65854222D01*
X120320486Y-65846793D01*
X120352052Y-65799465D01*
X120394585Y-65759684D01*
X120452321Y-65726854D01*
X120529496Y-65700382D01*
X120630345Y-65679671D01*
X120759104Y-65664130D01*
X120920010Y-65653162D01*
X121117297Y-65646175D01*
X121355202Y-65642571D01*
X121637960Y-65641759D01*
X121778785Y-65642136D01*
X121977468Y-65643770D01*
X122176910Y-65646940D01*
X122365959Y-65651357D01*
X122533465Y-65656733D01*
X122668276Y-65662776D01*
X122732408Y-65666874D01*
X122857809Y-65677097D01*
X122942440Y-65686644D01*
G37*
X122942440Y-65686644D02*
X122996426Y-65698152D01*
X123029892Y-65714255D01*
X123052963Y-65737591D01*
X123064047Y-65753211D01*
X123086889Y-65800747D01*
X123096643Y-65864232D01*
X123094751Y-65957675D01*
X123090631Y-66011531D01*
X123079266Y-66242963D01*
X123089795Y-66431805D01*
X123123239Y-66582000D01*
X123180617Y-66697496D01*
X123262950Y-66782238D01*
X123295449Y-66803933D01*
X123339297Y-66828448D01*
X123384282Y-66847931D01*
X123438705Y-66864044D01*
X123510865Y-66878450D01*
X123609064Y-66892812D01*
X123741600Y-66908795D01*
X123912669Y-66927619D01*
X124086854Y-66946903D01*
X124216355Y-66962716D01*
X124307283Y-66976185D01*
X124365751Y-66988443D01*
X124397869Y-67000618D01*
X124409749Y-67013841D01*
X124410209Y-67019621D01*
X124410324Y-67051843D01*
X124411901Y-67130098D01*
X124414807Y-67249440D01*
X124418904Y-67404925D01*
X124424060Y-67591605D01*
X124430140Y-67804536D01*
X124437008Y-68038772D01*
X124444531Y-68289366D01*
X124446922Y-68367861D01*
X124454257Y-68621523D01*
X124460334Y-68859595D01*
X124465085Y-69077244D01*
X124468446Y-69269635D01*
X124470347Y-69431932D01*
X124470721Y-69559304D01*
X124469503Y-69646917D01*
X124466624Y-69689933D01*
X124465342Y-69693491D01*
X124434903Y-69698746D01*
X124360599Y-69705455D01*
X124249537Y-69713157D01*
X124108817Y-69721399D01*
X123945544Y-69729722D01*
X123801346Y-69736221D01*
X123626121Y-69743811D01*
X123468704Y-69750900D01*
X123335962Y-69757155D01*
X123234761Y-69762247D01*
X123171964Y-69765841D01*
X123153930Y-69767450D01*
X123153598Y-69792889D01*
X123155415Y-69862093D01*
X123159120Y-69967879D01*
X123164451Y-70103066D01*
X123171144Y-70260470D01*
X123175410Y-70356063D01*
X123182357Y-70524796D01*
X123187287Y-70677221D01*
X123190063Y-70805699D01*
X123190548Y-70902593D01*
X123188604Y-70960265D01*
X123186525Y-70972353D01*
X123153370Y-70988745D01*
X123072627Y-71004080D01*
X122947701Y-71018194D01*
X122781999Y-71030922D01*
X122578929Y-71042101D01*
X122341898Y-71051569D01*
X122074311Y-71059159D01*
X121779577Y-71064708D01*
X121461102Y-71068053D01*
X121175996Y-71069040D01*
X120998986Y-71069230D01*
X120831258Y-71069640D01*
X120682206Y-71070230D01*
X120561221Y-71070958D01*
X120477696Y-71071785D01*
X120455149Y-71072170D01*
X120323108Y-71075080D01*
X120319266Y-70951631D01*
X120318762Y-70887344D01*
X120319665Y-70782462D01*
X120321809Y-70647370D01*
X120325028Y-70492454D01*
X120329157Y-70328099D01*
X120329274Y-70323806D01*
X120333279Y-70126746D01*
X120333202Y-69977222D01*
X120329067Y-69876175D01*
X120320900Y-69824552D01*
X120315199Y-69817558D01*
X120282878Y-69816311D01*
X120206882Y-69813797D01*
X120094520Y-69810245D01*
X119953101Y-69805885D01*
X119789930Y-69800945D01*
X119662149Y-69797130D01*
X119489174Y-69791650D01*
X119333944Y-69786075D01*
X119203464Y-69780709D01*
X119104738Y-69775859D01*
X119044769Y-69771829D01*
X119029450Y-69769540D01*
X119027033Y-69742128D01*
X119024728Y-69669852D01*
X119022563Y-69558852D01*
X119020573Y-69415267D01*
X119018786Y-69245239D01*
X119017234Y-69054905D01*
X119015951Y-68850408D01*
X119014966Y-68637886D01*
X119014310Y-68423480D01*
X119014015Y-68213328D01*
X119014112Y-68013572D01*
X119014633Y-67830352D01*
X119015609Y-67669806D01*
X119016450Y-67594104D01*
X119284054Y-67617516D01*
X119276362Y-67742143D01*
X119274545Y-67803723D01*
X119273676Y-67906008D01*
X119273656Y-68041051D01*
X119274390Y-68200908D01*
X119275776Y-68377635D01*
X119277719Y-68563286D01*
X119280121Y-68749918D01*
X119282883Y-68929584D01*
X119285908Y-69094340D01*
X119289097Y-69236241D01*
X119292353Y-69347342D01*
X119295578Y-69419699D01*
X119297282Y-69439935D01*
X119304848Y-69498196D01*
X119914627Y-69551545D01*
X120105838Y-69568373D01*
X120252408Y-69581871D01*
X120360503Y-69593145D01*
X120436295Y-69603299D01*
X120485952Y-69613440D01*
X120515642Y-69624672D01*
X120531535Y-69638101D01*
X120539799Y-69654833D01*
X120542786Y-69664100D01*
X120550761Y-69710128D01*
X120560133Y-69796205D01*
X120569912Y-69911432D01*
X120579105Y-70044913D01*
X120582136Y-70096333D01*
X120593965Y-70289817D01*
X120606366Y-70439124D01*
X120621457Y-70551062D01*
X120641353Y-70632435D01*
X120668170Y-70690050D01*
X120704021Y-70730710D01*
X120751026Y-70761222D01*
X120795195Y-70781679D01*
X120855697Y-70797644D01*
X120956234Y-70810725D01*
X121098579Y-70820985D01*
X121284503Y-70828496D01*
X121515777Y-70833324D01*
X121794171Y-70835539D01*
X122121458Y-70835208D01*
X122177938Y-70834926D01*
X122366224Y-70833605D01*
X122537459Y-70831851D01*
X122685140Y-70829772D01*
X122802767Y-70827480D01*
X122883839Y-70825086D01*
X122921854Y-70822702D01*
X122923803Y-70822184D01*
X122927600Y-70795372D01*
X122932118Y-70724478D01*
X122937070Y-70616414D01*
X122942169Y-70478095D01*
X122947128Y-70316431D01*
X122950943Y-70168943D01*
X122955494Y-69993138D01*
X122960297Y-69834943D01*
X122965084Y-69701264D01*
X122969589Y-69599008D01*
X122973542Y-69535082D01*
X122976224Y-69516075D01*
X123003425Y-69514324D01*
X123074471Y-69513887D01*
X123182221Y-69514692D01*
X123319538Y-69516666D01*
X123479279Y-69519737D01*
X123594472Y-69522352D01*
X123765031Y-69526209D01*
X123917779Y-69529197D01*
X124045608Y-69531213D01*
X124141409Y-69532160D01*
X124198076Y-69531934D01*
X124210604Y-69531080D01*
X124213301Y-69504289D01*
X124214950Y-69433407D01*
X124215641Y-69325335D01*
X124215466Y-69186975D01*
X124214512Y-69025224D01*
X124212868Y-68846985D01*
X124210625Y-68659160D01*
X124207872Y-68468647D01*
X124204698Y-68282348D01*
X124201193Y-68107163D01*
X124197445Y-67949993D01*
X124193545Y-67817739D01*
X124189581Y-67717301D01*
X124186432Y-67664595D01*
X124173367Y-67547771D01*
X124154616Y-67437700D01*
X124133639Y-67353653D01*
X124127559Y-67336716D01*
X124101019Y-67279624D01*
X124068948Y-67235815D01*
X124024512Y-67203328D01*
X123960877Y-67180203D01*
X123871209Y-67164477D01*
X123748673Y-67154191D01*
X123586437Y-67147381D01*
X123455630Y-67143870D01*
X123300325Y-67139923D01*
X123158698Y-67135864D01*
X123040220Y-67132000D01*
X122954358Y-67128640D01*
X122911832Y-67126214D01*
X122844101Y-67119901D01*
X122873907Y-66680919D01*
X122885927Y-66475879D01*
X122887792Y-66315356D01*
X122874929Y-66193168D01*
X122842766Y-66103134D01*
X122786731Y-66039072D01*
X122702252Y-65994803D01*
X122584756Y-65964145D01*
X122429670Y-65940916D01*
X122316962Y-65928005D01*
X122214502Y-65919208D01*
X122080012Y-65911193D01*
X121920610Y-65904065D01*
X121743415Y-65897928D01*
X121555546Y-65892887D01*
X121364119Y-65889045D01*
X121176256Y-65886507D01*
X120999073Y-65885376D01*
X120839690Y-65885758D01*
X120705223Y-65887757D01*
X120602793Y-65891477D01*
X120539517Y-65897021D01*
X120522670Y-65901725D01*
X120517439Y-65931227D01*
X120514780Y-66003093D01*
X120514718Y-66108743D01*
X120517277Y-66239603D01*
X120521374Y-66360369D01*
X120526759Y-66513058D01*
X120530407Y-66654785D01*
X120532143Y-66774813D01*
X120531794Y-66862408D01*
X120530138Y-66899528D01*
X120502260Y-67016777D01*
X120440250Y-67104395D01*
X120339261Y-67166960D01*
X120204731Y-67206962D01*
X120159856Y-67212208D01*
X120074893Y-67218661D01*
X119960723Y-67225615D01*
X119828224Y-67232362D01*
X119780680Y-67234495D01*
X119616397Y-67242301D01*
X119494787Y-67254108D01*
X119408912Y-67276897D01*
X119351836Y-67317651D01*
X119316625Y-67383351D01*
X119296343Y-67480979D01*
X119284054Y-67617516D01*
X119016450Y-67594104D01*
X119017071Y-67538075D01*
X119017841Y-67492641D01*
X119021904Y-67349108D01*
X119027890Y-67223567D01*
X119035181Y-67124814D01*
X119043165Y-67061643D01*
X119049264Y-67042887D01*
X119090918Y-67029006D01*
X119177859Y-67015550D01*
X119304371Y-67002984D01*
X119464737Y-66991769D01*
X119653240Y-66982370D01*
X119864162Y-66975252D01*
X119892283Y-66974534D01*
X120299176Y-66964517D01*
X120294525Y-66860078D01*
X120292398Y-66798459D01*
X120289603Y-66697494D01*
X120286436Y-66568833D01*
X120283187Y-66424126D01*
X120281543Y-66345319D01*
X120278874Y-66189009D01*
X120278662Y-66074591D01*
X120281617Y-65992985D01*
X120288447Y-65935109D01*
X120299862Y-65891882D01*
X120316572Y-65854222D01*
X120320486Y-65846793D01*
X120352052Y-65799465D01*
X120394585Y-65759684D01*
X120452321Y-65726854D01*
X120529496Y-65700382D01*
X120630345Y-65679671D01*
X120759104Y-65664130D01*
X120920010Y-65653162D01*
X121117297Y-65646175D01*
X121355202Y-65642571D01*
X121637960Y-65641759D01*
X121778785Y-65642136D01*
X121977468Y-65643770D01*
X122176910Y-65646940D01*
X122365959Y-65651357D01*
X122533465Y-65656733D01*
X122668276Y-65662776D01*
X122732408Y-65666874D01*
X122857809Y-65677097D01*
X122942440Y-65686644D01*
D11*
%TO.C,REF\u002A\u002A*%
X122820000Y-140780000D02*
X121960000Y-140780000D01*
X122820000Y-140780000D02*
X122820000Y-139980000D01*
X122110000Y-137800000D02*
X126260000Y-137800000D01*
X117260000Y-137800000D02*
X121410000Y-137800000D01*
X122260000Y-127300000D02*
X126260000Y-127300000D01*
X117260000Y-127300000D02*
X121260000Y-127300000D01*
X117260000Y-137800000D02*
X117260000Y-127300000D01*
X126260000Y-137800000D02*
X126260000Y-127300000D01*
X117260000Y-63880000D02*
X117260000Y-74380000D01*
X126260000Y-63880000D02*
X126260000Y-74380000D01*
X126260000Y-74380000D02*
X122260000Y-74380000D01*
X121260000Y-74380000D02*
X117260000Y-74380000D01*
X126260000Y-63880000D02*
X122110000Y-63880000D01*
X121410000Y-63880000D02*
X117260000Y-63880000D01*
X120700000Y-60900000D02*
X120700000Y-61700000D01*
X120700000Y-60900000D02*
X121560000Y-60900000D01*
X117260000Y-115800000D02*
X117260000Y-126300000D01*
X126260000Y-115800000D02*
X126260000Y-126300000D01*
X126260000Y-126300000D02*
X122260000Y-126300000D01*
X121260000Y-126300000D02*
X117260000Y-126300000D01*
X126260000Y-115800000D02*
X122110000Y-115800000D01*
X121410000Y-115800000D02*
X117260000Y-115800000D01*
X120700000Y-112820000D02*
X120700000Y-113620000D01*
X120700000Y-112820000D02*
X121560000Y-112820000D01*
X122820000Y-62900000D02*
X121960000Y-62900000D01*
X122820000Y-62900000D02*
X122820000Y-62100000D01*
X122110000Y-59920000D02*
X126260000Y-59920000D01*
X117260000Y-59920000D02*
X121410000Y-59920000D01*
X122260000Y-49420000D02*
X126260000Y-49420000D01*
X117260000Y-49420000D02*
X121260000Y-49420000D01*
X117260000Y-59920000D02*
X117260000Y-49420000D01*
X126260000Y-59920000D02*
X126260000Y-49420000D01*
X117260000Y-89840000D02*
X117260000Y-100340000D01*
X126260000Y-89840000D02*
X126260000Y-100340000D01*
X126260000Y-100340000D02*
X122260000Y-100340000D01*
X121260000Y-100340000D02*
X117260000Y-100340000D01*
X126260000Y-89840000D02*
X122110000Y-89840000D01*
X121410000Y-89840000D02*
X117260000Y-89840000D01*
X120700000Y-86860000D02*
X120700000Y-87660000D01*
X120700000Y-86860000D02*
X121560000Y-86860000D01*
X122820000Y-114820000D02*
X121960000Y-114820000D01*
X122820000Y-114820000D02*
X122820000Y-114020000D01*
X122110000Y-111840000D02*
X126260000Y-111840000D01*
X117260000Y-111840000D02*
X121410000Y-111840000D01*
X122260000Y-101340000D02*
X126260000Y-101340000D01*
X117260000Y-101340000D02*
X121260000Y-101340000D01*
X117260000Y-111840000D02*
X117260000Y-101340000D01*
X126260000Y-111840000D02*
X126260000Y-101340000D01*
X120700000Y-138780000D02*
X121560000Y-138780000D01*
X120700000Y-138780000D02*
X120700000Y-139580000D01*
X121410000Y-141760000D02*
X117260000Y-141760000D01*
X126260000Y-141760000D02*
X122110000Y-141760000D01*
X121260000Y-152260000D02*
X117260000Y-152260000D01*
X126260000Y-152260000D02*
X122260000Y-152260000D01*
X126260000Y-141760000D02*
X126260000Y-152260000D01*
X117260000Y-141760000D02*
X117260000Y-152260000D01*
D10*
%TO.C,G\u002A\u002A\u002A*%
G36*
X121376194Y-46879101D02*
G01*
X121397907Y-46908571D01*
X121375562Y-46961441D01*
X121371205Y-46967812D01*
X121326444Y-47014957D01*
X121290351Y-47012308D01*
X121259076Y-46959515D01*
X121258325Y-46957556D01*
X121238305Y-46899756D01*
X121244088Y-46875398D01*
X121283947Y-46870028D01*
X121308455Y-46869960D01*
X121376194Y-46879101D01*
G37*
X121376194Y-46879101D02*
X121397907Y-46908571D01*
X121375562Y-46961441D01*
X121371205Y-46967812D01*
X121326444Y-47014957D01*
X121290351Y-47012308D01*
X121259076Y-46959515D01*
X121258325Y-46957556D01*
X121238305Y-46899756D01*
X121244088Y-46875398D01*
X121283947Y-46870028D01*
X121308455Y-46869960D01*
X121376194Y-46879101D01*
G36*
X121154462Y-46870159D02*
G01*
X121154063Y-46924319D01*
X121152371Y-46940773D01*
X121141813Y-46992301D01*
X121117414Y-47003950D01*
X121086817Y-46995050D01*
X121040551Y-46958964D01*
X121031861Y-46911655D01*
X121060902Y-46871683D01*
X121085704Y-46861194D01*
X121134787Y-46852831D01*
X121154462Y-46870159D01*
G37*
X121154462Y-46870159D02*
X121154063Y-46924319D01*
X121152371Y-46940773D01*
X121141813Y-46992301D01*
X121117414Y-47003950D01*
X121086817Y-46995050D01*
X121040551Y-46958964D01*
X121031861Y-46911655D01*
X121060902Y-46871683D01*
X121085704Y-46861194D01*
X121134787Y-46852831D01*
X121154462Y-46870159D01*
G36*
X120739677Y-47014526D02*
G01*
X120794428Y-47059667D01*
X120862578Y-47123851D01*
X120876406Y-47137711D01*
X120945413Y-47209092D01*
X120982932Y-47254727D01*
X120994032Y-47284435D01*
X120983784Y-47308036D01*
X120971314Y-47321543D01*
X120943799Y-47343828D01*
X120916930Y-47343306D01*
X120878013Y-47315122D01*
X120826218Y-47266018D01*
X120767598Y-47210344D01*
X120731666Y-47185972D01*
X120704681Y-47188505D01*
X120672902Y-47213548D01*
X120670098Y-47216071D01*
X120647247Y-47239486D01*
X120632588Y-47267167D01*
X120625099Y-47308972D01*
X120623757Y-47374757D01*
X120627540Y-47474377D01*
X120632957Y-47574236D01*
X120639672Y-47705674D01*
X120641797Y-47794957D01*
X120638675Y-47850782D01*
X120629646Y-47881846D01*
X120614052Y-47896846D01*
X120608331Y-47899386D01*
X120566547Y-47911542D01*
X120540677Y-47902567D01*
X120525217Y-47863671D01*
X120514666Y-47786064D01*
X120510694Y-47743403D01*
X120501507Y-47634456D01*
X120490856Y-47499854D01*
X120480726Y-47364830D01*
X120478607Y-47335371D01*
X120461815Y-47099478D01*
X120524907Y-47099478D01*
X120590069Y-47081033D01*
X120634157Y-47048474D01*
X120678488Y-47010278D01*
X120709111Y-46997470D01*
X120739677Y-47014526D01*
G37*
X120739677Y-47014526D02*
X120794428Y-47059667D01*
X120862578Y-47123851D01*
X120876406Y-47137711D01*
X120945413Y-47209092D01*
X120982932Y-47254727D01*
X120994032Y-47284435D01*
X120983784Y-47308036D01*
X120971314Y-47321543D01*
X120943799Y-47343828D01*
X120916930Y-47343306D01*
X120878013Y-47315122D01*
X120826218Y-47266018D01*
X120767598Y-47210344D01*
X120731666Y-47185972D01*
X120704681Y-47188505D01*
X120672902Y-47213548D01*
X120670098Y-47216071D01*
X120647247Y-47239486D01*
X120632588Y-47267167D01*
X120625099Y-47308972D01*
X120623757Y-47374757D01*
X120627540Y-47474377D01*
X120632957Y-47574236D01*
X120639672Y-47705674D01*
X120641797Y-47794957D01*
X120638675Y-47850782D01*
X120629646Y-47881846D01*
X120614052Y-47896846D01*
X120608331Y-47899386D01*
X120566547Y-47911542D01*
X120540677Y-47902567D01*
X120525217Y-47863671D01*
X120514666Y-47786064D01*
X120510694Y-47743403D01*
X120501507Y-47634456D01*
X120490856Y-47499854D01*
X120480726Y-47364830D01*
X120478607Y-47335371D01*
X120461815Y-47099478D01*
X120524907Y-47099478D01*
X120590069Y-47081033D01*
X120634157Y-47048474D01*
X120678488Y-47010278D01*
X120709111Y-46997470D01*
X120739677Y-47014526D01*
G36*
X120252826Y-47061991D02*
G01*
X120348975Y-47115731D01*
X120404861Y-47155327D01*
X120426635Y-47187778D01*
X120420448Y-47220084D01*
X120408359Y-47238964D01*
X120386046Y-47263554D01*
X120359708Y-47267726D01*
X120315536Y-47249252D01*
X120253448Y-47213956D01*
X120132205Y-47142903D01*
X119826374Y-47448734D01*
X120013372Y-47604207D01*
X120100413Y-47675755D01*
X120157817Y-47718713D01*
X120194926Y-47737386D01*
X120221084Y-47736077D01*
X120245632Y-47719090D01*
X120251500Y-47713894D01*
X120312793Y-47664654D01*
X120354037Y-47650819D01*
X120388830Y-47669460D01*
X120400763Y-47681741D01*
X120420437Y-47709167D01*
X120417403Y-47734550D01*
X120385414Y-47768498D01*
X120318511Y-47821401D01*
X120251999Y-47870821D01*
X120203364Y-47904522D01*
X120185093Y-47914512D01*
X120163074Y-47898532D01*
X120109861Y-47855526D01*
X120032972Y-47791681D01*
X119939919Y-47713184D01*
X119920101Y-47696331D01*
X119824723Y-47614208D01*
X119744550Y-47543456D01*
X119687059Y-47490802D01*
X119659731Y-47462975D01*
X119658572Y-47461067D01*
X119673151Y-47437283D01*
X119717654Y-47385312D01*
X119785428Y-47312512D01*
X119869817Y-47226243D01*
X119881478Y-47214604D01*
X120110893Y-46986252D01*
X120252826Y-47061991D01*
G37*
X120252826Y-47061991D02*
X120348975Y-47115731D01*
X120404861Y-47155327D01*
X120426635Y-47187778D01*
X120420448Y-47220084D01*
X120408359Y-47238964D01*
X120386046Y-47263554D01*
X120359708Y-47267726D01*
X120315536Y-47249252D01*
X120253448Y-47213956D01*
X120132205Y-47142903D01*
X119826374Y-47448734D01*
X120013372Y-47604207D01*
X120100413Y-47675755D01*
X120157817Y-47718713D01*
X120194926Y-47737386D01*
X120221084Y-47736077D01*
X120245632Y-47719090D01*
X120251500Y-47713894D01*
X120312793Y-47664654D01*
X120354037Y-47650819D01*
X120388830Y-47669460D01*
X120400763Y-47681741D01*
X120420437Y-47709167D01*
X120417403Y-47734550D01*
X120385414Y-47768498D01*
X120318511Y-47821401D01*
X120251999Y-47870821D01*
X120203364Y-47904522D01*
X120185093Y-47914512D01*
X120163074Y-47898532D01*
X120109861Y-47855526D01*
X120032972Y-47791681D01*
X119939919Y-47713184D01*
X119920101Y-47696331D01*
X119824723Y-47614208D01*
X119744550Y-47543456D01*
X119687059Y-47490802D01*
X119659731Y-47462975D01*
X119658572Y-47461067D01*
X119673151Y-47437283D01*
X119717654Y-47385312D01*
X119785428Y-47312512D01*
X119869817Y-47226243D01*
X119881478Y-47214604D01*
X120110893Y-46986252D01*
X120252826Y-47061991D01*
G36*
X122139997Y-47128875D02*
G01*
X122229044Y-47183565D01*
X122278869Y-47223511D01*
X122295885Y-47256753D01*
X122286502Y-47291327D01*
X122279287Y-47303494D01*
X122259047Y-47322249D01*
X122226463Y-47319746D01*
X122169108Y-47293399D01*
X122131208Y-47272685D01*
X122007553Y-47203624D01*
X121857432Y-47355327D01*
X121781684Y-47437342D01*
X121738290Y-47496739D01*
X121730618Y-47528834D01*
X121731779Y-47530208D01*
X121762038Y-47556991D01*
X121819852Y-47606778D01*
X121893763Y-47669716D01*
X121908504Y-47682198D01*
X122060762Y-47811011D01*
X122146076Y-47745939D01*
X122200938Y-47706486D01*
X122232128Y-47696503D01*
X122255810Y-47713606D01*
X122267238Y-47728074D01*
X122283928Y-47758374D01*
X122277214Y-47787933D01*
X122240983Y-47828847D01*
X122195429Y-47870152D01*
X122132073Y-47922152D01*
X122082090Y-47956323D01*
X122062269Y-47964347D01*
X122034398Y-47948378D01*
X121975988Y-47905118D01*
X121894987Y-47840749D01*
X121799342Y-47761452D01*
X121776359Y-47741966D01*
X121515951Y-47520261D01*
X121992105Y-47042459D01*
X122139997Y-47128875D01*
G37*
X122139997Y-47128875D02*
X122229044Y-47183565D01*
X122278869Y-47223511D01*
X122295885Y-47256753D01*
X122286502Y-47291327D01*
X122279287Y-47303494D01*
X122259047Y-47322249D01*
X122226463Y-47319746D01*
X122169108Y-47293399D01*
X122131208Y-47272685D01*
X122007553Y-47203624D01*
X121857432Y-47355327D01*
X121781684Y-47437342D01*
X121738290Y-47496739D01*
X121730618Y-47528834D01*
X121731779Y-47530208D01*
X121762038Y-47556991D01*
X121819852Y-47606778D01*
X121893763Y-47669716D01*
X121908504Y-47682198D01*
X122060762Y-47811011D01*
X122146076Y-47745939D01*
X122200938Y-47706486D01*
X122232128Y-47696503D01*
X122255810Y-47713606D01*
X122267238Y-47728074D01*
X122283928Y-47758374D01*
X122277214Y-47787933D01*
X122240983Y-47828847D01*
X122195429Y-47870152D01*
X122132073Y-47922152D01*
X122082090Y-47956323D01*
X122062269Y-47964347D01*
X122034398Y-47948378D01*
X121975988Y-47905118D01*
X121894987Y-47840749D01*
X121799342Y-47761452D01*
X121776359Y-47741966D01*
X121515951Y-47520261D01*
X121992105Y-47042459D01*
X122139997Y-47128875D01*
G36*
X121493671Y-47418253D02*
G01*
X121499441Y-47549851D01*
X121502874Y-47664327D01*
X121503783Y-47751462D01*
X121501978Y-47801040D01*
X121500847Y-47807158D01*
X121472039Y-47833614D01*
X121427883Y-47837199D01*
X121392905Y-47819280D01*
X121386466Y-47800783D01*
X121377580Y-47765158D01*
X121355628Y-47771856D01*
X121327663Y-47816333D01*
X121315304Y-47846610D01*
X121283760Y-47919584D01*
X121250117Y-47978256D01*
X121249658Y-47978888D01*
X121222056Y-48012259D01*
X121207932Y-48003618D01*
X121199148Y-47977689D01*
X121186890Y-47931763D01*
X121166830Y-47849849D01*
X121141310Y-47742193D01*
X121112672Y-47619042D01*
X121083258Y-47490644D01*
X121055407Y-47367246D01*
X121031464Y-47259095D01*
X121013768Y-47176438D01*
X121004661Y-47129522D01*
X121003936Y-47123395D01*
X121025704Y-47105194D01*
X121065598Y-47099478D01*
X121094559Y-47103123D01*
X121116383Y-47120092D01*
X121135358Y-47159435D01*
X121155771Y-47230201D01*
X121181912Y-47341440D01*
X121183422Y-47348122D01*
X121208526Y-47455757D01*
X121230784Y-47544869D01*
X121247146Y-47603567D01*
X121253071Y-47619607D01*
X121272041Y-47614659D01*
X121302982Y-47574479D01*
X121313789Y-47555852D01*
X121339762Y-47493372D01*
X121353146Y-47416616D01*
X121356152Y-47310079D01*
X121355229Y-47265241D01*
X121352987Y-47164086D01*
X121355303Y-47103508D01*
X121365103Y-47073106D01*
X121385308Y-47062478D01*
X121412579Y-47061225D01*
X121475723Y-47061225D01*
X121493671Y-47418253D01*
G37*
X121493671Y-47418253D02*
X121499441Y-47549851D01*
X121502874Y-47664327D01*
X121503783Y-47751462D01*
X121501978Y-47801040D01*
X121500847Y-47807158D01*
X121472039Y-47833614D01*
X121427883Y-47837199D01*
X121392905Y-47819280D01*
X121386466Y-47800783D01*
X121377580Y-47765158D01*
X121355628Y-47771856D01*
X121327663Y-47816333D01*
X121315304Y-47846610D01*
X121283760Y-47919584D01*
X121250117Y-47978256D01*
X121249658Y-47978888D01*
X121222056Y-48012259D01*
X121207932Y-48003618D01*
X121199148Y-47977689D01*
X121186890Y-47931763D01*
X121166830Y-47849849D01*
X121141310Y-47742193D01*
X121112672Y-47619042D01*
X121083258Y-47490644D01*
X121055407Y-47367246D01*
X121031464Y-47259095D01*
X121013768Y-47176438D01*
X121004661Y-47129522D01*
X121003936Y-47123395D01*
X121025704Y-47105194D01*
X121065598Y-47099478D01*
X121094559Y-47103123D01*
X121116383Y-47120092D01*
X121135358Y-47159435D01*
X121155771Y-47230201D01*
X121181912Y-47341440D01*
X121183422Y-47348122D01*
X121208526Y-47455757D01*
X121230784Y-47544869D01*
X121247146Y-47603567D01*
X121253071Y-47619607D01*
X121272041Y-47614659D01*
X121302982Y-47574479D01*
X121313789Y-47555852D01*
X121339762Y-47493372D01*
X121353146Y-47416616D01*
X121356152Y-47310079D01*
X121355229Y-47265241D01*
X121352987Y-47164086D01*
X121355303Y-47103508D01*
X121365103Y-47073106D01*
X121385308Y-47062478D01*
X121412579Y-47061225D01*
X121475723Y-47061225D01*
X121493671Y-47418253D01*
G36*
X122416726Y-46695165D02*
G01*
X122497755Y-46706151D01*
X122605834Y-46722528D01*
X122730994Y-46742608D01*
X122863266Y-46764702D01*
X122992682Y-46787121D01*
X123109274Y-46808178D01*
X123203074Y-46826183D01*
X123264114Y-46839448D01*
X123282523Y-46845375D01*
X123295578Y-46882367D01*
X123283039Y-46926232D01*
X123254713Y-46954749D01*
X123234056Y-46955187D01*
X123206273Y-46949484D01*
X123201979Y-46965210D01*
X123223469Y-47006993D01*
X123273038Y-47079464D01*
X123341772Y-47172380D01*
X123486435Y-47364582D01*
X123710159Y-47123646D01*
X123802239Y-47025314D01*
X123866698Y-46959881D01*
X123910162Y-46922451D01*
X123939258Y-46908126D01*
X123960613Y-46912011D01*
X123977632Y-46925978D01*
X123993544Y-46945927D01*
X123996089Y-46968717D01*
X123980879Y-47001465D01*
X123943528Y-47051287D01*
X123879648Y-47125301D01*
X123800509Y-47213329D01*
X123717742Y-47306189D01*
X123649154Y-47385796D01*
X123601200Y-47444459D01*
X123580339Y-47474488D01*
X123579945Y-47476086D01*
X123594400Y-47502557D01*
X123633672Y-47561479D01*
X123691993Y-47644488D01*
X123763593Y-47743223D01*
X123773689Y-47756930D01*
X123854770Y-47868846D01*
X123907714Y-47947906D01*
X123936283Y-48001053D01*
X123944238Y-48035230D01*
X123936023Y-48056579D01*
X123900953Y-48088118D01*
X123885648Y-48094056D01*
X123863838Y-48074771D01*
X123818528Y-48022212D01*
X123756260Y-47944323D01*
X123683577Y-47849046D01*
X123680864Y-47845411D01*
X123608616Y-47748689D01*
X123547902Y-47667617D01*
X123504970Y-47610527D01*
X123486068Y-47585746D01*
X123485933Y-47585583D01*
X123465881Y-47598439D01*
X123418555Y-47641803D01*
X123351252Y-47708685D01*
X123279432Y-47783418D01*
X123193418Y-47873623D01*
X123134331Y-47931380D01*
X123094667Y-47961865D01*
X123066922Y-47970257D01*
X123043589Y-47961732D01*
X123032531Y-47953758D01*
X123007681Y-47930979D01*
X123003710Y-47907776D01*
X123025050Y-47873095D01*
X123076133Y-47815886D01*
X123096508Y-47794177D01*
X123176377Y-47709028D01*
X123259883Y-47619563D01*
X123306314Y-47569574D01*
X123402326Y-47465876D01*
X123234553Y-47243450D01*
X123146600Y-47120445D01*
X123095126Y-47032990D01*
X123080096Y-46981024D01*
X123081083Y-46975959D01*
X123081914Y-46955141D01*
X123063945Y-46938541D01*
X123019182Y-46923435D01*
X122939626Y-46907102D01*
X122821096Y-46887422D01*
X122706456Y-46869697D01*
X122609338Y-46855507D01*
X122541515Y-46846523D01*
X122516414Y-46844203D01*
X122500500Y-46861262D01*
X122494513Y-46916032D01*
X122497893Y-47014429D01*
X122498895Y-47029347D01*
X122508156Y-47156558D01*
X122517981Y-47241471D01*
X122533024Y-47292629D01*
X122557933Y-47318574D01*
X122597362Y-47327850D01*
X122655962Y-47328999D01*
X122662052Y-47328996D01*
X122737547Y-47331081D01*
X122775142Y-47341710D01*
X122787904Y-47367439D01*
X122789076Y-47392751D01*
X122784942Y-47430589D01*
X122763844Y-47449465D01*
X122712739Y-47455902D01*
X122661566Y-47456506D01*
X122588817Y-47460068D01*
X122542650Y-47469175D01*
X122534056Y-47476301D01*
X122537043Y-47509202D01*
X122544996Y-47579512D01*
X122556402Y-47674049D01*
X122560696Y-47708552D01*
X122572827Y-47813853D01*
X122576374Y-47880464D01*
X122570425Y-47920116D01*
X122554068Y-47944542D01*
X122541569Y-47954810D01*
X122497933Y-47973994D01*
X122476073Y-47969326D01*
X122466022Y-47938674D01*
X122452747Y-47871165D01*
X122438248Y-47780679D01*
X122424527Y-47681095D01*
X122413583Y-47586291D01*
X122407418Y-47510147D01*
X122406740Y-47488383D01*
X122385274Y-47462506D01*
X122355542Y-47456506D01*
X122318056Y-47444328D01*
X122305004Y-47399184D01*
X122304538Y-47380800D01*
X122310373Y-47328806D01*
X122332480Y-47317134D01*
X122346481Y-47321189D01*
X122363569Y-47323697D01*
X122374351Y-47310446D01*
X122379415Y-47273802D01*
X122379346Y-47206128D01*
X122374729Y-47099789D01*
X122370027Y-47014365D01*
X122364664Y-46892884D01*
X122363187Y-46792246D01*
X122365518Y-46722016D01*
X122371576Y-46691760D01*
X122372713Y-46691260D01*
X122416726Y-46695165D01*
G37*
X122416726Y-46695165D02*
X122497755Y-46706151D01*
X122605834Y-46722528D01*
X122730994Y-46742608D01*
X122863266Y-46764702D01*
X122992682Y-46787121D01*
X123109274Y-46808178D01*
X123203074Y-46826183D01*
X123264114Y-46839448D01*
X123282523Y-46845375D01*
X123295578Y-46882367D01*
X123283039Y-46926232D01*
X123254713Y-46954749D01*
X123234056Y-46955187D01*
X123206273Y-46949484D01*
X123201979Y-46965210D01*
X123223469Y-47006993D01*
X123273038Y-47079464D01*
X123341772Y-47172380D01*
X123486435Y-47364582D01*
X123710159Y-47123646D01*
X123802239Y-47025314D01*
X123866698Y-46959881D01*
X123910162Y-46922451D01*
X123939258Y-46908126D01*
X123960613Y-46912011D01*
X123977632Y-46925978D01*
X123993544Y-46945927D01*
X123996089Y-46968717D01*
X123980879Y-47001465D01*
X123943528Y-47051287D01*
X123879648Y-47125301D01*
X123800509Y-47213329D01*
X123717742Y-47306189D01*
X123649154Y-47385796D01*
X123601200Y-47444459D01*
X123580339Y-47474488D01*
X123579945Y-47476086D01*
X123594400Y-47502557D01*
X123633672Y-47561479D01*
X123691993Y-47644488D01*
X123763593Y-47743223D01*
X123773689Y-47756930D01*
X123854770Y-47868846D01*
X123907714Y-47947906D01*
X123936283Y-48001053D01*
X123944238Y-48035230D01*
X123936023Y-48056579D01*
X123900953Y-48088118D01*
X123885648Y-48094056D01*
X123863838Y-48074771D01*
X123818528Y-48022212D01*
X123756260Y-47944323D01*
X123683577Y-47849046D01*
X123680864Y-47845411D01*
X123608616Y-47748689D01*
X123547902Y-47667617D01*
X123504970Y-47610527D01*
X123486068Y-47585746D01*
X123485933Y-47585583D01*
X123465881Y-47598439D01*
X123418555Y-47641803D01*
X123351252Y-47708685D01*
X123279432Y-47783418D01*
X123193418Y-47873623D01*
X123134331Y-47931380D01*
X123094667Y-47961865D01*
X123066922Y-47970257D01*
X123043589Y-47961732D01*
X123032531Y-47953758D01*
X123007681Y-47930979D01*
X123003710Y-47907776D01*
X123025050Y-47873095D01*
X123076133Y-47815886D01*
X123096508Y-47794177D01*
X123176377Y-47709028D01*
X123259883Y-47619563D01*
X123306314Y-47569574D01*
X123402326Y-47465876D01*
X123234553Y-47243450D01*
X123146600Y-47120445D01*
X123095126Y-47032990D01*
X123080096Y-46981024D01*
X123081083Y-46975959D01*
X123081914Y-46955141D01*
X123063945Y-46938541D01*
X123019182Y-46923435D01*
X122939626Y-46907102D01*
X122821096Y-46887422D01*
X122706456Y-46869697D01*
X122609338Y-46855507D01*
X122541515Y-46846523D01*
X122516414Y-46844203D01*
X122500500Y-46861262D01*
X122494513Y-46916032D01*
X122497893Y-47014429D01*
X122498895Y-47029347D01*
X122508156Y-47156558D01*
X122517981Y-47241471D01*
X122533024Y-47292629D01*
X122557933Y-47318574D01*
X122597362Y-47327850D01*
X122655962Y-47328999D01*
X122662052Y-47328996D01*
X122737547Y-47331081D01*
X122775142Y-47341710D01*
X122787904Y-47367439D01*
X122789076Y-47392751D01*
X122784942Y-47430589D01*
X122763844Y-47449465D01*
X122712739Y-47455902D01*
X122661566Y-47456506D01*
X122588817Y-47460068D01*
X122542650Y-47469175D01*
X122534056Y-47476301D01*
X122537043Y-47509202D01*
X122544996Y-47579512D01*
X122556402Y-47674049D01*
X122560696Y-47708552D01*
X122572827Y-47813853D01*
X122576374Y-47880464D01*
X122570425Y-47920116D01*
X122554068Y-47944542D01*
X122541569Y-47954810D01*
X122497933Y-47973994D01*
X122476073Y-47969326D01*
X122466022Y-47938674D01*
X122452747Y-47871165D01*
X122438248Y-47780679D01*
X122424527Y-47681095D01*
X122413583Y-47586291D01*
X122407418Y-47510147D01*
X122406740Y-47488383D01*
X122385274Y-47462506D01*
X122355542Y-47456506D01*
X122318056Y-47444328D01*
X122305004Y-47399184D01*
X122304538Y-47380800D01*
X122310373Y-47328806D01*
X122332480Y-47317134D01*
X122346481Y-47321189D01*
X122363569Y-47323697D01*
X122374351Y-47310446D01*
X122379415Y-47273802D01*
X122379346Y-47206128D01*
X122374729Y-47099789D01*
X122370027Y-47014365D01*
X122364664Y-46892884D01*
X122363187Y-46792246D01*
X122365518Y-46722016D01*
X122371576Y-46691760D01*
X122372713Y-46691260D01*
X122416726Y-46695165D01*
%TO.C,*%
D12*
%TD*%
M02*
