%TF.GenerationSoftware,KiCad,Pcbnew,(5.1.7)-1*%
%TF.CreationDate,2021-11-09T13:07:33-06:00*%
%TF.ProjectId,IFM Fourses Expander,49464d20-466f-4757-9273-657320457870,rev?*%
%TF.SameCoordinates,Original*%
%TF.FileFunction,Paste,Bot*%
%TF.FilePolarity,Positive*%
%FSLAX46Y46*%
G04 Gerber Fmt 4.6, Leading zero omitted, Abs format (unit mm)*
G04 Created by KiCad (PCBNEW (5.1.7)-1) date 2021-11-09 13:07:33*
%MOMM*%
%LPD*%
G01*
G04 APERTURE LIST*
G04 APERTURE END LIST*
%TO.C,R79*%
G36*
G01*
X118299999Y-136330000D02*
X119200001Y-136330000D01*
G75*
G02*
X119450000Y-136579999I0J-249999D01*
G01*
X119450000Y-137230001D01*
G75*
G02*
X119200001Y-137480000I-249999J0D01*
G01*
X118299999Y-137480000D01*
G75*
G02*
X118050000Y-137230001I0J249999D01*
G01*
X118050000Y-136579999D01*
G75*
G02*
X118299999Y-136330000I249999J0D01*
G01*
G37*
G36*
G01*
X118299999Y-134280000D02*
X119200001Y-134280000D01*
G75*
G02*
X119450000Y-134529999I0J-249999D01*
G01*
X119450000Y-135180001D01*
G75*
G02*
X119200001Y-135430000I-249999J0D01*
G01*
X118299999Y-135430000D01*
G75*
G02*
X118050000Y-135180001I0J249999D01*
G01*
X118050000Y-134529999D01*
G75*
G02*
X118299999Y-134280000I249999J0D01*
G01*
G37*
%TD*%
%TO.C,R79*%
G36*
G01*
X124309999Y-141860000D02*
X125210001Y-141860000D01*
G75*
G02*
X125460000Y-142109999I0J-249999D01*
G01*
X125460000Y-142760001D01*
G75*
G02*
X125210001Y-143010000I-249999J0D01*
G01*
X124309999Y-143010000D01*
G75*
G02*
X124060000Y-142760001I0J249999D01*
G01*
X124060000Y-142109999D01*
G75*
G02*
X124309999Y-141860000I249999J0D01*
G01*
G37*
G36*
G01*
X124309999Y-143910000D02*
X125210001Y-143910000D01*
G75*
G02*
X125460000Y-144159999I0J-249999D01*
G01*
X125460000Y-144810001D01*
G75*
G02*
X125210001Y-145060000I-249999J0D01*
G01*
X124309999Y-145060000D01*
G75*
G02*
X124060000Y-144810001I0J249999D01*
G01*
X124060000Y-144159999D01*
G75*
G02*
X124309999Y-143910000I249999J0D01*
G01*
G37*
%TD*%
%TO.C,R79*%
G36*
G01*
X124309999Y-117990000D02*
X125210001Y-117990000D01*
G75*
G02*
X125460000Y-118239999I0J-249999D01*
G01*
X125460000Y-118890001D01*
G75*
G02*
X125210001Y-119140000I-249999J0D01*
G01*
X124309999Y-119140000D01*
G75*
G02*
X124060000Y-118890001I0J249999D01*
G01*
X124060000Y-118239999D01*
G75*
G02*
X124309999Y-117990000I249999J0D01*
G01*
G37*
G36*
G01*
X124309999Y-115940000D02*
X125210001Y-115940000D01*
G75*
G02*
X125460000Y-116189999I0J-249999D01*
G01*
X125460000Y-116840001D01*
G75*
G02*
X125210001Y-117090000I-249999J0D01*
G01*
X124309999Y-117090000D01*
G75*
G02*
X124060000Y-116840001I0J249999D01*
G01*
X124060000Y-116189999D01*
G75*
G02*
X124309999Y-115940000I249999J0D01*
G01*
G37*
%TD*%
%TO.C,R79*%
G36*
G01*
X118299999Y-108360000D02*
X119200001Y-108360000D01*
G75*
G02*
X119450000Y-108609999I0J-249999D01*
G01*
X119450000Y-109260001D01*
G75*
G02*
X119200001Y-109510000I-249999J0D01*
G01*
X118299999Y-109510000D01*
G75*
G02*
X118050000Y-109260001I0J249999D01*
G01*
X118050000Y-108609999D01*
G75*
G02*
X118299999Y-108360000I249999J0D01*
G01*
G37*
G36*
G01*
X118299999Y-110410000D02*
X119200001Y-110410000D01*
G75*
G02*
X119450000Y-110659999I0J-249999D01*
G01*
X119450000Y-111310001D01*
G75*
G02*
X119200001Y-111560000I-249999J0D01*
G01*
X118299999Y-111560000D01*
G75*
G02*
X118050000Y-111310001I0J249999D01*
G01*
X118050000Y-110659999D01*
G75*
G02*
X118299999Y-110410000I249999J0D01*
G01*
G37*
%TD*%
%TO.C,R79*%
G36*
G01*
X118299999Y-84490000D02*
X119200001Y-84490000D01*
G75*
G02*
X119450000Y-84739999I0J-249999D01*
G01*
X119450000Y-85390001D01*
G75*
G02*
X119200001Y-85640000I-249999J0D01*
G01*
X118299999Y-85640000D01*
G75*
G02*
X118050000Y-85390001I0J249999D01*
G01*
X118050000Y-84739999D01*
G75*
G02*
X118299999Y-84490000I249999J0D01*
G01*
G37*
G36*
G01*
X118299999Y-82440000D02*
X119200001Y-82440000D01*
G75*
G02*
X119450000Y-82689999I0J-249999D01*
G01*
X119450000Y-83340001D01*
G75*
G02*
X119200001Y-83590000I-249999J0D01*
G01*
X118299999Y-83590000D01*
G75*
G02*
X118050000Y-83340001I0J249999D01*
G01*
X118050000Y-82689999D01*
G75*
G02*
X118299999Y-82440000I249999J0D01*
G01*
G37*
%TD*%
%TO.C,R79*%
G36*
G01*
X124309999Y-90020000D02*
X125210001Y-90020000D01*
G75*
G02*
X125460000Y-90269999I0J-249999D01*
G01*
X125460000Y-90920001D01*
G75*
G02*
X125210001Y-91170000I-249999J0D01*
G01*
X124309999Y-91170000D01*
G75*
G02*
X124060000Y-90920001I0J249999D01*
G01*
X124060000Y-90269999D01*
G75*
G02*
X124309999Y-90020000I249999J0D01*
G01*
G37*
G36*
G01*
X124309999Y-92070000D02*
X125210001Y-92070000D01*
G75*
G02*
X125460000Y-92319999I0J-249999D01*
G01*
X125460000Y-92970001D01*
G75*
G02*
X125210001Y-93220000I-249999J0D01*
G01*
X124309999Y-93220000D01*
G75*
G02*
X124060000Y-92970001I0J249999D01*
G01*
X124060000Y-92319999D01*
G75*
G02*
X124309999Y-92070000I249999J0D01*
G01*
G37*
%TD*%
%TO.C,R79*%
G36*
G01*
X124309999Y-66150000D02*
X125210001Y-66150000D01*
G75*
G02*
X125460000Y-66399999I0J-249999D01*
G01*
X125460000Y-67050001D01*
G75*
G02*
X125210001Y-67300000I-249999J0D01*
G01*
X124309999Y-67300000D01*
G75*
G02*
X124060000Y-67050001I0J249999D01*
G01*
X124060000Y-66399999D01*
G75*
G02*
X124309999Y-66150000I249999J0D01*
G01*
G37*
G36*
G01*
X124309999Y-64100000D02*
X125210001Y-64100000D01*
G75*
G02*
X125460000Y-64349999I0J-249999D01*
G01*
X125460000Y-65000001D01*
G75*
G02*
X125210001Y-65250000I-249999J0D01*
G01*
X124309999Y-65250000D01*
G75*
G02*
X124060000Y-65000001I0J249999D01*
G01*
X124060000Y-64349999D01*
G75*
G02*
X124309999Y-64100000I249999J0D01*
G01*
G37*
%TD*%
%TO.C,R79*%
G36*
G01*
X118299999Y-56520000D02*
X119200001Y-56520000D01*
G75*
G02*
X119450000Y-56769999I0J-249999D01*
G01*
X119450000Y-57420001D01*
G75*
G02*
X119200001Y-57670000I-249999J0D01*
G01*
X118299999Y-57670000D01*
G75*
G02*
X118050000Y-57420001I0J249999D01*
G01*
X118050000Y-56769999D01*
G75*
G02*
X118299999Y-56520000I249999J0D01*
G01*
G37*
G36*
G01*
X118299999Y-58570000D02*
X119200001Y-58570000D01*
G75*
G02*
X119450000Y-58819999I0J-249999D01*
G01*
X119450000Y-59470001D01*
G75*
G02*
X119200001Y-59720000I-249999J0D01*
G01*
X118299999Y-59720000D01*
G75*
G02*
X118050000Y-59470001I0J249999D01*
G01*
X118050000Y-58819999D01*
G75*
G02*
X118299999Y-58570000I249999J0D01*
G01*
G37*
%TD*%
M02*
