M48
; DRILL file {KiCad (5.1.7)-1} date 11/09/21 13:07:36
; FORMAT={-:-/ absolute / inch / decimal}
; #@! TF.CreationDate,2021-11-09T13:07:36-06:00
; #@! TF.GenerationSoftware,Kicad,Pcbnew,(5.1.7)-1
; #@! TF.FileFunction,Plated,1,2,PTH
FMAT,2
INCH
T1C0.0394
T2C0.0480
T3C0.0559
T4C0.0563
%
G90
G05
T1
X4.9118Y-4.478
X4.6756Y-5.4984
X4.6756Y-3.4575
X4.9118Y-5.4984
X4.6756Y-2.437
X4.7937Y-6.078
X4.9118Y-3.4575
X4.6756Y-4.478
X4.9118Y-2.437
T2
X4.7937Y-2.437
X4.7937Y-4.4811
X4.7937Y-2.437
X4.7937Y-4.4811
X4.7937Y-3.4591
X4.7937Y-5.5031
X4.7937Y-5.5031
X4.7937Y-3.4591
T3
X4.7937Y-2.5591
X4.7937Y-4.6031
X4.7937Y-5.6252
X4.7937Y-5.3811
X4.7937Y-3.5811
X4.7937Y-2.315
X4.7937Y-4.3591
X4.7937Y-3.337
T4
X4.7937Y-2.8858
X4.7937Y-4.9299
X4.7937Y-3.0102
X4.7937Y-5.952
X4.7937Y-5.0543
X4.7937Y-3.9079
X4.7937Y-1.9882
X4.7937Y-4.0323
T0
M30
